<svg width="501" height="500" viewBox="0 0 501 500" fill="none" xmlns="http://www.w3.org/2000/svg">
<path d="M89.5629 405.53C179.143 457.09 324.373 457.09 413.953 405.53C503.533 353.97 503.523 270.36 413.953 218.79C324.383 167.22 179.143 167.23 89.5629 218.79C-0.0170746 270.35 -0.0170746 354 89.5629 405.53Z" fill="#F0F0F0"/>
<path d="M75.1634 349.73L214.163 429.98C215.559 430.683 217.1 431.05 218.663 431.05C220.226 431.05 221.768 430.683 223.163 429.98L434.063 308.23C436.553 306.79 436.553 304.46 434.063 303.02L295.063 222.77C293.668 222.067 292.126 221.7 290.563 221.7C289 221.7 287.459 222.067 286.063 222.77L75.1634 344.53C72.6734 346 72.6734 348.29 75.1634 349.73Z" fill="#E0E0E0"/>
<path d="M416.473 229.49C400.063 222.92 373.903 222.92 358.053 229.49C342.203 236.06 342.193 246.7 358.053 253.27C373.913 259.84 400.053 259.84 416.473 253.27C432.893 246.7 432.903 236.06 416.473 229.49Z" fill="#E0E0E0"/>
<path d="M86.6534 304.02C105.227 304.02 120.283 296.843 120.283 287.99C120.283 279.137 105.227 271.96 86.6534 271.96C68.0801 271.96 53.0234 279.137 53.0234 287.99C53.0234 296.843 68.0801 304.02 86.6534 304.02Z" fill="#E0E0E0"/>
<path d="M66.1135 258.94C65.6035 252.59 60.7135 241.76 53.4535 234.04C46.1935 226.32 34.6035 222.61 27.4535 225.72C20.7835 228.61 22.2535 237.55 31.0535 242.84C39.8535 248.13 52.9035 254.61 57.4235 264.62L66.1135 276.62V258.94Z" fill="url(#paint0_linear)"/>
<path opacity="0.1" d="M66.1135 258.94C65.6035 252.59 60.7135 241.76 53.4535 234.04C46.1935 226.32 34.6035 222.61 27.4535 225.72C20.7835 228.61 22.2535 237.55 31.0535 242.84C39.8535 248.13 52.9035 254.61 57.4235 264.62L66.1135 276.62V258.94Z" fill="black"/>
<path d="M67.0333 267.26H67.1733C67.2836 267.221 67.3744 267.141 67.4267 267.036C67.479 266.932 67.4885 266.811 67.4534 266.7C60.3134 245.16 40.0634 230.7 31.6634 229.34C31.6062 229.33 31.5476 229.331 31.491 229.344C31.4344 229.356 31.3809 229.38 31.3335 229.414C31.2861 229.447 31.2457 229.49 31.2148 229.539C31.1839 229.588 31.163 229.642 31.1534 229.7C31.136 229.816 31.165 229.935 31.2342 230.03C31.3034 230.126 31.4072 230.19 31.5234 230.21C39.7434 231.56 59.5833 245.76 66.6133 266.98C66.6462 267.064 66.7041 267.136 66.7792 267.186C66.8543 267.236 66.9431 267.262 67.0333 267.26Z" fill="white"/>
<path d="M65.1632 285.16C63.8632 281.67 59.0232 276.16 51.5832 271.83C43.3432 267.08 33.2732 265.4 30.6632 261.39C27.5232 256.58 31.3832 251.48 39.4732 251.83C47.5632 252.18 62.5432 262 66.1132 278.26L65.1632 285.16Z" fill="url(#paint1_linear)"/>
<path d="M65.543 278.55C65.6092 278.547 65.6741 278.53 65.733 278.5C65.7849 278.474 65.8313 278.439 65.8694 278.395C65.9076 278.352 65.9368 278.301 65.9554 278.246C65.974 278.191 65.9815 278.134 65.9777 278.076C65.9739 278.018 65.9587 277.962 65.933 277.91C58.933 264.04 44.263 257.56 36.673 255.91C36.5577 255.886 36.4377 255.908 36.3386 255.972C36.2395 256.035 36.1693 256.135 36.143 256.25C36.1193 256.364 36.1418 256.483 36.2055 256.58C36.2693 256.678 36.369 256.746 36.483 256.77C43.923 258.38 58.323 264.77 65.143 278.31C65.1822 278.382 65.24 278.442 65.3103 278.484C65.3806 278.526 65.461 278.549 65.543 278.55Z" fill="white"/>
<path d="M179.334 280V277.26L283.234 220C283.995 219.61 284.839 219.407 285.694 219.407C286.549 219.407 287.393 219.61 288.154 220L432.234 301.3V304C432.208 304.304 432.102 304.596 431.926 304.846C431.751 305.095 431.512 305.293 431.234 305.42L327.334 365.42L179.334 280Z" fill="url(#paint2_linear)"/>
<path opacity="0.1" d="M432.233 304V301.3L430.473 300.3L327.313 362.69V365.43L431.213 305.43C431.496 305.305 431.74 305.106 431.92 304.855C432.099 304.603 432.208 304.308 432.233 304Z" fill="black"/>
<path d="M179.334 277.25L283.234 217.25C283.995 216.86 284.839 216.657 285.694 216.657C286.549 216.657 287.393 216.86 288.154 217.25L431.214 299.84C432.574 300.62 432.574 301.9 431.214 302.68L327.314 362.68L179.334 277.25Z" fill="url(#paint3_linear)"/>
<path opacity="0.2" d="M327.314 365.43V362.69L179.334 277.25V279.99L327.314 365.43Z" fill="black"/>
<path d="M181.704 281.311L76.7037 336.611L74.5137 340.001V342.741C74.5425 343.446 74.7575 344.131 75.1369 344.727C75.5163 345.322 76.0465 345.806 76.6737 346.131L215.094 426.051C216.203 426.641 217.441 426.951 218.699 426.951C219.956 426.951 221.194 426.641 222.304 426.051L324.994 366.771V364.001L181.704 281.311Z" fill="url(#paint4_linear)"/>
<path opacity="0.1" d="M181.704 281.311L76.7037 336.611L74.5137 340.001V342.741C74.5425 343.446 74.7575 344.131 75.1369 344.727C75.5163 345.322 76.0465 345.806 76.6737 346.131L215.094 426.051C216.203 426.641 217.441 426.951 218.699 426.951C219.956 426.951 221.194 426.641 222.304 426.051L324.994 366.771V364.001L181.704 281.311Z" fill="black"/>
<path d="M218.704 424.21C217.445 424.226 216.202 423.919 215.094 423.32L76.674 343.4C76.029 343.098 75.4836 342.618 75.1016 342.017C74.7195 341.415 74.5166 340.718 74.5166 340.005C74.5166 339.293 74.7195 338.595 75.1016 337.994C75.4836 337.393 76.029 336.913 76.674 336.61L177.084 278.61L324.994 364L222.304 423.32C221.199 423.919 219.96 424.225 218.704 424.21V424.21Z" fill="url(#paint5_linear)"/>
<path d="M177.083 270.61L77.8135 327.92L76.8135 329.35V340C76.8392 340.304 76.9453 340.596 77.1211 340.846C77.2968 341.095 77.5358 341.294 77.8135 341.42L216.233 421.35C216.998 421.735 217.842 421.935 218.698 421.935C219.554 421.935 220.399 421.735 221.163 421.35L320.433 364V353.38L177.083 270.61Z" fill="#EBEBEB"/>
<path d="M320.444 353.38L319.204 354.1L303.044 363.42L300.044 365.17L221.174 410.69C220.41 411.08 219.566 411.283 218.709 411.283C217.852 411.283 217.007 411.08 216.244 410.69L77.8035 330.77C76.4535 329.98 76.4535 328.71 77.8035 327.92L79.1235 327.16L177.124 270.61L319.254 352.67L319.554 352.85L320.444 353.38Z" fill="#F0F0F0"/>
<path d="M218.704 411.29V421.94C217.846 421.961 216.998 421.758 216.244 421.35L77.8037 341.42C77.526 341.293 77.2871 341.095 77.1113 340.845C76.9356 340.596 76.8294 340.304 76.8037 340V329.34C76.8307 329.645 76.9373 329.937 77.1128 330.188C77.2882 330.439 77.5265 330.64 77.8037 330.77L216.244 410.69C216.997 411.101 217.845 411.307 218.704 411.29V411.29Z" fill="#E0E0E0"/>
<path d="M320.443 352L302.574 362.31L299.773 363.93L221.173 409.31C220.41 409.7 219.565 409.903 218.708 409.903C217.851 409.903 217.007 409.7 216.243 409.31L92.2435 337.74C91.1335 337.13 90.0935 336.52 89.1235 335.94C84.1235 332.87 81.0435 330.12 79.1235 327.2L78.8835 326.83C78.7348 326.606 78.6327 326.355 78.5835 326.09C78.4972 325.532 78.6285 324.961 78.9503 324.496C79.2721 324.031 79.76 323.707 80.3135 323.59C83.5608 322.642 86.6932 321.338 89.6535 319.7L89.7835 319.63L177.083 269.23L320.443 352Z" fill="#FAFAFA"/>
<path opacity="0.1" d="M301.904 350.71C300.634 351.45 300.634 352.64 301.904 353.38C302.614 353.748 303.403 353.94 304.204 353.94C305.004 353.94 305.793 353.748 306.504 353.38C307.784 352.64 307.784 351.45 306.504 350.71C305.793 350.342 305.004 350.149 304.204 350.149C303.403 350.149 302.614 350.342 301.904 350.71V350.71Z" fill="black"/>
<path d="M316.734 342.081C314.984 341.081 312.784 341.231 310.544 342.511C307.064 344.511 304.064 349.011 302.754 353.711C303.3 353.882 303.873 353.953 304.444 353.921C305.654 349.731 308.324 345.781 311.394 343.991C312.244 343.466 313.216 343.17 314.214 343.131C314.796 343.122 315.369 343.271 315.874 343.561C317.354 344.411 318.214 346.501 318.214 349.261C318.217 349.719 318.19 350.176 318.134 350.631L319.754 351.561C319.864 350.799 319.921 350.03 319.924 349.261C319.904 345.871 318.754 343.251 316.734 342.081Z" fill="#263238"/>
<path d="M319.594 352.45C319.594 352.58 319.544 352.71 319.514 352.85L319.214 352.67L319.594 352.45Z" fill="#263238"/>
<path opacity="0.1" d="M288.074 342.7C286.804 343.44 286.804 344.63 288.074 345.37C288.784 345.738 289.573 345.93 290.374 345.93C291.174 345.93 291.963 345.738 292.674 345.37C293.954 344.63 293.954 343.44 292.674 342.7C291.963 342.332 291.174 342.14 290.374 342.14C289.573 342.14 288.784 342.332 288.074 342.7V342.7Z" fill="black"/>
<path d="M302.904 334.07C301.144 333.07 298.954 333.21 296.704 334.5C293.234 336.5 290.234 341 288.924 345.7C289.47 345.872 290.042 345.943 290.614 345.91C291.824 341.72 294.484 337.77 297.564 335.98C298.414 335.453 299.385 335.153 300.384 335.11C300.967 335.106 301.54 335.258 302.044 335.55C303.524 336.4 304.384 338.48 304.384 341.25C304.382 341.708 304.355 342.165 304.304 342.62L305.914 343.55C306.029 342.789 306.086 342.02 306.084 341.25C306.044 337.86 304.904 335.24 302.904 334.07Z" fill="#263238"/>
<path opacity="0.1" d="M274.194 334.69C273.92 334.79 273.683 334.971 273.515 335.21C273.348 335.449 273.258 335.734 273.258 336.025C273.258 336.317 273.348 336.602 273.515 336.841C273.683 337.079 273.92 337.261 274.194 337.36C274.907 337.721 275.695 337.908 276.494 337.908C277.293 337.908 278.081 337.721 278.794 337.36C280.074 336.62 280.074 335.42 278.794 334.69C278.083 334.322 277.294 334.13 276.494 334.13C275.693 334.13 274.905 334.322 274.194 334.69V334.69Z" fill="black"/>
<path d="M288.984 326.06C287.234 325.06 285.034 325.2 282.794 326.49C279.324 328.49 276.314 332.99 275.004 337.69C275.553 337.861 276.129 337.932 276.704 337.9C277.904 333.71 280.574 329.76 283.644 327.97C284.497 327.442 285.471 327.142 286.474 327.1C287.057 327.097 287.63 327.248 288.134 327.54C289.614 328.39 290.464 330.47 290.464 333.24C290.467 333.698 290.44 334.156 290.384 334.61L292.004 335.54C292.114 334.779 292.171 334.01 292.174 333.24C292.174 329.85 291.014 327.23 288.984 326.06Z" fill="#263238"/>
<path opacity="0.1" d="M260.324 326.681C259.054 327.421 259.054 328.611 260.324 329.351C261.034 329.719 261.823 329.911 262.624 329.911C263.424 329.911 264.213 329.719 264.924 329.351C266.204 328.611 266.204 327.421 264.924 326.681C264.213 326.312 263.424 326.12 262.624 326.12C261.823 326.12 261.034 326.312 260.324 326.681V326.681Z" fill="black"/>
<path d="M275.114 318.05C273.364 317.05 271.164 317.19 268.924 318.48C265.444 320.48 262.444 324.98 261.134 329.68C261.683 329.852 262.259 329.923 262.834 329.89C264.034 325.7 266.704 321.75 269.774 319.96C270.624 319.435 271.595 319.139 272.594 319.1C273.179 319.092 273.755 319.241 274.264 319.53C275.744 320.38 276.594 322.47 276.594 325.23C276.597 325.688 276.57 326.145 276.514 326.6L278.134 327.53C278.244 326.768 278.301 325.999 278.304 325.23C278.304 321.84 277.144 319.22 275.114 318.05Z" fill="#263238"/>
<path opacity="0.1" d="M246.444 318.67C246.17 318.769 245.933 318.951 245.765 319.19C245.598 319.428 245.508 319.713 245.508 320.005C245.508 320.296 245.598 320.581 245.765 320.82C245.933 321.059 246.17 321.24 246.444 321.34C247.157 321.705 247.947 321.895 248.749 321.895C249.55 321.895 250.34 321.705 251.054 321.34C252.324 320.6 252.324 319.41 251.054 318.67C250.34 318.305 249.55 318.114 248.749 318.114C247.947 318.114 247.157 318.305 246.444 318.67V318.67Z" fill="black"/>
<path d="M261.244 310C259.484 309 257.294 309.14 255.044 310.43C251.574 312.43 248.574 316.93 247.264 321.63C247.81 321.802 248.382 321.873 248.954 321.84C250.164 317.65 252.824 313.7 255.904 311.91C256.754 311.384 257.725 311.088 258.724 311.05C259.305 311.042 259.879 311.191 260.384 311.48C261.864 312.33 262.724 314.42 262.724 317.18C262.722 317.638 262.695 318.095 262.644 318.55L264.254 319.48C264.369 318.719 264.426 317.95 264.424 317.18C264.424 313.83 263.264 311.21 261.244 310Z" fill="#263238"/>
<path opacity="0.1" d="M232.574 310.66C231.304 311.4 231.304 312.59 232.574 313.33C233.284 313.698 234.073 313.89 234.874 313.89C235.674 313.89 236.463 313.698 237.174 313.33C238.454 312.59 238.454 311.4 237.174 310.66C236.463 310.292 235.674 310.1 234.874 310.1C234.073 310.1 233.284 310.292 232.574 310.66V310.66Z" fill="black"/>
<path d="M247.364 302C245.614 301 243.364 301.14 241.174 302.43C237.694 304.43 234.694 308.93 233.384 313.63C233.933 313.801 234.509 313.873 235.084 313.84C236.284 309.65 238.954 305.7 242.024 303.91C242.874 303.385 243.845 303.089 244.844 303.05C245.429 303.043 246.005 303.191 246.514 303.48C247.994 304.33 248.844 306.42 248.844 309.18C248.847 309.638 248.82 310.095 248.764 310.55L250.384 311.48C250.494 310.718 250.551 309.95 250.554 309.18C250.554 305.82 249.394 303.2 247.364 302Z" fill="#263238"/>
<path opacity="0.1" d="M218.703 302.65C217.433 303.39 217.433 304.58 218.703 305.32C219.414 305.688 220.203 305.881 221.003 305.881C221.804 305.881 222.593 305.688 223.303 305.32C224.583 304.58 224.583 303.39 223.303 302.65C222.593 302.282 221.804 302.09 221.003 302.09C220.203 302.09 219.414 302.282 218.703 302.65V302.65Z" fill="black"/>
<path d="M233.494 294C231.734 293 229.494 293.14 227.294 294.43C223.824 296.43 220.824 300.93 219.514 305.63C220.06 305.802 220.632 305.873 221.204 305.84C222.414 301.65 225.084 297.7 228.154 295.91C229.004 295.385 229.975 295.089 230.974 295.05C231.556 295.041 232.129 295.19 232.634 295.48C234.114 296.33 234.974 298.42 234.974 301.18C234.977 301.638 234.95 302.095 234.894 302.55L236.504 303.48C236.623 302.719 236.683 301.95 236.684 301.18C236.684 297.81 235.514 295.19 233.494 294Z" fill="#263238"/>
<path opacity="0.1" d="M204.824 294.641C204.55 294.74 204.313 294.921 204.145 295.16C203.978 295.399 203.888 295.684 203.888 295.975C203.888 296.267 203.978 296.552 204.145 296.791C204.313 297.03 204.55 297.211 204.824 297.31C205.535 297.679 206.323 297.871 207.124 297.871C207.924 297.871 208.713 297.679 209.424 297.31C210.704 296.57 210.704 295.381 209.424 294.641C208.713 294.272 207.924 294.08 207.124 294.08C206.323 294.08 205.535 294.272 204.824 294.641V294.641Z" fill="black"/>
<path d="M219.614 286C217.864 285 215.614 285.14 213.424 286.43C209.954 288.43 206.944 292.93 205.634 297.63C206.183 297.801 206.759 297.872 207.334 297.84C208.544 293.65 211.204 289.7 214.274 287.91C215.127 287.384 216.102 287.088 217.104 287.05C217.686 287.042 218.259 287.191 218.764 287.48C220.244 288.33 221.094 290.42 221.094 293.18C221.097 293.638 221.07 294.095 221.014 294.55L222.634 295.48C222.744 294.718 222.801 293.95 222.804 293.18C222.804 289.8 221.644 287.18 219.614 286Z" fill="#263238"/>
<path opacity="0.1" d="M190.953 286.63C189.683 287.37 189.683 288.56 190.953 289.3C191.664 289.668 192.453 289.86 193.253 289.86C194.054 289.86 194.843 289.668 195.553 289.3C196.833 288.56 196.833 287.37 195.553 286.63C194.843 286.262 194.054 286.069 193.253 286.069C192.453 286.069 191.664 286.262 190.953 286.63V286.63Z" fill="black"/>
<path d="M205.744 278C203.994 277 201.744 277.14 199.554 278.43C196.084 280.43 193.074 284.93 191.764 289.63C192.313 289.801 192.889 289.873 193.464 289.84C194.664 285.65 197.334 281.7 200.404 279.91C201.256 279.381 202.231 279.081 203.234 279.04C203.816 279.036 204.389 279.188 204.894 279.48C206.374 280.33 207.224 282.41 207.224 285.18C207.227 285.638 207.2 286.095 207.144 286.55L208.764 287.48C208.874 286.718 208.931 285.95 208.934 285.18C208.904 281.79 207.774 279.17 205.744 278Z" fill="#263238"/>
<path opacity="0.1" d="M177.074 278.62C176.8 278.719 176.563 278.901 176.395 279.14C176.228 279.379 176.138 279.663 176.138 279.955C176.138 280.247 176.228 280.531 176.395 280.77C176.563 281.009 176.8 281.191 177.074 281.29C177.787 281.655 178.577 281.845 179.379 281.845C180.18 281.845 180.97 281.655 181.684 281.29C182.954 280.55 182.954 279.36 181.684 278.62C180.97 278.255 180.18 278.064 179.379 278.064C178.577 278.064 177.787 278.255 177.074 278.62V278.62Z" fill="black"/>
<path d="M191.904 270C190.144 269 187.954 269.14 185.704 270.43C182.234 272.43 179.224 276.93 177.924 281.63C178.47 281.802 179.042 281.873 179.614 281.84C180.824 277.65 183.484 273.7 186.564 271.91C187.414 271.384 188.385 271.088 189.384 271.05C189.966 271.042 190.539 271.191 191.044 271.48C192.524 272.33 193.384 274.42 193.384 277.18C193.382 277.638 193.355 278.095 193.304 278.55L194.914 279.48C195.029 278.719 195.086 277.95 195.084 277.18C195.054 273.78 193.904 271.16 191.904 270Z" fill="#263238"/>
<path d="M281.203 349.33L204.823 393.43" stroke="#EBEBEB" stroke-width="0.57" stroke-miterlimit="10" stroke-linecap="round"/>
<path d="M271.954 343.99L195.584 388.09" stroke="#EBEBEB" stroke-width="0.57" stroke-miterlimit="10" stroke-linecap="round"/>
<path d="M262.704 338.65L186.334 382.75" stroke="#EBEBEB" stroke-width="0.57" stroke-miterlimit="10" stroke-linecap="round"/>
<path d="M253.454 333.311L177.084 377.411" stroke="#EBEBEB" stroke-width="0.57" stroke-miterlimit="10" stroke-linecap="round"/>
<path d="M244.204 327.97L167.834 372.07" stroke="#EBEBEB" stroke-width="0.57" stroke-miterlimit="10" stroke-linecap="round"/>
<path d="M234.954 322.63L158.584 366.73" stroke="#EBEBEB" stroke-width="0.57" stroke-miterlimit="10" stroke-linecap="round"/>
<path d="M225.704 317.29L149.334 361.38" stroke="#EBEBEB" stroke-width="0.57" stroke-miterlimit="10" stroke-linecap="round"/>
<path d="M216.454 311.95L140.084 356.04" stroke="#EBEBEB" stroke-width="0.57" stroke-miterlimit="10" stroke-linecap="round"/>
<path d="M207.204 306.61L130.834 350.7" stroke="#EBEBEB" stroke-width="0.57" stroke-miterlimit="10" stroke-linecap="round"/>
<path d="M197.954 301.271L121.584 345.361" stroke="#EBEBEB" stroke-width="0.57" stroke-miterlimit="10" stroke-linecap="round"/>
<path d="M188.704 295.93L112.334 340.02" stroke="#EBEBEB" stroke-width="0.57" stroke-miterlimit="10" stroke-linecap="round"/>
<path d="M179.454 290.59L103.084 334.68" stroke="#EBEBEB" stroke-width="0.57" stroke-miterlimit="10" stroke-linecap="round"/>
<path d="M170.204 285.25L93.834 329.34" stroke="#EBEBEB" stroke-width="0.57" stroke-miterlimit="10" stroke-linecap="round"/>
<path d="M165.573 282.601L299.703 360.011" stroke="url(#paint6_linear)" stroke-width="0.57" stroke-miterlimit="10" stroke-linecap="round"/>
<path d="M295.004 352.05L214.224 398.77" stroke="url(#paint7_linear)" stroke-width="0.57" stroke-miterlimit="10" stroke-linecap="round"/>
<g opacity="0.25">
<path opacity="0.25" d="M254.594 342.28C253.894 341.21 252.594 340.78 251.474 340.28C251.024 340.08 250.474 339.8 249.964 339.52C249.264 338.39 248.334 336.52 249.564 336.31C250.304 336.17 251.734 336.95 252.564 337.19C253.014 337.32 252.914 336.66 252.564 336.54C251.204 336.01 248.564 334.32 248.044 336.63C247.927 337.356 248.038 338.101 248.364 338.76C247.733 338.489 247.05 338.363 246.364 338.39C245.724 338.45 245.174 338.47 244.954 339.22C244.824 339.63 245.004 339.81 245.034 340.12C245.058 340.283 245.133 340.434 245.248 340.553C245.363 340.671 245.512 340.751 245.674 340.78C245.604 340.78 245.394 340.78 244.954 340.78C243.954 340.78 241.354 340.1 240.744 341.3C240.494 341.79 241.074 342.48 240.984 342.67C240.894 342.86 239.074 343.39 238.744 343.59C238.594 343.68 238.694 344.2 238.614 344.25C237.688 344.306 236.76 344.306 235.834 344.25C234.304 344.37 230.514 343.8 231.014 346.16C231.064 346.41 231.274 346.38 231.324 346.79C231.332 346.984 231.37 347.176 231.434 347.36C231.384 347.36 231.274 347.36 231.074 347.68C230.874 348 230.414 347.81 230.224 348.04C229.504 348.95 230.614 349.27 229.704 349.84C228.434 350.64 225.784 349.02 224.484 349.91C223.334 350.71 224.834 353 222.794 353.04C222.344 353.04 222.604 353.71 222.944 353.74C224.854 353.91 224.644 353.55 225.014 351.99C225.604 349.46 229.384 351.21 231.514 350.62C231.565 350.598 231.61 350.565 231.647 350.522C231.683 350.48 231.71 350.43 231.724 350.376C231.738 350.323 231.74 350.266 231.73 350.211C231.72 350.157 231.697 350.105 231.664 350.06C231.104 349.16 231.754 348.67 232.594 348.28C232.644 348.257 232.69 348.224 232.726 348.182C232.762 348.14 232.789 348.091 232.804 348.037C232.82 347.984 232.823 347.928 232.814 347.873C232.805 347.818 232.785 347.766 232.754 347.72C232.524 347.31 231.754 346.05 232.214 345.45C232.954 345.291 233.707 345.204 234.464 345.19C236.108 345.075 237.757 345.045 239.404 345.1C239.459 345.099 239.514 345.084 239.562 345.058C239.611 345.031 239.653 344.993 239.684 344.947C239.716 344.901 239.735 344.849 239.742 344.793C239.749 344.738 239.743 344.682 239.724 344.63C239.484 344.1 241.624 343.76 242.094 343.63C242.137 343.614 242.177 343.59 242.211 343.559C242.245 343.528 242.273 343.491 242.292 343.449C242.312 343.407 242.323 343.362 242.325 343.316C242.327 343.269 242.32 343.223 242.304 343.18C241.304 340.64 245.044 341.58 246.604 341.82C246.668 341.838 246.736 341.837 246.801 341.818C246.865 341.799 246.923 341.763 246.967 341.713C247.012 341.663 247.042 341.602 247.054 341.536C247.065 341.47 247.058 341.402 247.034 341.34C246.794 340.49 244.904 339.63 247.144 339.34C247.74 339.327 248.329 339.468 248.854 339.75C249.819 341.376 251.16 342.748 252.764 343.75C254.234 344.52 255.734 344 254.594 342.28ZM253.904 342.74C254.374 343.36 252.904 342.85 252.724 342.74C251.884 342.236 251.194 341.519 250.724 340.66C251.174 340.91 251.584 341.13 251.884 341.27C252.682 341.56 253.383 342.069 253.904 342.74V342.74Z" fill="#455A64"/>
<path opacity="0.25" d="M216.393 358.371C216.123 357.261 216.083 356.051 217.113 355.921C217.603 355.861 217.253 355.191 216.883 355.171C215.503 355.171 215.073 356.331 215.253 357.771C214.702 357.517 214.126 357.322 213.533 357.191C212.633 357.021 212.053 357.001 211.763 357.911C211.583 358.461 212.023 358.811 211.983 359.311C211.933 360.031 212.663 359.731 211.573 360.021C211.15 360.016 210.728 359.969 210.313 359.881C209.213 359.881 209.123 359.881 208.453 360.461C207.783 361.041 209.453 361.311 207.453 360.991C206.949 360.818 206.416 360.743 205.883 360.771C205.153 360.941 204.763 361.151 204.883 361.961C204.943 362.331 205.733 362.811 205.723 363.041C205.723 364.801 203.813 363.311 203.103 363.041C203.056 363.02 203.005 363.01 202.953 363.014C202.902 363.017 202.852 363.032 202.808 363.059C202.764 363.085 202.727 363.122 202.7 363.166C202.673 363.21 202.657 363.259 202.653 363.311C202.653 364.181 203.233 364.491 201.963 364.561C201.813 364.561 200.963 364.091 200.663 364.081C199.853 364.081 199.113 365.141 198.053 365.081C197.763 365.081 197.663 365.321 197.753 365.551C198.043 366.341 198.473 366.821 196.873 367.551C196.873 367.551 194.993 367.321 195.033 367.321C194.573 367.321 194.873 368.061 195.223 368.091C195.953 368.141 198.423 369.181 199.153 368.201C199.683 367.471 198.623 366.631 198.893 366.201C198.713 366.501 200.303 365.771 200.473 365.711C200.868 365.537 201.285 365.422 201.713 365.371C201.933 365.371 202.113 365.731 202.353 365.721C202.593 365.711 202.983 365.871 203.263 365.721C203.543 365.571 203.613 365.201 203.723 365.131C204.003 364.941 203.363 364.721 203.913 364.531C204.313 364.391 204.663 364.801 205.033 364.911C205.633 365.101 206.533 365.541 207.033 364.911C207.703 364.081 206.483 363.501 206.593 362.911C206.853 361.661 208.593 362.611 209.453 362.051C209.512 362.009 209.555 361.95 209.577 361.881C209.599 361.812 209.597 361.739 209.573 361.671C209.063 359.941 212.203 361.291 213.183 361.111C213.363 361.111 213.553 360.961 213.523 360.751C213.493 360.541 213.133 359.681 213.133 359.671C213.383 358.671 214.813 358.741 215.463 358.921C216.103 361.021 217.773 363.141 219.593 362.581C219.661 362.559 219.72 362.517 219.761 362.459C219.803 362.401 219.824 362.332 219.823 362.261C219.713 360.781 218.093 359.351 216.393 358.371ZM217.053 360.101C216.993 359.991 216.903 359.811 216.813 359.601C217.322 359.929 217.758 360.358 218.093 360.861C218.443 361.911 217.223 360.391 217.053 360.101Z" fill="#455A64"/>
<path opacity="0.25" d="M244.154 369.64C243.444 368.57 242.154 368.14 241.034 367.64C240.574 367.43 240.034 367.15 239.524 366.87C238.814 365.74 237.884 363.87 239.124 363.67C239.864 363.53 241.294 364.3 242.124 364.54C242.574 364.68 242.464 364.02 242.124 363.9C240.764 363.36 238.124 361.68 237.604 363.99C237.483 364.715 237.591 365.46 237.914 366.12C237.283 365.848 236.6 365.721 235.914 365.75C235.264 365.81 234.724 365.83 234.494 366.58C234.374 366.99 234.554 367.17 234.574 367.48C234.599 367.645 234.675 367.797 234.792 367.916C234.908 368.034 235.059 368.113 235.224 368.14C235.144 368.14 234.944 368.14 234.494 368.08C233.494 368.08 230.904 367.41 230.294 368.61C230.034 369.1 230.614 369.79 230.534 369.97C230.454 370.15 228.614 370.69 228.284 370.89C228.144 370.99 228.284 371.51 228.154 371.55C227.228 371.617 226.299 371.617 225.374 371.55C223.844 371.68 220.064 371.11 220.554 373.46C220.614 373.72 220.814 373.68 220.864 374.1C220.874 374.295 220.914 374.488 220.984 374.67C220.924 374.67 220.814 374.67 220.614 374.99C220.414 375.31 219.964 375.11 219.774 375.35C219.044 376.26 220.154 376.58 219.254 377.14C217.974 377.94 215.324 376.33 214.034 377.22C212.744 378.11 214.374 380.3 212.344 380.34C211.894 380.34 212.154 381.02 212.494 381.05C214.394 381.21 214.194 380.85 214.554 379.3C215.154 376.76 218.934 378.51 221.054 377.92C221.304 377.86 221.324 377.55 221.214 377.37C220.654 376.47 221.304 375.97 222.144 375.58C222.194 375.559 222.24 375.527 222.276 375.486C222.313 375.444 222.339 375.395 222.354 375.342C222.368 375.289 222.37 375.233 222.36 375.179C222.349 375.125 222.327 375.074 222.294 375.03C222.074 374.62 221.294 373.35 221.754 372.76C222.497 372.601 223.254 372.514 224.014 372.5C225.657 372.38 227.306 372.35 228.954 372.41C229.009 372.409 229.063 372.394 229.112 372.368C229.161 372.341 229.203 372.303 229.234 372.257C229.265 372.211 229.285 372.159 229.292 372.104C229.299 372.048 229.293 371.992 229.274 371.94C229.034 371.41 231.164 371.07 231.644 370.94C231.687 370.925 231.727 370.901 231.76 370.869C231.794 370.838 231.821 370.8 231.84 370.758C231.859 370.716 231.869 370.671 231.869 370.625C231.87 370.579 231.861 370.533 231.844 370.49C230.844 367.96 234.584 368.89 236.144 369.14C236.208 369.157 236.276 369.155 236.34 369.136C236.404 369.117 236.462 369.081 236.507 369.032C236.552 368.982 236.583 368.922 236.596 368.856C236.61 368.791 236.605 368.723 236.584 368.66C236.334 367.8 234.454 366.95 236.684 366.66C237.281 366.657 237.871 366.797 238.404 367.07C239.371 368.692 240.707 370.062 242.304 371.07C243.784 371.88 245.294 371.37 244.154 369.64ZM243.464 370.1C243.924 370.73 242.464 370.22 242.274 370.1C241.436 369.59 240.747 368.869 240.274 368.01C240.734 368.26 241.144 368.49 241.444 368.62C242.238 368.923 242.935 369.434 243.464 370.1V370.1Z" fill="#455A64"/>
<path opacity="0.25" d="M267.624 350.24C267.344 349.13 267.314 347.92 268.334 347.79C268.834 347.73 268.484 347.06 268.114 347.04C266.734 347.04 266.294 348.2 266.474 349.65C265.929 349.387 265.355 349.189 264.764 349.06C263.864 348.89 263.284 348.87 262.984 349.78C262.814 350.33 263.254 350.68 263.214 351.18C263.164 351.9 263.884 351.6 262.804 351.89C262.38 351.886 261.958 351.839 261.544 351.75C260.444 351.75 260.344 351.75 259.684 352.33C259.024 352.91 260.684 353.18 258.684 352.86C258.183 352.687 257.653 352.613 257.124 352.64C256.394 352.81 256.004 353.02 256.124 353.83C256.184 354.2 256.964 354.68 256.964 354.91C256.964 356.67 255.054 355.18 254.334 354.91C254.287 354.891 254.236 354.884 254.185 354.888C254.135 354.892 254.086 354.908 254.042 354.934C253.999 354.96 253.962 354.996 253.934 355.038C253.907 355.081 253.89 355.13 253.884 355.18C253.884 356.05 254.464 356.36 253.204 356.43C253.054 356.43 252.204 355.96 251.904 355.95C251.094 355.95 250.344 357.01 249.284 356.95C248.994 356.95 248.904 357.19 248.984 357.42C249.284 358.21 249.714 358.69 248.114 359.42C248.114 359.42 246.234 359.19 246.274 359.19C245.814 359.19 246.104 359.93 246.464 359.96C247.194 360.01 249.654 361.05 250.384 360.07C250.924 359.34 249.864 358.5 250.134 358.07C249.954 358.37 251.534 357.64 251.714 357.58C252.105 357.407 252.52 357.293 252.944 357.24C253.164 357.24 253.354 357.6 253.584 357.59C253.814 357.58 254.224 357.74 254.504 357.59C254.784 357.44 254.854 357.07 254.964 357C255.244 356.81 254.604 356.59 255.154 356.4C255.554 356.26 255.894 356.67 256.274 356.78C256.874 356.97 257.774 357.41 258.274 356.78C258.934 355.95 257.714 355.37 257.834 354.78C258.084 353.53 259.834 354.48 260.694 353.92C260.75 353.876 260.79 353.816 260.81 353.748C260.83 353.68 260.828 353.607 260.804 353.54C260.304 351.81 263.434 353.16 264.424 352.98C264.604 352.98 264.784 352.83 264.764 352.62C264.744 352.41 264.374 351.55 264.374 351.54C264.624 350.54 266.044 350.61 266.704 350.79C267.344 352.89 269.004 355.01 270.824 354.45C270.894 354.432 270.955 354.39 270.997 354.331C271.038 354.273 271.059 354.202 271.054 354.13C270.904 352.65 269.324 351.22 267.624 350.24ZM268.284 351.97C268.193 351.809 268.112 351.642 268.044 351.47C268.553 351.798 268.988 352.227 269.324 352.73C269.674 353.78 268.454 352.26 268.284 352V351.97Z" fill="#455A64"/>
<path opacity="0.25" d="M198.184 311.09C197.474 310.02 196.184 309.6 195.064 309.09C194.604 308.88 194.064 308.6 193.554 308.32C192.844 307.19 191.914 305.32 193.154 305.12C193.884 304.98 195.324 305.76 196.154 305.99C196.594 306.13 196.494 305.47 196.154 305.35C194.794 304.81 192.154 303.13 191.634 305.44C191.507 306.165 191.616 306.912 191.944 307.57C191.313 307.298 190.63 307.172 189.944 307.2C189.294 307.26 188.754 307.28 188.524 308.03C188.404 308.44 188.524 308.62 188.604 308.93C188.629 309.095 188.705 309.247 188.822 309.366C188.939 309.484 189.09 309.563 189.254 309.59C189.011 309.576 188.767 309.576 188.524 309.59C187.524 309.59 184.934 308.91 184.314 310.11C184.064 310.6 184.644 311.29 184.564 311.47C184.484 311.65 182.644 312.19 182.314 312.4C182.164 312.49 182.314 313.01 182.184 313.05C181.258 313.117 180.329 313.117 179.404 313.05C177.874 313.18 174.094 312.61 174.584 314.97C174.644 315.22 174.844 315.18 174.894 315.6C174.904 315.795 174.945 315.988 175.014 316.17C174.954 316.17 174.844 316.17 174.644 316.49C174.444 316.81 173.994 316.61 173.804 316.85C173.074 317.76 174.184 318.08 173.284 318.64C172.004 319.44 169.354 317.83 168.054 318.72C166.754 319.61 168.404 321.8 166.374 321.84C165.924 321.84 166.184 322.52 166.524 322.55C168.424 322.71 168.214 322.35 168.584 320.8C169.184 318.27 172.964 320.01 175.084 319.43C175.136 319.41 175.183 319.377 175.221 319.335C175.259 319.293 175.286 319.243 175.3 319.188C175.315 319.134 175.317 319.077 175.305 319.021C175.293 318.966 175.269 318.915 175.234 318.87C174.684 317.97 175.334 317.47 176.174 317.08C176.225 317.059 176.27 317.027 176.307 316.986C176.343 316.945 176.369 316.895 176.384 316.842C176.398 316.789 176.401 316.733 176.39 316.679C176.38 316.625 176.357 316.574 176.324 316.53C176.104 316.12 175.324 314.85 175.784 314.26C176.527 314.101 177.284 314.014 178.044 314C179.688 313.88 181.337 313.85 182.984 313.91C183.039 313.91 183.094 313.895 183.143 313.869C183.191 313.842 183.233 313.804 183.263 313.758C183.294 313.711 183.313 313.658 183.318 313.603C183.323 313.548 183.315 313.492 183.294 313.44C183.064 312.91 185.194 312.57 185.674 312.44C185.76 312.407 185.829 312.341 185.866 312.257C185.904 312.172 185.906 312.077 185.874 311.99C184.874 309.45 188.614 310.38 190.174 310.63C190.239 310.647 190.306 310.645 190.37 310.626C190.434 310.607 190.492 310.571 190.537 310.522C190.582 310.472 190.613 310.412 190.627 310.347C190.64 310.281 190.636 310.214 190.614 310.15C190.364 309.29 188.474 308.44 190.714 308.15C191.312 308.147 191.902 308.288 192.434 308.56C193.401 310.182 194.737 311.553 196.334 312.56C197.814 313.33 199.324 312.82 198.184 311.09ZM197.494 311.55C197.954 312.18 196.494 311.67 196.304 311.55C195.466 311.04 194.777 310.319 194.304 309.46C194.764 309.71 195.174 309.94 195.474 310.08C196.269 310.376 196.968 310.884 197.494 311.55V311.55Z" fill="#455A64"/>
<path opacity="0.25" d="M159.984 327.18C159.704 326.08 159.674 324.87 160.694 324.74C161.184 324.67 160.834 324 160.474 323.99C159.084 323.99 158.654 325.15 158.834 326.59C158.288 326.332 157.714 326.137 157.124 326.01C156.224 325.84 155.644 325.81 155.344 326.73C155.164 327.27 155.604 327.63 155.574 328.12C155.574 328.85 156.244 328.55 155.154 328.83C154.73 328.829 154.308 328.785 153.894 328.7C153.56 328.621 153.211 328.633 152.884 328.735C152.557 328.837 152.263 329.026 152.034 329.28C151.354 329.85 153.034 330.13 151.034 329.81C150.533 329.634 150.003 329.559 149.474 329.59C148.734 329.76 148.354 329.97 148.474 330.78C148.474 331.14 149.314 331.63 149.304 331.86C149.304 333.62 147.404 332.13 146.684 331.86C146.636 331.843 146.585 331.838 146.534 331.843C146.483 331.849 146.435 331.866 146.392 331.892C146.348 331.919 146.312 331.955 146.285 331.998C146.257 332.041 146.24 332.09 146.234 332.14C146.234 333.01 146.814 333.31 145.554 333.39C145.394 333.39 144.554 332.91 144.254 332.91C143.434 332.91 142.694 333.97 141.634 333.91C141.344 333.91 141.244 334.14 141.334 334.38C141.624 335.17 142.054 335.65 140.464 336.38C140.464 336.38 138.584 336.14 138.624 336.14C138.164 336.14 138.454 336.89 138.814 336.91C139.534 336.97 142.004 338.01 142.734 337.02C143.274 336.3 142.214 335.46 142.474 335.02C142.304 335.33 143.884 334.59 144.054 334.53C144.45 334.361 144.867 334.246 145.294 334.19C145.514 334.19 145.704 334.55 145.934 334.55C146.164 334.55 146.574 334.7 146.854 334.55C147.134 334.4 147.194 334.04 147.304 333.96C147.594 333.78 146.944 333.55 147.494 333.37C148.044 333.19 148.244 333.63 148.624 333.75C149.214 333.94 150.124 334.38 150.624 333.75C151.284 332.92 150.064 332.34 150.174 331.75C150.434 330.5 152.224 331.45 153.034 330.89C153.092 330.849 153.136 330.789 153.158 330.72C153.179 330.652 153.178 330.578 153.154 330.51C152.654 328.78 155.784 330.13 156.774 329.95C156.944 329.95 157.134 329.8 157.114 329.59C157.094 329.38 156.714 328.52 156.724 328.5C156.964 327.5 158.394 327.58 159.054 327.76C159.684 329.86 161.354 331.98 163.174 331.41C163.241 331.392 163.301 331.352 163.343 331.295C163.385 331.239 163.406 331.17 163.404 331.1C163.304 329.6 161.674 328.16 159.984 327.18ZM160.634 328.91C160.548 328.751 160.471 328.588 160.404 328.42C160.912 328.744 161.346 329.174 161.674 329.68C162.034 330.73 160.814 329.21 160.634 328.91V328.91Z" fill="#455A64"/>
<path opacity="0.25" d="M187.733 338.461C187.033 337.391 185.733 336.961 184.613 336.461C184.163 336.251 183.613 335.971 183.103 335.691C182.403 334.561 181.463 332.691 182.703 332.491C183.443 332.351 184.873 333.121 185.703 333.361C186.153 333.491 186.053 332.841 185.703 332.711C184.343 332.181 181.703 330.491 181.183 332.811C181.062 333.537 181.174 334.282 181.503 334.941C180.874 334.665 180.19 334.539 179.503 334.571C178.863 334.631 178.313 334.641 178.093 335.391C177.963 335.811 178.093 335.991 178.173 336.301C178.199 336.463 178.275 336.614 178.389 336.732C178.504 336.85 178.652 336.93 178.813 336.961C178.575 336.923 178.335 336.903 178.093 336.901C177.093 336.901 174.493 336.231 173.883 337.421C173.633 337.921 174.203 338.601 174.123 338.791C174.043 338.981 172.203 339.511 171.883 339.711C171.733 339.801 171.833 340.321 171.753 340.371C170.828 340.432 169.899 340.432 168.973 340.371C167.443 340.501 163.653 339.931 164.153 342.281C164.153 342.541 164.413 342.501 164.453 342.911C164.47 343.108 164.51 343.303 164.573 343.491C164.513 343.491 164.413 343.491 164.213 343.801C164.013 344.111 163.553 343.931 163.363 344.171C162.643 345.081 163.753 345.391 162.843 345.961C161.573 346.761 158.923 345.141 157.623 346.041C156.323 346.941 157.973 349.121 155.933 349.161C155.483 349.161 155.743 349.831 156.083 349.861C157.993 350.031 157.783 349.671 158.143 348.121C158.743 345.581 162.523 347.331 164.653 346.741C164.704 346.72 164.75 346.687 164.786 346.646C164.823 346.605 164.849 346.556 164.864 346.502C164.878 346.449 164.88 346.394 164.87 346.34C164.859 346.285 164.837 346.235 164.803 346.191C164.243 345.291 164.893 344.791 165.733 344.401C165.784 344.379 165.829 344.347 165.865 344.306C165.902 344.265 165.928 344.216 165.944 344.164C165.959 344.111 165.962 344.056 165.954 344.001C165.945 343.947 165.924 343.896 165.893 343.851C165.663 343.431 164.893 342.171 165.353 341.581C166.094 341.423 166.847 341.332 167.603 341.311C169.247 341.194 170.896 341.167 172.543 341.231C172.599 341.229 172.653 341.215 172.702 341.188C172.751 341.161 172.793 341.124 172.824 341.078C172.855 341.032 172.875 340.979 172.882 340.924C172.889 340.869 172.882 340.813 172.863 340.761C172.623 340.231 174.763 339.891 175.233 339.761C175.277 339.745 175.317 339.721 175.351 339.69C175.385 339.659 175.412 339.621 175.432 339.579C175.452 339.538 175.463 339.492 175.465 339.446C175.466 339.4 175.459 339.354 175.443 339.311C174.443 336.781 178.173 337.711 179.743 337.961C179.807 337.975 179.874 337.972 179.936 337.951C179.999 337.931 180.055 337.895 180.098 337.846C180.142 337.797 180.172 337.738 180.185 337.674C180.199 337.609 180.194 337.543 180.173 337.481C179.933 336.621 178.043 335.761 180.283 335.481C180.878 335.478 181.464 335.619 181.993 335.891C182.963 337.513 184.303 338.884 185.903 339.891C187.373 340.701 188.903 340.191 187.733 338.461ZM187.043 338.921C187.513 339.541 186.043 339.041 185.863 338.921C185.021 338.416 184.33 337.694 183.863 336.831C184.313 337.081 184.723 337.301 185.023 337.441C185.821 337.737 186.521 338.249 187.043 338.921V338.921Z" fill="#455A64"/>
<path opacity="0.25" d="M211.214 319.05C210.934 317.95 210.894 316.74 211.924 316.61C212.414 316.54 212.064 315.87 211.694 315.86C210.314 315.86 209.884 317.02 210.064 318.46C209.513 318.206 208.936 318.012 208.344 317.88C207.454 317.71 206.864 317.68 206.574 318.6C206.394 319.14 206.834 319.5 206.804 319.99C206.754 320.72 207.474 320.42 206.384 320.7C205.96 320.704 205.537 320.661 205.124 320.57C204.79 320.491 204.441 320.503 204.114 320.605C203.787 320.707 203.493 320.896 203.264 321.15C202.584 321.72 204.264 322 202.264 321.68C201.76 321.503 201.226 321.428 200.694 321.46C199.964 321.63 199.574 321.84 199.694 322.65C199.744 323.01 200.534 323.5 200.524 323.73C200.524 325.49 198.624 324 197.904 323.73C197.856 323.714 197.804 323.708 197.754 323.713C197.703 323.719 197.655 323.736 197.611 323.763C197.568 323.789 197.532 323.826 197.504 323.869C197.477 323.911 197.46 323.96 197.454 324.01C197.454 324.88 198.034 325.18 196.764 325.26C196.614 325.26 195.764 324.78 195.464 324.78C194.654 324.78 193.914 325.84 192.854 325.78C192.564 325.78 192.464 326.01 192.554 326.25C192.844 327.04 193.274 327.52 191.674 328.25C191.674 328.25 189.794 328.01 189.834 328.01C189.384 328.01 189.674 328.76 190.024 328.78C190.754 328.84 193.224 329.88 193.954 328.9C194.494 328.17 193.434 327.33 193.694 326.9C193.524 327.21 195.104 326.47 195.274 326.41C195.668 326.24 196.086 326.128 196.514 326.08C196.734 326.08 196.914 326.43 197.154 326.43C197.394 326.43 197.784 326.58 198.064 326.43C198.344 326.28 198.414 325.92 198.524 325.84C198.804 325.66 198.164 325.43 198.714 325.25C199.114 325.11 199.464 325.51 199.834 325.63C200.434 325.82 201.334 326.26 201.834 325.63C202.504 324.8 201.284 324.22 201.394 323.63C201.654 322.38 203.394 323.33 204.254 322.77C204.312 322.729 204.356 322.669 204.377 322.601C204.399 322.532 204.398 322.458 204.374 322.39C203.864 320.66 207.004 322.01 207.994 321.83C208.164 321.83 208.354 321.68 208.324 321.47C208.294 321.26 207.934 320.4 207.934 320.38C208.184 319.38 209.614 319.46 210.264 319.64C210.904 321.74 212.574 323.86 214.394 323.29C214.46 323.271 214.519 323.23 214.561 323.174C214.602 323.118 214.624 323.05 214.624 322.98C214.524 321.47 212.904 320 211.214 319.05ZM211.864 320.78C211.774 320.622 211.694 320.458 211.624 320.29C212.135 320.615 212.571 321.045 212.904 321.55C213.254 322.6 212.034 321.08 211.904 320.78H211.864Z" fill="#455A64"/>
<path opacity="0.25" d="M193.533 357.29C192.833 356.22 191.533 355.79 190.413 355.29C189.953 355.08 189.413 354.8 188.903 354.52C188.203 353.39 187.263 351.52 188.503 351.32C189.243 351.18 190.673 351.95 191.503 352.19C191.953 352.32 191.853 351.67 191.503 351.55C190.143 351.01 187.503 349.32 186.983 351.64C186.863 352.365 186.971 353.11 187.293 353.77C186.665 353.492 185.98 353.366 185.293 353.4C184.653 353.46 184.103 353.47 183.883 354.23C183.753 354.64 183.933 354.82 183.963 355.13C183.989 355.293 184.065 355.443 184.179 355.561C184.294 355.679 184.442 355.759 184.603 355.79C184.365 355.758 184.124 355.738 183.883 355.73C182.883 355.73 180.283 355.06 179.673 356.26C179.423 356.75 179.993 357.44 179.913 357.62C179.833 357.8 177.993 358.34 177.673 358.54C177.523 358.63 177.623 359.15 177.543 359.2C176.618 359.266 175.689 359.266 174.763 359.2C173.233 359.33 169.443 358.76 169.943 361.11C169.993 361.37 170.203 361.33 170.243 361.75C170.261 361.944 170.301 362.136 170.363 362.32C170.303 362.32 170.203 362.32 170.003 362.64C169.803 362.96 169.343 362.76 169.153 363C168.433 363.91 169.543 364.23 168.633 364.79C167.363 365.59 164.713 363.97 163.413 364.87C162.263 365.66 163.763 367.95 161.723 367.99C161.273 367.99 161.533 368.66 161.873 368.69C163.783 368.86 163.573 368.5 163.933 366.95C164.533 364.41 168.313 366.16 170.443 365.57C170.683 365.51 170.703 365.2 170.593 365.02C170.033 364.12 170.683 363.62 171.523 363.23C171.574 363.209 171.619 363.176 171.655 363.135C171.692 363.094 171.718 363.046 171.734 362.993C171.749 362.94 171.752 362.885 171.744 362.831C171.735 362.777 171.714 362.725 171.683 362.68C171.453 362.27 170.683 361 171.143 360.41C171.884 360.252 172.637 360.162 173.393 360.14C175.037 360.024 176.686 359.997 178.333 360.06C178.389 360.059 178.443 360.044 178.492 360.018C178.541 359.991 178.583 359.953 178.614 359.907C178.645 359.861 178.665 359.809 178.672 359.753C178.679 359.698 178.672 359.642 178.653 359.59C178.413 359.06 180.553 358.72 181.023 358.59C181.068 358.576 181.108 358.552 181.143 358.521C181.178 358.491 181.206 358.453 181.226 358.411C181.246 358.368 181.257 358.323 181.258 358.276C181.259 358.23 181.251 358.183 181.233 358.14C180.233 355.61 183.963 356.54 185.533 356.79C185.597 356.804 185.664 356.801 185.726 356.781C185.789 356.761 185.845 356.725 185.889 356.676C185.932 356.627 185.962 356.567 185.975 356.503C185.989 356.439 185.984 356.372 185.963 356.31C185.723 355.45 183.833 354.59 186.073 354.31C186.668 354.308 187.254 354.448 187.783 354.72C188.753 356.343 190.093 357.713 191.693 358.72C193.173 359.53 194.673 359 193.533 357.29ZM192.843 357.75C193.313 358.38 191.843 357.87 191.663 357.75C190.821 357.246 190.13 356.524 189.663 355.66C190.113 355.91 190.523 356.14 190.823 356.27C191.621 356.566 192.321 357.079 192.843 357.75V357.75Z" fill="#455A64"/>
<path opacity="0.25" d="M212.134 339.61C211.854 338.5 211.824 337.29 212.844 337.16C213.334 337.1 212.984 336.43 212.614 336.41C211.234 336.41 210.804 337.57 210.984 339.01C210.433 338.756 209.856 338.561 209.264 338.43C208.374 338.26 207.794 338.24 207.494 339.15C207.314 339.7 207.754 340.05 207.724 340.55C207.724 341.27 208.394 340.97 207.304 341.26C206.88 341.255 206.458 341.208 206.044 341.12C205.71 341.043 205.362 341.056 205.035 341.158C204.708 341.26 204.415 341.447 204.184 341.7C203.504 342.28 205.184 342.55 203.184 342.23C202.679 342.057 202.146 341.983 201.614 342.01C200.884 342.18 200.494 342.39 200.614 343.2C200.664 343.57 201.454 344.05 201.444 344.28C201.444 346.04 199.544 344.55 198.824 344.28C198.777 344.261 198.726 344.254 198.675 344.258C198.625 344.262 198.576 344.278 198.532 344.304C198.489 344.33 198.452 344.366 198.424 344.408C198.397 344.451 198.38 344.5 198.374 344.55C198.374 345.42 198.954 345.73 197.684 345.8C197.534 345.8 196.684 345.33 196.394 345.32C195.574 345.32 194.834 346.38 193.774 346.32C193.484 346.32 193.384 346.56 193.474 346.79C193.764 347.58 194.194 348.06 192.594 348.79C192.594 348.79 190.714 348.56 190.764 348.56C190.304 348.56 190.594 349.3 190.944 349.33C191.674 349.38 194.144 350.42 194.874 349.44C195.414 348.71 194.354 347.87 194.614 347.44C194.444 347.74 196.024 347.01 196.194 346.95C196.588 346.776 197.006 346.661 197.434 346.61C197.654 346.61 197.834 346.97 198.074 346.96C198.314 346.95 198.714 347.11 198.994 346.96C199.274 346.81 199.334 346.44 199.444 346.37C199.724 346.18 199.084 345.96 199.634 345.77C200.034 345.63 200.384 346.04 200.754 346.15C201.354 346.34 202.254 346.78 202.754 346.15C203.414 345.32 202.194 344.74 202.304 344.15C202.564 342.9 204.304 343.85 205.164 343.29C205.223 343.249 205.266 343.189 205.288 343.12C205.309 343.052 205.308 342.978 205.284 342.91C204.774 341.18 207.914 342.53 208.904 342.35C209.074 342.35 209.264 342.2 209.234 341.99C209.204 341.78 208.844 340.92 208.844 340.91C209.094 339.91 210.524 339.98 211.184 340.16C211.814 342.26 213.484 344.38 215.304 343.82C215.372 343.799 215.43 343.756 215.472 343.698C215.513 343.641 215.535 343.571 215.534 343.5C215.444 342 213.824 340.59 212.134 339.61ZM212.784 341.34C212.724 341.23 212.634 341.05 212.544 340.84C213.055 341.165 213.491 341.594 213.824 342.1C214.174 343.15 212.954 341.63 212.784 341.34V341.34Z" fill="#455A64"/>
<path opacity="0.25" d="M233.423 325.281C233.453 325.142 233.453 324.999 233.423 324.861C233.123 323.781 231.883 324.591 231.673 325.251C231.463 325.911 231.933 326.151 231.893 326.641C231.893 327.361 232.573 327.071 231.483 327.351C231.06 327.345 230.639 327.301 230.223 327.221C229.123 327.171 229.023 327.221 228.363 327.801C227.703 328.381 229.363 328.641 227.363 328.321C226.858 328.152 226.325 328.081 225.793 328.111C225.063 328.271 224.673 328.481 224.793 329.301C224.853 329.661 225.643 330.151 225.633 330.381C225.633 332.131 223.723 330.651 223.013 330.381C222.965 330.362 222.913 330.355 222.861 330.36C222.809 330.364 222.759 330.381 222.715 330.408C222.67 330.435 222.633 330.472 222.605 330.516C222.577 330.56 222.559 330.609 222.553 330.661C222.553 331.521 223.133 331.831 221.873 331.911C221.723 331.911 220.873 331.431 220.573 331.431C219.763 331.431 219.023 332.481 217.963 332.431C217.673 332.431 217.573 332.661 217.653 332.901C217.953 333.691 218.383 334.171 216.783 334.851C216.783 334.851 214.903 334.621 214.943 334.621C214.483 334.621 214.783 335.371 215.133 335.391C215.863 335.451 218.333 336.491 219.063 335.501C219.593 334.781 218.533 333.941 218.803 333.501C218.623 333.811 220.213 333.071 220.383 333.011C220.776 332.843 221.19 332.728 221.613 332.671C221.843 332.671 222.023 333.031 222.253 333.031C222.483 333.031 222.893 333.181 223.173 333.031C223.453 332.881 223.523 332.521 223.633 332.441C223.913 332.261 223.273 332.031 223.823 331.841C224.373 331.651 224.573 332.111 224.943 332.231C225.543 332.421 226.443 332.861 226.943 332.231C227.613 331.401 226.383 330.821 226.503 330.231C226.763 328.981 228.503 329.931 229.363 329.371C229.42 329.328 229.462 329.268 229.482 329.199C229.502 329.131 229.499 329.058 229.473 328.991C228.973 327.261 232.113 328.611 233.093 328.431C233.273 328.431 233.463 328.281 233.433 328.071C233.226 327.346 233.179 326.586 233.293 325.841C233.35 325.658 233.393 325.47 233.423 325.281V325.281Z" fill="#455A64"/>
</g>
<path d="M106.194 113.06C110.854 118.63 118.554 126.15 122.924 131.63C125.235 134.499 126.485 138.077 126.464 141.76C126.464 144.49 125.684 146.76 123.014 145.6C121.084 144.76 119.854 143.76 117.014 140.99C114.484 138.49 102.244 126.99 102.244 126.99C102.244 126.99 99.9441 112.9 96.1641 111.75C92.3841 110.6 89.1641 104.57 89.1641 104.57C95.3641 104 100.284 106 106.194 113.06Z" fill="#F28F8F"/>
<path d="M148.794 258.64L170.664 290.64C170.803 290.843 171.003 290.997 171.234 291.081C171.465 291.164 171.716 291.174 171.953 291.108C172.19 291.042 172.4 290.903 172.555 290.712C172.709 290.521 172.8 290.286 172.814 290.04L174.904 251.11L148.794 258.64Z" fill="#FFA8A7"/>
<path d="M172.814 290.05C172.799 290.295 172.708 290.53 172.554 290.721C172.4 290.913 172.19 291.051 171.953 291.117C171.716 291.183 171.464 291.174 171.233 291.09C171.002 291.006 170.803 290.852 170.664 290.65L166.394 284.4C167.564 284.665 168.785 284.603 169.923 284.22C171.061 283.837 172.071 283.149 172.844 282.23L173.274 281.72L172.814 290.05Z" fill="#263238"/>
<path d="M131.004 93.5801L132.004 97.0401L133.184 101.2L174.904 251.11C172.859 254.974 169.425 257.919 165.294 259.35C159.134 261.76 152.054 261.48 148.774 258.63L107.274 109.83L105.054 101.83C106.824 106.94 132.664 98.7001 131.004 93.5801Z" fill="url(#paint8_linear)"/>
<path d="M134.713 106.73L136.853 114.45C137.553 116.67 133.173 119.45 127.853 121.45C120.733 124.16 111.853 125.56 110.923 122.63L109.303 117L108.773 115C109.693 117.94 118.573 116.54 125.693 113.83C130.833 111.83 135.073 109.24 134.763 107.07C134.792 106.955 134.774 106.833 134.713 106.73Z" fill="#EBEBEB"/>
<path d="M135.233 108.66C136.853 113.81 110.903 121.99 109.233 116.84L107.063 109.12C108.693 114.26 134.633 106.12 133.063 100.94L135.233 108.66Z" fill="url(#paint9_linear)"/>
<path d="M131.004 93.5801L133.144 101.2C134.774 106.2 109.804 114.39 107.314 109.83C107.258 109.744 107.218 109.649 107.194 109.55L105.094 101.86C106.824 106.94 132.664 98.7001 131.004 93.5801Z" fill="#EBEBEB"/>
<path opacity="0.1" d="M107.314 109.83L105.094 101.83C105.874 104.12 111.584 103.7 117.454 102.07L160.454 260.66L170.714 290.66L148.844 258.66L107.314 109.83Z" fill="black"/>
<path d="M121.904 61.22L130.964 93.58C131.674 95.77 127.364 98.58 122.054 100.58C114.934 103.31 106.054 104.78 105.054 101.87L96.3637 70.7C93.7337 63.61 106.594 56.64 115.174 57.17C118.384 57.35 120.964 58.57 121.904 61.22Z" fill="#F28F8F"/>
<path d="M83.9834 99.4501C79.1326 99.4501 74.4804 97.5232 71.0504 94.0931C67.6203 90.6631 65.6934 86.011 65.6934 81.1602V80.1602C65.6934 76.0493 67.3264 72.1068 70.2332 69.2C73.14 66.2932 77.0825 64.6602 81.1934 64.6602H86.7734C90.8842 64.6602 94.8267 66.2932 97.7335 69.2C100.64 72.1068 102.273 76.0493 102.273 80.1602V81.1602C102.273 86.011 100.346 90.6631 96.9163 94.0931C93.4863 97.5232 88.8342 99.4501 83.9834 99.4501V99.4501Z" fill="#263238"/>
<path d="M58.2637 101.31C60.4676 101.31 62.5813 100.435 64.1397 98.8763C65.6982 97.3179 66.5737 95.2042 66.5737 93.0002V76.4902C64.3715 76.4902 62.2593 77.3644 60.7011 78.9206C59.143 80.4769 58.2663 82.588 58.2637 84.7902V101.31Z" fill="#263238"/>
<path d="M102.803 280.38C104.941 282.618 107.285 284.651 109.803 286.45C110.212 286.699 110.555 287.041 110.803 287.45C111.133 288.13 111.643 289.83 108.523 290.92C106.946 291.466 105.269 291.665 103.607 291.505C101.945 291.344 100.338 290.827 98.8935 289.99C96.3335 288.39 96.2135 285.05 93.7935 283.15C92.0035 281.74 89.7935 281.38 88.3235 279.53C87.3235 278.25 87.5735 276.53 88.1035 274.43C88.6735 272.12 88.9435 270.38 89.7035 270.56L89.5735 271.62C90.5735 273.14 95.4635 273.62 97.6635 272.54C99.2426 275.239 100.958 277.855 102.803 280.38Z" fill="#263238"/>
<path d="M104.974 282.53C104.224 281.85 103.504 281.15 102.804 280.38C101.354 278.482 100.018 276.498 98.8041 274.44C97.8651 273.167 97.2725 271.671 97.0841 270.1C97.0341 268.1 97.2241 264.43 97.2241 264.43L89.9041 263.94L89.5441 271.61C89.3541 273.35 90.7941 274.9 93.3441 277.09C95.8941 279.28 99.1241 284.4 101.424 285.69C103.724 286.98 105.424 286.93 106.364 286.27C107.304 285.61 107.454 285.07 104.974 282.53Z" fill="#FFA8A7"/>
<path d="M78.4538 287.69C80.589 289.931 82.9329 291.964 85.4538 293.76C85.86 294.012 86.2023 294.354 86.4538 294.76C86.7838 295.44 87.2938 297.14 84.1738 298.23C82.5961 298.776 80.9192 298.976 79.2575 298.815C77.5957 298.655 75.988 298.138 74.5438 297.3C71.9738 295.7 71.8638 292.36 69.4438 290.46C67.6538 289.05 65.4438 288.69 63.9738 286.84C62.9738 285.56 63.2238 283.84 63.7538 281.74C64.3238 279.43 64.5838 277.69 65.3538 277.87L65.2238 278.93C66.2238 280.45 71.1138 280.93 73.3138 279.85C74.8894 282.551 76.6051 285.168 78.4538 287.69V287.69Z" fill="#263238"/>
<path d="M80.6133 289.84C79.8733 289.16 79.1433 288.46 78.4533 287.69C77.0006 285.793 75.6648 283.81 74.4533 281.75C73.5469 280.434 72.9613 278.924 72.7433 277.34C72.6033 275.55 72.7433 271.82 72.7433 271.82H65.4233L65.2433 278.9C65.0533 280.64 66.4933 282.19 69.0433 284.38C71.5933 286.57 74.8133 291.69 77.1233 292.98C79.4333 294.27 81.0733 294.22 82.0533 293.56C83.0333 292.9 83.1033 292.38 80.6133 289.84Z" fill="#FFA8A7"/>
<path d="M65.2632 153.34C58.8932 167.26 66.1432 220.05 66.1432 220.05C65.9532 222.31 63.9632 225.82 63.7232 232.72C63.4232 241.58 65.0032 274.29 65.0032 274.29C66.2822 274.972 67.7039 275.343 69.1529 275.372C70.602 275.402 72.0376 275.089 73.3432 274.46C73.3432 274.46 80.8932 230.05 82.3432 218.37C83.6232 208.18 86.0932 184.21 86.0932 184.21L91.1732 218.32C91.1732 218.32 88.5632 224.01 88.4332 229.15C88.2432 236.05 89.2632 268.08 89.2632 268.08C89.2632 268.08 92.3532 269.16 97.7432 268.37C97.7432 268.37 105.423 225.03 106.143 216.76C106.573 211.82 102.883 151.25 102.883 151.25L65.2632 153.34Z" fill="#37474F"/>
<path d="M86.1133 184.21L88.1833 172.83C88.1833 172.83 96.9033 171 100.903 167.28C100.903 167.28 96.7333 172.47 90.5533 174.16L88.2233 184.16L90.5233 213.91L86.1133 184.21Z" fill="#263238"/>
<path d="M77.7137 104.92C72.1137 105.69 69.1137 106.92 67.3137 112.18C66.1337 115.62 66.4537 120.68 67.6437 124.12L72.5237 138.4C69.5738 143.104 67.1397 148.113 65.2637 153.34C79.5637 161.34 98.6037 157.07 102.904 151.25C103.084 150.02 101.904 144.05 102.274 137.72C102.644 130.96 103.724 123.21 102.664 119.04C100.664 111.29 95.2837 106.23 89.1937 104.6L77.7137 104.92Z" fill="#F5F5F5"/>
<path d="M96.2635 72.0498C98.1935 73.1898 100.584 78.0498 100.344 88.2298C100.144 96.8698 97.3435 98.9998 95.9435 99.6098C94.5435 100.22 91.8235 99.8498 89.1935 99.4198V104.6C89.1935 104.6 92.8335 108.83 92.6035 111.2C92.3735 113.57 87.3435 114.14 83.9435 111.82C81.7364 110.242 79.841 108.269 78.3535 106V93.4398C78.3535 93.4398 76.5735 95.8198 73.6635 93.8798C70.7535 91.9398 70.6635 87.1698 72.3335 85.4498C74.0035 83.7298 77.6735 84.2798 78.3335 86.6498C78.3335 86.6498 82.5335 86.8098 88.1235 83.7298C90.3042 82.5614 92.178 80.8945 93.5925 78.8648C95.0071 76.8351 95.9222 74.5001 96.2635 72.0498V72.0498Z" fill="#FFA8A7"/>
<path d="M90.7039 86.06C90.7162 86.2032 90.7 86.3475 90.6564 86.4844C90.6127 86.6214 90.5424 86.7484 90.4494 86.8581C90.3565 86.9678 90.2427 87.058 90.1148 87.1235C89.9868 87.189 89.8472 87.2286 89.7039 87.24C89.4788 87.2657 89.2512 87.2233 89.0505 87.1181C88.8499 87.0129 88.6855 86.8498 88.5788 86.65C88.472 86.4502 88.4277 86.2229 88.4517 85.9977C88.4756 85.7724 88.5668 85.5596 88.7132 85.3867C88.8597 85.2139 89.0547 85.0891 89.273 85.0285C89.4913 84.9679 89.7227 84.9743 89.9373 85.0469C90.1519 85.1194 90.3398 85.2548 90.4765 85.4355C90.6131 85.6162 90.6924 85.8337 90.7039 86.06V86.06Z" fill="#263238"/>
<path d="M90.9941 93.3799L93.5241 94.1899C93.4782 94.3583 93.3989 94.5158 93.2909 94.653C93.1828 94.7901 93.0482 94.9041 92.8952 94.9881C92.7421 95.0721 92.5737 95.1244 92.4 95.1419C92.2263 95.1594 92.0508 95.1417 91.8841 95.0899C91.5435 94.9752 91.2605 94.7331 91.0945 94.4142C90.9286 94.0954 90.8926 93.7247 90.9941 93.3799V93.3799Z" fill="#F28F8F"/>
<path d="M99.6141 82.7303L97.4141 81.2102C97.5053 81.0621 97.6258 80.9341 97.7682 80.8341C97.9106 80.7341 98.0719 80.6641 98.2423 80.6286C98.4126 80.593 98.5884 80.5926 98.7589 80.6272C98.9295 80.6619 99.0911 80.731 99.2341 80.8302C99.5282 81.0384 99.7315 81.3513 99.8021 81.7046C99.8728 82.058 99.8055 82.425 99.6141 82.7303V82.7303Z" fill="#263238"/>
<path d="M99.1038 85.2796C99.1055 85.4935 99.0443 85.7031 98.9278 85.8824C98.8113 86.0617 98.6447 86.2028 98.4486 86.288C98.2525 86.3733 98.0357 86.399 97.8251 86.362C97.6145 86.325 97.4194 86.2268 97.2642 86.0798C97.109 85.9327 97.0004 85.7433 96.9521 85.535C96.9037 85.3267 96.9177 85.1088 96.9923 84.9084C97.0668 84.708 97.1987 84.5339 97.3714 84.4079C97.5442 84.2819 97.7502 84.2095 97.9638 84.1996C98.1096 84.1956 98.2547 84.2204 98.3909 84.2725C98.5271 84.3247 98.6517 84.4031 98.7576 84.5034C98.8634 84.6037 98.9485 84.7239 99.0079 84.8571C99.0673 84.9903 99.0999 85.1339 99.1038 85.2796Z" fill="#263238"/>
<path d="M93.9834 84.6602L94.1534 91.1902L97.5934 90.1301L93.9834 84.6602Z" fill="#F28F8F"/>
<path d="M89.1935 99.4204C86.4135 99.0504 80.7035 97.4204 79.8135 95.1504C80.1712 96.2917 80.869 97.2966 81.8135 98.0304C83.5235 99.5004 89.1935 101.14 89.1935 101.14V99.4204Z" fill="#F28F8F"/>
<path d="M133.133 147C131.433 147.64 129.733 147.68 127.413 148.78C125.887 149.652 124.171 150.139 122.413 150.2C120.143 150.31 113.773 147.6 108.183 144.99C102.131 142.052 96.6255 138.102 91.9034 133.31C87.1569 127.682 82.9422 121.626 79.3134 115.22C77.3134 111.81 75.3134 106.85 72.1234 106.22C66.6234 106.8 64.3834 116.38 67.9534 122.3C71.5234 128.22 77.8234 136 84.5934 142.54C87.8734 145.72 93.8834 149.16 102.483 152.85C108.109 155.298 113.916 157.304 119.853 158.85C121.583 159.3 122.793 159.94 126.033 161.05C127.343 161.584 128.725 161.921 130.133 162.05C131.884 162.118 133.636 161.933 135.333 161.5C137.488 160.957 139.457 159.845 141.033 158.28C141.89 157.414 142.53 156.359 142.903 155.2C143.284 154.033 143.242 152.769 142.783 151.63C142.696 151.398 142.551 151.192 142.363 151.03C141.968 150.819 141.507 150.765 141.073 150.88C138.586 151.41 136.072 151.814 133.543 152.09C131.443 152.17 129.963 151.94 130.223 151.61C130.483 151.28 131.723 151.32 133.303 150.42C134.883 149.52 135.803 147.82 135.253 147C134.703 146.18 134.833 146.36 133.133 147Z" fill="#FFA8A7"/>
<path d="M137.764 123.9C137.764 123.9 135.484 122.09 131.164 122.8C129.074 123.15 129.874 131.06 136.604 133.27C140.984 134.71 141.874 133.97 143.284 137.57C143.284 137.57 145.934 137.02 145.284 132.99C144.584 128.845 142.737 124.979 139.954 121.83C138.024 119.55 137.894 117.63 136.954 118.28C136.014 118.93 136.534 120.9 136.534 120.9L137.764 123.9Z" fill="#FFA8A7"/>
<path d="M415.903 166.73C399.833 160.81 374.203 160.81 358.663 166.73C343.123 172.65 343.123 182.24 358.663 188.16C374.203 194.08 399.833 194.08 415.903 188.16C431.973 182.24 431.953 172.65 415.903 166.73Z" fill="#263238"/>
<path d="M429.213 140.699L345.713 140.799L352.043 239.169H352.123C352.513 242.759 355.863 246.289 362.243 249.029C375.843 254.859 398.243 254.859 412.333 249.029C418.933 246.289 422.393 242.759 422.803 239.169H422.903L429.213 140.699Z" fill="#FAFAFA"/>
<path d="M345.713 140.799L347.003 160.799C349.195 162.291 351.542 163.541 354.003 164.529C372.063 172.009 401.833 172.009 420.513 164.529C421.323 164.209 421.993 163.859 422.723 163.529C424.536 162.67 426.287 161.684 427.963 160.579L429.243 140.729L345.713 140.799Z" fill="#F0F0F0"/>
<path d="M434.493 143.61V128.61H424.763C423.372 127.869 421.943 127.202 420.483 126.61C401.813 119.13 372.033 119.13 353.973 126.61C352.579 127.207 351.218 127.874 349.893 128.61H340.433V143.61C340.433 148.51 344.953 153.42 353.973 157.15C372.033 164.63 401.813 164.63 420.483 157.15C429.823 153.41 434.493 148.51 434.493 143.61Z" fill="url(#paint10_linear)"/>
<path d="M420.483 115C401.813 107.53 372.033 107.53 353.973 115C335.913 122.47 335.923 134.61 353.973 142.08C372.023 149.55 401.813 149.56 420.483 142.08C439.153 134.6 439.163 122.51 420.483 115Z" fill="url(#paint11_linear)"/>
<g opacity="0.3">
<path opacity="0.3" d="M420.483 115C401.813 107.53 372.033 107.53 353.973 115C335.913 122.47 335.923 134.61 353.973 142.08C372.023 149.55 401.813 149.56 420.483 142.08C439.153 134.6 439.163 122.51 420.483 115Z" fill="white"/>
</g>
<path d="M422.503 124.34L418.743 110.59H356.183L352.413 124.34C351.013 128.25 354.293 132.34 362.283 135.34C375.853 140.45 398.283 140.45 412.283 135.34C420.553 132.35 423.953 128.25 422.503 124.34Z" fill="url(#paint12_linear)"/>
<path d="M409.543 103.59C397.053 99.0496 377.143 99.0496 365.063 103.59C352.983 108.13 352.993 115.5 365.063 120.04C377.133 124.58 397.063 124.58 409.543 120.04C422.023 115.5 422.033 108.14 409.543 103.59Z" fill="url(#paint13_linear)"/>
<g opacity="0.3">
<path opacity="0.3" d="M409.543 103.59C397.053 99.0496 377.143 99.0496 365.063 103.59C352.983 108.13 352.993 115.5 365.063 120.04C377.133 124.58 397.063 124.58 409.543 120.04C422.023 115.5 422.033 108.14 409.543 103.59Z" fill="white"/>
</g>
<path d="M414.583 111.83C414.583 112 414.233 112.59 413.203 113.39C411.627 114.49 409.903 115.362 408.083 115.98C402.563 117.98 394.933 119.14 387.153 119.14C379.373 119.14 371.903 118 366.583 116C364.806 115.396 363.136 114.515 361.633 113.39C360.633 112.57 360.333 111.96 360.333 111.81C360.333 111.51 361.413 109.58 366.583 107.64C371.753 105.7 379.373 104.5 387.153 104.5C394.933 104.5 402.563 105.65 408.083 107.66C413.263 109.54 414.563 111.44 414.583 111.83Z" fill="url(#paint14_linear)"/>
<g opacity="0.1">
<path opacity="0.1" d="M413.203 113.39C411.627 114.49 409.903 115.362 408.083 115.98C402.563 117.98 394.933 119.14 387.153 119.14C379.373 119.14 371.903 118 366.583 116C364.806 115.395 363.135 114.514 361.633 113.39C363.132 112.257 364.803 111.372 366.583 110.77C371.873 108.77 379.373 107.64 387.153 107.64C394.933 107.64 402.563 108.78 408.083 110.79C409.909 111.397 411.635 112.273 413.203 113.39V113.39Z" fill="black"/>
</g>
<path d="M400.683 113.669C402.503 112.669 404.683 112.219 405.623 112.729C406.563 113.239 405.803 114.499 403.983 115.549C402.163 116.599 399.983 117.009 399.043 116.489C398.103 115.969 398.903 114.699 400.683 113.669Z" fill="#263238"/>
<path d="M349.333 213.089C349.333 216.749 352.993 220.399 360.333 223.189C374.973 228.769 399.113 228.769 414.253 223.189C421.813 220.409 425.603 216.759 425.613 213.109L427.903 177.449C427.903 181.329 423.903 185.199 415.903 188.159C399.833 194.079 374.203 194.079 358.663 188.159C350.893 185.159 347.003 181.329 347.013 177.449L349.333 213.089Z" fill="#455A64"/>
<path d="M382.403 215.199C381.043 213.369 380.293 211.129 379.193 209.199C377.163 205.437 373.853 202.525 369.863 200.989C369.6 200.881 369.306 200.875 369.038 200.971C368.77 201.067 368.547 201.259 368.413 201.509C366.413 205.639 367.633 211.419 371.823 215.619C376.013 219.819 381.703 221.059 385.823 219.119C386.063 219.009 386.123 218.549 385.933 218.439C384.543 217.618 383.34 216.515 382.403 215.199V215.199Z" fill="#263238"/>
<path d="M372.103 199.799C374.258 200.655 376.248 201.88 377.983 203.419C379.783 205.052 381.229 207.036 382.233 209.249C383.803 212.569 385.293 214.629 387.593 216.339C387.715 216.429 387.853 216.493 388 216.529C388.147 216.565 388.3 216.572 388.449 216.548C388.599 216.525 388.743 216.473 388.872 216.394C389.001 216.315 389.113 216.211 389.203 216.089C391.943 211.949 390.853 205.589 386.333 201.089C382.043 196.809 376.093 195.579 371.953 197.789C371.774 197.897 371.629 198.052 371.533 198.238C371.437 198.424 371.395 198.632 371.41 198.84C371.426 199.048 371.499 199.248 371.621 199.417C371.743 199.587 371.91 199.719 372.103 199.799Z" fill="#263238"/>
<defs>
<linearGradient id="paint0_linear" x1="44.7052" y1="224.62" x2="44.7052" y2="276.62" gradientUnits="userSpaceOnUse">
<stop stop-color="#D9E78F"/>
<stop offset="1" stop-color="#A4D7F7"/>
</linearGradient>
<linearGradient id="paint1_linear" x1="47.8432" y1="251.812" x2="47.8432" y2="285.16" gradientUnits="userSpaceOnUse">
<stop stop-color="#D9E78F"/>
<stop offset="1" stop-color="#A4D7F7"/>
</linearGradient>
<linearGradient id="paint2_linear" x1="305.784" y1="219.407" x2="305.784" y2="365.42" gradientUnits="userSpaceOnUse">
<stop stop-color="#D9E78F"/>
<stop offset="1" stop-color="#A4D7F7"/>
</linearGradient>
<linearGradient id="paint3_linear" x1="305.784" y1="216.657" x2="305.784" y2="362.68" gradientUnits="userSpaceOnUse">
<stop stop-color="#D9E78F"/>
<stop offset="1" stop-color="#A4D7F7"/>
</linearGradient>
<linearGradient id="paint4_linear" x1="199.754" y1="281.311" x2="199.754" y2="426.951" gradientUnits="userSpaceOnUse">
<stop stop-color="#D9E78F"/>
<stop offset="1" stop-color="#A4D7F7"/>
</linearGradient>
<linearGradient id="paint5_linear" x1="199.755" y1="278.61" x2="199.755" y2="424.211" gradientUnits="userSpaceOnUse">
<stop stop-color="#D9E78F"/>
<stop offset="1" stop-color="#A4D7F7"/>
</linearGradient>
<linearGradient id="paint6_linear" x1="232.638" y1="282.601" x2="232.638" y2="360.011" gradientUnits="userSpaceOnUse">
<stop stop-color="#D9E78F"/>
<stop offset="1" stop-color="#A4D7F7"/>
</linearGradient>
<linearGradient id="paint7_linear" x1="254.614" y1="352.05" x2="254.614" y2="398.77" gradientUnits="userSpaceOnUse">
<stop stop-color="#D9E78F"/>
<stop offset="1" stop-color="#A4D7F7"/>
</linearGradient>
<linearGradient id="paint8_linear" x1="139.979" y1="93.5801" x2="139.979" y2="260.98" gradientUnits="userSpaceOnUse">
<stop stop-color="#D9E78F"/>
<stop offset="1" stop-color="#A4D7F7"/>
</linearGradient>
<linearGradient id="paint9_linear" x1="121.185" y1="100.94" x2="121.185" y2="118.479" gradientUnits="userSpaceOnUse">
<stop stop-color="#D9E78F"/>
<stop offset="1" stop-color="#A4D7F7"/>
</linearGradient>
<linearGradient id="paint10_linear" x1="387.463" y1="121" x2="387.463" y2="162.76" gradientUnits="userSpaceOnUse">
<stop stop-color="#D9E78F"/>
<stop offset="1" stop-color="#A4D7F7"/>
</linearGradient>
<linearGradient id="paint11_linear" x1="387.46" y1="109.397" x2="387.46" y2="147.686" gradientUnits="userSpaceOnUse">
<stop stop-color="#D9E78F"/>
<stop offset="1" stop-color="#A4D7F7"/>
</linearGradient>
<linearGradient id="paint12_linear" x1="387.463" y1="110.59" x2="387.463" y2="139.172" gradientUnits="userSpaceOnUse">
<stop stop-color="#D9E78F"/>
<stop offset="1" stop-color="#A4D7F7"/>
</linearGradient>
<linearGradient id="paint13_linear" x1="387.457" y1="100.185" x2="387.457" y2="123.445" gradientUnits="userSpaceOnUse">
<stop stop-color="#D9E78F"/>
<stop offset="1" stop-color="#A4D7F7"/>
</linearGradient>
<linearGradient id="paint14_linear" x1="387.458" y1="104.5" x2="387.458" y2="119.14" gradientUnits="userSpaceOnUse">
<stop stop-color="#D9E78F"/>
<stop offset="1" stop-color="#A4D7F7"/>
</linearGradient>
</defs>
</svg>
