<svg width="501" height="500" viewBox="0 0 501 500" fill="none" xmlns="http://www.w3.org/2000/svg">
<path opacity="0.7" d="M68.8333 167.09C68.8333 167.09 40.9533 239.09 80.1333 311.59C119.313 384.09 200.013 422.39 264.603 455.14C329.193 487.89 396.263 471.94 428.133 418.3C460.003 364.66 416.293 326.37 416.233 249.88C416.173 173.39 427.683 153.14 386.233 88.5196C344.783 23.8996 243.173 9.58958 166.333 57.5196C89.4933 105.45 68.8333 167.09 68.8333 167.09Z" fill="white"/>
<path d="M64.5933 139.159C91.3033 87.3193 140.903 48.0993 202.653 42.5793C245.124 38.8762 287.451 51.122 321.383 76.9293C338.243 89.9293 353.223 106.479 363.173 125.369C374.593 147.069 377.923 172.089 389.673 193.689C404.283 220.539 431.723 231.619 450.153 254.819C465.323 273.929 470.533 299.539 468.793 323.879C465.613 368.309 439.583 410.489 401.293 433.259C368.923 452.509 329.903 457.819 292.293 456.069C234.293 453.379 176.553 434.249 130.873 398.419C85.1933 362.589 52.3633 309.619 44.5833 252.089C39.2933 212.999 46.9833 173.329 64.5933 139.159Z" fill="url(#paint0_linear)"/>
<path opacity="0.7" d="M64.5933 139.159C91.3033 87.3193 140.903 48.0993 202.653 42.5793C245.124 38.8762 287.451 51.122 321.383 76.9293C338.243 89.9293 353.223 106.479 363.173 125.369C374.593 147.069 377.923 172.089 389.673 193.689C404.283 220.539 431.723 231.619 450.153 254.819C465.323 273.929 470.533 299.539 468.793 323.879C465.613 368.309 439.583 410.489 401.293 433.259C368.923 452.509 329.903 457.819 292.293 456.069C234.293 453.379 176.553 434.249 130.873 398.419C85.1933 362.589 52.3633 309.619 44.5833 252.089C39.2933 212.999 46.9833 173.329 64.5933 139.159Z" fill="white"/>
<path d="M46.9736 158.11C48.1536 162.79 47.5736 154.18 49.8836 143.66C52.1936 133.14 56.1636 137.4 56.1636 137.4" stroke="#263238" stroke-linecap="round" stroke-linejoin="round"/>
<path d="M46.2534 147.36L53.5034 144.39" stroke="#263238" stroke-linecap="round" stroke-linejoin="round"/>
<path d="M59.4933 140.82C59.4933 140.82 55.1633 149.82 61.6933 153.6" stroke="#263238" stroke-linecap="round" stroke-linejoin="round"/>
<path d="M65.6436 138.3C65.6436 138.3 72.8036 142.3 68.3236 150.88" stroke="#263238" stroke-linecap="round" stroke-linejoin="round"/>
<path d="M60.7437 143.86L65.8737 147.6" stroke="#263238" stroke-linecap="round" stroke-linejoin="round"/>
<path d="M64.7634 142.21L60.7534 148.6" stroke="#263238" stroke-linecap="round" stroke-linejoin="round"/>
<path d="M87.8003 237.984C88.7761 232.038 84.747 226.427 78.8012 225.451C72.8553 224.475 67.2441 228.504 66.2683 234.45C65.2925 240.396 69.3216 246.007 75.2674 246.983C81.2133 247.958 86.8245 243.929 87.8003 237.984Z" stroke="#263238" stroke-linecap="round" stroke-linejoin="round"/>
<path d="M94.2719 252.338C100.818 250.996 105.037 244.6 103.694 238.054C102.352 231.507 95.9563 227.289 89.4099 228.632C82.8635 229.974 78.645 236.369 79.9876 242.916C81.3302 249.462 87.7255 253.681 94.2719 252.338Z" stroke="#263238" stroke-linecap="round" stroke-linejoin="round"/>
<path d="M86.9736 231.71L81.9536 233.5" stroke="#263238" stroke-linecap="round" stroke-linejoin="round"/>
<path d="M87.6736 233.78L80.4536 236.39" stroke="#263238" stroke-linecap="round" stroke-linejoin="round"/>
<path d="M87.9433 236.28L79.8833 239.38" stroke="#263238" stroke-linecap="round" stroke-linejoin="round"/>
<path d="M87.3734 239.69L80.0234 243.05" stroke="#263238" stroke-linecap="round" stroke-linejoin="round"/>
<path d="M86.0737 242.31L80.4937 244.63" stroke="#263238" stroke-linecap="round" stroke-linejoin="round"/>
<path d="M82.3035 219.59C81.9935 218.59 78.4535 217.97 78.3035 220.59C78.1535 223.21 82.0336 221.03 83.1336 219.59C83.1336 219.59 81.1335 222.28 81.9735 222.81" stroke="#263238" stroke-linecap="round" stroke-linejoin="round"/>
<path d="M101.903 222.85L98.7632 229.38C98.7632 229.38 100.333 226.11 102.013 226.38C104.083 226.75 102.703 230.14 100.203 228.89" stroke="#263238" stroke-linecap="round" stroke-linejoin="round"/>
<path d="M443.613 329.47L448.543 334.13" stroke="#263238" stroke-linecap="round" stroke-linejoin="round"/>
<path d="M448.544 328.25L444.414 334.42" stroke="#263238" stroke-linecap="round" stroke-linejoin="round"/>
<path d="M453.394 330.02L458.334 328.18" stroke="#263238" stroke-linecap="round" stroke-linejoin="round"/>
<path d="M460.704 323.04L463.704 325.69" stroke="#263238" stroke-linecap="round" stroke-linejoin="round"/>
<path d="M466.004 319.85L462.204 332.89" stroke="#263238" stroke-linecap="round" stroke-linejoin="round"/>
<path d="M235.874 256.22L249.144 247.09L266.714 248.32L267.814 270.6L254.914 279.82L238.994 278.66L235.874 256.22Z" stroke="#263238" stroke-linecap="round" stroke-linejoin="round"/>
<path d="M238.993 278.66L251.843 269.41L267.813 270.6" stroke="#263238" stroke-linecap="round" stroke-linejoin="round"/>
<path d="M251.844 269.41L249.144 247.09" stroke="#263238" stroke-linecap="round" stroke-linejoin="round"/>
<path d="M235.874 256.22L253.404 258.25L266.714 248.32" stroke="#263238" stroke-linecap="round" stroke-linejoin="round"/>
<path d="M253.403 258.25L254.913 279.82" stroke="#263238" stroke-linecap="round" stroke-linejoin="round"/>
<path d="M390.754 181.37L384.874 199.64L403.174 197.17L390.754 181.37Z" stroke="#263238" stroke-linecap="round" stroke-linejoin="round"/>
<path d="M390.753 181.37L394.023 198.3" stroke="#263238" stroke-linecap="round" stroke-linejoin="round"/>
<path d="M393.503 195.59L395.643 195.25L396.143 198.12" stroke="#263238" stroke-linecap="round" stroke-linejoin="round"/>
<path d="M160.293 348.56L169.433 353.05" stroke="#263238" stroke-linecap="round" stroke-linejoin="round"/>
<path d="M166.483 345.13L163.863 354.68" stroke="#263238" stroke-linecap="round" stroke-linejoin="round"/>
<path d="M167.753 340.47C167.903 340.315 168.088 340.197 168.291 340.126C168.495 340.055 168.713 340.032 168.927 340.061C169.14 340.089 169.345 340.167 169.523 340.288C169.702 340.41 169.849 340.571 169.953 340.76C170.873 342.2 169.073 345.22 169.073 345.22L172.743 343.82" stroke="#263238" stroke-linecap="round" stroke-linejoin="round"/>
<path d="M232.053 34C240.783 38.91 230.783 50.91 230.783 57.91C230.783 64.91 240.783 63.91 245.783 65.91C247.783 65.91 251.783 65.91 251.673 70.99" stroke="#263238" stroke-linecap="round" stroke-linejoin="round"/>
<path d="M222.323 40.3701C223.843 48.6401 233.323 45.7101 239.143 47.6001C249.143 50.8501 243.593 61.1701 240.613 67.4101C238.823 71.1301 237.043 76.3501 240.243 79.8801" stroke="#263238" stroke-linecap="round" stroke-linejoin="round"/>
<path d="M223.604 43.5797L234.014 34.9297" stroke="#263238" stroke-linecap="round" stroke-linejoin="round"/>
<path d="M227.684 46.1602L235.524 39.6602" stroke="#263238" stroke-linecap="round" stroke-linejoin="round"/>
<path d="M232.293 52.74L238.913 47.54" stroke="#263238" stroke-linecap="round" stroke-linejoin="round"/>
<path d="M230.923 60.5197L243.863 51.2197" stroke="#263238" stroke-linecap="round" stroke-linejoin="round"/>
<path d="M235.883 64.1503L244.903 57.5303" stroke="#263238" stroke-linecap="round" stroke-linejoin="round"/>
<path d="M239.724 78.22L250.994 69.04" stroke="#263238" stroke-linecap="round" stroke-linejoin="round"/>
<path d="M240.003 71.0001L247.353 65.8301" stroke="#263238" stroke-linecap="round" stroke-linejoin="round"/>
<path d="M92.8548 353.541C103.593 349.246 108.816 337.06 104.521 326.322C100.226 315.584 88.0397 310.361 77.3019 314.656C66.5641 318.951 61.341 331.137 65.6358 341.875C69.9306 352.613 82.117 357.836 92.8548 353.541Z" stroke="#263238" stroke-linecap="round" stroke-linejoin="round"/>
<path d="M90.3433 313.84C97.6433 305.27 103.853 300.42 106.243 302C109.883 304.39 103.353 320.71 91.6633 338.44C79.9733 356.17 67.5433 368.61 63.9033 366.21C61.5033 364.64 63.5233 357.02 68.5233 346.93" stroke="#263238" stroke-linecap="round" stroke-linejoin="round"/>
<path d="M64.5833 338.4C54.4033 335.47 47.9033 332.05 48.3133 329.32C48.9033 325 66.4932 324 87.5033 327.15C108.513 330.3 125.033 336.27 124.403 340.57C123.953 343.57 115.403 344.94 103.253 344.48" stroke="#263238" stroke-linecap="round" stroke-linejoin="round"/>
<path d="M67.2535 323.23C59.5735 309.37 55.7335 298.56 58.3335 296.87C61.7535 294.66 74.9735 309 87.8635 328.87C100.754 348.74 108.424 366.7 105.014 368.92C102.754 370.38 96.2035 364.6 88.2935 354.76" stroke="#263238" stroke-linecap="round" stroke-linejoin="round"/>
<path d="M109.193 311.06C108.82 311.629 108.287 312.074 107.662 312.34C107.036 312.605 106.346 312.68 105.678 312.553C105.01 312.427 104.394 312.106 103.909 311.63C103.423 311.154 103.09 310.545 102.95 309.879C102.811 309.214 102.871 308.522 103.125 307.891C103.378 307.26 103.813 306.719 104.374 306.335C104.935 305.951 105.597 305.742 106.277 305.734C106.957 305.726 107.624 305.919 108.193 306.29C108.573 306.537 108.9 306.857 109.156 307.23C109.411 307.604 109.591 308.024 109.684 308.468C109.777 308.911 109.781 309.368 109.697 309.813C109.613 310.258 109.442 310.682 109.193 311.06V311.06Z" fill="#263238"/>
<path d="M97.8032 363.75C97.4303 364.318 96.8974 364.763 96.2716 365.029C95.6459 365.295 94.9554 365.369 94.2874 365.243C93.6194 365.117 93.0039 364.795 92.5184 364.319C92.033 363.843 91.6995 363.234 91.56 362.569C91.4205 361.903 91.4813 361.212 91.7347 360.581C91.9881 359.95 92.4227 359.408 92.9837 359.024C93.5447 358.64 94.2069 358.431 94.8867 358.423C95.5665 358.415 96.2334 358.609 96.8032 358.98C97.1827 359.227 97.5097 359.546 97.7655 359.92C98.0212 360.293 98.2007 360.714 98.2936 361.157C98.3865 361.6 98.391 362.057 98.3069 362.502C98.2227 362.947 98.0515 363.371 97.8032 363.75V363.75Z" fill="#263238"/>
<path d="M79.4233 328C79.0504 328.568 78.5175 329.013 77.8917 329.279C77.266 329.545 76.5755 329.619 75.9076 329.493C75.2396 329.367 74.624 329.045 74.1386 328.569C73.6531 328.093 73.3196 327.484 73.1801 326.819C73.0406 326.153 73.1014 325.462 73.3548 324.831C73.6082 324.2 74.0428 323.658 74.6038 323.274C75.1648 322.89 75.827 322.681 76.5068 322.673C77.1866 322.665 77.8535 322.859 78.4233 323.23C79.1877 323.73 79.7222 324.514 79.9097 325.408C80.0972 326.302 79.9222 327.234 79.4233 328V328Z" fill="#263238"/>
<path d="M298.733 178.32H310.513L316.403 168.12L310.513 157.92H298.733L292.843 168.12L298.733 178.32Z" stroke="#263238" stroke-linecap="round" stroke-linejoin="round"/>
<path d="M297.023 200.71L291.134 190.51H279.354" stroke="#263238" stroke-linecap="round" stroke-linejoin="round"/>
<path d="M280.933 168.12H292.713L298.603 157.92L292.713 147.71H280.933L275.043 157.92L280.933 168.12Z" stroke="#263238" stroke-linecap="round" stroke-linejoin="round"/>
<path d="M298.733 157.92H310.513L316.403 147.71L310.513 137.51H298.733L292.843 147.71L298.733 157.92Z" stroke="#263238" stroke-linecap="round" stroke-linejoin="round"/>
<path d="M298.603 159.5C299.476 159.5 300.183 158.792 300.183 157.92C300.183 157.047 299.476 156.34 298.603 156.34C297.731 156.34 297.023 157.047 297.023 157.92C297.023 158.792 297.731 159.5 298.603 159.5Z" fill="#263238"/>
<path d="M274.003 138.08C274.876 138.08 275.583 137.373 275.583 136.5C275.583 135.627 274.876 134.92 274.003 134.92C273.131 134.92 272.423 135.627 272.423 136.5C272.423 137.373 273.131 138.08 274.003 138.08Z" fill="#263238"/>
<path d="M295.443 200.71C295.443 200.397 295.536 200.092 295.71 199.832C295.883 199.572 296.13 199.37 296.419 199.25C296.707 199.131 297.025 199.099 297.332 199.16C297.638 199.221 297.92 199.372 298.141 199.593C298.362 199.814 298.512 200.095 298.573 200.402C298.634 200.708 298.603 201.026 298.483 201.315C298.364 201.603 298.161 201.85 297.901 202.024C297.641 202.197 297.336 202.29 297.023 202.29C296.816 202.29 296.61 202.249 296.419 202.17C296.227 202.09 296.053 201.974 295.906 201.827C295.759 201.68 295.643 201.506 295.564 201.315C295.484 201.123 295.443 200.917 295.443 200.71V200.71Z" fill="#263238"/>
<path d="M279.353 192.09C280.226 192.09 280.933 191.382 280.933 190.51C280.933 189.637 280.226 188.93 279.353 188.93C278.481 188.93 277.773 189.637 277.773 190.51C277.773 191.382 278.481 192.09 279.353 192.09Z" fill="#263238"/>
<path d="M327.803 148C327.803 147.685 327.897 147.377 328.072 147.116C328.247 146.854 328.496 146.65 328.787 146.53C329.078 146.41 329.398 146.379 329.707 146.441C330.016 146.504 330.299 146.656 330.521 146.879C330.743 147.103 330.894 147.387 330.954 147.696C331.014 148.005 330.981 148.325 330.859 148.616C330.737 148.906 330.532 149.154 330.269 149.327C330.007 149.501 329.698 149.592 329.383 149.59C329.175 149.59 328.969 149.549 328.776 149.469C328.584 149.389 328.409 149.272 328.262 149.124C328.116 148.976 327.999 148.801 327.921 148.608C327.842 148.415 327.802 148.208 327.803 148V148Z" fill="#263238"/>
<path d="M291.014 192.09C291.886 192.09 292.594 191.382 292.594 190.51C292.594 189.637 291.886 188.93 291.014 188.93C290.141 188.93 289.434 189.637 289.434 190.51C289.434 191.382 290.141 192.09 291.014 192.09Z" fill="#263238"/>
<path d="M314.823 148C314.823 147.686 314.916 147.378 315.091 147.117C315.266 146.855 315.514 146.652 315.805 146.531C316.095 146.411 316.415 146.379 316.723 146.441C317.032 146.502 317.315 146.653 317.538 146.876C317.76 147.098 317.911 147.382 317.973 147.69C318.034 147.998 318.003 148.318 317.882 148.609C317.762 148.899 317.558 149.147 317.297 149.322C317.035 149.497 316.728 149.59 316.413 149.59C315.992 149.59 315.587 149.423 315.289 149.124C314.991 148.826 314.823 148.422 314.823 148V148Z" fill="#263238"/>
<path d="M297.023 178.33C297.021 178.015 297.113 177.706 297.287 177.443C297.461 177.18 297.709 176.975 298 176.853C298.291 176.732 298.612 176.7 298.921 176.761C299.231 176.822 299.515 176.973 299.738 177.196C299.961 177.419 300.112 177.703 300.173 178.013C300.234 178.322 300.202 178.643 300.081 178.934C299.959 179.224 299.754 179.473 299.491 179.647C299.228 179.821 298.919 179.912 298.603 179.91C298.185 179.908 297.785 179.741 297.489 179.445C297.193 179.149 297.026 178.749 297.023 178.33Z" fill="#263238"/>
<path d="M316.414 147.98H329.384" stroke="#263238" stroke-linecap="round" stroke-linejoin="round"/>
<path d="M298.603 178.33L291.013 190.51" stroke="#263238" stroke-linecap="round" stroke-linejoin="round"/>
<path d="M280.933 147.71L274.003 136.5" stroke="#263238" stroke-linecap="round" stroke-linejoin="round"/>
<path d="M364.483 107.5C365.842 102.907 368.674 98.8895 372.542 96.0658C376.411 93.2422 381.101 91.7697 385.889 91.8754C390.677 91.9812 395.297 93.6594 399.037 96.6511C402.777 99.6428 405.429 103.782 406.583 108.43" stroke="#263238" stroke-linecap="round" stroke-linejoin="round"/>
<path d="M382.903 135.34C377.583 134.731 372.672 132.186 369.108 128.19C365.543 124.193 363.573 119.025 363.573 113.67" stroke="#263238" stroke-linecap="round" stroke-linejoin="round"/>
<path d="M407.214 113.67C407.214 119.453 404.917 124.999 400.829 129.088C396.741 133.178 391.196 135.477 385.414 135.48" stroke="#263238" stroke-linecap="round" stroke-linejoin="round"/>
<path d="M408.453 99.8399C415.273 98.9699 419.843 99.4399 420.553 101.48C421.963 105.54 407.373 114.29 387.963 121.03C368.553 127.77 351.683 129.93 350.263 125.86C349.513 123.69 353.333 120.18 360.013 116.35" stroke="#263238" stroke-linecap="round" stroke-linejoin="round"/>
<path d="M291.013 84.9004L293.103 89.1304L297.773 89.8104L294.393 93.1104L295.193 97.7604L291.013 95.5604L286.833 97.7604L287.633 93.1104L284.253 89.8104L288.923 89.1304L291.013 84.9004Z" stroke="#263238" stroke-linecap="round" stroke-linejoin="round"/>
<path d="M143.374 73.63C143.371 77.3908 141.877 80.9971 139.218 83.6573C136.56 86.3176 132.955 87.8147 129.194 87.82C128.734 87.82 128.284 87.8 127.844 87.76C125.107 87.5003 122.504 86.4512 120.352 84.7402C118.2 83.0291 116.592 80.7298 115.722 78.1217C114.853 75.5136 114.759 72.709 115.454 70.049C116.148 67.3889 117.601 64.9878 119.634 63.1376C121.668 61.2874 124.195 60.0678 126.908 59.627C129.622 59.1861 132.405 59.5431 134.92 60.6545C137.435 61.7659 139.572 63.5839 141.073 65.8874C142.574 68.1909 143.373 70.8807 143.374 73.63V73.63Z" stroke="#263238" stroke-linecap="round" stroke-linejoin="round"/>
<path d="M141.104 76.19C141.106 76.6255 140.978 77.0519 140.738 77.415C140.497 77.7781 140.154 78.0616 139.752 78.2297C139.351 78.3977 138.908 78.4427 138.481 78.3589C138.053 78.2752 137.66 78.0665 137.352 77.7592C137.043 77.4519 136.832 77.0599 136.747 76.6329C136.661 76.2059 136.704 75.763 136.87 75.3604C137.036 74.9578 137.318 74.6137 137.68 74.3715C138.042 74.1293 138.468 74 138.904 74C139.485 74 140.043 74.2304 140.456 74.6408C140.868 75.0512 141.101 75.6083 141.104 76.19V76.19Z" stroke="#263238" stroke-linecap="round" stroke-linejoin="round"/>
<path d="M121.353 81.7696C121.354 82.2908 121.24 82.8057 121.019 83.2777C120.797 83.7496 120.474 84.1668 120.073 84.4996C118.209 82.9603 116.772 80.966 115.903 78.7096C116.454 78.3717 117.088 78.195 117.733 78.1996C118.206 78.1929 118.676 78.2804 119.115 78.4568C119.554 78.6333 119.953 78.8952 120.29 79.2274C120.627 79.5595 120.894 79.9553 121.077 80.3917C121.259 80.8282 121.353 81.2965 121.353 81.7696Z" stroke="#263238" stroke-linecap="round" stroke-linejoin="round"/>
<path d="M138.904 83.9996C136.281 86.4833 132.805 87.865 129.194 87.8596C128.734 87.8596 128.284 87.8396 127.844 87.7996C127.763 87.4149 127.723 87.0227 127.724 86.6296C127.724 85.3002 128.174 84.01 129 82.9681C129.825 81.9262 130.979 81.1936 132.273 80.8892C133.567 80.5848 134.926 80.7263 136.129 81.2909C137.333 81.8554 138.31 82.8099 138.904 83.9996V83.9996Z" stroke="#263238" stroke-linecap="round" stroke-linejoin="round"/>
<path d="M125.754 68.0005C127.554 68.0005 129.014 66.5409 129.014 64.7405C129.014 62.94 127.554 61.4805 125.754 61.4805C123.953 61.4805 122.494 62.94 122.494 64.7405C122.494 66.5409 123.953 68.0005 125.754 68.0005Z" stroke="#263238" stroke-linecap="round" stroke-linejoin="round"/>
<path d="M128.773 74.0002C128.773 74.2989 128.685 74.5908 128.519 74.8391C128.353 75.0875 128.117 75.281 127.841 75.3953C127.565 75.5096 127.262 75.5395 126.969 75.4812C126.676 75.423 126.407 75.2791 126.196 75.068C125.985 74.8568 125.841 74.5877 125.782 74.2948C125.724 74.0019 125.754 73.6983 125.868 73.4224C125.983 73.1465 126.176 72.9106 126.425 72.7447C126.673 72.5788 126.965 72.4902 127.263 72.4902C127.462 72.4902 127.658 72.5293 127.841 72.6052C128.024 72.6811 128.191 72.7923 128.331 72.9325C128.471 73.0727 128.583 73.2392 128.658 73.4224C128.734 73.6056 128.773 73.8019 128.773 74.0002Z" stroke="#263238" stroke-linecap="round" stroke-linejoin="round"/>
<path d="M140.704 65.3503C140.307 65.4805 139.891 65.5447 139.474 65.5404C138.928 65.5404 138.387 65.4327 137.883 65.2235C137.379 65.0143 136.921 64.7077 136.536 64.3213C136.15 63.9349 135.845 63.4762 135.637 62.9716C135.429 62.4669 135.322 61.9262 135.324 61.3804C135.313 61.2072 135.313 61.0335 135.324 60.8604C137.465 61.8815 139.316 63.4257 140.704 65.3503V65.3503Z" stroke="#263238" stroke-linecap="round" stroke-linejoin="round"/>
<path d="M466.753 238.29L468.283 234.85L465.803 233.49C465.895 232.884 465.911 232.269 465.853 231.66L468.393 230.42L467.043 226.91L464.323 227.69C463.959 227.2 463.536 226.757 463.063 226.37L463.993 223.69L460.553 222.16L459.183 224.64C458.575 224.565 457.961 224.565 457.353 224.64L456.123 222.1L452.603 223.45L453.393 226.16C452.903 226.53 452.456 226.957 452.063 227.43L449.393 226.5L447.903 229.89L450.383 231.26C450.292 231.865 450.275 232.48 450.333 233.09L447.783 234.32L449.133 237.84L451.853 237.05C452.22 237.54 452.643 237.987 453.113 238.38L452.193 241.05L455.633 242.58L456.993 240.1C457.599 240.191 458.213 240.208 458.823 240.15L460.063 242.7L463.573 241.35L462.793 238.63C463.281 238.262 463.724 237.839 464.113 237.37L466.753 238.29ZM456.293 236.37C455.504 236.018 454.836 235.441 454.374 234.71C453.913 233.98 453.678 233.129 453.7 232.265C453.723 231.401 454 230.563 454.499 229.857C454.997 229.151 455.693 228.608 456.5 228.298C457.306 227.988 458.187 227.924 459.03 228.114C459.873 228.304 460.641 228.739 461.236 229.366C461.831 229.992 462.228 230.781 462.375 231.632C462.522 232.484 462.414 233.36 462.063 234.15C461.591 235.208 460.718 236.035 459.637 236.451C458.555 236.867 457.353 236.838 456.293 236.37V236.37Z" stroke="#263238" stroke-linecap="round" stroke-linejoin="round"/>
<path d="M448.474 255.94L450.554 251.27L447.194 249.41C447.313 248.589 447.333 247.756 447.254 246.93L450.714 245.25L448.904 240.48L445.214 241.55C444.721 240.881 444.146 240.276 443.504 239.75L444.764 236.11L440.054 234L438.204 237.36C437.382 237.242 436.55 237.218 435.724 237.29L434.044 233.84L429.264 235.68L430.334 239.36C429.669 239.862 429.065 240.439 428.534 241.08L424.904 239.86L422.824 244.53L426.184 246.39C426.064 247.211 426.044 248.044 426.124 248.87L422.664 250.55L424.504 255.32L428.194 254.26C428.69 254.926 429.264 255.53 429.904 256.06L428.644 259.69L433.324 261.77L435.174 258.4C435.994 258.523 436.827 258.546 437.654 258.47L439.334 261.92L444.114 260.09L443.044 256.4C443.707 255.901 444.311 255.327 444.844 254.69L448.474 255.94ZM434.274 253.33C433.2 252.851 432.293 252.065 431.666 251.071C431.04 250.077 430.722 248.919 430.754 247.745C430.785 246.57 431.164 245.431 431.844 244.472C432.523 243.513 433.471 242.776 434.569 242.356C435.666 241.937 436.864 241.852 438.009 242.112C439.155 242.373 440.198 242.968 441.006 243.821C441.814 244.675 442.35 245.749 442.547 246.908C442.744 248.066 442.593 249.257 442.114 250.33C441.796 251.042 441.342 251.685 440.776 252.221C440.21 252.758 439.544 253.177 438.816 253.456C438.088 253.734 437.312 253.867 436.532 253.845C435.753 253.824 434.985 253.648 434.274 253.33Z" stroke="#263238" stroke-linecap="round" stroke-linejoin="round"/>
<path d="M241.173 211.61C239.803 214.207 238.256 216.706 236.543 219.09C227.659 231.443 214.604 240.163 199.79 243.639C184.976 247.115 169.405 245.112 155.953 238C154.563 237.27 153.203 236.49 151.903 235.67C150.603 234.85 149.333 234.01 148.113 233.11C146.633 232.04 145.213 230.9 143.853 229.71C143.766 229.645 143.686 229.571 143.613 229.49V229.49C134.752 221.648 128.274 211.471 124.922 200.122C121.57 188.773 121.477 176.711 124.655 165.312C127.833 153.913 134.153 143.638 142.894 135.66C151.634 127.683 162.442 122.325 174.083 120.199C185.724 118.072 197.728 119.263 208.724 123.635C219.721 128.008 229.265 135.385 236.268 144.924C243.27 154.463 247.448 165.78 248.325 177.581C249.201 189.382 246.74 201.191 241.223 211.66L241.173 211.61Z" fill="url(#paint1_linear)"/>
<g opacity="0.6">
<path opacity="0.6" d="M241.173 211.611C239.803 214.207 238.256 216.706 236.543 219.091L235.323 218.091L233.223 216.981L231.013 215.821L231.383 213.151L231.263 210.741C231.133 208.331 232.873 210.301 234.263 209.571C235.347 208.796 236.223 207.765 236.813 206.571C236.813 206.571 237.813 203.361 237.483 202.071C236.945 200.584 236.31 199.135 235.583 197.731L232.003 202.731L229.003 202.501L226.163 201.001L225.793 197.051L224.333 196.291L223.723 194.021L215.833 191.811L214.933 190.231C214.033 188.651 210.403 187.841 210.403 187.841L211.293 185.781L212.693 183.481C214.103 181.181 215.563 185.001 215.563 185.001L217.233 185.871L220.333 183.271L221.153 179.541L226.203 179.831C226.104 179.326 226.181 178.802 226.422 178.348C226.662 177.893 227.051 177.534 227.523 177.331C229.203 176.671 228.463 173.021 227.823 171.671C227.183 170.321 224.823 171.411 224.823 171.411C224.823 171.411 222.253 167.501 221.903 165.941C221.553 164.381 226.803 164.941 229.053 163.371C231.303 161.801 230.533 158.681 229.433 158.611C228.333 158.541 231.583 151.511 237.833 153.441C239.573 153.981 240.673 153.791 241.353 153.191C246.043 162.219 248.476 172.249 248.444 182.423C248.413 192.596 245.918 202.611 241.173 211.611V211.611Z" fill="white"/>
<path opacity="0.6" d="M197.443 184.561L195.303 187.251C195.303 187.251 194.393 185.081 193.093 186.251L191.093 188.031L189.643 192.091L187.043 193.771L185.453 192.941L183.953 192.141L182.323 191.281L180.763 194.281L179.493 196.681C180.112 197.859 180.882 198.951 181.783 199.931L184.543 204.801L187.903 206.501C189.305 206.553 190.7 206.72 192.073 207.001L194.383 208.211L193.563 213.211C193.563 213.211 191.823 216.041 190.663 215.261L189.493 214.491L187.593 221.071L187.513 224.691C187.513 224.691 186.383 225.161 185.243 225.541C184.103 225.921 184.823 225.721 182.433 226.461C180.043 227.201 180.233 227.171 178.293 227.721C176.64 228.299 175.048 229.043 173.543 229.941L173.713 233.421L169.143 234.091L166.583 232.731L167.213 230.531L167.513 227.091L167.163 224.521L166.063 222.251L169.143 219.461L168.463 217.711L166.713 214.231L163.013 216.231L161.113 217.231L156.813 215.301L156.343 212.691L154.903 208.001L153.563 205.081L151.183 201.861L150.583 199.091L151.923 196.551L152.633 195.211L150.443 192.261L149.843 190.161L146.153 186.811C146.153 186.811 147.223 186.741 146.983 185.251C146.743 183.761 149.093 181.251 149.093 181.251C150.423 181.951 154.413 184.731 154.413 184.731L157.903 185.211C157.903 185.211 158.603 185.211 159.283 183.891C160.078 182.676 161.011 181.559 162.063 180.561C162.063 180.561 160.453 174.971 161.603 174.221C162.753 173.471 163.923 169.811 163.923 169.811L164.843 168.061C164.843 168.061 162.673 167.111 162.263 165.961C161.853 164.811 156.503 166.341 156.503 166.341L152.813 168.901L149.903 171.151L148.643 173.541C148.643 173.541 146.073 170.451 146.063 172.181C145.867 173.954 145.478 175.701 144.903 177.391C144.903 177.391 145.433 177.671 144.733 179.011C144.033 180.351 143.273 180.281 141.733 180.471C139.726 180.491 137.72 180.354 135.733 180.061C135.733 180.061 134.733 183.761 135.423 184.401L136.103 185.021C136.103 185.021 135.033 187.711 133.973 187.151L131.393 185.791L127.783 187.251L123.783 191.671L122.893 191.491C120.442 175.047 124.581 158.301 134.41 144.893C144.24 131.485 158.965 122.5 175.383 119.891C175.613 120.891 175.863 121.831 175.863 121.831L174.863 126.771L173.583 129.211L172.483 131.301L170.933 134.241L174.903 137.901L174.053 142.231L171.903 143.581L171.283 146.831L174.973 154.041L175.973 156.871C175.356 158.225 175.052 159.702 175.083 161.191C175.083 161.191 175.533 163.891 177.503 164.961C179.473 166.031 182.063 167.291 182.063 167.291L181.853 171.291L180.963 172.291L182.443 176.601C186.953 178.371 186.523 179.851 186.953 178.371L187.393 176.901L190.463 175.791L194.373 180.461C194.828 180.455 195.278 180.563 195.68 180.776C196.082 180.99 196.423 181.301 196.673 181.681C197.813 183.121 199.593 181.871 197.443 184.561Z" fill="white"/>
<path opacity="0.6" d="M144.443 219.39C144.553 220.81 142.753 222.59 142.753 222.59L144.223 223.36L144.673 227.36L143.563 229.48C135.698 222.532 129.699 213.724 126.113 203.86L126.913 199.62L130.443 199.12C130.443 199.12 133.603 197.02 135.003 197.58C136.403 198.14 137.683 201.58 137.683 201.58C137.683 201.58 138.683 206.22 138.553 206.13H138.493H138.573L140.013 206.89L140.423 208.72L138.423 212.52H135.203C135.203 212.52 134.563 212.18 134.503 213.85C134.555 214.43 134.732 214.991 135.02 215.497C135.308 216.002 135.701 216.44 136.173 216.78L139.653 215.89L140.583 212.29L144.003 211.62C144.003 211.62 143.513 213.83 144.313 214.25L145.123 214.68L145.603 217.32C145.245 217.533 144.949 217.836 144.746 218.2C144.542 218.563 144.438 218.974 144.443 219.39Z" fill="white"/>
<path opacity="0.6" d="M160.983 225.051C160.673 224.191 160.543 223.441 158.413 222.321C156.283 221.201 156.413 221.601 155.573 222.531C155.212 223.009 154.718 223.371 154.152 223.572C153.587 223.773 152.976 223.804 152.393 223.661C150.993 223.351 151.723 224.931 151.723 224.931L152.063 229.201L148.113 233.101C149.333 234.001 150.597 234.854 151.903 235.661L152.743 233.081L159.303 235.001C157.913 234.591 158.733 232.691 158.733 232.691L157.333 231.951C157.333 231.951 161.293 225.891 160.983 225.051Z" fill="white"/>
<path opacity="0.6" d="M202.303 202.851L200.153 200.681L197.693 201.451L196.693 203.451L195.943 204.891L196.943 206.891L198.943 209.321L200.083 207.141C200.083 207.141 203.253 207.141 204.913 205.311C206.573 203.481 202.303 202.851 202.303 202.851Z" fill="white"/>
<path opacity="0.6" d="M195.983 193.061L199.983 195.161L200.143 194.221C200.352 193.468 200.72 192.768 201.223 192.171L198.163 188.931L195.983 193.061Z" fill="white"/>
<path opacity="0.6" d="M194.624 239.611L193.474 237.921L192.133 237.221H188.044L185.714 241.641C185.714 241.641 183.483 241.341 180.553 241.081C177.623 240.821 178.344 242.031 178.344 242.031L177.583 244.811C184.976 245.721 192.471 245.318 199.724 243.621C198.881 243.033 198.006 242.492 197.104 242.001L194.624 239.611Z" fill="white"/>
</g>
<path d="M241.173 211.61C239.803 214.207 238.256 216.706 236.543 219.09C227.659 231.443 214.604 240.163 199.79 243.639C184.976 247.115 169.405 245.112 155.953 238C154.563 237.27 153.203 236.49 151.903 235.67C150.603 234.85 149.333 234.01 148.113 233.11C146.633 232.04 145.213 230.9 143.853 229.71C143.766 229.645 143.686 229.571 143.613 229.49V229.49C134.752 221.648 128.274 211.471 124.922 200.122C121.57 188.773 121.477 176.711 124.655 165.312C127.833 153.913 134.153 143.638 142.894 135.66C151.634 127.683 162.442 122.325 174.083 120.199C185.724 118.072 197.728 119.263 208.724 123.635C219.721 128.008 229.265 135.385 236.268 144.924C243.27 154.463 247.448 165.78 248.325 177.581C249.201 189.382 246.74 201.191 241.223 211.66L241.173 211.61Z" stroke="#263238" stroke-linecap="round" stroke-linejoin="round"/>
<path d="M199.724 243.621C192.471 245.318 184.976 245.721 177.583 244.811L178.344 242.031C178.344 242.031 177.623 240.821 180.553 241.081C183.483 241.341 185.714 241.641 185.714 241.641L188.044 237.221H192.133L193.474 237.921L194.624 239.611L197.104 242.001C198.006 242.492 198.881 243.033 199.724 243.621Z" stroke="#263238" stroke-linecap="round" stroke-linejoin="round"/>
<path d="M241.393 153.2C240.713 153.8 239.613 153.99 237.873 153.45C231.623 151.52 228.383 158.54 229.473 158.62C230.563 158.7 231.333 161.86 229.093 163.38C226.853 164.9 221.593 164.38 221.943 165.95C222.293 167.52 224.863 171.42 224.863 171.42C224.863 171.42 227.163 170.34 227.813 171.68C228.463 173.02 229.203 176.68 227.523 177.34C227.051 177.543 226.662 177.902 226.422 178.357C226.181 178.812 226.104 179.335 226.203 179.84L221.153 179.55L220.333 183.28L217.233 185.88L215.563 185.01C215.563 185.01 214.103 181.19 212.693 183.49L211.293 185.79L210.403 187.85C210.403 187.85 214.033 188.66 214.933 190.24L215.833 191.82L223.723 194.03L224.333 196.3L225.793 197.06L226.163 201.01L229.103 202.55L232.103 202.78L235.683 197.78C236.41 199.184 237.045 200.634 237.583 202.12C237.933 203.41 236.913 206.62 236.913 206.62C236.323 207.815 235.447 208.845 234.363 209.62C232.933 210.35 231.183 208.38 231.363 210.79L231.483 213.2L231.113 215.87L233.323 217.03L235.423 218.14L236.643 219.14" stroke="#263238" stroke-linecap="round" stroke-linejoin="round"/>
<path d="M122.974 191.49L123.864 191.67L127.864 187.25L131.474 185.79L134.054 187.15C135.114 187.71 136.184 185.02 136.184 185.02L135.504 184.4C134.814 183.76 135.814 180.06 135.814 180.06C137.8 180.353 139.806 180.49 141.814 180.47C143.394 180.28 144.144 180.34 144.814 179.01C145.484 177.68 144.984 177.39 144.984 177.39C145.559 175.701 145.948 173.954 146.144 172.18C146.144 170.45 148.724 173.54 148.724 173.54L149.984 171.15L152.804 168.91L156.494 166.35C156.494 166.35 161.844 164.81 162.254 165.97C162.664 167.13 164.834 168.07 164.834 168.07L163.914 169.82C163.914 169.82 162.734 173.46 161.594 174.23C160.454 175 162.054 180.57 162.054 180.57C161.001 181.569 160.068 182.686 159.274 183.9C158.574 185.24 157.894 185.22 157.894 185.22L154.404 184.74C154.404 184.74 150.404 181.96 149.084 181.26C149.084 181.26 146.734 183.77 146.974 185.26C147.214 186.75 146.144 186.82 146.144 186.82L149.834 190.17L150.434 192.27L152.624 195.22L151.914 196.56L150.574 199.1L151.174 201.87L153.554 205.09L154.904 208L156.364 212.71L156.834 215.32L161.134 217.25L163.034 216.25L166.734 214.25L168.484 217.73L169.164 219.48L166.084 222.27L167.184 224.54L167.534 227.11L167.234 230.55L166.604 232.75L169.164 234.11L173.734 233.45L173.564 229.96C175.069 229.063 176.66 228.319 178.314 227.74C180.254 227.19 180.064 227.22 182.454 226.48C184.844 225.74 184.114 225.94 185.264 225.56C186.414 225.18 187.534 224.71 187.534 224.71L187.614 221.09L189.514 214.51L190.684 215.28C191.844 216.06 193.584 213.23 193.584 213.23L194.404 208.23L192.044 207C190.67 206.719 189.275 206.552 187.874 206.5L184.584 204.77L181.824 199.9C180.922 198.921 180.153 197.828 179.534 196.65L180.804 194.25L182.364 191.25L183.994 192.11L185.494 192.91L187.084 193.74L189.684 192.06L191.134 188L193.134 186.22C194.434 185.04 195.344 187.22 195.344 187.22L197.484 184.53C199.634 181.84 197.854 183.09 196.754 181.71C196.504 181.33 196.162 181.019 195.76 180.806C195.358 180.593 194.909 180.484 194.454 180.49L190.544 175.82L187.434 177L186.994 178.47C186.564 179.95 186.994 178.47 182.484 176.7L181.004 172.39L181.894 171.39L182.104 167.39C182.104 167.39 179.514 166.12 177.544 165.06C175.574 164 175.124 161.29 175.124 161.29C175.092 159.802 175.396 158.325 176.014 156.97L175.014 154.14L171.324 146.93L171.944 143.68L174.094 142.33L174.944 138L171.084 134.34L172.634 131.4L173.734 129.31L175.014 126.87L176.014 121.93C176.014 121.93 175.764 121.01 175.534 119.99" stroke="#263238" stroke-linecap="round" stroke-linejoin="round"/>
<path d="M143.903 229.7C143.826 229.611 143.738 229.53 143.643 229.46V229.46L144.753 227.34L144.303 223.34L142.833 222.57C142.833 222.57 144.633 220.79 144.523 219.37C144.504 218.946 144.598 218.525 144.797 218.15C144.996 217.776 145.292 217.461 145.653 217.24L145.173 214.6L144.363 214.17C143.563 213.75 144.053 211.54 144.053 211.54L140.633 212.21L139.703 215.81L136.223 216.7C135.751 216.36 135.358 215.922 135.07 215.416C134.781 214.911 134.605 214.349 134.553 213.77C134.613 212.1 135.253 212.44 135.253 212.44H138.473L140.473 208.64L140.063 206.81L138.623 206.05" stroke="#263238" stroke-linecap="round" stroke-linejoin="round"/>
<path d="M138.533 206.051C138.693 206.141 137.663 201.501 137.663 201.501C137.663 201.501 136.383 198.111 134.983 197.501C133.583 196.891 130.423 199.041 130.423 199.041L126.893 199.541L126.093 203.781" stroke="#263238" stroke-linecap="round" stroke-linejoin="round"/>
<path d="M152.743 233.08L151.903 235.66C150.57 234.847 149.307 233.993 148.113 233.1L152.063 229.2L151.723 224.93C151.723 224.93 150.993 223.35 152.393 223.66C152.976 223.803 153.587 223.772 154.152 223.571C154.718 223.37 155.212 223.008 155.573 222.53C156.393 221.6 156.293 221.2 158.413 222.32C160.533 223.44 160.673 224.19 160.983 225.05C161.293 225.91 157.333 231.98 157.333 231.98L158.733 232.72C158.733 232.72 157.913 234.62 159.303 235.03L152.743 233.08Z" stroke="#263238" stroke-linecap="round" stroke-linejoin="round"/>
<path d="M197.693 201.451L200.153 200.681L202.303 202.851C202.303 202.851 206.553 203.401 204.893 205.251C203.233 207.101 200.063 207.081 200.063 207.081L198.903 209.261L196.903 206.831L195.903 204.831L196.653 203.391L197.693 201.451Z" stroke="#263238" stroke-linecap="round" stroke-linejoin="round"/>
<path d="M201.223 192.171C200.72 192.768 200.352 193.468 200.143 194.221L199.983 195.161L195.983 193.061L198.163 188.931L201.223 192.171Z" stroke="#263238" stroke-linecap="round" stroke-linejoin="round"/>
<path d="M418.233 428.051C412.873 432.511 371.583 460.851 312.663 456.281C309.493 429.461 297.403 319.281 311.153 302.001C311.153 302.001 344.513 286.091 375.243 292.771C405.973 299.451 417.933 305.851 420.123 311.391C421.783 315.581 419.413 393.601 418.233 428.051Z" fill="#263238"/>
<path d="M374.223 304.541C356.523 319.871 333.723 316.631 334.223 304.861C334.303 303.021 336.273 300.741 336.273 300.741L335.583 299.681L332.583 295.151C330.393 291.761 327.653 287.501 325.743 284.401C324.143 281.761 364.033 257.221 364.033 271.331C364.033 291.211 373.793 294.951 373.793 294.951C377.473 296.431 380.903 298.771 374.223 304.541Z" fill="white" stroke="#263238" stroke-linecap="round" stroke-linejoin="round"/>
<path d="M385.413 334.9C385.413 334.9 381.843 347.14 383.533 350.65" stroke="white" stroke-linecap="round" stroke-linejoin="round"/>
<path d="M381.243 299.36C381.243 311.17 346.013 322.74 335.693 310.89" stroke="white" stroke-linecap="round" stroke-linejoin="round"/>
<path d="M352.263 285.73C352.263 285.73 349.903 294.63 338.903 301.58C338.378 300.68 337.531 300.011 336.533 299.71C336.202 299.657 335.864 299.657 335.533 299.71L332.533 295.18C338.223 291.08 352.263 285.73 352.263 285.73Z" fill="#263238"/>
<path d="M357.203 274.791C357.203 274.791 357.083 283.571 355.203 285.361C341.253 298.741 327.613 299.801 325.363 296.271C310.213 272.511 313.793 266.271 312.253 262.201C309.523 255.061 306.173 243.401 307.653 236.341C310.953 220.571 340.653 208.341 356.293 224.201C363.793 231.791 366.163 248.261 364.583 261.981" fill="white"/>
<path d="M357.203 274.791C357.203 274.791 357.083 283.571 355.203 285.361C341.253 298.741 327.613 299.801 325.363 296.271C310.213 272.511 313.793 266.271 312.253 262.201C309.523 255.061 306.173 243.401 307.653 236.341C310.953 220.571 340.653 208.341 356.293 224.201C363.793 231.791 366.163 248.261 364.583 261.981" stroke="#263238" stroke-linecap="round" stroke-linejoin="round"/>
<path d="M314.163 254.861C314.163 254.861 309.993 252.991 309.093 255.221" stroke="#263238" stroke-linecap="round" stroke-linejoin="round"/>
<path d="M324.273 255.001C324.273 255.001 332.943 251.371 336.843 255.781" stroke="#263238" stroke-linecap="round" stroke-linejoin="round"/>
<path d="M333.903 261.151C334.043 262.451 333.413 263.581 332.483 263.691C331.553 263.801 330.693 262.811 330.553 261.511C330.413 260.211 331.043 259.071 331.973 258.971C332.903 258.871 333.723 259.851 333.903 261.151Z" fill="#263238"/>
<path d="M316.903 261.54C317.053 262.84 316.413 263.98 315.483 264.08C314.553 264.18 313.693 263.21 313.553 261.91C313.413 260.61 314.043 259.47 314.973 259.37C315.903 259.27 316.743 260.24 316.903 261.54Z" fill="#263238"/>
<path d="M317.323 258.12C318.533 260.07 317.873 263.4 316.273 267.97C314.673 272.54 316.083 274.19 322.223 274.65" fill="white"/>
<path d="M317.323 258.12C318.533 260.07 317.873 263.4 316.273 267.97C314.673 272.54 316.083 274.19 322.223 274.65" stroke="#263238" stroke-linecap="round" stroke-linejoin="round"/>
<path d="M322.223 282.56C322.223 282.56 330.223 281.83 333.883 279.82" stroke="#263238" stroke-linecap="round" stroke-linejoin="round"/>
<path d="M372.903 237.22C372.903 231.28 367.043 219.09 356.763 217.72C350.853 211.54 342.433 209.27 332.213 211.62C308.593 217.04 301.403 240.36 300.373 244.22C300.273 244.58 300.223 244.78 300.223 244.78L306.543 243.18L303.823 248.49L307.133 250.68L306.373 251.52L310.213 255.22L309.013 248.46C309.753 244.1 314.773 238 314.773 238C312.941 240.375 311.799 243.209 311.473 246.19C313.473 241 325.473 236.19 325.473 236.19C321.583 239.35 319.473 245.53 319.473 245.53C323.173 240.97 331.843 238.02 337.393 236.45C339.263 240.96 342.233 245.67 346.473 248.28C350.473 250.74 350.333 255.82 350.333 255.82C354.637 258.812 357.807 263.166 359.333 268.18L364.173 274.8C364.173 274.8 372.903 264.09 372.903 237.22Z" fill="#263238"/>
<path d="M352.533 257.52C350.913 254.05 356.793 244.65 360.963 245.81C363.303 246.47 366.363 250.74 366.963 255.22C367.563 259.7 364.393 268.22 361.013 270.07C358.863 271.27 357.093 268 357.093 268" fill="white"/>
<path d="M352.533 257.52C350.913 254.05 356.793 244.65 360.963 245.81C363.303 246.47 366.363 250.74 366.963 255.22C367.563 259.7 364.393 268.22 361.013 270.07C358.863 271.27 357.093 268 357.093 268" stroke="#263238" stroke-linecap="round" stroke-linejoin="round"/>
<path d="M97.4131 427.25L210.403 400.83L446.083 428.05L385.403 469.55L97.4131 427.25Z" fill="white"/>
<path d="M97.4131 427.25L210.403 400.83L446.083 428.05" fill="white"/>
<path d="M97.4131 427.25L210.403 400.83L446.083 428.05" stroke="#263238" stroke-linecap="round" stroke-linejoin="round"/>
<path d="M195.193 432.55L240.933 412.33L298.763 415.32L273.043 437.31L195.193 432.55Z" fill="white" stroke="#263238" stroke-linecap="round" stroke-linejoin="round"/>
<path d="M313.383 301C298.713 307 295.553 320.49 270.623 373.8C270.623 373.8 259.553 376.07 253.623 389.52C247.693 402.97 257.623 413.59 269.053 413.23C269.053 413.23 273.643 417.23 283.053 416.82C292.463 416.41 334.053 352.77 334.053 352.77L313.383 301Z" fill="#263238"/>
<path d="M274.993 376.931C281.553 382.771 285.323 391.341 283.323 400.841" stroke="white" stroke-linecap="round" stroke-linejoin="round"/>
<path d="M281.323 379.74C281.323 379.74 289.383 381.5 290.633 391.82" stroke="white" stroke-linecap="round" stroke-linejoin="round"/>
<path d="M304.903 349.54C301.095 340.144 299.779 329.924 301.083 319.87" stroke="white" stroke-linecap="round" stroke-linejoin="round"/>
<path d="M303.763 335.94C303.153 340.14 307.493 362.5 307.463 386.01" stroke="white" stroke-linecap="round" stroke-linejoin="round"/>
<path d="M413.423 305.421C431.773 314.641 433.953 343.011 416.643 376.931C404.413 400.871 387.533 436.221 376.853 438.591C366.173 440.961 355.753 434.311 355.753 434.311C355.753 434.311 346.753 433.891 344.033 427.491C336.593 410.001 355.503 387.901 362.903 393.191C362.903 393.191 386.663 341.521 390.993 338.261" fill="#263238"/>
<path d="M342.333 416.861C339.903 404.791 358.903 390.551 362.903 393.191C362.903 393.191 377.013 393.981 379.123 403.741" stroke="white" stroke-linecap="round" stroke-linejoin="round"/>
<path d="M394.023 419.431C402.283 404.861 416.643 376.931 416.643 376.931" stroke="white" stroke-linecap="round" stroke-linejoin="round"/>
<path d="M362.903 393.19C362.903 393.19 372.793 387.27 380.183 392.87" stroke="white" stroke-linecap="round" stroke-linejoin="round"/>
<path d="M366.283 386.001C366.283 386.001 371.743 374.001 377.283 363.001C382.823 352.001 395.503 335.711 400.773 334.921" stroke="white" stroke-linecap="round" stroke-linejoin="round"/>
<path d="M262.063 407.571C260.875 407.513 259.715 407.195 258.663 406.641C241.663 397.771 228.443 383.111 220.483 372.591C217.388 368.57 214.54 364.365 211.953 360.001L216.033 342.521C216.033 342.521 219.873 352.521 235.303 362.351C250.733 372.181 269.063 375.421 274.993 385.351C280.243 394.001 270.993 408.001 262.063 407.571Z" fill="white"/>
<path opacity="0.4" d="M262.063 407.571C261.873 406.306 261.538 405.068 261.063 403.881C257.493 394.941 235.893 377.171 235.893 377.171C230.753 377.011 225.103 374.871 220.503 372.591C217.402 368.57 214.546 364.366 211.953 360.001L216.033 342.521C216.033 342.521 219.873 352.521 235.303 362.351C250.733 372.181 269.063 375.421 274.993 385.351C280.243 394.001 270.993 408.001 262.063 407.571Z" fill="url(#paint2_linear)"/>
<path d="M262.063 407.571C260.875 407.513 259.715 407.195 258.663 406.641C241.663 397.771 228.443 383.111 220.483 372.591C217.388 368.57 214.54 364.365 211.953 360.001L216.033 342.521C216.033 342.521 219.873 352.521 235.303 362.351C250.733 372.181 269.063 375.421 274.993 385.351C280.243 394.001 270.993 408.001 262.063 407.571Z" stroke="#263238" stroke-linecap="round" stroke-linejoin="round"/>
<path d="M223.563 358.941C223.563 358.941 221.453 368.261 215.893 366.171C212.893 365.041 207.113 356.081 206.023 351.561L223.563 358.941Z" fill="white" stroke="#263238" stroke-linecap="round" stroke-linejoin="round"/>
<path d="M199.053 301.551L203.593 299.211C203.593 299.211 216.423 299.321 224.383 305.791C231.613 311.671 235.283 320.881 235.283 320.881C235.283 320.881 263.373 305.371 292.063 314.271L303.763 379.481L249.973 383.001L216.403 351.111L199.053 301.551Z" fill="white" stroke="#263238" stroke-linecap="round" stroke-linejoin="round"/>
<path d="M307.463 382.09C307.463 382.09 301.153 381.9 292.713 382.18C279.953 382.58 262.323 384.02 254.263 388.71L253.883 388.58L246.503 386L246.353 385.78C244.993 383.78 234.023 368.03 218.353 361.62L196.193 299.7C196.193 299.7 219.193 300.7 231.763 321.48L238.073 323.76C238.073 323.76 275.623 312.64 296.643 316.64L307.463 382.09Z" fill="url(#paint3_linear)"/>
<path opacity="0.3" d="M246.353 385.791C244.993 383.791 234.023 368.041 218.353 361.631L196.193 299.711C196.193 299.711 219.193 300.711 231.763 321.491L246.353 385.791Z" fill="black" fill-opacity="0.7"/>
<path opacity="0.3" d="M292.713 382.181C279.953 382.581 262.323 384.021 254.263 388.711L253.883 388.581L239.143 326.001C239.143 326.001 251.203 323.291 254.913 324.661C254.903 324.681 279.423 342.771 292.713 382.181Z" fill="black" fill-opacity="0.7"/>
<path d="M307.463 382.09C307.463 382.09 301.153 381.9 292.713 382.18C279.953 382.58 262.323 384.02 254.263 388.71L253.883 388.58L246.503 386L246.353 385.78C244.993 383.78 234.023 368.03 218.353 361.62L196.193 299.7C196.193 299.7 219.193 300.7 231.763 321.48L238.073 323.76C238.073 323.76 275.623 312.64 296.643 316.64L307.463 382.09Z" stroke="#263238" stroke-linecap="round" stroke-linejoin="round"/>
<path d="M238.093 323.771L252.563 383.801" stroke="#263238" stroke-linecap="round" stroke-linejoin="round"/>
<path d="M246.503 386.011L232.443 326.021" stroke="#263238" stroke-linecap="round" stroke-linejoin="round"/>
<path d="M210.783 360.051C207.573 359.161 201.103 339.871 204.063 331.561C204.063 331.561 207.583 325.451 209.063 325.031C211.303 324.381 220.343 324.571 219.903 326.091C218.903 329.611 211.963 329.551 211.963 329.551L209.713 333.671L209.803 335.941C209.803 335.941 213.073 333.561 214.273 333.631C214.893 333.631 218.093 335.231 220.633 336.571C222.803 337.721 224.133 338.351 223.633 339.391C222.023 342.851 215.173 340.391 215.173 340.391L212.593 344.281C212.593 344.281 215.083 344.711 216.173 344.831C217.263 344.951 226.313 350.981 226.043 351.731C224.973 354.671 216.393 351.491 216.393 351.491L214.873 352.761C214.873 352.761 221.193 354.391 221.873 354.631C222.873 355.001 226.723 357.961 226.663 358.301C226.203 360.901 220.893 358.991 220.893 358.991L216.243 358.801C215.535 359.425 214.683 359.865 213.763 360.081" fill="white"/>
<path d="M210.783 360.051C207.573 359.161 201.103 339.871 204.063 331.561C204.063 331.561 207.583 325.451 209.063 325.031C211.303 324.381 220.343 324.571 219.903 326.091C218.903 329.611 211.963 329.551 211.963 329.551L209.713 333.671L209.803 335.941C209.803 335.941 213.073 333.561 214.273 333.631C214.893 333.631 218.093 335.231 220.633 336.571C222.803 337.721 224.133 338.351 223.633 339.391C222.023 342.851 215.173 340.391 215.173 340.391L212.593 344.281C212.593 344.281 215.083 344.711 216.173 344.831C217.263 344.951 226.313 350.981 226.043 351.731C224.973 354.671 216.393 351.491 216.393 351.491L214.873 352.761C214.873 352.761 221.193 354.391 221.873 354.631C222.873 355.001 226.723 357.961 226.663 358.301C226.203 360.901 220.893 358.991 220.893 358.991L216.243 358.801C215.535 359.425 214.683 359.865 213.763 360.081" stroke="#263238" stroke-linecap="round" stroke-linejoin="round"/>
<path d="M209.763 335.94C209.763 335.94 206.763 338.46 205.993 339.19C205.223 339.92 205.413 342.24 205.413 342.24" stroke="#263238" stroke-linecap="round" stroke-linejoin="round"/>
<path d="M207.593 347.36C207.593 349.9 209.293 351.44 210.073 352.26C210.853 353.08 208.823 355.31 211.073 356.91" stroke="#263238" stroke-linecap="round" stroke-linejoin="round"/>
<path d="M355.713 427.871C349.363 429.601 342.463 418.441 334.043 406.261C328.483 398.261 322.263 389.731 315.113 384.261C314.543 383.831 313.963 383.411 313.383 383.011L317.563 362.011C326.243 366.561 331.623 373.851 340.633 381.341C355.133 393.411 367.983 400.821 371.543 406.161C375.103 411.501 366.593 424.901 355.713 427.871Z" fill="white"/>
<path opacity="0.4" d="M334.043 406.25C328.483 398.25 322.263 389.72 315.113 384.25C316.055 384.298 316.998 384.155 317.883 383.83C317.883 383.83 329.183 393 334.043 406.25Z" fill="url(#paint4_linear)"/>
<path d="M355.713 427.871C349.363 429.601 342.463 418.441 334.043 406.261C328.483 398.261 322.263 389.731 315.113 384.261C314.543 383.831 313.963 383.411 313.383 383.011L317.563 362.011C326.243 366.561 331.623 373.851 340.633 381.341C355.133 393.411 367.983 400.821 371.543 406.161C375.103 411.501 366.593 424.901 355.713 427.871Z" stroke="#263238" stroke-linecap="round" stroke-linejoin="round"/>
<path d="M319.903 382.181C319.469 382.957 318.753 383.537 317.903 383.801C317.677 383.889 317.447 383.966 317.213 384.031H317.023C310.313 385.781 295.213 382.141 295.213 382.141C295.213 382.141 285.323 377.441 284.723 376.331C284.305 375.451 283.934 374.55 283.613 373.631L283.343 372.841C283.343 372.841 279.783 370.841 279.343 369.281C278.903 367.721 278.153 367.281 280.343 367.001C282.533 366.721 294.343 367.001 294.343 367.001L281.493 361.761C281.493 361.761 272.983 357.471 272.193 355.961C271.403 354.451 270.413 353.451 274.763 354.051C279.113 354.651 288.613 357.411 288.613 357.411L296.103 359.001L288.663 355.831C288.663 355.831 274.023 354.061 276.793 349.511H285.103C289.811 349.719 294.493 350.314 299.103 351.291C301.523 352.031 317.523 361.971 317.523 361.971" fill="white"/>
<path opacity="0.4" d="M317.003 384.071C310.293 385.821 295.193 382.181 295.193 382.181C295.193 382.181 285.303 377.481 284.703 376.371C284.285 375.491 283.915 374.59 283.593 373.671L295.733 375.001C295.309 375.766 295.086 376.626 295.086 377.501C295.086 378.376 295.309 379.236 295.733 380.001C297.083 382.431 312.463 384.891 317.003 384.071Z" fill="url(#paint5_linear)"/>
<path d="M319.903 382.181C319.469 382.957 318.753 383.537 317.903 383.801C317.677 383.889 317.447 383.966 317.213 384.031H317.023C310.313 385.781 295.213 382.141 295.213 382.141C295.213 382.141 285.323 377.441 284.723 376.331C284.305 375.451 283.934 374.55 283.613 373.631L283.343 372.841C283.343 372.841 279.783 370.841 279.343 369.281C278.903 367.721 278.153 367.281 280.343 367.001C282.533 366.721 294.343 367.001 294.343 367.001L281.493 361.761C281.493 361.761 272.983 357.471 272.193 355.961C271.403 354.451 270.413 353.451 274.763 354.051C279.113 354.651 288.613 357.411 288.613 357.411L296.103 359.001L288.663 355.831C288.663 355.831 274.023 354.061 276.793 349.511H285.103C289.811 349.719 294.493 350.314 299.103 351.291C301.523 352.031 317.523 361.971 317.523 361.971" stroke="#263238" stroke-linecap="round" stroke-linejoin="round"/>
<path d="M283.323 372.881L297.933 375.031" stroke="#263238" stroke-linecap="round" stroke-linejoin="round"/>
<path d="M137.683 417.62L174.303 428.62L241.303 413.33C241.303 413.33 200.383 401.71 200.003 402C199.623 402.29 137.683 417.62 137.683 417.62Z" fill="url(#paint6_linear)"/>
<path opacity="0.3" d="M137.683 417.62L174.303 428.62L241.303 413.33C241.303 413.33 200.383 401.71 200.003 402C199.623 402.29 137.683 417.62 137.683 417.62Z" fill="black" fill-opacity="0.7"/>
<path d="M137.683 417.62L174.303 428.62L241.303 413.33C241.303 413.33 200.383 401.71 200.003 402C199.623 402.29 137.683 417.62 137.683 417.62Z" stroke="#263238" stroke-linecap="round" stroke-linejoin="round"/>
<path d="M138.213 404.72C135.643 404.9 135.003 414.16 137.683 417.62L196.843 405.34L201.583 394.12L138.213 404.72Z" fill="url(#paint7_linear)"/>
<path opacity="0.3" d="M138.213 404.72C135.643 404.9 135.003 414.16 137.683 417.62L196.843 405.34L201.583 394.12L138.213 404.72Z" fill="black" fill-opacity="0.7"/>
<path d="M138.213 404.72C135.643 404.9 135.003 414.16 137.683 417.62L196.843 405.34L201.583 394.12L138.213 404.72Z" stroke="#263238" stroke-linecap="round" stroke-linejoin="round"/>
<path d="M238.433 404.591C238.433 404.591 237.553 409.461 238.123 412.461L174.233 426.921L140.553 417.001C140.553 417.001 137.053 410.811 140.103 406.001L201.643 395.551L238.433 404.591Z" fill="white" stroke="#263238" stroke-linecap="round" stroke-linejoin="round"/>
<path d="M138.213 404.72L201.583 394.12L240.933 404.09L174.753 417.28L138.213 404.72Z" fill="url(#paint8_linear)" stroke="#263238" stroke-linecap="round" stroke-linejoin="round"/>
<path d="M140.463 410.64L173.973 420.62L228.823 409.58" stroke="#263238" stroke-linecap="round" stroke-linejoin="round"/>
<path d="M237.943 410.601L178.963 423.181" stroke="#263238" stroke-linecap="round" stroke-linejoin="round"/>
<path d="M141.253 414.57C141.763 414.62 166.513 422.24 166.513 422.24" stroke="#263238" stroke-linecap="round" stroke-linejoin="round"/>
<path d="M233.123 408.29L237.813 407.53" stroke="#263238" stroke-linecap="round" stroke-linejoin="round"/>
<path d="M172.883 424.09L170.393 423.53" stroke="#263238" stroke-linecap="round" stroke-linejoin="round"/>
<path d="M140.103 406C141.414 407.511 142.173 409.422 142.255 411.421C142.337 413.42 141.736 415.387 140.553 417C139.457 415.392 138.834 413.509 138.755 411.564C138.675 409.62 139.142 407.692 140.103 406Z" fill="#263238"/>
<path opacity="0.3" d="M140.103 406C141.414 407.511 142.173 409.422 142.255 411.421C142.337 413.42 141.736 415.387 140.553 417C139.457 415.392 138.834 413.509 138.755 411.564C138.675 409.62 139.142 407.692 140.103 406Z" fill="white" fill-opacity="0.7"/>
<path d="M140.103 406C141.414 407.511 142.173 409.422 142.255 411.421C142.337 413.42 141.736 415.387 140.553 417C139.457 415.392 138.834 413.509 138.755 411.564C138.675 409.62 139.142 407.692 140.103 406Z" stroke="#263238" stroke-linecap="round" stroke-linejoin="round"/>
<path d="M276.973 420.62L340.923 423.24L334.693 445.25L256.023 442.25L276.973 420.62Z" fill="white"/>
<path opacity="0.4" d="M276.973 420.62L340.923 423.24L334.693 445.25L256.023 442.25L276.973 420.62Z" fill="url(#paint9_linear)"/>
<path d="M276.973 420.62L340.923 423.24L334.693 445.25L256.023 442.25L276.973 420.62Z" stroke="#263238" stroke-linecap="round" stroke-linejoin="round"/>
<defs>
<linearGradient id="paint0_linear" x1="256.027" y1="41.9307" x2="256.027" y2="456.383" gradientUnits="userSpaceOnUse">
<stop stop-color="#D9E78F"/>
<stop offset="1" stop-color="#A8CBF9"/>
</linearGradient>
<linearGradient id="paint1_linear" x1="185.418" y1="119.172" x2="185.418" y2="245.305" gradientUnits="userSpaceOnUse">
<stop stop-color="#D9E78F"/>
<stop offset="1" stop-color="#A8CBF9"/>
</linearGradient>
<linearGradient id="paint2_linear" x1="244.237" y1="342.521" x2="244.237" y2="407.58" gradientUnits="userSpaceOnUse">
<stop stop-color="#D9E78F"/>
<stop offset="1" stop-color="#A8CBF9"/>
</linearGradient>
<linearGradient id="paint3_linear" x1="251.828" y1="299.7" x2="251.828" y2="388.71" gradientUnits="userSpaceOnUse">
<stop stop-color="#D9E78F"/>
<stop offset="1" stop-color="#A8CBF9"/>
</linearGradient>
<linearGradient id="paint4_linear" x1="324.578" y1="383.83" x2="324.578" y2="406.25" gradientUnits="userSpaceOnUse">
<stop stop-color="#D9E78F"/>
<stop offset="1" stop-color="#A8CBF9"/>
</linearGradient>
<linearGradient id="paint5_linear" x1="300.298" y1="373.671" x2="300.298" y2="384.547" gradientUnits="userSpaceOnUse">
<stop stop-color="#D9E78F"/>
<stop offset="1" stop-color="#A8CBF9"/>
</linearGradient>
<linearGradient id="paint6_linear" x1="189.493" y1="401.995" x2="189.493" y2="428.62" gradientUnits="userSpaceOnUse">
<stop stop-color="#D9E78F"/>
<stop offset="1" stop-color="#A8CBF9"/>
</linearGradient>
<linearGradient id="paint7_linear" x1="168.769" y1="394.12" x2="168.769" y2="417.62" gradientUnits="userSpaceOnUse">
<stop stop-color="#D9E78F"/>
<stop offset="1" stop-color="#A8CBF9"/>
</linearGradient>
<linearGradient id="paint8_linear" x1="189.573" y1="394.12" x2="189.573" y2="417.28" gradientUnits="userSpaceOnUse">
<stop stop-color="#D9E78F"/>
<stop offset="1" stop-color="#A8CBF9"/>
</linearGradient>
<linearGradient id="paint9_linear" x1="298.473" y1="420.62" x2="298.473" y2="445.25" gradientUnits="userSpaceOnUse">
<stop stop-color="#D9E78F"/>
<stop offset="1" stop-color="#A8CBF9"/>
</linearGradient>
</defs>
</svg>
