<svg width="501" height="501" viewBox="0 0 501 501" fill="none" xmlns="http://www.w3.org/2000/svg">
<path opacity="0.7" d="M68.8338 167.59C68.8338 167.59 40.9538 239.59 80.1338 312.09C119.314 384.59 200.014 422.89 264.604 455.64C329.194 488.39 396.264 472.44 428.134 418.8C460.004 365.16 416.294 326.87 416.234 250.38C416.174 173.89 427.684 153.64 386.234 89.0196C344.784 24.3996 243.174 10.0896 166.334 58.0196C89.4938 105.95 68.8338 167.59 68.8338 167.59Z" fill="white"/>
<path d="M212.483 464.859C89.7034 444.099 107.243 376.359 69.7034 299.119C32.1634 221.879 28.0934 190.269 67.5234 122.909C106.953 55.5493 190.523 16.5593 267.063 71.1093C343.603 125.659 400.353 107.409 446.433 150.109C492.513 192.809 497.903 253.499 441.553 308.499C385.203 363.499 363.903 490.499 212.483 464.859Z" fill="url(#paint0_linear)"/>
<path opacity="0.2" d="M212.483 464.859C89.7034 444.099 107.243 376.359 69.7034 299.119C32.1634 221.879 28.0934 190.269 67.5234 122.909C106.953 55.5493 190.523 16.5593 267.063 71.1093C343.603 125.659 400.353 107.409 446.433 150.109C492.513 192.809 497.903 253.499 441.553 308.499C385.203 363.499 363.903 490.499 212.483 464.859Z" fill="white"/>
<path d="M316.513 464.7C316.513 464.7 294.573 459.87 290.413 448.81C286.253 437.75 294.233 409.6 295.963 381.87H205.843C207.573 409.6 215.553 437.74 211.393 448.81C207.233 459.88 185.293 464.7 185.293 464.7C185.293 464.7 230.933 486.01 247.363 486.27C265.473 486.56 316.513 464.7 316.513 464.7Z" fill="white"/>
<path opacity="0.4" d="M194.104 461.98C197.574 462.89 201.704 463.89 205.764 464.7C212.294 466.01 218.644 466.8 221.764 465.9C222.621 465.658 223.423 465.25 224.124 464.7C229.444 460.59 228.384 449.47 228.384 449.47C269.724 446.4 287.324 409.4 287.864 408.25C283.594 424.54 273.424 451.25 276.284 461.96C276.529 463.018 277.095 463.975 277.904 464.7C280.044 466.55 283.664 466.04 287.334 464.7C291.618 462.981 295.689 460.769 299.464 458.11C295.404 455.72 291.834 452.63 290.394 448.8C286.234 437.74 294.214 409.6 295.944 381.87H205.844C207.574 409.6 215.554 437.74 211.394 448.8C208.994 455.17 200.704 459.5 194.104 461.98Z" fill="url(#paint1_linear)"/>
<path d="M316.513 464.7C316.513 464.7 294.573 459.87 290.413 448.81C286.253 437.75 294.233 409.6 295.963 381.87H205.843C207.573 409.6 215.553 437.74 211.393 448.81C207.233 459.88 185.293 464.7 185.293 464.7" stroke="#263238" stroke-miterlimit="10"/>
<path d="M292.393 398.731C292.393 398.731 269.473 427.501 263.173 431.501C254.903 436.791 236.984 436.501 232.784 432.031C228.584 427.561 208.434 402.401 208.614 396.501C208.954 385.741 292.393 398.731 292.393 398.731Z" fill="#263238"/>
<path d="M200.383 341.601C200.383 341.601 193.383 331.811 189.693 331.021C187.493 330.551 182.753 333.621 182.413 336.311C182.073 339.001 185.533 353.901 184.493 357.021C183.453 360.141 189.063 368.891 193.143 373.611C197.223 378.331 198.343 381.091 201.143 377.281" fill="white"/>
<path opacity="0.4" d="M184.493 357.02C183.493 360.14 189.073 368.89 193.143 373.6C197.213 378.31 198.343 381.09 201.143 377.28C198.143 378.41 195.823 372.16 197.203 370.95C198.583 369.74 197.533 354.71 195.573 352.38C193.613 350.05 191.313 334.38 187.843 333.38C186.463 332.96 184.503 334.08 182.653 335.58C182.548 335.827 182.474 336.085 182.433 336.35C182.063 339 185.523 353.9 184.493 357.02Z" fill="url(#paint2_linear)"/>
<path d="M200.383 341.601C200.383 341.601 193.383 331.811 189.693 331.021C187.493 330.551 182.753 333.621 182.413 336.311C182.073 339.001 185.533 353.901 184.493 357.021C183.453 360.141 189.063 368.891 193.143 373.611C197.223 378.331 198.343 381.091 201.143 377.281" stroke="#263238" stroke-linecap="round" stroke-linejoin="round"/>
<path d="M185.533 344.02C185.533 344.02 184.533 339.57 186.743 338.42C188.953 337.27 191.863 351.37 193.683 352.69C195.503 354.01 194.203 357.37 193.683 359.28C193.163 361.19 195.243 361.7 195.413 363.09C195.583 364.48 195.763 366.09 194.723 366.38C193.683 366.67 190.043 364.13 189.003 362.05C187.963 359.97 187.433 353.73 187.433 353.73" stroke="#263238" stroke-linecap="round" stroke-linejoin="round"/>
<path d="M191.903 349.17C191.579 349.024 191.222 348.964 190.867 348.995C190.513 349.027 190.172 349.149 189.878 349.349C189.584 349.55 189.346 349.823 189.188 350.142C189.03 350.46 188.956 350.815 188.973 351.17" stroke="#263238" stroke-linecap="round" stroke-linejoin="round"/>
<path d="M301.423 341.601C301.423 341.601 308.423 331.811 312.113 331.021C314.313 330.551 319.053 333.621 319.393 336.311C319.733 339.001 316.273 353.901 317.313 357.021C318.353 360.141 312.743 368.891 308.663 373.611C304.583 378.331 303.463 381.091 300.663 377.281" fill="white"/>
<path opacity="0.4" d="M300.703 377.28C303.463 381.08 304.583 378.33 308.703 373.6C312.823 368.87 318.393 360.14 317.353 357.02C316.313 353.9 319.783 339.02 319.443 336.31C319.405 336.053 319.334 335.801 319.233 335.56C317.373 334.05 315.403 332.92 314.013 333.34C310.543 334.34 308.243 350.06 306.283 352.34C304.323 354.62 303.283 369.7 304.643 370.91C306.003 372.12 303.683 378.35 300.703 377.28Z" fill="url(#paint3_linear)"/>
<path d="M301.423 341.601C301.423 341.601 308.423 331.811 312.113 331.021C314.313 330.551 319.053 333.621 319.393 336.311C319.733 339.001 316.273 353.901 317.313 357.021C318.353 360.141 312.743 368.891 308.663 373.611C304.583 378.331 303.463 381.091 300.663 377.281" stroke="#263238" stroke-linecap="round" stroke-linejoin="round"/>
<path d="M316.273 344.02C316.273 344.02 317.273 339.57 315.063 338.42C312.853 337.27 309.943 351.37 308.123 352.69C306.303 354.01 307.603 357.37 308.123 359.28C308.643 361.19 306.563 361.7 306.393 363.09C306.223 364.48 306.043 366.09 307.083 366.38C308.123 366.67 311.763 364.13 312.803 362.05C313.843 359.97 314.373 353.73 314.373 353.73" stroke="#263238" stroke-linecap="round" stroke-linejoin="round"/>
<path d="M309.903 349.17C310.228 349.024 310.585 348.964 310.939 348.995C311.294 349.027 311.634 349.149 311.928 349.349C312.223 349.55 312.46 349.823 312.619 350.142C312.777 350.46 312.851 350.815 312.833 351.17" stroke="#263238" stroke-linecap="round" stroke-linejoin="round"/>
<path d="M307.783 301.841C306.553 286.551 296.573 254.411 251.063 254.211H250.743C205.233 254.411 195.253 286.551 194.023 301.841C192.793 317.131 199.283 373.951 201.583 384.691C204.043 396.201 215.673 404.691 227.783 417.331C236.533 426.491 237.893 427.661 250.783 427.801H251.103C263.953 427.661 265.313 426.491 274.103 417.331C286.213 404.661 297.843 396.201 300.303 384.691C302.523 373.951 309.013 317.161 307.783 301.841Z" fill="white"/>
<path opacity="0.4" d="M250.983 371.721C245.863 371.721 243.673 368.351 242.053 368.351C240.575 368.438 239.106 368.648 237.663 368.981C237.663 368.981 238.163 364.051 241.083 362.051C241.083 362.051 232.343 366.541 231.403 368.981C230.463 371.421 231.403 381.871 231.403 381.871C231.403 381.871 235.283 374.221 236.183 375.021C239.214 377.512 242.982 378.936 246.903 379.071L245.903 381.871L250.393 383.871C250.393 383.871 249.393 379.871 250.903 379.111C252.413 378.351 254.903 379.941 254.903 379.941C254.903 379.941 263.173 377.941 265.623 375.061C266.863 373.611 269.023 381.911 269.023 381.911C269.023 381.911 270.183 371.441 269.023 367.911C267.863 364.381 261.523 362.131 261.523 362.131C261.523 362.131 265.423 366.291 264.143 369.061C264.143 369.061 262.283 368.001 258.693 368.691C258.433 368.661 254.253 371.721 250.983 371.721Z" fill="url(#paint4_linear)"/>
<path opacity="0.4" d="M268.313 390.331C268.313 390.331 269.573 388.401 256.313 386.261L250.903 387.881L245.463 386.261C245.463 386.261 234.113 387.861 232.463 390.331C237.559 390.699 242.676 390.643 247.763 390.161L250.903 391.301L254.043 390.161C254.043 390.161 266.123 390.641 268.313 390.331Z" fill="url(#paint5_linear)"/>
<path opacity="0.4" d="M265.623 395.111C265.623 395.111 264.443 398.861 261.063 400.111C257.683 401.361 244.333 402.191 241.293 400.111C239.345 398.715 237.621 397.029 236.183 395.111C240.988 396.363 246.001 396.598 250.903 395.801C259.403 394.501 260.903 397.771 265.623 395.111Z" fill="url(#paint6_linear)"/>
<path opacity="0.4" d="M276.323 327.211C275.703 325.711 265.023 326.211 264.053 327.211C263.083 328.211 257.773 334.931 256.503 339.701C255.385 344.49 254.904 349.406 255.073 354.321C255.293 356.971 259.923 351.861 261.833 349.011C263.743 346.161 262.433 341.911 263.173 339.701C263.913 337.491 268.343 342.791 268.343 342.791C268.343 342.791 264.473 337.491 265.663 334.891C266.853 332.291 276.323 327.211 276.323 327.211Z" fill="url(#paint7_linear)"/>
<path opacity="0.4" d="M243.283 337.151C243.283 337.151 237.783 327.671 236.183 326.831C234.583 325.991 230.283 325.881 229.243 326.831C228.203 327.781 226.723 331.211 228.423 330.971C230.123 330.731 243.463 342.171 243.283 337.151Z" fill="url(#paint8_linear)"/>
<path opacity="0.4" d="M300.223 384.691C298.583 392.371 292.863 398.691 285.643 405.811C287.643 397.301 288.353 386.451 288.363 377.711C288.363 363.491 294.923 354.821 297.243 349.291C299.563 343.761 292.963 340.661 292.963 340.661C292.963 340.661 286.963 333.341 288.683 332.291C290.403 331.241 293.413 322.931 293.413 322.931L297.243 322.751C295.023 318.291 292.153 309.411 293.413 305.621C294.673 301.831 291.113 288.961 291.113 288.961L307.113 296.681C307.427 298.388 307.654 300.11 307.793 301.841C309.013 317.161 302.523 373.951 300.223 384.691Z" fill="url(#paint9_linear)"/>
<path opacity="0.4" d="M216.163 405.811C208.943 398.691 203.223 392.371 201.583 384.691C199.283 373.951 192.793 317.161 194.033 301.841C194.171 300.11 194.398 298.388 194.713 296.681L210.713 288.961C210.713 288.961 207.153 301.821 208.413 305.621C209.673 309.421 206.803 318.291 204.583 322.751L208.413 322.931C208.413 322.931 211.413 331.251 213.143 332.291C214.873 333.331 208.863 340.661 208.863 340.661C208.863 340.661 202.253 343.741 204.583 349.291C206.913 354.841 213.423 363.491 213.463 377.711C213.453 386.501 214.123 397.301 216.163 405.811Z" fill="url(#paint10_linear)"/>
<path d="M307.783 301.841C306.553 286.551 296.573 254.411 251.063 254.211H250.743C205.233 254.411 195.253 286.551 194.023 301.841C192.793 317.131 199.283 373.951 201.583 384.691C204.043 396.201 215.673 404.691 227.783 417.331C236.533 426.491 237.893 427.661 250.783 427.801H251.103C263.953 427.661 265.313 426.491 274.103 417.331C286.213 404.661 297.843 396.201 300.303 384.691C302.523 373.951 309.013 317.161 307.783 301.841Z" stroke="#263238" stroke-linecap="round" stroke-linejoin="round"/>
<path d="M264.384 323.711C264.643 322.74 265.176 321.864 265.919 321.187C266.661 320.509 267.583 320.06 268.574 319.891C273.894 318.831 281.144 317.251 287.674 319.231C296.824 322.011 296.484 327.231 296.484 327.231C295.581 325.74 294.275 324.535 292.715 323.756C291.156 322.977 289.408 322.657 287.674 322.831C281.574 323.411 264.054 325.151 264.054 325.151L264.384 323.711Z" fill="#263238"/>
<path d="M287.713 340.411C287.713 340.411 284.553 344.921 276.763 344.851C268.973 344.781 266.613 340.391 266.613 340.391L269.953 341.551C272.283 342.472 274.776 342.907 277.28 342.83C279.784 342.752 282.245 342.164 284.513 341.101L287.713 340.411Z" fill="#263238"/>
<path d="M268.333 336.64C268.333 336.64 272.143 332.54 275.333 332.41" stroke="#263238" stroke-linecap="round" stroke-linejoin="round"/>
<path d="M255.903 341.601C253.653 347.841 255.903 362.051 255.903 362.051" stroke="#263238" stroke-linecap="round" stroke-linejoin="round"/>
<path d="M268.993 339.61C268.993 339.61 277.303 343.07 284.233 339.61" stroke="#263238" stroke-linecap="round" stroke-linejoin="round"/>
<path d="M262.224 331.021C262.224 331.021 264.924 326.401 267.224 326.021" stroke="#263238" stroke-linecap="round" stroke-linejoin="round"/>
<path d="M237.423 323.711C237.163 322.74 236.631 321.864 235.888 321.187C235.145 320.509 234.224 320.06 233.233 319.891C227.913 318.831 220.663 317.251 214.133 319.231C204.983 322.011 205.323 327.231 205.323 327.231C206.225 325.74 207.532 324.535 209.091 323.756C210.651 322.977 212.399 322.657 214.133 322.831C220.233 323.411 237.753 325.151 237.753 325.151L237.423 323.711Z" fill="#263238"/>
<path d="M215.094 340.411C215.094 340.411 218.254 344.921 226.044 344.851C233.834 344.781 236.194 340.391 236.194 340.391L232.904 341.551C230.574 342.472 228.081 342.907 225.577 342.83C223.073 342.752 220.612 342.164 218.344 341.101L215.094 340.411Z" fill="#263238"/>
<path d="M234.474 336.64C234.474 336.64 230.664 332.54 227.474 332.41" stroke="#263238" stroke-linecap="round" stroke-linejoin="round"/>
<path d="M233.813 339.61C233.813 339.61 225.503 343.07 218.573 339.61" stroke="#263238" stroke-linecap="round" stroke-linejoin="round"/>
<path d="M234.594 326C242.004 327.21 245.904 341.6 245.904 341.6C248.154 347.84 245.904 362.05 245.904 362.05" stroke="#263238" stroke-linecap="round" stroke-linejoin="round"/>
<path d="M244.033 369.12C245.943 370.858 248.452 371.79 251.033 371.72C252.281 371.762 253.525 371.553 254.691 371.106C255.857 370.66 256.922 369.984 257.823 369.12" stroke="#263238" stroke-linecap="round" stroke-linejoin="round"/>
<path d="M254.514 376.671C255.417 375.576 256.475 374.62 257.654 373.831C259.234 372.891 260.294 374.621 260.294 374.621C260.294 374.621 258.294 376.531 256.724 376.221L254.514 376.671Z" fill="#263238"/>
<path d="M247.294 376.671C246.391 375.576 245.333 374.62 244.154 373.831C242.574 372.891 241.514 374.621 241.514 374.621C241.514 374.621 243.514 376.531 245.084 376.221L247.294 376.671Z" fill="#263238"/>
<path d="M241.084 376.24C241.084 376.24 236.374 374.88 236.204 372.62C236.163 371.944 236.273 371.266 236.525 370.637C236.778 370.007 237.166 369.442 237.664 368.98" stroke="#263238" stroke-linecap="round" stroke-linejoin="round"/>
<path d="M260.724 376.24C260.724 376.24 265.434 374.88 265.604 372.62C265.644 371.944 265.534 371.266 265.282 370.637C265.03 370.007 264.641 369.442 264.144 368.98" stroke="#263238" stroke-linecap="round" stroke-linejoin="round"/>
<path d="M270.403 391.661C270.403 391.661 269.453 389.561 268.313 390.331C267.173 391.101 254.613 389.801 254.043 390.161C253.763 390.341 250.903 391.301 250.903 391.301C250.903 391.301 248.043 390.301 247.763 390.161C247.193 389.801 234.633 391.091 233.493 390.331C232.353 389.571 231.403 391.661 231.403 391.661" stroke="#263238" stroke-linecap="round" stroke-linejoin="round"/>
<path d="M267.093 393.721C267.093 393.721 264.783 396.501 262.233 396.501C259.683 396.501 256.903 395.801 250.903 395.801C244.903 395.801 242.113 396.501 239.573 396.501C237.033 396.501 234.713 393.721 234.713 393.721" stroke="#263238" stroke-linecap="round" stroke-linejoin="round"/>
<path d="M267.093 388.341C267.093 388.341 258.543 386.341 256.343 386.261L250.903 387.881L245.463 386.261C243.263 386.381 234.713 388.341 234.713 388.341" stroke="#263238" stroke-linecap="round" stroke-linejoin="round"/>
<path d="M306.263 267.62C296.653 255.68 271.113 246.32 246.793 249.96C246.793 249.96 253.653 247.35 257.473 247.35C257.473 247.35 239.163 246.73 233.473 252.21L239.173 246.73C239.173 246.73 219.433 252.24 215.173 259.73L219.413 252.29C219.413 252.29 216.503 253.5 212.753 255.5C205.183 258.75 199.003 263.01 195.263 267.67C185.653 279.61 190.133 305.67 190.133 305.67C188.573 335.16 197.933 357.4 197.933 357.4C197.033 346.48 199.683 318.34 199.683 318.34C199.683 318.34 204.683 315.34 204.683 310.54C204.683 305.74 207.683 291.09 213.193 290.74C218.703 290.39 249.903 296.84 249.903 296.84L250.733 296.52L251.563 296.84C251.563 296.84 282.763 290.34 288.303 290.69C293.843 291.04 296.873 305.69 296.823 310.49C296.773 315.29 301.823 318.29 301.823 318.29C301.823 318.29 304.483 346.43 303.583 357.35C303.583 357.35 312.933 335.11 311.383 305.62C311.393 305.62 315.903 279.56 306.263 267.62Z" fill="#263238"/>
<path opacity="0.3" d="M251.904 290.501C251.904 290.501 242.144 276.951 249.474 264.301" stroke="white" stroke-linecap="round" stroke-linejoin="round"/>
<path opacity="0.3" d="M244.334 290.501C244.334 290.501 230.614 280.381 230.804 269.311" stroke="white" stroke-linecap="round" stroke-linejoin="round"/>
<path opacity="0.3" d="M234.594 289.16C234.594 289.16 215.964 284.45 213.844 275.32" stroke="white" stroke-linecap="round" stroke-linejoin="round"/>
<path opacity="0.3" d="M262.224 290.5C262.224 290.5 262.224 277.82 271.284 271.15" stroke="white" stroke-linecap="round" stroke-linejoin="round"/>
<path opacity="0.3" d="M271.283 289.161C272.587 286.867 274.375 284.886 276.524 283.356C278.673 281.826 281.13 280.783 283.723 280.301" stroke="white" stroke-linecap="round" stroke-linejoin="round"/>
<path d="M385.503 110.3V104.15L380.893 103.75C380.626 102.787 380.243 101.86 379.753 100.99L382.753 97.4599L378.403 93.1199L374.873 96.1199C374.001 95.6321 373.075 95.2494 372.113 94.9799L371.713 90.3799H365.573L365.173 94.9799C364.211 95.2494 363.284 95.6321 362.413 96.1199L358.883 93.1199L354.513 97.4999L357.513 101.03C357.022 101.9 356.64 102.827 356.373 103.79L351.763 104.19V110.34L356.373 110.73C356.638 111.693 357.021 112.62 357.513 113.49L354.513 117.02L358.863 121.37L362.393 118.37C363.265 118.854 364.191 119.234 365.153 119.5L365.553 124.11H371.693L372.093 119.5C373.054 119.234 373.981 118.854 374.853 118.37L378.383 121.37L382.733 117.02L379.733 113.49C380.225 112.62 380.608 111.693 380.873 110.73L385.503 110.3ZM368.623 114.36C367.211 114.36 365.83 113.941 364.656 113.157C363.482 112.372 362.567 111.257 362.026 109.952C361.486 108.648 361.344 107.212 361.62 105.827C361.895 104.442 362.575 103.17 363.574 102.171C364.573 101.173 365.845 100.493 367.23 100.217C368.615 99.9416 370.05 100.083 371.355 100.623C372.66 101.164 373.775 102.079 374.559 103.253C375.344 104.427 375.763 105.808 375.763 107.22C375.763 109.114 375.01 110.93 373.671 112.269C372.332 113.608 370.516 114.36 368.623 114.36V114.36Z" stroke="#263238" stroke-linecap="round" stroke-linejoin="round"/>
<path d="M408.833 124.01V119.64L405.553 119.36C405.37 118.662 405.098 117.99 404.743 117.36L406.863 114.84L403.773 111.75L401.253 113.86C400.62 113.514 399.949 113.243 399.253 113.05L398.973 109.78H394.593L394.313 113.05C393.618 113.243 392.947 113.514 392.313 113.86L389.903 111.79L386.803 114.88L388.903 117.4C388.549 118.03 388.277 118.702 388.093 119.4L384.813 119.68V124.05L388.093 124.34C388.279 125.038 388.551 125.71 388.903 126.34L386.783 128.85L389.883 131.94L392.393 129.83C393.027 130.176 393.698 130.448 394.393 130.64L394.673 133.92H399.053L399.333 130.64C400.029 130.448 400.7 130.176 401.333 129.83L403.853 131.94L406.943 128.85L404.823 126.34C405.176 125.71 405.448 125.038 405.633 124.34L408.833 124.01ZM396.833 126.91C395.829 126.91 394.847 126.612 394.011 126.054C393.176 125.496 392.525 124.703 392.14 123.774C391.756 122.846 391.655 121.825 391.851 120.839C392.047 119.854 392.531 118.949 393.241 118.238C393.952 117.528 394.857 117.044 395.842 116.848C396.828 116.652 397.849 116.752 398.777 117.137C399.706 117.521 400.499 118.173 401.057 119.008C401.616 119.843 401.913 120.826 401.913 121.83C401.913 122.498 401.782 123.16 401.526 123.777C401.27 124.394 400.895 124.954 400.422 125.426C399.949 125.898 399.388 126.272 398.771 126.526C398.153 126.781 397.491 126.912 396.823 126.91H396.833Z" stroke="#263238" stroke-linecap="round" stroke-linejoin="round"/>
<path d="M384.444 137.2V134.09L382.113 133.89C381.974 133.402 381.779 132.933 381.534 132.49L383.034 130.7L380.833 128.5L379.053 130.01C378.612 129.761 378.142 129.566 377.654 129.43L377.453 127.1H374.344L374.143 129.43C373.655 129.565 373.185 129.759 372.743 130.01L370.953 128.5L368.754 130.7L370.254 132.49C370.011 132.933 369.82 133.403 369.684 133.89L367.354 134.09V137.2L369.684 137.4C369.821 137.886 370.012 138.355 370.254 138.8L368.754 140.59L370.953 142.79L372.743 141.28C373.185 141.53 373.655 141.725 374.143 141.86L374.344 144.19H377.453L377.654 141.86C378.142 141.723 378.612 141.528 379.053 141.28L380.833 142.79L383.034 140.59L381.534 138.8C381.778 138.356 381.972 137.886 382.113 137.4L384.444 137.2ZM375.904 139.26C375.188 139.26 374.488 139.047 373.892 138.65C373.297 138.252 372.833 137.686 372.559 137.025C372.285 136.363 372.213 135.636 372.353 134.933C372.493 134.231 372.838 133.586 373.344 133.08C373.85 132.574 374.495 132.229 375.197 132.089C375.899 131.949 376.627 132.021 377.289 132.295C377.95 132.569 378.516 133.033 378.913 133.628C379.311 134.224 379.523 134.924 379.523 135.64C379.523 136.6 379.142 137.52 378.463 138.199C377.784 138.878 376.864 139.26 375.904 139.26Z" stroke="#263238" stroke-linecap="round" stroke-linejoin="round"/>
<path d="M336.143 117.27C336.141 111.472 337.282 105.73 339.501 100.373C341.719 95.016 344.971 90.1484 349.071 86.0484C353.171 81.9485 358.038 78.6964 363.396 76.4782C368.753 74.2599 374.494 73.1188 380.293 73.1201" stroke="#263238" stroke-linecap="round" stroke-linejoin="round"/>
<path d="M394.313 159.14C388.325 161.139 381.977 161.832 375.699 161.17C369.42 160.509 363.356 158.51 357.915 155.306C352.475 152.103 347.784 147.771 344.16 142.602C340.535 137.433 338.061 131.546 336.903 125.34" stroke="#263238" stroke-linecap="round" stroke-linejoin="round"/>
<path d="M406.583 152.74C404.59 154.213 402.48 155.521 400.273 156.65" stroke="#263238" stroke-linecap="round" stroke-linejoin="round"/>
<path d="M424.443 117.271C424.449 123.071 423.31 128.816 421.092 134.175C418.873 139.534 415.618 144.402 411.513 148.501" stroke="#263238" stroke-linecap="round" stroke-linejoin="round"/>
<path d="M389.183 74.0098C400.546 76.3503 410.531 83.0674 416.983 92.7098" stroke="#263238" stroke-linecap="round" stroke-linejoin="round"/>
<path d="M108.563 100.84L106.123 104.19" stroke="#263238" stroke-linecap="round" stroke-linejoin="round"/>
<path d="M103.563 102.32L106.003 98.9697" stroke="#263238" stroke-linecap="round" stroke-linejoin="round"/>
<path d="M119.995 102.812C128.974 101.163 134.916 92.5465 133.266 83.5675C131.617 74.5885 123.001 68.6468 114.022 70.2964C105.043 71.946 99.1009 80.5621 100.75 89.5411C102.4 98.5201 111.016 104.462 119.995 102.812Z" stroke="#263238" stroke-linecap="round" stroke-linejoin="round"/>
<path d="M87.3133 127.33C87.0419 127.134 86.8119 126.886 86.6368 126.6C86.4616 126.315 86.3446 125.997 86.2926 125.667C86.2405 125.336 86.2544 124.998 86.3335 124.672C86.4126 124.347 86.5552 124.04 86.7533 123.77L101.613 103.36C102.011 102.814 102.61 102.448 103.277 102.343C103.945 102.238 104.627 102.403 105.173 102.8V102.8C105.445 102.996 105.675 103.244 105.85 103.53C106.025 103.815 106.142 104.133 106.194 104.464C106.246 104.794 106.232 105.132 106.153 105.458C106.074 105.783 105.931 106.09 105.733 106.36L90.9033 126.77C90.7068 127.046 90.4573 127.279 90.1693 127.457C89.8813 127.635 89.5606 127.754 89.2262 127.806C88.8917 127.858 88.5502 127.843 88.2217 127.761C87.8932 127.679 87.5843 127.533 87.3133 127.33V127.33Z" stroke="#263238" stroke-linecap="round" stroke-linejoin="round"/>
<path d="M128.603 94.9903C126.937 97.2877 124.626 99.039 121.964 100.022C119.301 101.006 116.407 101.177 113.647 100.514C110.887 99.8514 108.386 98.3847 106.461 96.2997C104.535 94.2147 103.271 91.6051 102.83 88.8015C102.388 85.9979 102.789 83.1263 103.98 80.5503C105.172 77.9744 107.101 75.8099 109.523 74.331C111.946 72.8521 114.752 72.1254 117.588 72.2427C120.424 72.3601 123.161 73.3163 125.453 74.9903C128.518 77.2287 130.57 80.5906 131.161 84.3394C131.751 88.0883 130.831 91.9183 128.603 94.9903V94.9903Z" stroke="#263238" stroke-linecap="round" stroke-linejoin="round"/>
<path d="M91.3032 138.68C80.6886 133.74 72.4711 124.786 68.4579 113.787C64.4447 102.788 64.9646 90.6457 69.9032 80.0303" stroke="#263238" stroke-linecap="round" stroke-linejoin="round"/>
<path d="M153.803 103.59C153.094 109.869 151.046 115.924 147.797 121.344C144.548 126.764 140.174 131.425 134.971 135.01C129.767 138.596 123.855 141.024 117.633 142.129C111.411 143.235 105.024 142.993 98.9033 141.42" stroke="#263238" stroke-linecap="round" stroke-linejoin="round"/>
<path d="M153.163 89.7705C153.665 92.1979 153.963 94.6633 154.053 97.1405" stroke="#263238" stroke-linecap="round" stroke-linejoin="round"/>
<path d="M128.533 58.6201C133.793 61.0574 138.52 64.5102 142.441 68.7799C146.362 73.0496 149.401 78.0522 151.383 83.5001" stroke="#263238" stroke-linecap="round" stroke-linejoin="round"/>
<path d="M74.4531 72.3403C79.685 65.2872 86.9032 59.9563 95.1831 57.0303C97.7636 56.1241 100.421 55.4546 103.123 55.0303" stroke="#263238" stroke-linecap="round" stroke-linejoin="round"/>
<path d="M37.123 208.85C37.1217 204.502 37.9772 200.195 39.6405 196.177C41.3039 192.159 43.7425 188.507 46.8172 185.432C49.8919 182.356 53.5423 179.916 57.5601 178.252C61.5778 176.587 65.8841 175.73 70.233 175.73" stroke="#263238" stroke-linecap="round" stroke-linejoin="round"/>
<path d="M80.7528 240.25C76.2601 241.752 71.4977 242.272 66.7867 241.777C62.0757 241.282 57.5256 239.783 53.443 237.381C49.3605 234.978 45.8404 231.729 43.12 227.851C40.3996 223.973 38.5421 219.557 37.6729 214.9" stroke="#263238" stroke-linecap="round" stroke-linejoin="round"/>
<path d="M89.9529 235.5C88.4588 236.609 86.873 237.589 85.2129 238.43" stroke="#263238" stroke-linecap="round" stroke-linejoin="round"/>
<path d="M103.343 208.85C103.348 213.198 102.494 217.505 100.829 221.523C99.1645 225.54 96.7221 229.189 93.6426 232.26" stroke="#263238" stroke-linecap="round" stroke-linejoin="round"/>
<path d="M76.9033 176.41C85.4213 178.16 92.91 183.188 97.7533 190.41" stroke="#263238" stroke-linecap="round" stroke-linejoin="round"/>
<path d="M83.5326 202.09C83.535 199.747 82.9186 197.446 81.7458 195.418C80.5731 193.39 78.8856 191.708 76.854 190.542C74.8224 189.376 72.5188 188.767 70.1763 188.776C67.8338 188.786 65.5355 189.415 63.5138 190.598C61.4922 191.782 59.819 193.478 58.6634 195.516C57.5079 197.553 56.911 199.86 56.9332 202.202C56.9554 204.545 57.5959 206.84 58.7899 208.855C59.9838 210.871 61.6889 212.535 63.7326 213.68L64.1726 215.38H76.2926L76.7226 213.68C78.7862 212.529 80.5053 210.847 81.7024 208.81C82.8995 206.773 83.5313 204.453 83.5326 202.09V202.09Z" stroke="#263238" stroke-linecap="round" stroke-linejoin="round"/>
<path d="M73.9031 226.39H66.5031C66.0328 226.388 65.5799 226.212 65.2312 225.896C64.8824 225.581 64.6624 225.148 64.6131 224.68L63.7031 215.38H76.7031L75.7931 224.68C75.7482 225.149 75.5294 225.585 75.1797 225.901C74.83 226.218 74.3747 226.392 73.9031 226.39V226.39Z" stroke="#263238" stroke-linecap="round" stroke-linejoin="round"/>
<path d="M74.0726 226.56C74.0726 227.85 72.3526 228.9 70.2326 228.9C68.1126 228.9 66.3926 227.85 66.3926 226.56" stroke="#263238" stroke-linecap="round" stroke-linejoin="round"/>
<path d="M63.7334 205.29H66.8234L68.7434 201.24L70.9834 209.02L73.3234 202.09L74.4934 205.13H76.7234" stroke="#263238" stroke-linecap="round" stroke-linejoin="round"/>
<path d="M241.263 29.84C246.106 27.6909 251.604 27.5516 256.55 29.4527C261.496 31.3539 265.486 35.1401 267.643 39.98" stroke="#263238" stroke-linecap="round" stroke-linejoin="round"/>
<path d="M234.643 61.6104C232.709 59.5003 231.251 56.9997 230.366 54.2774C229.481 51.5552 229.191 48.6748 229.515 45.8308C229.84 42.9869 230.771 40.2456 232.245 37.7924C233.72 35.3391 235.704 33.2309 238.063 31.6104" stroke="#263238" stroke-linecap="round" stroke-linejoin="round"/>
<path d="M239.543 65.5004C238.566 64.947 237.636 64.3149 236.763 63.6104" stroke="#263238" stroke-linecap="round" stroke-linejoin="round"/>
<path d="M257.503 66.3701C255.106 67.4398 252.521 68.025 249.897 68.0919C247.273 68.1588 244.661 67.7062 242.213 66.7601" stroke="#263238" stroke-linecap="round" stroke-linejoin="round"/>
<path d="M268.903 43.8301C270.008 48.9613 269.068 54.321 266.283 58.7701" stroke="#263238" stroke-linecap="round" stroke-linejoin="round"/>
<path d="M251.063 53.1003H247.703L245.703 36.6104H253.063L251.063 53.1003Z" stroke="#263238" stroke-linecap="round" stroke-linejoin="round"/>
<path d="M251.063 56.0996H247.703L246.703 59.5996H252.063L251.063 56.0996Z" stroke="#263238" stroke-linecap="round" stroke-linejoin="round"/>
<path d="M440.813 248.7C435.659 249.937 430.224 249.078 425.704 246.31C421.183 243.542 417.946 239.093 416.703 233.94" stroke="#263238" stroke-linecap="round" stroke-linejoin="round"/>
<path d="M453.083 218.65C454.597 221.074 455.574 223.794 455.948 226.628C456.322 229.461 456.085 232.342 455.252 235.075C454.419 237.809 453.01 240.333 451.12 242.476C449.229 244.619 446.901 246.333 444.293 247.5" stroke="#263238" stroke-linecap="round" stroke-linejoin="round"/>
<path d="M448.963 213.93C449.825 214.65 450.625 215.443 451.353 216.3" stroke="#263238" stroke-linecap="round" stroke-linejoin="round"/>
<path d="M431.463 209.83C434.015 209.213 436.663 209.107 439.256 209.517C441.849 209.927 444.336 210.846 446.573 212.22" stroke="#263238" stroke-linecap="round" stroke-linejoin="round"/>
<path d="M416.153 229.93C416.012 225.959 417.056 222.035 419.153 218.66C419.811 217.61 420.564 216.622 421.403 215.71" stroke="#263238" stroke-linecap="round" stroke-linejoin="round"/>
<path d="M442.423 221.26C441.263 220.888 440.012 220.918 438.872 221.347C437.732 221.775 436.77 222.576 436.143 223.62C435.512 222.575 434.547 221.773 433.403 221.344C432.26 220.916 431.005 220.886 429.843 221.26C426.213 222.38 424.953 227.01 428.013 231.26C430.056 233.792 432.635 235.841 435.563 237.26L436.143 237.54L436.713 237.26C439.642 235.843 442.221 233.794 444.263 231.26C447.323 227.01 446.053 222.38 442.423 221.26Z" stroke="#263238" stroke-linecap="round" stroke-linejoin="round"/>
<path d="M360.313 270.83C363.611 269.125 367.211 268.087 370.91 267.774C374.609 267.462 378.333 267.881 381.869 269.009C385.406 270.136 388.685 271.949 391.521 274.345C394.356 276.74 396.691 279.671 398.393 282.97" stroke="#263238" stroke-linecap="round" stroke-linejoin="round"/>
<path d="M353.583 316.22C350.684 313.402 348.423 309.994 346.952 306.227C345.482 302.461 344.836 298.422 345.059 294.385C345.281 290.348 346.367 286.405 348.243 282.823C350.119 279.241 352.741 276.103 355.933 273.62" stroke="#263238" stroke-linecap="round" stroke-linejoin="round"/>
<path d="M360.833 321.32C359.409 320.616 358.044 319.796 356.753 318.87" stroke="#263238" stroke-linecap="round" stroke-linejoin="round"/>
<path d="M386.253 321.05C382.958 322.758 379.358 323.799 375.66 324.111C371.961 324.423 368.238 324.002 364.703 322.87" stroke="#263238" stroke-linecap="round" stroke-linejoin="round"/>
<path d="M400.503 288.29C402.022 293.705 401.889 299.45 400.123 304.79C399.58 306.456 398.881 308.066 398.033 309.6" stroke="#263238" stroke-linecap="round" stroke-linejoin="round"/>
<path d="M373.943 308.54C381.294 308.54 387.253 302.581 387.253 295.23C387.253 287.879 381.294 281.92 373.943 281.92C366.592 281.92 360.633 287.879 360.633 295.23C360.633 302.581 366.592 308.54 373.943 308.54Z" stroke="#263238" stroke-linecap="round" stroke-linejoin="round"/>
<path d="M376.693 298.09C376.124 298.643 375.403 299.015 374.622 299.158C373.841 299.301 373.036 299.209 372.308 298.892C371.58 298.576 370.962 298.05 370.534 297.381C370.106 296.713 369.886 295.932 369.903 295.138C369.92 294.344 370.173 293.574 370.629 292.924C371.086 292.275 371.725 291.776 372.466 291.49C373.207 291.205 374.016 291.147 374.79 291.323C375.564 291.5 376.268 291.902 376.813 292.48C377.533 293.243 377.924 294.26 377.901 295.309C377.879 296.359 377.445 297.357 376.693 298.09Z" stroke="#263238" stroke-linecap="round" stroke-linejoin="round"/>
<path d="M379.743 301.28C378.545 302.425 377.035 303.19 375.403 303.478C373.77 303.765 372.09 303.562 370.573 302.894C369.056 302.227 367.771 301.124 366.881 299.726C365.991 298.328 365.535 296.698 365.571 295.041C365.608 293.384 366.135 291.775 367.085 290.418C368.036 289.06 369.368 288.015 370.912 287.414C372.457 286.814 374.145 286.685 375.763 287.043C377.381 287.402 378.857 288.233 380.003 289.43C380.764 290.225 381.361 291.162 381.76 292.188C382.159 293.214 382.351 294.308 382.327 295.409C382.303 296.509 382.062 297.594 381.619 298.601C381.175 299.609 380.538 300.519 379.743 301.28Z" stroke="#263238" stroke-linecap="round" stroke-linejoin="round"/>
<path d="M373.943 295.23L388.433 281.36" stroke="#263238" stroke-linecap="round" stroke-linejoin="round"/>
<path d="M388.543 277.86L388.473 281.32L391.933 281.39" stroke="#263238" stroke-linecap="round" stroke-linejoin="round"/>
<path d="M386.383 279.93L386.303 283.39L389.763 283.47" stroke="#263238" stroke-linecap="round" stroke-linejoin="round"/>
<path d="M384.213 282.01L384.143 285.47L387.603 285.54" stroke="#263238" stroke-linecap="round" stroke-linejoin="round"/>
<path d="M117.223 329.97C112.069 331.207 106.634 330.347 102.114 327.58C97.5929 324.812 94.3557 320.363 93.1133 315.21" stroke="#263238" stroke-linecap="round" stroke-linejoin="round"/>
<path d="M129.493 299.92C131.011 302.344 131.991 305.066 132.367 307.902C132.743 310.737 132.506 313.62 131.673 316.357C130.84 319.093 129.43 321.619 127.537 323.764C125.645 325.909 123.314 327.623 120.703 328.79" stroke="#263238" stroke-linecap="round" stroke-linejoin="round"/>
<path d="M125.373 295.2C126.236 295.921 127.035 296.714 127.763 297.57" stroke="#263238" stroke-linecap="round" stroke-linejoin="round"/>
<path d="M107.903 291.1C110.451 290.488 113.095 290.386 115.682 290.797C118.27 291.209 120.751 292.128 122.983 293.5" stroke="#263238" stroke-linecap="round" stroke-linejoin="round"/>
<path d="M92.5629 311.2C92.4036 305.943 94.3221 300.834 97.9029 296.98" stroke="#263238" stroke-linecap="round" stroke-linejoin="round"/>
<path d="M103.923 303.21V317.85H121.173" stroke="#263238" stroke-linecap="round" stroke-linejoin="round"/>
<path d="M110.053 307.32H107.483V317.85H110.053V307.32Z" stroke="#263238" stroke-linecap="round" stroke-linejoin="round"/>
<path d="M115.053 310.32H112.483V317.85H115.053V310.32Z" stroke="#263238" stroke-linecap="round" stroke-linejoin="round"/>
<path d="M120.053 304.32H117.483V317.85H120.053V304.32Z" stroke="#263238" stroke-linecap="round" stroke-linejoin="round"/>
<path d="M132.543 295.23L250.903 183.42L105.173 202.35" stroke="#263238" stroke-linecap="round" stroke-linejoin="round"/>
<path d="M151.393 126.91L250.903 183.42L249.033 71.0596" stroke="#263238" stroke-linecap="round" stroke-linejoin="round"/>
<path d="M339.643 143.38L250.903 183.42L411.513 222.82" stroke="#263238" stroke-linecap="round" stroke-linejoin="round"/>
<path d="M250.903 183.42L350.473 273.62" stroke="#263238" stroke-linecap="round" stroke-linejoin="round"/>
<path d="M316.063 180.27C316.065 167.572 312.356 155.15 305.393 144.532C298.43 133.913 288.516 125.56 276.869 120.5C265.223 115.44 252.352 113.893 239.838 116.049C227.324 118.205 215.713 123.971 206.432 132.637C197.151 141.304 190.604 152.493 187.597 164.83C184.59 177.167 185.252 190.114 189.504 202.079C193.755 214.044 201.411 224.507 211.528 232.18C221.646 239.853 233.785 244.403 246.453 245.27L250.903 262.27L255.353 245.27C271.825 244.145 287.256 236.808 298.526 224.742C309.795 212.676 316.064 196.781 316.063 180.27V180.27Z" fill="white"/>
<path d="M316.063 180.27C316.065 167.572 312.356 155.15 305.393 144.532C298.43 133.913 288.516 125.56 276.869 120.5C265.223 115.44 252.352 113.893 239.838 116.049C227.324 118.205 215.713 123.971 206.432 132.637C197.151 141.304 190.604 152.493 187.597 164.83C184.59 177.167 185.252 190.114 189.504 202.079C193.755 214.044 201.411 224.507 211.528 232.18C221.646 239.853 233.785 244.403 246.453 245.27L250.903 262.27L255.353 245.27C271.825 244.145 287.256 236.808 298.526 224.742C309.795 212.676 316.064 196.781 316.063 180.27V180.27Z" stroke="#263238" stroke-linecap="round" stroke-linejoin="round"/>
<path d="M289.903 187.11C289.563 188.7 289.303 190.55 289.043 192.34C288.769 194.881 288.278 197.393 287.573 199.85C287.124 200.884 286.439 201.798 285.573 202.52C285.573 203.64 285.033 210.18 280.453 212.27C280.392 212.907 280.178 213.521 279.83 214.059C279.482 214.596 279.01 215.043 278.453 215.36C278.283 215.46 262.373 224.09 256.713 224.09C256.355 224.095 255.998 224.048 255.653 223.95C252.933 223.05 251.653 221.36 251.753 218.62C251.811 217.419 252.03 216.232 252.403 215.09C251.323 213.6 251.563 211.7 251.783 210.02C251.989 209.07 252.013 208.089 251.853 207.13C251.313 205.07 252.083 201.73 252.293 200.91C251.613 199.85 251.813 196.83 252.183 192.73C252.313 191.33 252.433 190 252.433 189.19C252.486 188.291 252.875 187.445 253.523 186.82C253.273 184.54 253.273 182.24 253.523 179.96C252.393 175.69 253.353 169.48 253.523 168.55C252.119 164.779 252.041 160.641 253.303 156.82C251.433 153.18 252.393 146.17 252.503 145.42C252.423 144.84 251.933 140.6 253.943 138.66C254.419 138.234 254.994 137.932 255.615 137.782C256.236 137.632 256.885 137.638 257.503 137.8C260.973 138.44 263.153 138.88 264.733 139.31C265.624 139.542 266.494 139.85 267.333 140.23C268.744 141.114 269.805 142.461 270.333 144.04C271.3 143.763 272.317 143.716 273.305 143.902C274.293 144.087 275.223 144.501 276.023 145.11C278.273 146.85 278.363 148.44 278.283 149.11C283.183 152.11 285.033 164.43 285.283 165.95C286.06 166.791 286.608 167.818 286.872 168.932C287.137 170.046 287.11 171.209 286.793 172.31C287.54 173.078 288.063 174.035 288.308 175.077C288.553 176.12 288.51 177.21 288.183 178.23C288.032 178.724 287.828 179.2 287.573 179.65C287.603 179.78 290.773 182.93 289.903 187.11Z" fill="url(#paint11_linear)"/>
<path opacity="0.2" d="M289.903 187.11C289.563 188.7 289.303 190.55 289.043 192.34C288.77 194.881 288.278 197.394 287.573 199.85C287.125 200.884 286.44 201.799 285.573 202.52C285.573 203.64 285.033 210.18 280.453 212.27C280.392 212.908 280.178 213.521 279.83 214.059C279.482 214.597 279.01 215.043 278.453 215.36C278.283 215.46 262.373 224.09 256.713 224.09C256.355 224.095 255.998 224.048 255.653 223.95C252.933 223.05 251.653 221.36 251.753 218.62C251.969 218.748 252.135 218.945 252.223 219.18C253.663 222.06 256.393 222.36 258.693 221.91C260.993 221.46 261.563 218.72 261.563 218.72L257.563 216.24C257.563 216.24 262.103 214.79 264.913 213.74C265.266 213.647 265.59 213.467 265.856 213.218C266.123 212.969 266.323 212.657 266.44 212.312C266.557 211.966 266.587 211.597 266.526 211.237C266.466 210.878 266.317 210.538 266.093 210.25C265.372 210.424 264.621 210.445 263.891 210.311C263.16 210.176 262.466 209.89 261.853 209.47C261.96 208.984 262.172 208.527 262.475 208.131C262.777 207.735 263.162 207.411 263.603 207.18C264.953 206.68 269.673 203.9 267.853 202.45C266.033 201 263.603 202.35 263.603 202.35C259.953 202.93 258.653 200.83 258.653 200.83C258.653 200.83 268.903 197.83 268.753 194.32C268.788 192.558 268.447 190.81 267.753 189.19C267.753 189.19 271.863 188.01 272.633 185.13C273.403 182.25 270.143 178.84 270.143 178.84C271.803 179.26 272.893 176.84 272.633 175.9C272.373 174.96 275.923 172.12 275.763 170.15C275.603 168.18 272.633 167.94 272.633 167.94C274.483 164.06 271.343 155.85 271.343 155.85C272.213 151.54 268.343 147.85 268.343 147.85C268.593 144.6 266.523 141.47 264.653 139.33C265.545 139.562 266.414 139.87 267.253 140.25C268.665 141.134 269.725 142.481 270.253 144.06C271.22 143.783 272.237 143.736 273.225 143.922C274.213 144.108 275.144 144.521 275.943 145.13C278.193 146.87 278.283 148.46 278.203 149.13C283.103 152.13 284.953 164.45 285.203 165.97C285.981 166.811 286.528 167.838 286.792 168.952C287.057 170.066 287.03 171.23 286.713 172.33C287.46 173.098 287.983 174.055 288.228 175.098C288.473 176.14 288.43 177.23 288.103 178.25C287.953 178.744 287.748 179.22 287.493 179.67C287.603 179.78 290.773 182.93 289.903 187.11Z" fill="black"/>
<path opacity="0.2" d="M249.453 215.09C250.953 219.99 249.943 222.72 246.203 223.95C245.858 224.048 245.501 224.095 245.143 224.09C242.993 224.09 239.363 222.84 235.673 221.29C237.211 221.66 238.826 221.542 240.293 220.95C244.523 218.52 241.593 216.24 241.593 216.24C247.123 216.79 245.953 210.24 246.393 207.18C246.833 204.12 243.163 201.33 243.163 201.33C246.023 201.77 245.353 195.33 246.593 192.94C247.833 190.55 245.683 185.29 245.683 185.29C245.223 181.11 243.533 179.78 245.683 176.94C247.833 174.1 245.683 167.15 245.683 167.15C245.683 167.15 247.163 164.05 246.593 161.57C246.023 159.09 246.593 154.23 246.593 154.23C244.593 151.65 246.593 143.16 246.593 143.16C246.604 141.529 247.016 139.925 247.793 138.49L247.983 138.66C249.983 140.6 249.503 144.84 249.423 145.42C249.533 146.17 250.493 153.18 248.623 156.82C249.885 160.642 249.808 164.779 248.403 168.55C248.553 169.48 249.513 175.69 248.403 179.96C248.654 182.24 248.654 184.54 248.403 186.82C249.051 187.445 249.441 188.291 249.493 189.19C249.493 190 249.613 191.33 249.733 192.73C250.113 196.83 250.313 199.85 249.633 200.91C249.843 201.73 250.633 205.07 250.073 207.13C249.914 208.089 249.937 209.07 250.143 210.02C250.293 211.7 250.533 213.6 249.453 215.09Z" fill="black"/>
<path d="M261.673 147.84C261.673 147.84 260.673 153.51 263.673 155.84C263.673 155.84 263.063 162.84 264.883 166.05C264.883 166.05 261.883 172.51 264.883 176.55C264.883 176.55 261.253 186.23 264.883 188.65C268.513 191.07 278.193 184.42 282.033 183.65C285.873 182.88 290.503 176.79 286.243 172.44" stroke="#263238" stroke-linecap="round" stroke-linejoin="round"/>
<path d="M274.743 167.5C274.743 167.5 274.743 165.5 274.743 162.65C274.743 159.8 272.563 155.87 272.563 155.87C273.563 153.33 269.743 147.87 269.743 147.87C271.353 145.38 268.743 141.4 267.053 140.6C265.363 139.8 263.053 139.26 257.313 138.21C251.573 137.16 252.763 145.45 252.763 145.45C252.763 145.45 251.583 153.18 253.603 156.81C252.311 160.625 252.382 164.771 253.803 168.54C253.803 168.54 252.593 175.46 253.803 179.96C253.803 179.96 253.363 185.02 253.883 186.96" stroke="#263238" stroke-linecap="round" stroke-linejoin="round"/>
<path d="M270.733 168.5C273.653 167.323 276.914 167.323 279.833 168.5" stroke="#263238" stroke-linecap="round" stroke-linejoin="round"/>
<path d="M257.633 184.55C257.633 184.55 252.763 186.49 252.763 189.19C252.763 191.89 251.513 199.68 252.653 200.83C253.793 201.98 263.863 201.37 270.733 196.73C270.733 196.73 279.423 197.54 281.243 195.32C283.063 193.1 286.133 192.53 286.513 191.1" stroke="#263238" stroke-linecap="round" stroke-linejoin="round"/>
<path d="M287.203 179.93C287.203 179.93 290.373 183.01 289.513 187.03C288.653 191.05 288.303 196.61 287.203 199.73C286.103 202.85 278.933 207.08 274.743 205.84C274.743 205.84 262.683 210.56 259.653 209.3" stroke="#263238" stroke-linecap="round" stroke-linejoin="round"/>
<path d="M252.654 200.83C252.654 200.83 251.584 204.83 252.174 207.02C252.764 209.21 250.924 212.74 252.764 215.02C254.604 217.3 269.544 216.09 271.764 213.67" stroke="#263238" stroke-linecap="round" stroke-linejoin="round"/>
<path d="M279.833 209.5C279.833 209.5 281.083 213.39 278.213 215.02C275.343 216.65 259.473 224.8 255.733 223.57C251.993 222.34 251.333 219.57 252.733 215.02" stroke="#263238" stroke-linecap="round" stroke-linejoin="round"/>
<path d="M285.173 202.35C285.173 202.35 285.014 209.93 280.104 212.01" stroke="#263238" stroke-linecap="round" stroke-linejoin="round"/>
<path d="M270.013 144.5C270.962 144.171 271.978 144.081 272.971 144.238C273.963 144.395 274.901 144.794 275.703 145.4C278.423 147.48 277.773 149.27 277.773 149.27C282.973 152.08 284.773 166.11 284.773 166.11C285.56 166.927 286.112 167.943 286.369 169.048C286.626 170.154 286.579 171.308 286.233 172.39C285.233 176.52 279.393 175.53 274.713 178.09C270.033 180.65 264.873 176.54 264.873 176.54" stroke="#263238" stroke-linecap="round" stroke-linejoin="round"/>
<path d="M264.903 188.66C264.233 189.786 263.327 190.752 262.245 191.492C261.164 192.231 259.935 192.725 258.643 192.94" stroke="#263238" stroke-linecap="round" stroke-linejoin="round"/>
<path d="M263.593 173.73C261.268 173.406 258.901 173.83 256.833 174.94" stroke="#263238" stroke-linecap="round" stroke-linejoin="round"/>
<path d="M253.803 168.5C253.803 168.5 258.043 165.25 259.653 165.85" stroke="#263238" stroke-linecap="round" stroke-linejoin="round"/>
<path d="M263.593 158.6C263.593 158.6 258.243 157.99 256.833 160.21" stroke="#263238" stroke-linecap="round" stroke-linejoin="round"/>
<path d="M253.604 156.78C253.604 156.78 254.204 153.96 256.834 153.56" stroke="#263238" stroke-linecap="round" stroke-linejoin="round"/>
<path d="M252.763 145.42C252.763 145.42 254.413 142.52 256.833 142.99" stroke="#263238" stroke-linecap="round" stroke-linejoin="round"/>
<path d="M274.743 205.84C274.743 205.84 275.193 202.7 273.373 201.33" stroke="#263238" stroke-linecap="round" stroke-linejoin="round"/>
<path d="M270.733 196.73C270.733 196.73 272.163 192.4 271.733 191.34" stroke="#263238" stroke-linecap="round" stroke-linejoin="round"/>
<path d="M261.513 200.89C262.058 201.13 262.533 201.503 262.897 201.975C263.26 202.446 263.499 203.002 263.593 203.59" stroke="#263238" stroke-linecap="round" stroke-linejoin="round"/>
<path d="M277.604 176.94C277.604 176.94 279.223 179.58 278.423 181.4" stroke="#263238" stroke-linecap="round" stroke-linejoin="round"/>
<path d="M284.803 166.13C284.803 166.13 281.643 163.64 279.803 163.24" stroke="#263238" stroke-linecap="round" stroke-linejoin="round"/>
<path d="M272.563 155.85C274.121 155.117 275.866 154.88 277.563 155.17" stroke="#263238" stroke-linecap="round" stroke-linejoin="round"/>
<path d="M240.133 147.84C240.133 147.84 241.133 153.51 238.133 155.84C238.133 155.84 238.743 162.84 236.923 166.05C236.923 166.05 239.923 172.51 236.923 176.55C236.923 176.55 240.553 186.23 236.923 188.65C233.293 191.07 223.613 184.42 219.773 183.65C215.933 182.88 211.303 176.79 215.563 172.44" stroke="#263238" stroke-linecap="round" stroke-linejoin="round"/>
<path d="M227.063 167.5C227.063 167.5 227.063 165.5 227.063 162.65C227.063 159.8 229.243 155.87 229.243 155.87C228.243 153.33 232.063 147.87 232.063 147.87C230.453 145.38 233.063 141.4 234.753 140.6C236.443 139.8 238.753 139.26 244.493 138.21C250.233 137.16 249.043 145.45 249.043 145.45C249.043 145.45 250.223 153.18 248.203 156.81C249.496 160.625 249.425 164.771 248.003 168.54C248.003 168.54 249.213 175.46 248.003 179.96C248.003 179.96 248.443 185.02 247.923 186.96" stroke="#263238" stroke-linecap="round" stroke-linejoin="round"/>
<path d="M231.073 168.5C228.153 167.323 224.892 167.323 221.973 168.5" stroke="#263238" stroke-linecap="round" stroke-linejoin="round"/>
<path d="M244.173 184.55C244.173 184.55 249.043 186.49 249.043 189.19C249.043 191.89 250.293 199.68 249.143 200.83C247.993 201.98 237.943 201.37 231.073 196.73C231.073 196.73 222.383 197.54 220.563 195.32C218.743 193.1 215.673 192.53 215.293 191.1" stroke="#263238" stroke-linecap="round" stroke-linejoin="round"/>
<path d="M214.603 179.93C214.603 179.93 211.433 183.01 212.293 187.03C213.153 191.05 213.503 196.61 214.603 199.73C215.703 202.85 222.873 207.08 227.063 205.84C227.063 205.84 239.123 210.56 242.153 209.3" stroke="#263238" stroke-linecap="round" stroke-linejoin="round"/>
<path d="M249.143 200.83C249.143 200.83 250.223 204.83 249.633 207.02C249.043 209.21 250.883 212.74 249.043 215.02C247.203 217.3 232.263 216.09 230.043 213.67" stroke="#263238" stroke-linecap="round" stroke-linejoin="round"/>
<path d="M221.973 209.5C221.973 209.5 220.723 213.39 223.593 215.02C226.463 216.65 242.333 224.8 246.073 223.57C249.813 222.34 250.473 219.57 249.073 215.02" stroke="#263238" stroke-linecap="round" stroke-linejoin="round"/>
<path d="M216.633 202.35C216.633 202.35 216.793 209.93 221.703 212.01" stroke="#263238" stroke-linecap="round" stroke-linejoin="round"/>
<path d="M231.793 144.5C230.843 144.171 229.827 144.081 228.835 144.238C227.843 144.395 226.904 144.794 226.103 145.4C223.383 147.48 224.033 149.27 224.033 149.27C218.833 152.08 217.033 166.11 217.033 166.11C216.245 166.927 215.694 167.943 215.437 169.048C215.18 170.154 215.227 171.308 215.573 172.39C216.573 176.52 222.413 175.53 227.093 178.09C231.773 180.65 236.933 176.54 236.933 176.54" stroke="#263238" stroke-linecap="round" stroke-linejoin="round"/>
<path d="M236.903 188.66C237.572 189.786 238.479 190.752 239.561 191.492C240.642 192.231 241.871 192.725 243.163 192.94" stroke="#263238" stroke-linecap="round" stroke-linejoin="round"/>
<path d="M238.213 173.73C240.538 173.406 242.905 173.83 244.973 174.94" stroke="#263238" stroke-linecap="round" stroke-linejoin="round"/>
<path d="M248.003 168.5C248.003 168.5 243.763 165.25 242.153 165.85" stroke="#263238" stroke-linecap="round" stroke-linejoin="round"/>
<path d="M238.213 158.6C238.213 158.6 243.563 157.99 244.973 160.21" stroke="#263238" stroke-linecap="round" stroke-linejoin="round"/>
<path d="M248.203 156.78C248.203 156.78 247.603 153.96 244.973 153.56" stroke="#263238" stroke-linecap="round" stroke-linejoin="round"/>
<path d="M249.043 145.42C249.043 145.42 247.393 142.52 244.973 142.99" stroke="#263238" stroke-linecap="round" stroke-linejoin="round"/>
<path d="M227.063 205.84C227.063 205.84 226.613 202.7 228.433 201.33" stroke="#263238" stroke-linecap="round" stroke-linejoin="round"/>
<path d="M231.073 196.73C231.073 196.73 229.643 192.4 230.073 191.34" stroke="#263238" stroke-linecap="round" stroke-linejoin="round"/>
<path d="M240.293 200.89C239.748 201.13 239.272 201.503 238.909 201.975C238.545 202.446 238.306 203.002 238.213 203.59" stroke="#263238" stroke-linecap="round" stroke-linejoin="round"/>
<path d="M224.203 176.94C224.203 176.94 222.583 179.58 223.383 181.4" stroke="#263238" stroke-linecap="round" stroke-linejoin="round"/>
<path d="M217.003 166.13C217.003 166.13 220.163 163.64 222.003 163.24" stroke="#263238" stroke-linecap="round" stroke-linejoin="round"/>
<path d="M229.243 155.85C227.685 155.117 225.94 154.88 224.243 155.17" stroke="#263238" stroke-linecap="round" stroke-linejoin="round"/>
<defs>
<linearGradient id="paint0_linear" x1="261.054" y1="45.3223" x2="261.054" y2="468.237" gradientUnits="userSpaceOnUse">
<stop stop-color="#A6D3F6"/>
<stop offset="1" stop-color="#C8EE90"/>
</linearGradient>
<linearGradient id="paint1_linear" x1="246.784" y1="381.87" x2="246.784" y2="466.285" gradientUnits="userSpaceOnUse">
<stop stop-color="#A6D3F6"/>
<stop offset="1" stop-color="#C8EE90"/>
</linearGradient>
<linearGradient id="paint2_linear" x1="191.774" y1="333.291" x2="191.774" y2="379.067" gradientUnits="userSpaceOnUse">
<stop stop-color="#A6D3F6"/>
<stop offset="1" stop-color="#C8EE90"/>
</linearGradient>
<linearGradient id="paint3_linear" x1="310.085" y1="333.252" x2="310.085" y2="379.067" gradientUnits="userSpaceOnUse">
<stop stop-color="#A6D3F6"/>
<stop offset="1" stop-color="#C8EE90"/>
</linearGradient>
<linearGradient id="paint4_linear" x1="250.262" y1="362.051" x2="250.262" y2="383.871" gradientUnits="userSpaceOnUse">
<stop stop-color="#A6D3F6"/>
<stop offset="1" stop-color="#C8EE90"/>
</linearGradient>
<linearGradient id="paint5_linear" x1="250.404" y1="386.261" x2="250.404" y2="391.301" gradientUnits="userSpaceOnUse">
<stop stop-color="#A6D3F6"/>
<stop offset="1" stop-color="#C8EE90"/>
</linearGradient>
<linearGradient id="paint6_linear" x1="250.903" y1="395.111" x2="250.903" y2="401.379" gradientUnits="userSpaceOnUse">
<stop stop-color="#A6D3F6"/>
<stop offset="1" stop-color="#C8EE90"/>
</linearGradient>
<linearGradient id="paint7_linear" x1="265.682" y1="326.265" x2="265.682" y2="355.061" gradientUnits="userSpaceOnUse">
<stop stop-color="#A6D3F6"/>
<stop offset="1" stop-color="#C8EE90"/>
</linearGradient>
<linearGradient id="paint8_linear" x1="235.466" y1="326.159" x2="235.466" y2="338.426" gradientUnits="userSpaceOnUse">
<stop stop-color="#A6D3F6"/>
<stop offset="1" stop-color="#C8EE90"/>
</linearGradient>
<linearGradient id="paint9_linear" x1="296.793" y1="288.961" x2="296.793" y2="405.811" gradientUnits="userSpaceOnUse">
<stop stop-color="#A6D3F6"/>
<stop offset="1" stop-color="#C8EE90"/>
</linearGradient>
<linearGradient id="paint10_linear" x1="205.02" y1="288.961" x2="205.02" y2="405.811" gradientUnits="userSpaceOnUse">
<stop stop-color="#A6D3F6"/>
<stop offset="1" stop-color="#C8EE90"/>
</linearGradient>
<linearGradient id="paint11_linear" x1="270.825" y1="137.674" x2="270.825" y2="224.09" gradientUnits="userSpaceOnUse">
<stop stop-color="#A6D3F6"/>
<stop offset="1" stop-color="#C8EE90"/>
</linearGradient>
</defs>
</svg>
