<svg width="501" height="500" viewBox="0 0 501 500" fill="none" xmlns="http://www.w3.org/2000/svg">
<path opacity="0.7" d="M68.8338 167.09C68.8338 167.09 40.9538 239.09 80.1338 311.59C119.314 384.09 200.014 422.39 264.604 455.14C329.194 487.89 396.264 471.94 428.134 418.3C460.004 364.66 416.294 326.37 416.234 249.88C416.174 173.39 427.684 153.14 386.234 88.5196C344.784 23.8996 243.174 9.58958 166.334 57.5196C89.4938 105.45 68.8338 167.09 68.8338 167.09Z" fill="white"/>
<path d="M69.9039 431.659H281.094C281.944 430.299 282.804 428.939 283.684 427.609C306.404 393.029 342.784 368.369 382.514 356.799C400.314 351.619 419.594 348.539 433.894 336.739C448.614 324.609 455.374 305.249 458.294 286.399C461.844 263.579 459.924 237.989 444.434 220.859C426.244 200.749 395.764 198.489 372.064 185.309C331.274 162.609 315.464 110.919 278.354 82.5992C254.904 64.7092 223.264 57.7792 194.904 61.6992C154.714 67.2692 116.904 94.1992 105.554 133.699C102.291 145.204 101.126 157.202 102.114 169.119C103.924 192.669 108.994 216.519 104.214 239.649C98.9439 265.139 82.3639 286.649 72.4539 310.739C60.1139 340.739 58.4539 374.339 63.6839 406.319C65.0838 414.917 67.1636 423.39 69.9039 431.659V431.659Z" fill="url(#paint0_linear)"/>
<path opacity="0.7" d="M69.9039 431.659H281.094C281.944 430.299 282.804 428.939 283.684 427.609C306.404 393.029 342.784 368.369 382.514 356.799C400.314 351.619 419.594 348.539 433.894 336.739C448.614 324.609 455.374 305.249 458.294 286.399C461.844 263.579 459.924 237.989 444.434 220.859C426.244 200.749 395.764 198.489 372.064 185.309C331.274 162.609 315.464 110.919 278.354 82.5992C254.904 64.7092 223.264 57.7792 194.904 61.6992C154.714 67.2692 116.904 94.1992 105.554 133.699C102.291 145.204 101.126 157.202 102.114 169.119C103.924 192.669 108.994 216.519 104.214 239.649C98.9439 265.139 82.3639 286.649 72.4539 310.739C60.1139 340.739 58.4539 374.339 63.6839 406.319C65.0838 414.917 67.1636 423.39 69.9039 431.659V431.659Z" fill="white"/>
<path d="M42.8936 431.66H461.214" stroke="#263238" stroke-linecap="round" stroke-linejoin="round"/>
<path d="M279.903 113.39V97.69L268.143 96.69C267.456 94.2346 266.483 91.8684 265.243 89.64L272.833 80.64L261.733 69.54L252.733 77.13C250.524 75.886 248.174 74.9092 245.733 74.22L244.733 62.46H228.903L227.903 74.22C225.463 74.9092 223.113 75.886 220.903 77.13L211.903 69.54L200.803 80.64L208.393 89.64C207.154 91.8684 206.181 94.2346 205.493 96.69L193.733 97.69V113.39L205.493 114.39C206.185 116.828 207.158 119.177 208.393 121.39L200.803 130.39L211.903 141.49L220.903 133.9C223.113 135.144 225.463 136.121 227.903 136.81L228.903 148.57H244.603L245.603 136.81C248.06 136.122 250.427 135.145 252.653 133.9L261.653 141.49L272.753 130.39L265.163 121.39C266.399 119.177 267.372 116.828 268.063 114.39L279.903 113.39ZM236.803 123.78C233.196 123.78 229.669 122.71 226.67 120.706C223.67 118.702 221.332 115.853 219.952 112.52C218.571 109.187 218.21 105.52 218.914 101.982C219.618 98.4433 221.355 95.1932 223.906 92.6423C226.457 90.0914 229.707 88.3542 233.245 87.6504C236.783 86.9466 240.451 87.3079 243.784 88.6884C247.116 90.0689 249.965 92.4068 251.969 95.4064C253.974 98.4059 255.043 101.932 255.043 105.54C255.042 107.938 254.568 110.313 253.648 112.528C252.729 114.743 251.382 116.755 249.684 118.449C247.986 120.143 245.971 121.486 243.754 122.4C241.537 123.315 239.162 123.784 236.763 123.78H236.803Z" stroke="#263238" stroke-linecap="round" stroke-linejoin="round"/>
<path d="M448.593 266.84V259.32L442.953 258.83C442.621 257.654 442.155 256.52 441.563 255.45L445.203 251.12L439.903 245.8L435.583 249.44C434.516 248.844 433.381 248.378 432.203 248.05L431.713 242.41H424.183L423.703 248.05C422.525 248.376 421.39 248.843 420.323 249.44L415.993 245.8L410.673 251.12L414.313 255.45C413.714 256.517 413.245 257.652 412.913 258.83L407.273 259.32V266.84L412.913 267.33C413.245 268.508 413.714 269.643 414.313 270.71L410.643 275L415.963 280.32L420.293 276.68C421.36 277.278 422.495 277.744 423.673 278.07L424.153 283.71H431.683L432.173 278.07C433.351 277.743 434.486 277.276 435.553 276.68L439.873 280.32L445.203 275L441.563 270.67C442.155 269.601 442.621 268.466 442.953 267.29L448.593 266.84ZM427.923 271.84C426.192 271.842 424.5 271.331 423.059 270.37C421.619 269.41 420.496 268.044 419.832 266.446C419.169 264.847 418.994 263.087 419.33 261.389C419.667 259.691 420.499 258.131 421.723 256.907C422.946 255.682 424.505 254.847 426.203 254.509C427.9 254.171 429.66 254.343 431.26 255.005C432.859 255.667 434.226 256.789 435.188 258.228C436.15 259.667 436.663 261.359 436.663 263.09C436.662 264.239 436.435 265.377 435.994 266.438C435.553 267.499 434.907 268.463 434.094 269.274C433.28 270.086 432.315 270.729 431.253 271.168C430.191 271.606 429.053 271.831 427.903 271.83L427.923 271.84Z" stroke="#263238" stroke-linecap="round" stroke-linejoin="round"/>
<path d="M442.903 129.8C443.702 126.344 443.591 122.74 442.582 119.339C441.573 115.939 439.701 112.858 437.147 110.396C434.593 107.935 431.444 106.177 428.009 105.295C424.573 104.412 420.968 104.435 417.543 105.36C415.457 101.661 412.232 98.7347 408.347 97.0181C404.462 95.3014 400.127 94.886 395.987 95.8338C391.848 96.7816 388.125 99.0419 385.374 102.278C382.624 105.514 380.992 109.552 380.723 113.79C378.547 113.374 376.308 113.412 374.146 113.902C371.985 114.392 369.949 115.324 368.164 116.639C366.38 117.953 364.887 119.622 363.779 121.541C362.67 123.46 361.971 125.588 361.723 127.79C359.494 128.025 357.433 129.082 355.943 130.756C354.453 132.43 353.641 134.6 353.666 136.841C353.691 139.082 354.551 141.233 356.078 142.874C357.605 144.514 359.69 145.525 361.923 145.71H437.203C439.047 145.697 440.842 145.117 442.345 144.051C443.849 142.984 444.988 141.481 445.61 139.746C446.232 138.01 446.306 136.126 445.821 134.347C445.337 132.568 444.319 130.981 442.903 129.8V129.8Z" stroke="#263238" stroke-linecap="round" stroke-linejoin="round"/>
<path d="M401.533 138.83V159.58" stroke="#263238" stroke-linecap="round" stroke-linejoin="round"/>
<path d="M401.533 126.39V134.68" stroke="#263238" stroke-linecap="round" stroke-linejoin="round"/>
<path d="M401.533 118.63V123.07" stroke="#263238" stroke-linecap="round" stroke-linejoin="round"/>
<path d="M397.613 157.16L401.533 162.01L405.453 157.16" stroke="#263238" stroke-linecap="round" stroke-linejoin="round"/>
<path d="M213.544 373.15C214.34 369.694 214.227 366.09 213.217 362.689C212.206 359.289 210.333 356.209 207.778 353.748C205.223 351.287 202.075 349.529 198.639 348.646C195.204 347.764 191.598 347.786 188.174 348.71C186.089 345.008 182.864 342.08 178.978 340.362C175.093 338.644 170.756 338.228 166.615 339.178C162.474 340.127 158.752 342.39 156.003 345.63C153.254 348.869 151.627 352.91 151.364 357.15C150.375 356.961 149.37 356.864 148.364 356.86C144.408 356.857 140.589 358.312 137.638 360.946C134.686 363.58 132.809 367.209 132.364 371.14C130.135 371.374 128.073 372.43 126.582 374.103C125.091 375.776 124.278 377.946 124.301 380.187C124.325 382.428 125.184 384.579 126.71 386.22C128.237 387.861 130.32 388.874 132.554 389.06H207.904C209.744 389.041 211.535 388.457 213.034 387.388C214.533 386.319 215.667 384.816 216.285 383.082C216.903 381.348 216.975 379.466 216.49 377.69C216.005 375.914 214.987 374.33 213.574 373.15H213.544Z" stroke="#263238" stroke-linecap="round" stroke-linejoin="round"/>
<path d="M172.144 385.15V364.41" stroke="#263238" stroke-linecap="round" stroke-linejoin="round"/>
<path d="M172.144 397.6V389.3" stroke="#263238" stroke-linecap="round" stroke-linejoin="round"/>
<path d="M172.144 405.36V400.92" stroke="#263238" stroke-linecap="round" stroke-linejoin="round"/>
<path d="M176.064 366.83L172.144 361.98L168.224 366.83" stroke="#263238" stroke-linecap="round" stroke-linejoin="round"/>
<path d="M54.3836 109.9H305.834C306.958 109.9 308.037 110.347 308.832 111.142C309.627 111.937 310.074 113.016 310.074 114.14V126H50.1436V114.14C50.1436 113.016 50.5903 111.937 51.3854 111.142C52.1806 110.347 53.259 109.9 54.3836 109.9V109.9Z" fill="url(#paint1_linear)" stroke="#263238" stroke-linecap="round" stroke-linejoin="round"/>
<path d="M324.233 128.97H61.5234V313.84H324.233V128.97Z" fill="white" stroke="#263238" stroke-linecap="round" stroke-linejoin="round"/>
<path d="M328.254 117.94C328.254 118.732 328.019 119.505 327.58 120.163C327.14 120.821 326.516 121.333 325.785 121.636C325.054 121.939 324.249 122.018 323.474 121.864C322.698 121.709 321.985 121.328 321.425 120.769C320.866 120.209 320.485 119.497 320.331 118.721C320.176 117.945 320.256 117.141 320.558 116.41C320.861 115.679 321.374 115.054 322.032 114.615C322.689 114.175 323.463 113.94 324.254 113.94C325.315 113.94 326.332 114.362 327.082 115.112C327.832 115.862 328.254 116.88 328.254 117.94Z" fill="white" stroke="#263238" stroke-linecap="round" stroke-linejoin="round"/>
<path d="M314.094 117.94C314.094 118.732 313.859 119.505 313.42 120.163C312.98 120.821 312.355 121.333 311.624 121.636C310.894 121.939 310.089 122.018 309.313 121.864C308.537 121.709 307.825 121.328 307.265 120.769C306.706 120.209 306.325 119.497 306.171 118.721C306.016 117.945 306.095 117.141 306.398 116.41C306.701 115.679 307.214 115.054 307.871 114.615C308.529 114.175 309.303 113.94 310.094 113.94C311.155 113.94 312.172 114.362 312.922 115.112C313.672 115.862 314.094 116.88 314.094 117.94Z" fill="white" stroke="#263238" stroke-linecap="round" stroke-linejoin="round"/>
<path d="M299.903 117.94C299.903 118.732 299.669 119.505 299.229 120.163C298.79 120.821 298.165 121.333 297.434 121.636C296.703 121.939 295.899 122.018 295.123 121.864C294.347 121.709 293.634 121.328 293.075 120.769C292.515 120.209 292.135 119.497 291.98 118.721C291.826 117.945 291.905 117.141 292.208 116.41C292.511 115.679 293.023 115.054 293.681 114.615C294.339 114.175 295.112 113.94 295.903 113.94C296.964 113.94 297.982 114.362 298.732 115.112C299.482 115.862 299.903 116.88 299.903 117.94Z" fill="white" stroke="#263238" stroke-linecap="round" stroke-linejoin="round"/>
<path d="M316.274 136.9H305.874" stroke="#263238" stroke-width="2" stroke-linecap="round" stroke-linejoin="round"/>
<path d="M316.274 141.12H305.874" stroke="#263238" stroke-width="2" stroke-linecap="round" stroke-linejoin="round"/>
<path d="M316.274 145.34H305.874" stroke="#263238" stroke-width="2" stroke-linecap="round" stroke-linejoin="round"/>
<path d="M79.7139 245.98H158.444" stroke="#263238" stroke-width="2" stroke-linecap="round" stroke-linejoin="round"/>
<path d="M79.7139 252.19H158.444" stroke="#263238" stroke-width="2" stroke-linecap="round" stroke-linejoin="round"/>
<path d="M79.7139 258.51H141.794" stroke="#263238" stroke-width="2" stroke-linecap="round" stroke-linejoin="round"/>
<path d="M246.663 131.05V131.55" stroke="#263238" stroke-linecap="round" stroke-linejoin="round"/>
<path d="M246.663 134.55V308.78" stroke="#263238" stroke-linecap="round" stroke-linejoin="round" stroke-dasharray="1 3"/>
<path d="M246.663 310.28V310.78" stroke="#263238" stroke-linecap="round" stroke-linejoin="round"/>
<path d="M64.6836 272.38H65.1836" stroke="#263238" stroke-linecap="round" stroke-linejoin="round"/>
<path d="M68.1738 272.38H318.214" stroke="#263238" stroke-linecap="round" stroke-linejoin="round" stroke-dasharray="1 2.99"/>
<path d="M319.714 272.38H320.214" stroke="#263238" stroke-linecap="round" stroke-linejoin="round"/>
<path d="M248.393 270.65H244.943V274.1H248.393V270.65Z" fill="white" stroke="#263238" stroke-linecap="round" stroke-linejoin="round"/>
<path d="M167.904 58H118.604C118.026 58.0026 117.474 58.2332 117.065 58.6414C116.657 59.0497 116.426 59.6026 116.424 60.18V83.18C116.426 83.7564 116.657 84.3084 117.066 84.715C117.474 85.1217 118.027 85.35 118.604 85.35H140.704L143.224 94.35L145.754 85.35H167.904C168.48 85.35 169.033 85.1217 169.442 84.715C169.85 84.3084 170.081 83.7564 170.084 83.18V60.18C170.081 59.6026 169.851 59.0497 169.442 58.6414C169.034 58.2332 168.481 58.0026 167.904 58V58Z" fill="url(#paint2_linear)" stroke="#263238" stroke-linecap="round" stroke-linejoin="round"/>
<path d="M124.604 64.5801H161.854" stroke="#263238" stroke-width="2" stroke-linecap="round" stroke-linejoin="round"/>
<path d="M124.604 69.2998H161.854" stroke="#263238" stroke-width="2" stroke-linecap="round" stroke-linejoin="round"/>
<path d="M124.604 74.0195H161.854" stroke="#263238" stroke-width="2" stroke-linecap="round" stroke-linejoin="round"/>
<path d="M124.604 78.7402H152.674" stroke="#263238" stroke-width="2" stroke-linecap="round" stroke-linejoin="round"/>
<path d="M147.764 301.59H94.1035V335.22H147.764V301.59Z" fill="#263238" stroke="#263238" stroke-linecap="round" stroke-linejoin="round"/>
<path d="M147.764 301.59H94.1035V306.7H147.764V301.59Z" fill="url(#paint3_linear)" stroke="#263238" stroke-linecap="round" stroke-linejoin="round"/>
<path d="M99.584 311.02H113.294" stroke="white" stroke-linecap="round" stroke-linejoin="round"/>
<path d="M106.434 314.84H130.174" stroke="white" stroke-linecap="round" stroke-linejoin="round"/>
<path d="M103.403 318.41H110.393" stroke="white" stroke-linecap="round" stroke-linejoin="round"/>
<path d="M106.434 322.62H122.424" stroke="white" stroke-linecap="round" stroke-linejoin="round"/>
<path d="M99.584 326.45H113.294" stroke="white" stroke-linecap="round" stroke-linejoin="round"/>
<path d="M232.894 239.24H186.834" stroke="#263238" stroke-linecap="round" stroke-linejoin="round"/>
<path d="M233.783 260.54C233.783 260.54 233.783 239.13 209.863 239.13C185.943 239.13 185.903 260.54 185.903 260.54" stroke="#263238" stroke-linecap="round" stroke-linejoin="round"/>
<path d="M233.784 262.56C234.899 262.56 235.804 261.655 235.804 260.54C235.804 259.424 234.899 258.52 233.784 258.52C232.668 258.52 231.764 259.424 231.764 260.54C231.764 261.655 232.668 262.56 233.784 262.56Z" fill="url(#paint4_linear)" stroke="#263238" stroke-linecap="round" stroke-linejoin="round"/>
<path d="M183.903 260.54C183.903 260.144 184.021 259.758 184.24 259.429C184.46 259.1 184.773 258.844 185.138 258.692C185.503 258.541 185.906 258.501 186.294 258.578C186.681 258.656 187.038 258.846 187.318 259.126C187.597 259.406 187.788 259.762 187.865 260.15C187.942 260.538 187.902 260.94 187.751 261.305C187.6 261.671 187.343 261.983 187.014 262.203C186.686 262.423 186.299 262.54 185.903 262.54C185.373 262.54 184.864 262.329 184.489 261.954C184.114 261.579 183.903 261.07 183.903 260.54Z" fill="url(#paint5_linear)" stroke="#263238" stroke-linecap="round" stroke-linejoin="round"/>
<path d="M232.014 240.9H235.554V237.36H232.014V240.9Z" fill="url(#paint6_linear)" stroke="#263238" stroke-linecap="round" stroke-linejoin="round"/>
<path d="M208.094 240.9H211.634V237.36H208.094V240.9Z" fill="url(#paint7_linear)" stroke="#263238" stroke-linecap="round" stroke-linejoin="round"/>
<path d="M184.174 240.9H187.714V237.36H184.174V240.9Z" fill="url(#paint8_linear)" stroke="#263238" stroke-linecap="round" stroke-linejoin="round"/>
<path d="M108.333 174.87V167.79L103.043 167.34C102.729 166.234 102.29 165.167 101.733 164.16L105.153 160.1L100.153 155.1L96.0832 158.52C95.0801 157.956 94.0123 157.517 92.9032 157.21L92.4432 151.91H85.3832L84.9232 157.21C83.8168 157.515 82.7521 157.955 81.7532 158.52L77.6832 155.1L72.6832 160.1L76.1032 164.16C75.5426 165.165 75.1028 166.232 74.7932 167.34L69.4932 167.79V174.87L74.7932 175.32C75.1046 176.428 75.5442 177.495 76.1032 178.5L72.6832 182.56L77.6832 187.56L81.7532 184.14C82.7458 184.704 83.8037 185.144 84.9032 185.45L85.3632 190.75H92.4332L92.8932 185.45C93.9988 185.143 95.0632 184.703 96.0632 184.14L100.133 187.56L105.133 182.56L101.713 178.5C102.268 177.493 102.707 176.426 103.023 175.32L108.333 174.87ZM88.9032 179.55C87.2774 179.55 85.6882 179.068 84.3364 178.165C82.9846 177.262 81.931 175.978 81.3089 174.476C80.6867 172.974 80.5239 171.321 80.8411 169.727C81.1583 168.132 81.9412 166.667 83.0908 165.518C84.2403 164.368 85.705 163.585 87.2995 163.268C88.894 162.951 90.5468 163.114 92.0488 163.736C93.5508 164.358 94.8346 165.412 95.7378 166.763C96.6411 168.115 97.1232 169.704 97.1232 171.33C97.1232 173.51 96.2571 175.601 94.7156 177.143C93.174 178.684 91.0832 179.55 88.9032 179.55Z" fill="url(#paint9_linear)" stroke="#263238" stroke-linecap="round" stroke-linejoin="round"/>
<path d="M132.373 190.73V185.89L128.743 185.57C128.534 184.814 128.236 184.085 127.853 183.4L130.193 180.62L126.763 177.2L123.983 179.54C123.296 179.159 122.568 178.857 121.813 178.64L121.503 175H116.663L116.343 178.63C115.588 178.847 114.86 179.149 114.173 179.53L111.393 177.19L107.963 180.61L110.313 183.39C109.923 184.073 109.621 184.802 109.413 185.56L105.783 185.88V190.72L109.413 191.03C109.619 191.789 109.922 192.518 110.313 193.2L107.963 196L111.393 199.42L114.173 197.08C114.86 197.461 115.588 197.763 116.343 197.98L116.663 201.6H121.503L121.813 197.98C122.568 197.763 123.296 197.461 123.983 197.08L126.763 199.42L130.193 196L127.903 193.21C128.287 192.526 128.586 191.797 128.793 191.04L132.373 190.73ZM119.083 193.93C117.969 193.932 116.879 193.603 115.952 192.985C115.024 192.367 114.301 191.488 113.874 190.459C113.446 189.43 113.334 188.297 113.551 187.204C113.768 186.111 114.304 185.107 115.092 184.319C115.88 183.531 116.884 182.995 117.977 182.778C119.07 182.561 120.203 182.673 121.232 183.1C122.261 183.528 123.141 184.251 123.759 185.178C124.376 186.106 124.705 187.196 124.703 188.31C124.701 189.8 124.108 191.228 123.054 192.281C122.001 193.334 120.573 193.927 119.083 193.93V193.93Z" fill="url(#paint10_linear)" stroke="#263238" stroke-linecap="round" stroke-linejoin="round"/>
<path d="M256.544 284.14H295.274" stroke="#263238" stroke-width="2" stroke-linecap="round" stroke-linejoin="round"/>
<path d="M256.544 290.35H295.274" stroke="#263238" stroke-width="2" stroke-linecap="round" stroke-linejoin="round"/>
<path d="M256.544 296.67H278.624" stroke="#263238" stroke-width="2" stroke-linecap="round" stroke-linejoin="round"/>
<path d="M205.514 299.25H185.124C183.798 299.25 182.526 298.723 181.588 297.786C180.651 296.848 180.124 295.576 180.124 294.25C180.124 292.924 180.651 291.652 181.588 290.714C182.526 289.777 183.798 289.25 185.124 289.25H205.514C206.84 289.25 208.112 289.777 209.05 290.714C209.987 291.652 210.514 292.924 210.514 294.25C210.514 295.576 209.987 296.848 209.05 297.786C208.112 298.723 206.84 299.25 205.514 299.25Z" fill="url(#paint11_linear)" stroke="#263238" stroke-linecap="round" stroke-linejoin="round"/>
<path d="M243.514 299.25H223.124C221.798 299.25 220.526 298.723 219.588 297.786C218.651 296.848 218.124 295.576 218.124 294.25C218.124 292.924 218.651 291.652 219.588 290.714C220.526 289.777 221.798 289.25 223.124 289.25H243.514C244.84 289.25 246.112 289.777 247.05 290.714C247.987 291.652 248.514 292.924 248.514 294.25C248.514 295.576 247.987 296.848 247.05 297.786C246.112 298.723 244.84 299.25 243.514 299.25Z" fill="url(#paint12_linear)" stroke="#263238" stroke-linecap="round" stroke-linejoin="round"/>
<path d="M302.614 191.97H259.374V235.21H302.614V191.97Z" fill="white" stroke="#263238" stroke-linecap="round" stroke-linejoin="round"/>
<path d="M259.374 191.97L302.614 235.21" stroke="#263238" stroke-linecap="round" stroke-linejoin="round"/>
<path d="M302.614 191.97L259.374 235.21" stroke="#263238" stroke-linecap="round" stroke-linejoin="round"/>
<path d="M349.573 166.28H295.913V199.91H349.573V166.28Z" fill="#263238" stroke="#263238" stroke-linecap="round" stroke-linejoin="round"/>
<path d="M349.573 166.28H295.913V171.39H349.573V166.28Z" fill="url(#paint13_linear)" stroke="#263238" stroke-linecap="round" stroke-linejoin="round"/>
<path d="M301.384 175.7H315.104" stroke="white" stroke-linecap="round" stroke-linejoin="round"/>
<path d="M308.243 179.53H331.983" stroke="white" stroke-linecap="round" stroke-linejoin="round"/>
<path d="M305.214 183.1H312.204" stroke="white" stroke-linecap="round" stroke-linejoin="round"/>
<path d="M308.243 187.31H324.233" stroke="white" stroke-linecap="round" stroke-linejoin="round"/>
<path d="M301.384 191.13H315.104" stroke="white" stroke-linecap="round" stroke-linejoin="round"/>
<path d="M276.334 142.88V152.97L271.884 157.42H261.794V142.88H276.334Z" fill="white" stroke="#263238" stroke-linecap="round" stroke-linejoin="round"/>
<path d="M276.334 152.97L271.884 157.42V152.97H276.334Z" fill="white" stroke="#263238" stroke-linecap="round" stroke-linejoin="round"/>
<path d="M121.703 220.91V231L117.253 235.46H107.163V220.91H121.703Z" fill="white" stroke="#263238" stroke-linecap="round" stroke-linejoin="round"/>
<path d="M121.704 231L117.254 235.46V231H121.704Z" fill="white" stroke="#263238" stroke-linecap="round" stroke-linejoin="round"/>
<path d="M66.7639 283.08V293.17L62.3139 297.62H52.2139V283.08H66.7639Z" fill="white" stroke="#263238" stroke-linecap="round" stroke-linejoin="round"/>
<path d="M66.7635 293.17L62.3135 297.62V293.17H66.7635Z" fill="white" stroke="#263238" stroke-linecap="round" stroke-linejoin="round"/>
<path d="M248.773 221.58C243.483 222.03 236.773 215.71 236.773 215.71C236.645 215.843 236.487 215.944 236.313 216.005C236.138 216.066 235.952 216.086 235.768 216.063C235.585 216.039 235.409 215.974 235.256 215.871C235.102 215.768 234.975 215.63 234.883 215.47C234.023 214.23 230.293 211.36 230.083 208.88C229.873 206.4 234.273 202.38 234.273 202.38C230.883 203.3 230.523 201.31 230.523 201.31C230.523 201.31 236.233 196.6 238.233 196.47C239.013 196.42 242.413 198.38 245.703 201.02C249.143 203.79 255.603 213.54 255.603 213.54C255.603 213.54 277.453 229.41 282.973 233.47C290.263 238.83 298.903 248.34 298.903 248.34C298.903 248.34 327.903 261.42 335.903 268.61L325.083 294.23C325.083 294.23 298.713 276.56 296.083 272.08C293.453 267.6 290.813 270.29 288.173 267.36C285.533 264.43 283.003 261.08 283.003 261.08C278.308 258.813 274.047 255.739 270.413 252C264.253 245.67 258.823 236 255.413 230.18C253.648 226.994 251.409 224.094 248.773 221.58V221.58Z" fill="white" stroke="#263238" stroke-linecap="round" stroke-linejoin="round"/>
<path d="M250.384 217.84C250.384 217.84 242.514 215.93 241.834 210.74C241.533 209.424 240.957 208.187 240.144 207.11C240.144 207.11 232.804 206.75 233.264 203.76L243.064 202.89C246.631 204.26 249.635 206.789 251.594 210.07" fill="white"/>
<path d="M250.384 217.84C250.384 217.84 242.514 215.93 241.834 210.74C241.533 209.424 240.957 208.187 240.144 207.11C240.144 207.11 232.804 206.75 233.264 203.76L243.064 202.89C246.631 204.26 249.635 206.789 251.594 210.07" stroke="#263238" stroke-linecap="round" stroke-linejoin="round"/>
<path d="M236.764 215.71C237.113 215.062 237.229 214.314 237.094 213.59C237.094 213.59 239.254 213.19 239.014 211.28C239.014 211.28 242.214 210.89 240.144 207.11" stroke="#263238" stroke-linecap="round" stroke-linejoin="round"/>
<path d="M239.014 211.28C239.014 211.28 234.704 208.09 234.224 206.63" stroke="#263238" stroke-linecap="round" stroke-linejoin="round"/>
<path d="M237.094 213.59C237.094 213.59 232.504 210.79 232.424 209.16" stroke="#263238" stroke-linecap="round" stroke-linejoin="round"/>
<path d="M238.144 199.21C238.144 199.21 236.684 201.83 234.264 202.38" stroke="#263238" stroke-linecap="round" stroke-linejoin="round"/>
<path d="M237.413 200.229C238.18 200.63 238.904 201.11 239.573 201.66" stroke="#263238" stroke-linecap="round" stroke-linejoin="round"/>
<path d="M405.023 288.8C393.707 284.012 382.035 280.113 370.113 277.14C352.553 273.03 324.113 269.36 324.113 269.36C324.113 269.36 331.933 349.16 329.873 353.96C327.813 358.76 315.453 374.88 315.453 374.88C315.453 374.88 382.343 400.96 394.003 403.18C405.663 405.4 399.583 364.93 399.583 364.93C399.583 364.93 411.903 313.49 405.023 288.8Z" fill="#263238"/>
<path d="M381.014 280.23C381.014 280.23 382.604 283.23 378.424 284.8C367.594 288.8 356.054 285.27 357.284 281.03C357.754 279.41 360.434 281.03 360.284 275.03C360.21 274.105 359.962 273.203 359.554 272.37C358.79 270.747 357.869 269.203 356.804 267.76C355.648 266.154 354.41 264.608 353.094 263.13C353.094 263.13 370.284 252.13 383.034 263.13C383.014 263.08 378.274 265.48 381.014 280.23Z" fill="white" stroke="#263238" stroke-linecap="round" stroke-linejoin="round"/>
<path d="M402.313 422.36C395.543 433.36 361.193 438.57 342.443 438.08C323.693 437.59 269.743 412.08 266.083 406.64C262.693 401.64 254.363 385.07 267.203 375.06C268.292 374.219 269.45 373.47 270.663 372.82C279.453 368.06 337.913 383.07 337.913 383.07C337.913 383.07 341.533 380.78 342.863 380.95C346.943 381.47 349.863 384.77 358.103 387.12C363.873 388.77 379.623 382.43 389.683 387.88C390.8 388.477 391.829 389.224 392.743 390.1C402.143 399.08 409.073 411.33 402.313 422.36Z" fill="url(#paint14_linear)"/>
<path opacity="0.3" d="M389.683 387.88C379.373 387.19 370.183 389.35 363.763 393.14C356.153 397.64 320.213 414.95 320.213 414.95C320.293 413.09 322.293 409.34 322.293 409.34C318.913 406.34 310.073 403.99 310.073 403.99C303.223 398.14 276.073 380.69 267.203 375.06C268.293 374.219 269.45 373.47 270.663 372.82C279.453 368.06 337.913 383.07 337.913 383.07C337.913 383.07 341.533 380.78 342.863 380.95C346.943 381.47 349.863 384.77 358.103 387.12C363.903 388.77 379.623 382.43 389.683 387.88Z" fill="black" fill-opacity="0.7"/>
<path d="M402.313 422.36C395.543 433.36 361.193 438.57 342.443 438.08C323.693 437.59 269.743 412.08 266.083 406.64C262.693 401.64 254.363 385.07 267.203 375.06C268.292 374.219 269.45 373.47 270.663 372.82C279.453 368.06 337.913 383.07 337.913 383.07C337.913 383.07 341.533 380.78 342.863 380.95C346.943 381.47 349.863 384.77 358.103 387.12C363.873 388.77 379.623 382.43 389.683 387.88C390.8 388.477 391.829 389.224 392.743 390.1C402.143 399.08 409.073 411.33 402.313 422.36Z" stroke="#263238" stroke-linecap="round" stroke-linejoin="round"/>
<path d="M391.773 432.32L392.633 436.09C392.633 436.09 390.333 442.61 380.223 443.68C370.113 444.75 364.123 446.98 359.223 447.27C356.662 447.472 354.087 447.432 351.533 447.15L350.533 445.67L391.773 432.32Z" fill="white" stroke="#263238" stroke-linecap="round" stroke-linejoin="round"/>
<path d="M333.063 431.92L350.583 445.67C359.028 444.948 367.418 443.692 375.703 441.91V441.91C384.003 439.99 391.253 437.24 391.643 433.46C392.253 427.72 386.113 426.15 378.823 426.37C377.463 426.37 376.063 426.51 374.653 426.65C362.983 427.9 348.143 421.46 348.143 421.46L333.063 431.92Z" fill="#263238"/>
<path opacity="0.3" d="M391.653 433.32C388.252 434.585 384.989 436.194 381.913 438.12C381.913 438.12 365.643 446.49 340.633 437.87L333.063 431.92L348.143 421.45C348.143 421.45 362.973 427.9 374.653 426.64C376.063 426.49 377.463 426.39 378.823 426.36C386.063 426.14 392.153 427.68 391.653 433.32Z" fill="black" fill-opacity="0.7"/>
<path d="M333.063 431.92L350.583 445.67C359.028 444.948 367.418 443.692 375.703 441.91V441.91C384.003 439.99 391.253 437.24 391.643 433.46C392.253 427.72 386.113 426.15 378.823 426.37C377.463 426.37 376.063 426.51 374.653 426.65C362.983 427.9 348.143 421.46 348.143 421.46L333.063 431.92Z" stroke="#263238" stroke-linecap="round" stroke-linejoin="round"/>
<path d="M349.393 437.34C346.233 437.85 349.703 444.34 353.983 442.34C358.263 440.34 352.553 436.82 349.393 437.34Z" fill="white"/>
<path opacity="0.2" d="M355.324 441.31C353.035 441.031 350.762 440.634 348.514 440.12C347.914 438.85 348.054 437.55 349.394 437.34C352.044 436.9 356.504 439.35 355.324 441.31Z" fill="black" fill-opacity="0.7"/>
<path d="M349.393 437.34C346.233 437.85 349.703 444.34 353.983 442.34C358.263 440.34 352.553 436.82 349.393 437.34Z" stroke="#263238" stroke-linecap="round" stroke-linejoin="round"/>
<path d="M375.704 441.9C384.004 439.98 391.254 437.23 391.644 433.45C392.254 427.71 386.114 426.14 378.824 426.36C378.504 426.67 371.434 433.5 375.704 441.9Z" fill="white"/>
<path opacity="0.3" d="M391.654 433.32C388.253 434.585 384.989 436.194 381.914 438.12C379.722 439.133 377.424 439.901 375.064 440.41C372.264 432.71 378.524 426.65 378.824 426.36C386.064 426.14 392.154 427.68 391.654 433.32Z" fill="black" fill-opacity="0.7"/>
<path d="M375.704 441.9C384.004 439.98 391.254 437.23 391.644 433.45C392.254 427.71 386.114 426.14 378.824 426.36C378.504 426.67 371.434 433.5 375.704 441.9Z" stroke="#263238" stroke-linecap="round" stroke-linejoin="round"/>
<path d="M369.784 434.77H369.834C369.947 434.775 370.061 434.758 370.168 434.719C370.275 434.68 370.373 434.62 370.457 434.543C370.541 434.466 370.608 434.372 370.656 434.269C370.703 434.165 370.73 434.053 370.734 433.94C371.017 431.482 372.067 429.177 373.734 427.35C373.814 427.27 373.878 427.175 373.921 427.07C373.965 426.965 373.987 426.853 373.987 426.74C373.987 426.626 373.965 426.514 373.921 426.409C373.878 426.305 373.814 426.21 373.734 426.13C373.571 425.97 373.352 425.88 373.124 425.88C372.895 425.88 372.676 425.97 372.514 426.13C370.553 428.256 369.335 430.962 369.044 433.84C369.024 434.06 369.089 434.28 369.227 434.453C369.365 434.626 369.564 434.74 369.784 434.77Z" fill="white" stroke="#263238" stroke-linecap="round" stroke-linejoin="round"/>
<path d="M366.314 435H366.384C366.498 435.002 366.611 434.983 366.717 434.941C366.823 434.9 366.92 434.838 367.001 434.759C367.083 434.68 367.149 434.585 367.194 434.481C367.239 434.376 367.263 434.264 367.264 434.15C367.462 431.653 368.387 429.268 369.924 427.29C370.008 427.204 370.073 427.101 370.116 426.988C370.158 426.875 370.176 426.755 370.17 426.634C370.163 426.514 370.131 426.396 370.077 426.289C370.022 426.181 369.946 426.086 369.853 426.01C369.76 425.934 369.652 425.877 369.536 425.845C369.42 425.812 369.298 425.804 369.179 425.821C369.06 425.838 368.945 425.879 368.843 425.943C368.74 426.006 368.652 426.09 368.584 426.19C366.799 428.466 365.737 431.224 365.534 434.11C365.525 434.33 365.601 434.545 365.746 434.71C365.892 434.876 366.095 434.98 366.314 435Z" fill="white" stroke="#263238" stroke-linecap="round" stroke-linejoin="round"/>
<path d="M362.164 434.54C362.277 434.551 362.391 434.539 362.499 434.506C362.608 434.473 362.709 434.418 362.796 434.346C362.884 434.273 362.956 434.184 363.008 434.083C363.061 433.983 363.094 433.873 363.104 433.76C363.374 430.76 365.954 426.83 365.984 426.76C366.11 426.567 366.156 426.332 366.111 426.106C366.066 425.879 365.934 425.68 365.744 425.55C365.552 425.424 365.319 425.378 365.094 425.423C364.87 425.468 364.672 425.6 364.544 425.79C364.424 425.96 361.684 430.08 361.374 433.56C361.358 433.676 361.367 433.795 361.399 433.908C361.431 434.022 361.485 434.127 361.559 434.219C361.633 434.31 361.724 434.386 361.828 434.441C361.932 434.496 362.046 434.53 362.164 434.54V434.54Z" fill="white" stroke="#263238" stroke-linecap="round" stroke-linejoin="round"/>
<path d="M358.244 434.13C358.32 434.14 358.397 434.14 358.474 434.13C358.586 434.112 358.694 434.072 358.791 434.011C358.888 433.951 358.972 433.872 359.038 433.779C359.104 433.686 359.151 433.58 359.176 433.469C359.201 433.358 359.204 433.242 359.184 433.13C358.574 429.45 361.994 426.3 362.024 426.27C362.137 426.11 362.193 425.917 362.182 425.721C362.172 425.525 362.096 425.339 361.966 425.192C361.836 425.045 361.661 424.946 361.468 424.911C361.275 424.876 361.076 424.908 360.904 425C360.734 425.15 356.744 428.81 357.514 433.44C357.55 433.616 357.64 433.776 357.77 433.899C357.901 434.023 358.066 434.103 358.244 434.13V434.13Z" fill="white" stroke="#263238" stroke-linecap="round" stroke-linejoin="round"/>
<path d="M353.983 433.1C354.076 433.115 354.17 433.115 354.263 433.1C354.478 433.047 354.666 432.915 354.786 432.729C354.907 432.543 354.953 432.318 354.913 432.1C354.163 428.82 357.393 425.1 357.433 425.1C357.583 424.927 357.659 424.702 357.644 424.474C357.629 424.245 357.524 424.032 357.353 423.88C357.269 423.804 357.17 423.745 357.063 423.708C356.956 423.67 356.842 423.654 356.729 423.661C356.615 423.667 356.504 423.696 356.402 423.746C356.3 423.795 356.208 423.865 356.133 423.95C355.973 424.13 352.273 428.36 353.223 432.52C353.278 432.681 353.38 432.822 353.515 432.925C353.65 433.029 353.813 433.089 353.983 433.1Z" fill="white" stroke="#263238" stroke-linecap="round" stroke-linejoin="round"/>
<path d="M263.903 426.68L262.653 430.34C262.653 430.34 264.253 437.07 274.193 439.19C284.133 441.31 289.853 444.19 294.653 444.97C297.18 445.435 299.744 445.662 302.313 445.65L303.463 444.28L263.903 426.68Z" fill="white" stroke="#263238" stroke-linecap="round" stroke-linejoin="round"/>
<path d="M322.294 432.45L303.434 444.28C295.111 442.677 286.898 440.549 278.844 437.91V437.91C270.794 435.13 263.844 431.63 263.844 427.83C263.844 422.05 270.114 421.14 277.344 422.12C278.694 422.3 280.074 422.55 281.464 422.84C292.934 425.31 308.364 420.46 308.364 420.46L322.294 432.45Z" fill="#263238"/>
<path opacity="0.3" d="M322.293 432.45L311.203 439.45C302.21 436.657 294.325 431.105 288.663 423.58C295.348 423.433 301.983 422.394 308.393 420.49L322.293 432.45Z" fill="black" fill-opacity="0.7"/>
<path d="M322.294 432.45L303.434 444.28C295.111 442.677 286.898 440.549 278.844 437.91V437.91C270.794 435.13 263.844 431.63 263.844 427.83C263.844 422.05 270.114 421.14 277.344 422.12C278.694 422.3 280.074 422.55 281.464 422.84C292.934 425.31 308.364 420.46 308.364 420.46L322.294 432.45Z" stroke="#263238" stroke-linecap="round" stroke-linejoin="round"/>
<path d="M278.844 437.9C270.794 435.12 263.844 431.62 263.844 427.82C263.844 422.04 270.114 421.13 277.344 422.11C277.664 422.45 283.974 430 278.844 437.9Z" fill="white" stroke="#263238" stroke-linecap="round" stroke-linejoin="round"/>
<path d="M285.484 431.43H285.434C285.204 431.415 284.989 431.31 284.836 431.138C284.683 430.966 284.603 430.741 284.614 430.51C284.598 428.042 283.804 425.641 282.344 423.65C282.259 423.563 282.193 423.459 282.151 423.344C282.109 423.23 282.091 423.108 282.1 422.986C282.108 422.864 282.141 422.746 282.198 422.638C282.255 422.53 282.334 422.435 282.43 422.36C282.526 422.285 282.636 422.23 282.754 422.2C282.873 422.17 282.996 422.166 283.116 422.187C283.236 422.207 283.35 422.253 283.452 422.321C283.553 422.389 283.639 422.477 283.704 422.58C285.429 424.889 286.356 427.698 286.344 430.58C286.341 430.807 286.249 431.023 286.088 431.182C285.927 431.341 285.71 431.43 285.484 431.43Z" fill="white" stroke="#263238" stroke-linecap="round" stroke-linejoin="round"/>
<path d="M288.903 432H288.823C288.594 431.98 288.382 431.87 288.234 431.693C288.086 431.517 288.014 431.29 288.033 431.06C288.105 428.561 287.44 426.096 286.123 423.97C286.058 423.876 286.011 423.769 285.987 423.657C285.962 423.544 285.96 423.428 285.981 423.315C286.001 423.201 286.044 423.093 286.106 422.996C286.168 422.9 286.249 422.816 286.343 422.75C286.438 422.685 286.544 422.638 286.657 422.614C286.769 422.589 286.886 422.587 286.999 422.608C287.112 422.628 287.22 422.671 287.317 422.733C287.414 422.795 287.498 422.876 287.563 422.97C289.108 425.419 289.875 428.278 289.763 431.17C289.753 431.392 289.658 431.602 289.498 431.756C289.339 431.911 289.126 431.998 288.903 432Z" fill="white" stroke="#263238" stroke-linecap="round" stroke-linejoin="round"/>
<path d="M293.084 432C292.854 431.995 292.635 431.9 292.474 431.735C292.314 431.571 292.224 431.35 292.224 431.12C292.284 428.07 290.124 423.94 290.094 423.9C289.988 423.694 289.967 423.455 290.036 423.234C290.106 423.013 290.259 422.828 290.464 422.72C290.668 422.614 290.906 422.594 291.125 422.664C291.344 422.733 291.527 422.886 291.634 423.09C291.734 423.27 294.024 427.65 293.964 431.15C293.958 431.379 293.863 431.597 293.698 431.756C293.534 431.915 293.313 432.003 293.084 432V432Z" fill="white" stroke="#263238" stroke-linecap="round" stroke-linejoin="round"/>
<path d="M297.024 432H296.794C296.573 431.937 296.386 431.79 296.273 431.589C296.161 431.389 296.132 431.152 296.194 430.93C297.194 427.34 294.124 423.84 294.094 423.81C294.007 423.728 293.938 423.628 293.892 423.517C293.846 423.407 293.823 423.288 293.824 423.168C293.826 423.048 293.853 422.93 293.902 422.821C293.952 422.712 294.023 422.614 294.113 422.534C294.202 422.453 294.306 422.393 294.42 422.355C294.534 422.317 294.654 422.303 294.774 422.314C294.893 422.325 295.009 422.361 295.114 422.418C295.219 422.476 295.311 422.555 295.384 422.65C295.534 422.82 299.124 426.88 297.864 431.4C297.805 431.576 297.692 431.729 297.541 431.836C297.39 431.944 297.209 432.001 297.024 432Z" fill="white" stroke="#263238" stroke-linecap="round" stroke-linejoin="round"/>
<path d="M301.374 431.43C301.278 431.434 301.182 431.417 301.094 431.38C300.985 431.345 300.884 431.289 300.797 431.214C300.711 431.139 300.64 431.048 300.59 430.945C300.539 430.842 300.51 430.731 300.504 430.616C300.498 430.502 300.515 430.388 300.554 430.28C301.644 427.1 298.814 423.07 298.794 423.03C298.712 422.939 298.65 422.831 298.613 422.715C298.575 422.598 298.563 422.474 298.577 422.352C298.59 422.231 298.63 422.113 298.692 422.007C298.754 421.902 298.838 421.81 298.938 421.739C299.038 421.669 299.152 421.62 299.272 421.596C299.393 421.572 299.517 421.574 299.636 421.601C299.756 421.629 299.868 421.681 299.966 421.755C300.064 421.829 300.145 421.923 300.204 422.03C300.344 422.22 303.574 426.82 302.204 430.86C302.14 431.029 302.027 431.174 301.878 431.276C301.73 431.378 301.554 431.431 301.374 431.43V431.43Z" fill="white" stroke="#263238" stroke-linecap="round" stroke-linejoin="round"/>
<path d="M305.483 436.12C308.573 436.97 304.483 443.02 300.393 440.62C296.303 438.22 302.403 435.28 305.483 436.12Z" fill="white" stroke="#263238" stroke-linecap="round" stroke-linejoin="round"/>
<path d="M269.823 404C274.453 410.49 288.183 417.66 301.823 423.57C304.263 427.611 307.14 431.37 310.403 434.78C318.823 443.44 322.253 438.59 322.253 438.59C322.253 438.59 327.573 437.99 335.423 436.92C335.75 437.681 336.32 438.313 337.043 438.717C337.767 439.12 338.604 439.272 339.423 439.15C340.423 438.99 342.423 437.53 344.633 435.6C364.463 432.6 391.373 427.6 398.633 421.78" fill="url(#paint15_linear)"/>
<path d="M269.823 404C274.453 410.49 288.183 417.66 301.823 423.57C304.263 427.611 307.14 431.37 310.403 434.78C318.823 443.44 322.253 438.59 322.253 438.59C322.253 438.59 327.573 437.99 335.423 436.92C335.75 437.681 336.32 438.313 337.043 438.717C337.767 439.12 338.604 439.272 339.423 439.15C340.423 438.99 342.423 437.53 344.633 435.6C364.463 432.6 391.373 427.6 398.633 421.78" stroke="#263238" stroke-linecap="round" stroke-linejoin="round"/>
<path d="M390.904 391.639C387.474 387.869 384.044 387.699 376.844 388.209C376.844 388.209 358.054 394.209 344.944 402.099C331.834 409.989 312.714 418.359 312.714 418.359C312.714 418.359 306.884 416.669 302.824 418.359C302.824 418.359 299.974 418.579 301.884 423.559" stroke="#263238" stroke-linecap="round" stroke-linejoin="round"/>
<path d="M399.623 414.17C399.623 414.17 399.723 419.98 391.483 424" stroke="#263238" stroke-linecap="round" stroke-linejoin="round"/>
<path d="M308.743 389.93C308.743 389.93 321.743 399.33 324.353 405.53C326.908 406.607 329.376 407.88 331.733 409.34" stroke="#263238" stroke-linecap="round" stroke-linejoin="round"/>
<path d="M325.294 397.74C326.247 400.442 326.407 403.361 325.754 406.15" stroke="#263238" stroke-linecap="round" stroke-linejoin="round"/>
<path d="M322.294 391.64C323.002 392.67 323.624 393.757 324.154 394.89" stroke="#263238" stroke-linecap="round" stroke-linejoin="round"/>
<path d="M340.813 390.78C340.813 390.78 345.163 396.6 346.243 401.32" stroke="#263238" stroke-linecap="round" stroke-linejoin="round"/>
<path d="M365.044 425.94C366.662 425.845 368.272 425.644 369.864 425.34" stroke="#263238" stroke-linecap="round" stroke-linejoin="round"/>
<path d="M324.233 421.77C336.56 424.211 349.064 425.646 361.623 426.06" stroke="#263238" stroke-linecap="round" stroke-linejoin="round"/>
<path d="M412.223 333.59C412.223 333.59 409.873 374.59 407.103 376.94C404.333 379.29 399.963 380.02 391.693 380.71C383.423 381.4 346.843 383.64 346.843 383.64L342.903 371.89C342.903 371.89 362.353 369.89 370.983 366.74C377.49 364.515 384.147 362.758 390.903 361.48C390.903 361.48 389.263 351.17 389.263 346.73V325.85" fill="white"/>
<path d="M412.223 333.59C412.223 333.59 409.873 374.59 407.103 376.94C404.333 379.29 399.963 380.02 391.693 380.71C383.423 381.4 346.843 383.64 346.843 383.64L342.903 371.89C342.903 371.89 362.353 369.89 370.983 366.74C377.49 364.515 384.147 362.758 390.903 361.48C390.903 361.48 389.263 351.17 389.263 346.73V325.85" stroke="#263238" stroke-linecap="round" stroke-linejoin="round"/>
<path d="M405.023 288.8C413.933 294.29 416.563 306.98 413.483 334.07C413.483 334.07 416.113 337.27 412.223 338.87C412.223 338.87 397.653 333.42 390.883 337.18C384.113 340.94 385.883 331.99 385.883 331.99C385.883 331.99 383.093 307.07 389.263 302.56" fill="#263238"/>
<path d="M388.444 298.75C388.444 298.75 379.874 307.66 387.444 330.18C386.966 332.018 386.632 333.89 386.444 335.78C386.444 337.29 388.514 338.07 388.514 338.07" stroke="white" stroke-linecap="round" stroke-linejoin="round"/>
<path d="M378.424 313.84C378.424 313.84 379.044 324.84 385.864 329.61" stroke="white" stroke-linecap="round" stroke-linejoin="round"/>
<path d="M380.624 288.3C380.624 288.3 367.334 293.39 356.764 287.75C350.494 284.41 353.074 279.04 353.074 279.04" stroke="white" stroke-linecap="round" stroke-linejoin="round"/>
<path d="M285.054 391.66H357.394C359.027 391.66 360.654 391.449 362.234 391.03L376.504 387.29C376.701 387.239 376.876 387.124 377.001 386.963C377.126 386.802 377.193 386.604 377.194 386.4V386.4C377.194 386.153 377.096 385.917 376.921 385.742C376.747 385.568 376.51 385.47 376.264 385.47H282.064C281.819 385.472 281.585 385.572 281.412 385.746C281.24 385.92 281.144 386.155 281.144 386.4V387.75C281.144 388.787 281.556 389.781 282.289 390.515C283.022 391.248 284.017 391.66 285.054 391.66Z" fill="#757575" stroke="#263238" stroke-linecap="round" stroke-linejoin="round"/>
<path d="M277.904 388.059H350.444C350.728 388.072 351.011 388.015 351.267 387.892C351.523 387.769 351.745 387.584 351.913 387.354C352.08 387.124 352.188 386.856 352.226 386.575C352.265 386.293 352.233 386.006 352.134 385.739L338.684 333.409C338.503 332.767 338.127 332.198 337.607 331.78C337.087 331.362 336.45 331.117 335.784 331.079H263.224C262.939 331.068 262.656 331.128 262.4 331.252C262.144 331.376 261.923 331.562 261.755 331.792C261.588 332.023 261.48 332.291 261.442 332.573C261.403 332.855 261.435 333.143 261.534 333.409L274.994 385.739C275.174 386.383 275.551 386.953 276.074 387.37C276.596 387.786 277.236 388.027 277.904 388.059V388.059Z" fill="#999999" stroke="#263238" stroke-linecap="round" stroke-linejoin="round"/>
<path d="M265.783 332.939H264.413" stroke="#263238" stroke-linecap="round" stroke-linejoin="round"/>
<path d="M276.413 332.939H269.333" stroke="#263238" stroke-linecap="round" stroke-linejoin="round"/>
<path d="M348.684 381.449L336.804 335.269C336.625 334.628 336.251 334.059 335.733 333.641C335.214 333.223 334.578 332.978 333.914 332.939H278.014" stroke="#263238" stroke-linecap="round" stroke-linejoin="round"/>
<path d="M349.713 385.47L349.413 384.32" stroke="#263238" stroke-linecap="round" stroke-linejoin="round"/>
<path d="M299.714 360.89C299.763 361.314 299.85 361.732 299.974 362.14C300.894 365.29 303.844 367.21 306.554 366.41C309.264 365.61 310.714 362.41 309.794 359.26C308.874 356.11 305.904 354.19 303.194 354.99C302.877 355.087 302.572 355.218 302.284 355.38C302.433 356.449 302.269 357.537 301.813 358.515C301.357 359.493 300.628 360.318 299.714 360.89V360.89Z" fill="white" stroke="#263238" stroke-linecap="round" stroke-linejoin="round"/>
<path d="M331.734 262.82C325.454 262.14 322.034 256.17 318.254 255.24C316.145 254.735 314.079 254.066 312.074 253.24C312.074 253.24 310.774 248.7 308.824 250.24C306.874 251.78 304.314 285.74 306.824 284.67C309.334 283.6 309.344 287.61 309.344 287.61L332.654 308.15L352.194 273.55C352.194 273.55 338.014 263.51 331.734 262.82Z" fill="#263238"/>
<path d="M141.783 141.89V141.39H142.283" stroke="#263238" stroke-linecap="round" stroke-linejoin="round"/>
<path d="M145.224 141.39H229.824" stroke="#263238" stroke-linecap="round" stroke-linejoin="round" stroke-dasharray="0.98 2.93"/>
<path d="M231.283 141.39H231.783V141.89" stroke="#263238" stroke-linecap="round" stroke-linejoin="round"/>
<path d="M231.794 144.89V199.39" stroke="#263238" stroke-linecap="round" stroke-linejoin="round" stroke-dasharray="1 3"/>
<path d="M231.783 200.89V201.39H231.283" stroke="#263238" stroke-linecap="round" stroke-linejoin="round"/>
<path d="M228.354 201.39H143.754" stroke="#263238" stroke-linecap="round" stroke-linejoin="round" stroke-dasharray="0.98 2.93"/>
<path d="M142.283 201.39H141.783V200.89" stroke="#263238" stroke-linecap="round" stroke-linejoin="round"/>
<path d="M141.794 197.89V143.39" stroke="#263238" stroke-linecap="round" stroke-linejoin="round" stroke-dasharray="1 3"/>
<path d="M186.793 142.87C187.611 142.87 188.273 142.208 188.273 141.39C188.273 140.573 187.611 139.91 186.793 139.91C185.976 139.91 185.313 140.573 185.313 141.39C185.313 142.208 185.976 142.87 186.793 142.87Z" fill="url(#paint16_linear)" stroke="#263238" stroke-linecap="round" stroke-linejoin="round"/>
<path d="M141.793 172.87C142.611 172.87 143.273 172.208 143.273 171.39C143.273 170.573 142.611 169.91 141.793 169.91C140.976 169.91 140.313 170.573 140.313 171.39C140.313 172.208 140.976 172.87 141.793 172.87Z" fill="url(#paint17_linear)" stroke="#263238" stroke-linecap="round" stroke-linejoin="round"/>
<path d="M186.793 202.87C187.611 202.87 188.273 202.208 188.273 201.39C188.273 200.573 187.611 199.91 186.793 199.91C185.976 199.91 185.313 200.573 185.313 201.39C185.313 202.208 185.976 202.87 186.793 202.87Z" fill="url(#paint18_linear)" stroke="#263238" stroke-linecap="round" stroke-linejoin="round"/>
<path d="M231.793 172.87C232.611 172.87 233.273 172.208 233.273 171.39C233.273 170.573 232.611 169.91 231.793 169.91C230.976 169.91 230.313 170.573 230.313 171.39C230.313 172.208 230.976 172.87 231.793 172.87Z" fill="url(#paint19_linear)" stroke="#263238" stroke-linecap="round" stroke-linejoin="round"/>
<path d="M233.513 199.67H230.063V203.12H233.513V199.67Z" fill="url(#paint20_linear)" stroke="#263238" stroke-linecap="round" stroke-linejoin="round"/>
<path d="M233.513 139.67H230.063V143.12H233.513V139.67Z" fill="url(#paint21_linear)" stroke="#263238" stroke-linecap="round" stroke-linejoin="round"/>
<path d="M143.513 199.67H140.063V203.12H143.513V199.67Z" fill="url(#paint22_linear)" stroke="#263238" stroke-linecap="round" stroke-linejoin="round"/>
<path d="M143.513 139.67H140.063V143.12H143.513V139.67Z" fill="url(#paint23_linear)" stroke="#263238" stroke-linecap="round" stroke-linejoin="round"/>
<path d="M226.094 146.7H147.764V196.47H226.094V146.7Z" fill="white" stroke="#263238" stroke-linecap="round" stroke-linejoin="round"/>
<path d="M226.094 181.77L217.384 190.48L193.824 166.92L183.914 176.83L168.114 161.03L147.764 181.37V196.47H226.094V181.77Z" fill="url(#paint24_linear)" stroke="#263238" stroke-linecap="round" stroke-linejoin="round"/>
<path d="M209.863 166.36C212.917 166.36 215.393 163.884 215.393 160.83C215.393 157.776 212.917 155.3 209.863 155.3C206.809 155.3 204.333 157.776 204.333 160.83C204.333 163.884 206.809 166.36 209.863 166.36Z" fill="url(#paint25_linear)" stroke="#263238" stroke-linecap="round" stroke-linejoin="round"/>
<path d="M335.903 272C335.903 272 329.903 283.17 329.193 300.26" stroke="white" stroke-linecap="round" stroke-linejoin="round"/>
<path d="M318.264 279.729C318.264 279.729 320.054 289.229 325.264 296.109" stroke="white" stroke-linecap="round" stroke-linejoin="round"/>
<path d="M342.903 318.93C342.903 318.93 351.903 348.49 371.453 357.19" stroke="white" stroke-linecap="round" stroke-linejoin="round"/>
<path d="M366.583 265.42C366.583 265.42 365.733 271.87 359.533 272.32C358.769 270.697 357.848 269.153 356.783 267.71C360.003 266.757 363.275 265.993 366.583 265.42V265.42Z" fill="#263238"/>
<path d="M379.794 265.87C379.794 265.87 390.164 267.14 394.504 253.22C398.844 239.3 395.434 228.81 378.274 223.76C368.754 220.96 359.274 223.21 355.804 230.42C352.864 236.59 354.254 241.72 353.584 243.79C352.824 246.11 345.804 248.08 345.804 249.67C345.804 250.98 349.694 253.22 349.694 253.22L348.554 256.68L349.624 257.25C349.624 257.25 347.624 265.04 348.554 267.79C349.214 269.79 366.784 270.63 368.154 265.65" fill="white"/>
<path d="M379.794 265.87C379.794 265.87 390.164 267.14 394.504 253.22C398.844 239.3 395.434 228.81 378.274 223.76C368.754 220.96 359.274 223.21 355.804 230.42C352.864 236.59 354.254 241.72 353.584 243.79C352.824 246.11 345.804 248.08 345.804 249.67C345.804 250.98 349.694 253.22 349.694 253.22L348.554 256.68L349.624 257.25C349.624 257.25 347.624 265.04 348.554 267.79C349.214 269.79 366.784 270.63 368.154 265.65" stroke="#263238" stroke-linecap="round" stroke-linejoin="round"/>
<path d="M355.903 235.47C355.903 235.47 359.333 236.33 360.273 238.13" stroke="#263238" stroke-linecap="round" stroke-linejoin="round"/>
<path d="M356.504 243.38C356.354 244.38 356.584 245.25 357.024 245.31C357.464 245.37 357.924 244.61 358.074 243.6C358.224 242.59 357.984 241.73 357.554 241.67C357.124 241.61 356.654 242.37 356.504 243.38Z" fill="#263238"/>
<path d="M349.623 257.25C349.623 257.25 355.203 259.39 357.283 258.1" stroke="#263238" stroke-linecap="round" stroke-linejoin="round"/>
<path d="M351.584 242.58C351.174 244.82 351.674 246.78 352.704 246.97C353.734 247.16 354.914 245.51 355.324 243.28C355.734 241.05 355.244 239.07 354.204 238.88C353.164 238.69 352.004 240.35 351.584 242.58Z" stroke="#263238" stroke-linecap="round" stroke-linejoin="round"/>
<path d="M394.963 231.19C394.128 227.138 391.801 223.548 388.443 221.13C384.701 218.502 380.415 216.749 375.903 216C375.903 216 379.213 217.45 380.473 219.36C380.473 219.36 371.903 212.92 361.723 217.15C351.543 221.38 352.813 232.37 352.813 232.37L354.293 229.49C354.293 229.49 354.123 232.92 355.923 234.18C356.463 232.5 357.198 230.889 358.113 229.38C358.113 229.38 360.813 237.49 368.243 240.24C367.739 238.962 367.696 237.547 368.123 236.24C368.123 236.24 372.243 245.15 371.043 249.5L372.353 251.78C372.353 251.78 377.083 246.99 380.933 250.98C383.143 253.28 376.703 261.98 375.783 261.98L379.673 267.69C379.673 267.69 389.393 269.08 394.993 258.55C400.593 248.02 399.223 243.55 399.223 243.55C399.223 243.55 401.053 246.11 401.223 247.55C401.243 247.53 402.903 236.22 394.963 231.19Z" fill="#263238"/>
<path d="M372.094 252.789C372.094 252.789 375.094 242.709 381.474 246.259C387.854 249.809 383.304 255.189 381.014 257.259C378.724 259.329 377.014 263.089 375.524 263.089C374.034 263.089 373.704 261.259 373.704 261.259" fill="white"/>
<path d="M372.094 252.789C372.094 252.789 375.094 242.709 381.474 246.259C387.854 249.809 383.304 255.189 381.014 257.259C378.724 259.329 377.014 263.089 375.524 263.089C374.034 263.089 373.704 261.259 373.704 261.259" stroke="#263238" stroke-linecap="round" stroke-linejoin="round"/>
<path d="M355.323 243.28L373.123 246.97" stroke="#263238" stroke-linecap="round" stroke-linejoin="round"/>
<defs>
<linearGradient id="paint0_linear" x1="260.35" y1="60.6377" x2="260.35" y2="431.659" gradientUnits="userSpaceOnUse">
<stop stop-color="#C8EE90"/>
<stop offset="1" stop-color="#A4D5F6"/>
</linearGradient>
<linearGradient id="paint1_linear" x1="180.109" y1="109.9" x2="180.109" y2="126" gradientUnits="userSpaceOnUse">
<stop stop-color="#C8EE90"/>
<stop offset="1" stop-color="#A4D5F6"/>
</linearGradient>
<linearGradient id="paint2_linear" x1="143.254" y1="58" x2="143.254" y2="94.35" gradientUnits="userSpaceOnUse">
<stop stop-color="#C8EE90"/>
<stop offset="1" stop-color="#A4D5F6"/>
</linearGradient>
<linearGradient id="paint3_linear" x1="120.934" y1="301.59" x2="120.934" y2="306.7" gradientUnits="userSpaceOnUse">
<stop stop-color="#C8EE90"/>
<stop offset="1" stop-color="#A4D5F6"/>
</linearGradient>
<linearGradient id="paint4_linear" x1="233.784" y1="258.52" x2="233.784" y2="262.56" gradientUnits="userSpaceOnUse">
<stop stop-color="#C8EE90"/>
<stop offset="1" stop-color="#A4D5F6"/>
</linearGradient>
<linearGradient id="paint5_linear" x1="185.903" y1="258.54" x2="185.903" y2="262.54" gradientUnits="userSpaceOnUse">
<stop stop-color="#C8EE90"/>
<stop offset="1" stop-color="#A4D5F6"/>
</linearGradient>
<linearGradient id="paint6_linear" x1="233.784" y1="240.9" x2="233.784" y2="237.36" gradientUnits="userSpaceOnUse">
<stop stop-color="#C8EE90"/>
<stop offset="1" stop-color="#A4D5F6"/>
</linearGradient>
<linearGradient id="paint7_linear" x1="209.864" y1="240.9" x2="209.864" y2="237.36" gradientUnits="userSpaceOnUse">
<stop stop-color="#C8EE90"/>
<stop offset="1" stop-color="#A4D5F6"/>
</linearGradient>
<linearGradient id="paint8_linear" x1="185.944" y1="240.9" x2="185.944" y2="237.36" gradientUnits="userSpaceOnUse">
<stop stop-color="#C8EE90"/>
<stop offset="1" stop-color="#A4D5F6"/>
</linearGradient>
<linearGradient id="paint9_linear" x1="88.9132" y1="151.91" x2="88.9132" y2="190.75" gradientUnits="userSpaceOnUse">
<stop stop-color="#C8EE90"/>
<stop offset="1" stop-color="#A4D5F6"/>
</linearGradient>
<linearGradient id="paint10_linear" x1="119.078" y1="175" x2="119.078" y2="201.6" gradientUnits="userSpaceOnUse">
<stop stop-color="#C8EE90"/>
<stop offset="1" stop-color="#A4D5F6"/>
</linearGradient>
<linearGradient id="paint11_linear" x1="195.319" y1="289.25" x2="195.319" y2="299.25" gradientUnits="userSpaceOnUse">
<stop stop-color="#C8EE90"/>
<stop offset="1" stop-color="#A4D5F6"/>
</linearGradient>
<linearGradient id="paint12_linear" x1="233.319" y1="289.25" x2="233.319" y2="299.25" gradientUnits="userSpaceOnUse">
<stop stop-color="#C8EE90"/>
<stop offset="1" stop-color="#A4D5F6"/>
</linearGradient>
<linearGradient id="paint13_linear" x1="322.743" y1="166.28" x2="322.743" y2="171.39" gradientUnits="userSpaceOnUse">
<stop stop-color="#C8EE90"/>
<stop offset="1" stop-color="#A4D5F6"/>
</linearGradient>
<linearGradient id="paint14_linear" x1="332.652" y1="371.888" x2="332.652" y2="438.112" gradientUnits="userSpaceOnUse">
<stop stop-color="#C8EE90"/>
<stop offset="1" stop-color="#A4D5F6"/>
</linearGradient>
<linearGradient id="paint15_linear" x1="334.228" y1="404" x2="334.228" y2="439.944" gradientUnits="userSpaceOnUse">
<stop stop-color="#C8EE90"/>
<stop offset="1" stop-color="#A4D5F6"/>
</linearGradient>
<linearGradient id="paint16_linear" x1="186.793" y1="139.91" x2="186.793" y2="142.87" gradientUnits="userSpaceOnUse">
<stop stop-color="#C8EE90"/>
<stop offset="1" stop-color="#A4D5F6"/>
</linearGradient>
<linearGradient id="paint17_linear" x1="141.793" y1="169.91" x2="141.793" y2="172.87" gradientUnits="userSpaceOnUse">
<stop stop-color="#C8EE90"/>
<stop offset="1" stop-color="#A4D5F6"/>
</linearGradient>
<linearGradient id="paint18_linear" x1="186.793" y1="199.91" x2="186.793" y2="202.87" gradientUnits="userSpaceOnUse">
<stop stop-color="#C8EE90"/>
<stop offset="1" stop-color="#A4D5F6"/>
</linearGradient>
<linearGradient id="paint19_linear" x1="231.793" y1="169.91" x2="231.793" y2="172.87" gradientUnits="userSpaceOnUse">
<stop stop-color="#C8EE90"/>
<stop offset="1" stop-color="#A4D5F6"/>
</linearGradient>
<linearGradient id="paint20_linear" x1="231.788" y1="199.67" x2="231.788" y2="203.12" gradientUnits="userSpaceOnUse">
<stop stop-color="#C8EE90"/>
<stop offset="1" stop-color="#A4D5F6"/>
</linearGradient>
<linearGradient id="paint21_linear" x1="231.788" y1="139.67" x2="231.788" y2="143.12" gradientUnits="userSpaceOnUse">
<stop stop-color="#C8EE90"/>
<stop offset="1" stop-color="#A4D5F6"/>
</linearGradient>
<linearGradient id="paint22_linear" x1="141.788" y1="199.67" x2="141.788" y2="203.12" gradientUnits="userSpaceOnUse">
<stop stop-color="#C8EE90"/>
<stop offset="1" stop-color="#A4D5F6"/>
</linearGradient>
<linearGradient id="paint23_linear" x1="141.788" y1="139.67" x2="141.788" y2="143.12" gradientUnits="userSpaceOnUse">
<stop stop-color="#C8EE90"/>
<stop offset="1" stop-color="#A4D5F6"/>
</linearGradient>
<linearGradient id="paint24_linear" x1="186.929" y1="161.03" x2="186.929" y2="196.47" gradientUnits="userSpaceOnUse">
<stop stop-color="#C8EE90"/>
<stop offset="1" stop-color="#A4D5F6"/>
</linearGradient>
<linearGradient id="paint25_linear" x1="209.863" y1="155.3" x2="209.863" y2="166.36" gradientUnits="userSpaceOnUse">
<stop stop-color="#C8EE90"/>
<stop offset="1" stop-color="#A4D5F6"/>
</linearGradient>
</defs>
</svg>
