<svg width="751" height="500" viewBox="0 0 751 500" fill="none" xmlns="http://www.w3.org/2000/svg">
<path d="M189.143 71.5898H97.4033V204.57H189.143V71.5898Z" fill="#E0E0E0"/>
<path d="M184.543 71.5898H92.8032V204.57H184.543V71.5898Z" fill="#F5F5F5"/>
<path d="M173.154 85.9902H104.204V190.16H173.154V85.9902Z" fill="white"/>
<path d="M173.153 190.17C173.153 190.17 173.153 189.99 173.153 189.66C173.153 189.33 173.153 188.82 173.153 188.18C173.153 186.87 173.153 184.95 173.153 182.47C173.153 177.47 173.153 170.2 173.083 161.01C173.083 142.64 173.023 116.62 172.973 86.0098L173.203 86.2398H104.263L104.513 85.9898C104.513 125.29 104.513 161.52 104.513 190.17L104.313 189.97L154.503 190.07L168.363 190.12H172.003H173.263H172.043H168.443H154.623L104.313 190.22H104.113V190.02C104.113 161.37 104.113 125.14 104.113 85.8398V85.5898H104.373H173.313H173.543V85.9998C173.543 116.7 173.453 142.76 173.433 161.17C173.433 170.34 173.383 177.59 173.363 182.57C173.363 185.04 173.363 186.94 173.363 188.24C173.363 188.87 173.363 189.36 173.363 189.69C173.363 190.02 173.153 190.17 173.153 190.17Z" fill="#E0E0E0"/>
<path d="M184.814 71.5898C184.339 72.4402 183.79 73.2467 183.174 73.9998C182.114 75.4198 180.594 77.3598 178.874 79.4598C177.154 81.5598 175.533 83.4099 174.333 84.7299C173.73 85.4755 173.061 86.165 172.333 86.7898C172.851 85.9787 173.437 85.2126 174.083 84.4998L178.504 79.1398L182.904 73.7498C183.478 72.9771 184.117 72.2545 184.814 71.5898Z" fill="#E0E0E0"/>
<path d="M173.503 189.83C176.927 195.265 180.953 200.297 185.503 204.83Z" fill="white"/>
<path d="M185.534 204.87C184.764 204.314 184.06 203.674 183.434 202.96C181.835 201.335 180.32 199.629 178.894 197.85C177.234 195.76 175.844 193.77 174.894 192.3C174.347 191.525 173.878 190.697 173.494 189.83C174.112 190.544 174.677 191.303 175.184 192.1C176.184 193.52 177.624 195.46 179.274 197.53C180.924 199.6 182.524 201.42 183.684 202.72C184.351 203.392 184.969 204.11 185.534 204.87V204.87Z" fill="#E0E0E0"/>
<path d="M92.7935 204.46L104.793 189.64Z" fill="white"/>
<path d="M104.813 189.64C103.003 192.26 101.061 194.787 98.9935 197.21C97.0588 199.736 94.9891 202.156 92.7935 204.46C94.6035 201.839 96.546 199.312 98.6135 196.89C100.548 194.363 102.618 191.943 104.813 189.64V189.64Z" fill="#E0E0E0"/>
<path d="M92.8032 71.5898C94.8762 73.8148 96.8258 76.1516 98.6432 78.5898C100.59 80.9177 102.406 83.3514 104.083 85.8798C102.014 83.6545 100.068 81.3177 98.2532 78.8798C96.3043 76.5516 94.4849 74.1179 92.8032 71.5898Z" fill="#E0E0E0"/>
<path d="M151.674 107.14H128.583V172.69H151.674V107.14Z" fill="#E0E0E0"/>
<path d="M312.834 52.21V110.45H229.194L226.184 52.62L312.834 52.21Z" fill="#E0E0E0"/>
<path d="M226.173 52.6203V110.32H309.813V52.6203L226.173 52.6203Z" fill="white"/>
<path d="M310.214 110.72H225.784V52.2197H310.214V110.72ZM226.584 109.93H309.424V52.9997H226.584V109.93Z" fill="#E0E0E0"/>
<path d="M300.764 59.79H235.244V103.15H300.764V59.79Z" fill="white"/>
<path d="M300.764 59.7896H299.504H295.904H282.404L235.244 59.9996L235.434 59.8096C235.434 73.0596 235.434 87.7396 235.434 103.17L235.234 102.97H300.754L300.584 103.13C300.584 89.9396 300.654 79.1296 300.674 71.5796C300.674 67.8196 300.674 64.8796 300.674 62.8596C300.674 61.8596 300.674 61.0996 300.674 60.5696C300.674 60.0396 300.674 59.7696 300.674 59.7696C300.674 59.7696 300.674 60.0196 300.674 60.5296C300.674 61.0396 300.674 61.8096 300.674 62.7896C300.674 64.7896 300.674 67.7296 300.724 71.4796C300.724 79.0396 300.774 89.8996 300.804 103.13V103.3H300.644H235.124H234.914V103.09C234.914 87.6596 234.914 72.9796 234.914 59.7296V59.5996H235.104L282.394 59.6896L295.854 59.7496H299.414H300.624L300.764 59.7896Z" fill="#E0E0E0"/>
<path d="M226.184 52.46C226.701 52.7085 227.184 53.021 227.624 53.39C228.474 54.01 229.624 54.89 230.904 55.89C232.184 56.89 233.264 57.89 234.044 58.56C234.49 58.9222 234.893 59.3349 235.244 59.79C233.65 58.6758 232.115 57.4809 230.644 56.21C229.079 55.0558 227.589 53.8033 226.184 52.46V52.46Z" fill="#E0E0E0"/>
<path d="M309.824 52.6201C308.448 53.9734 306.978 55.2266 305.424 56.3701C303.953 57.6183 302.396 58.7612 300.764 59.7901C302.139 58.4369 303.61 57.1837 305.164 56.0401C306.633 54.7892 308.19 53.6462 309.824 52.6201V52.6201Z" fill="#E0E0E0"/>
<path d="M309.753 110.33L300.423 102.77Z" fill="white"/>
<path d="M300.423 102.77C302.101 103.87 303.705 105.079 305.223 106.39C306.82 107.6 308.333 108.916 309.753 110.33C308.074 109.236 306.474 108.026 304.963 106.71C303.36 105.504 301.842 104.188 300.423 102.77V102.77Z" fill="#E0E0E0"/>
<path d="M226.184 110.319C227.542 108.983 228.996 107.746 230.534 106.619C231.988 105.382 233.529 104.249 235.144 103.229C233.789 104.574 232.335 105.814 230.794 106.939C229.34 108.176 227.8 109.305 226.184 110.319V110.319Z" fill="#E0E0E0"/>
<path d="M248.543 73.3003V87.8203H289.773V73.3003H248.543Z" fill="#E0E0E0"/>
<path d="M653.593 313.17C653.593 313.17 646.083 309.67 640.193 327.27C634.303 344.87 632.553 354.78 632.553 354.78C632.553 354.78 630.863 358.54 628.173 356.65C625.483 354.76 621.313 348.89 617.483 350.65C613.653 352.41 612.833 357.29 614.643 363.98C616.453 370.67 619.883 385.46 620.183 386.8C620.483 388.14 620.013 390.19 617.983 389.2C615.953 388.21 603.533 377.96 598.983 384.13C594.433 390.3 602.573 408.13 603.423 410.07C604.273 412.01 604.003 412.97 603.103 413.62C602.203 414.27 598.373 410.43 594.723 407.62C591.073 404.81 586.363 402.28 584.053 406.06C581.743 409.84 582.943 423.93 599.613 444.61L607.963 453.68L620.093 451.17C645.723 444.22 654.963 433.52 655.313 429.1C655.663 424.68 650.313 424 645.763 424.1C641.213 424.2 635.823 425.05 635.483 423.99C635.143 422.93 635.483 421.99 637.303 420.99C639.123 419.99 656.153 410.24 656.133 402.59C656.113 394.94 640.043 395.96 637.813 395.59C635.583 395.22 636.423 393.24 637.433 392.35C638.443 391.46 649.923 381.48 655.313 377.13C660.703 372.78 663.003 368.47 660.843 364.68C658.683 360.89 651.943 363.32 648.663 363.27C645.383 363.22 646.213 359.18 646.213 359.18C646.213 359.18 650.613 350.18 656.213 332.43C661.813 314.68 653.433 313.15 653.433 313.15" fill="#EBEBEB"/>
<path d="M606.383 456.19C610.523 443.19 618.263 420.24 624.813 400.49C631.363 380.74 637.273 362.87 641.483 349.91C643.573 343.43 645.263 338.19 646.483 334.55C647.073 332.75 647.483 331.34 647.843 330.37C647.997 329.91 648.117 329.55 648.203 329.29C648.283 329.04 648.333 328.92 648.333 328.92C648.333 328.92 648.333 329.05 648.233 329.3C648.133 329.55 648.053 329.92 647.913 330.39C647.613 331.39 647.183 332.78 646.623 334.59C645.503 338.24 643.853 343.5 641.773 349.99C637.633 362.99 631.773 380.87 625.223 400.61C618.673 420.35 610.883 443.31 606.673 456.27" fill="#E0E0E0"/>
<path d="M622.994 359.08C623.16 359.327 623.304 359.588 623.424 359.86C623.684 360.37 624.034 361.13 624.424 362.06C625.274 363.93 626.424 366.54 627.534 369.44C628.644 372.34 629.694 374.89 630.534 376.87C630.884 377.76 631.194 378.52 631.434 379.12C631.57 379.386 631.671 379.668 631.734 379.96C631.567 379.713 631.423 379.452 631.304 379.18C631.044 378.67 630.694 377.92 630.304 376.98C629.474 375.1 628.404 372.48 627.244 369.58C626.084 366.68 625.044 364.14 624.244 362.17L623.324 359.92C623.178 359.655 623.068 359.373 622.994 359.08V359.08Z" fill="#E0E0E0"/>
<path d="M632.904 380C632.854 379.9 638.134 377.4 644.694 374.4C651.254 371.4 656.594 369.06 656.694 369.16C656.794 369.26 651.454 371.76 644.894 374.75C638.334 377.74 632.904 380.11 632.904 380Z" fill="#E0E0E0"/>
<path d="M621.443 409.88C621.735 409.786 622.037 409.726 622.343 409.7L624.793 409.34C626.853 409.04 629.713 408.61 632.843 408.01C635.973 407.41 638.783 406.8 640.843 406.32L643.253 405.77C643.545 405.679 643.848 405.626 644.153 405.61C643.876 405.736 643.589 405.837 643.293 405.91C642.733 406.08 641.923 406.32 640.913 406.59C638.913 407.13 636.073 407.8 632.913 408.39C629.753 408.98 626.913 409.39 624.823 409.61C623.823 409.73 622.943 409.81 622.353 409.85C622.052 409.887 621.747 409.897 621.443 409.88V409.88Z" fill="#E0E0E0"/>
<path d="M608.343 392.91C608.559 393.091 608.754 393.295 608.923 393.52L610.393 395.28C611.623 396.77 613.293 398.85 615.123 401.16C616.953 403.47 618.603 405.57 619.773 407.11L621.143 408.94C621.323 409.157 621.48 409.392 621.613 409.64C621.394 409.463 621.199 409.258 621.033 409.03L619.563 407.28C618.333 405.78 616.663 403.71 614.823 401.4C612.983 399.09 611.353 396.98 610.183 395.45L608.813 393.62C608.629 393.403 608.472 393.164 608.343 392.91Z" fill="#E0E0E0"/>
<path d="M594.903 418C595.174 418.237 595.418 418.502 595.633 418.79C596.133 419.37 596.763 420.13 597.523 421.03C599.113 422.93 601.273 425.58 603.653 428.52C606.033 431.46 608.163 434.13 609.653 436.08L611.453 438.39C611.683 438.668 611.887 438.966 612.063 439.28C611.8 439.036 611.555 438.772 611.333 438.49L609.443 436.25C607.863 434.34 605.693 431.7 603.313 428.76C600.933 425.82 598.803 423.15 597.313 421.2C596.593 420.27 595.983 419.49 595.523 418.88C595.288 418.608 595.081 418.313 594.903 418V418Z" fill="#E0E0E0"/>
<path d="M611.903 438.65C612.27 438.538 612.644 438.455 613.023 438.4L616.113 437.84C618.723 437.36 622.323 436.68 626.273 435.84C630.223 435 633.783 434.12 636.353 433.47L639.403 432.71C639.773 432.599 640.151 432.519 640.533 432.47C640.182 432.629 639.817 432.756 639.443 432.85C638.733 433.07 637.703 433.38 636.443 433.73C633.883 434.45 630.333 435.36 626.373 436.21C622.413 437.06 618.803 437.71 616.183 438.12C614.873 438.33 613.803 438.48 613.073 438.57C612.687 438.634 612.295 438.66 611.903 438.65Z" fill="#E0E0E0"/>
<path d="M675.903 455.83C675.903 455.97 538.513 456.09 369.083 456.09C199.653 456.09 62.2632 456 62.2632 455.83C62.2632 455.66 199.623 455.57 369.123 455.57C538.623 455.57 675.903 455.69 675.903 455.83Z" fill="#263238"/>
<path d="M488.26 107.824L478.745 115.962L491.446 130.812L500.961 122.674L488.26 107.824Z" fill="#263238"/>
<path d="M496.483 106.67L476.903 123.49L463.173 107.49C468.573 99.9099 475.013 94.1899 482.723 90.6699L496.483 106.67Z" fill="#455A64"/>
<path d="M480.203 120.669C480.093 120.769 476.783 117.129 472.803 112.559C468.823 107.989 465.683 104.209 465.803 104.109C465.923 104.009 469.223 107.649 473.203 112.219C477.183 116.789 480.313 120.579 480.203 120.669Z" fill="#263238"/>
<path d="M483.903 117.469C483.112 116.699 482.377 115.874 481.703 114.999C480.383 113.449 478.593 111.299 476.623 108.899L471.623 102.739L470.123 100.869C469.763 100.409 469.573 100.199 469.573 100.169C469.773 99.9892 473.103 103.779 477.043 108.569C479.043 110.969 480.763 113.159 482.043 114.769C482.742 115.613 483.364 116.516 483.903 117.469V117.469Z" fill="#263238"/>
<path d="M488.903 113.2C488.1 112.432 487.355 111.607 486.673 110.73C485.343 109.16 483.543 106.97 481.563 104.54L476.563 98.2796L475.063 96.3697C474.869 96.142 474.695 95.8977 474.543 95.6396C475.402 96.3495 476.174 97.1584 476.843 98.0497C478.193 99.5997 480.013 101.78 481.983 104.21C483.953 106.64 485.723 108.87 486.983 110.5C487.698 111.344 488.34 112.247 488.903 113.2V113.2Z" fill="#263238"/>
<path d="M493.413 109.199C493.303 109.289 490.013 105.619 486.063 100.999C482.113 96.3793 479.013 92.5493 479.123 92.4493C479.233 92.3493 482.513 96.0293 486.463 100.659C490.413 105.289 493.523 109.109 493.413 109.199Z" fill="#263238"/>
<path d="M655.819 117.932L647.169 108.881L633.043 122.381L641.693 131.432L655.819 117.932Z" fill="#263238"/>
<path d="M656.233 126.84L638.413 108.19L653.643 93.6396C661.483 98.6396 667.543 104.77 671.453 112.29L656.233 126.84Z" fill="#455A64"/>
<path d="M641.393 111.32C641.293 111.21 644.743 107.71 649.103 103.5C653.463 99.2898 657.103 95.9598 657.173 96.0598C657.243 96.1598 653.823 99.6598 649.463 103.88C645.103 108.1 641.493 111.42 641.393 111.32Z" fill="#263238"/>
<path d="M644.793 114.869C645.504 114.03 646.28 113.247 647.113 112.529C648.583 111.129 650.643 109.219 652.933 107.119L658.823 101.789L660.613 100.189C661.043 99.8094 661.253 99.6194 661.283 99.6094C661.473 99.7994 657.863 103.329 653.283 107.509C650.993 109.599 648.893 111.509 647.353 112.799C646.556 113.556 645.7 114.248 644.793 114.869V114.869Z" fill="#263238"/>
<path d="M649.313 119.6C650.033 118.752 650.819 117.963 651.664 117.24C653.154 115.83 655.243 113.91 657.573 111.81L663.573 106.47L665.404 104.87C665.627 104.671 665.86 104.484 666.104 104.31C665.442 105.207 664.677 106.023 663.823 106.74C662.343 108.17 660.254 110.1 657.934 112.2C655.614 114.3 653.474 116.2 651.934 117.52C651.115 118.279 650.239 118.975 649.313 119.6V119.6Z" fill="#263238"/>
<path d="M653.543 123.91C653.443 123.8 656.943 120.33 661.353 116.14C665.763 111.95 669.423 108.65 669.523 108.76C669.623 108.87 666.123 112.34 661.713 116.52C657.303 120.7 653.643 124 653.543 123.91Z" fill="#263238"/>
<path d="M575.983 74.7197H561.163V97.8497H575.983V74.7197Z" fill="#263238"/>
<path d="M583.903 81.6394H553.403V56.7094C564.093 54.0694 574.293 53.9094 583.933 56.7094L583.903 81.6394Z" fill="url(#paint0_linear)"/>
<path d="M584.293 56.8095C583.936 57.033 583.557 57.2206 583.163 57.3695C582.119 57.8293 581.047 58.2234 579.953 58.5495C578.315 59.0541 576.644 59.4483 574.953 59.7295C572.899 60.0555 570.823 60.2293 568.743 60.2495C566.664 60.2526 564.589 60.0988 562.533 59.7895C560.843 59.5273 559.172 59.1498 557.533 58.6595C556.438 58.3391 555.363 57.9551 554.313 57.5095C553.916 57.3718 553.537 57.1871 553.183 56.9595C553.183 56.8695 554.863 57.5595 557.633 58.2995C559.259 58.7291 560.908 59.063 562.573 59.2995C564.608 59.5748 566.659 59.7151 568.713 59.7195C570.768 59.6961 572.819 59.5358 574.853 59.2395C576.511 58.9997 578.153 58.6658 579.773 58.2395C582.613 57.4295 584.253 56.7195 584.293 56.8095Z" fill="#263238"/>
<path d="M563.483 81.5695C563.343 81.5695 563.223 76.7795 563.223 70.8795C563.223 64.9795 563.343 60.1895 563.483 60.1895C563.623 60.1895 563.743 64.9695 563.743 70.8795C563.743 76.7895 563.633 81.5695 563.483 81.5695Z" fill="#263238"/>
<path d="M569.293 81.7093C569.153 81.7093 569.033 76.8993 569.033 70.9693C569.033 65.0393 569.153 60.2393 569.293 60.2393C569.433 60.2393 569.553 65.0393 569.553 70.9693C569.553 76.8993 569.443 81.7093 569.293 81.7093Z" fill="#263238"/>
<path d="M575.103 81.6197C574.963 81.6197 574.843 76.8096 574.843 70.8796C574.843 64.9496 574.963 60.1396 575.103 60.1396C575.243 60.1396 575.363 64.9496 575.363 70.8796C575.363 76.8096 575.253 81.6197 575.103 81.6197Z" fill="#263238"/>
<path d="M579.903 81.6194C579.753 81.6194 579.643 76.4194 579.643 70.0094C579.643 63.5994 579.753 58.3994 579.903 58.3994C580.053 58.3994 580.163 63.5994 580.163 70.0094C580.163 76.4194 580.083 81.6194 579.903 81.6194Z" fill="#263238"/>
<path d="M557.993 81.47C557.853 81.47 557.733 76.27 557.733 69.86C557.733 63.45 557.853 58.25 557.993 58.25C558.133 58.25 558.253 63.45 558.253 69.86C558.253 76.27 558.143 81.47 557.993 81.47Z" fill="#263238"/>
<path d="M643.03 274.772C685.14 232.661 685.14 164.387 643.03 122.277C600.92 80.1668 532.646 80.1669 490.535 122.277C448.425 164.387 448.425 232.662 490.535 274.772C532.646 316.882 600.92 316.882 643.03 274.772Z" fill="url(#paint1_linear)"/>
<path d="M566.783 288.229C616.798 288.229 657.343 247.684 657.343 197.669C657.343 147.654 616.798 107.109 566.783 107.109C516.768 107.109 476.223 147.654 476.223 197.669C476.223 247.684 516.768 288.229 566.783 288.229Z" fill="#FAFAFA"/>
<path d="M657.343 197.67C657.343 197.67 657.343 197.18 657.273 196.21C657.203 195.24 657.273 193.79 657.083 191.9C656.727 186.385 655.863 180.916 654.503 175.56C653.523 171.694 652.284 167.899 650.793 164.2C649.042 159.789 646.935 155.529 644.493 151.46C638.521 141.518 630.716 132.801 621.493 125.77C610.3 117.253 597.269 111.473 583.443 108.89C571.725 106.733 559.699 106.873 548.033 109.3C543.937 110.189 539.902 111.341 535.953 112.75C519.152 118.87 504.538 129.827 493.953 144.24C491.191 147.993 488.731 151.959 486.593 156.1C485.483 158.17 484.533 160.32 483.593 162.48C482.653 164.64 481.813 166.88 481.103 169.16C479.569 173.722 478.418 178.405 477.663 183.16C476.904 187.966 476.507 192.823 476.473 197.69C476.509 202.559 476.903 207.419 477.653 212.23C478.419 216.982 479.57 221.664 481.093 226.23C481.813 228.5 482.713 230.7 483.583 232.9C484.453 235.1 485.503 237.22 486.583 239.29C488.72 243.433 491.185 247.399 493.953 251.15C504.535 265.567 519.15 276.528 535.953 282.65C539.902 284.058 543.937 285.21 548.033 286.1C552.028 286.934 556.073 287.499 560.143 287.79C567.933 288.378 575.765 287.948 583.443 286.51C597.269 283.927 610.3 278.146 621.493 269.63C630.719 262.601 638.524 253.883 644.493 243.94C646.933 239.869 649.04 235.609 650.793 231.2C654.345 222.358 656.468 213.008 657.083 203.5C657.253 201.61 657.223 200.16 657.273 199.19C657.323 198.22 657.343 197.72 657.343 197.72C657.343 197.72 657.343 198.22 657.343 199.19C657.343 200.16 657.343 201.61 657.203 203.5C656.656 213.035 654.572 222.419 651.033 231.29C649.292 235.72 647.192 240.001 644.753 244.09C638.795 254.081 630.99 262.847 621.753 269.92C610.52 278.488 597.438 284.31 583.553 286.92C575.841 288.377 567.971 288.821 560.143 288.24C556.053 287.95 551.988 287.385 547.973 286.55C543.852 285.663 539.793 284.507 535.823 283.09C518.922 276.946 504.22 265.933 493.573 251.44C490.795 247.669 488.32 243.683 486.173 239.52C485.053 237.44 484.093 235.26 483.113 233.09C482.133 230.92 481.333 228.67 480.613 226.38C479.079 221.795 477.922 217.093 477.153 212.32C475.567 202.638 475.567 192.762 477.153 183.08C477.926 178.327 479.083 173.645 480.613 169.08C481.343 166.79 482.243 164.58 483.123 162.37C484.003 160.16 485.053 158.03 486.173 155.95C488.327 151.788 490.805 147.803 493.583 144.03C504.225 129.539 518.925 118.528 535.823 112.39C539.79 110.973 543.846 109.817 547.963 108.93C551.981 108.095 556.05 107.53 560.143 107.24C567.968 106.658 575.834 107.102 583.543 108.56C597.432 111.158 610.516 116.981 621.743 125.56C630.979 132.636 638.785 141.406 644.743 151.4C649.223 158.944 652.591 167.094 654.743 175.6C656.078 180.974 656.911 186.461 657.233 191.99C657.383 193.88 657.333 195.33 657.373 196.3C657.413 197.27 657.343 197.67 657.343 197.67Z" fill="#263238"/>
<path d="M644.053 194.389C641.183 194.509 638.843 194.389 638.833 194.139C638.823 193.889 641.133 193.549 644.003 193.389C646.873 193.229 649.213 193.329 649.233 193.629C649.253 193.929 646.903 194.269 644.053 194.389Z" fill="#263238"/>
<path d="M642.123 215.24C639.323 214.58 637.123 213.85 637.123 213.6C637.123 213.35 639.503 213.65 642.313 214.26C645.123 214.87 647.313 215.61 647.313 215.9C647.313 216.19 644.903 215.89 642.123 215.24Z" fill="#263238"/>
<path d="M634.653 234.789C632.123 233.409 630.183 232.1 630.303 231.88C630.423 231.66 632.583 232.57 635.123 233.88C637.663 235.19 639.613 236.54 639.473 236.8C639.333 237.06 637.173 236.179 634.653 234.789Z" fill="#263238"/>
<path d="M622.203 251.63C620.143 249.63 618.613 247.85 618.793 247.63C618.973 247.41 620.793 248.9 622.893 250.88C624.993 252.86 626.503 254.63 626.303 254.88C626.103 255.13 624.253 253.64 622.203 251.63Z" fill="#263238"/>
<path d="M605.703 264.529C604.263 262.039 603.263 259.919 603.483 259.789C603.703 259.659 605.083 261.559 606.563 264.019C608.043 266.479 609.043 268.599 608.793 268.759C608.543 268.919 607.153 266.999 605.703 264.529Z" fill="#263238"/>
<path d="M586.353 272.52C585.633 269.73 585.243 267.42 585.493 267.36C585.743 267.3 586.553 269.49 587.323 272.26C588.093 275.03 588.473 277.34 588.183 277.42C587.893 277.5 587.073 275.3 586.353 272.52Z" fill="#263238"/>
<path d="M565.563 275C565.563 272.12 565.853 269.79 566.103 269.79C566.353 269.79 566.563 272.13 566.563 275C566.563 277.87 566.313 280.21 566.023 280.21C565.733 280.21 565.513 277.89 565.563 275Z" fill="#263238"/>
<path d="M544.903 271.869C545.723 269.109 546.583 266.939 546.833 267.009C547.083 267.079 546.643 269.379 545.833 272.149C545.023 274.919 544.193 277.149 543.903 277.009C543.613 276.869 544.033 274.629 544.903 271.869Z" fill="#263238"/>
<path d="M525.773 263.259C527.303 260.829 528.713 258.959 528.933 259.089C529.153 259.219 528.113 261.329 526.623 263.789C525.133 266.249 523.713 268.109 523.463 267.959C523.213 267.809 524.243 265.699 525.773 263.259Z" fill="#263238"/>
<path d="M509.683 249.86C511.813 247.92 513.683 246.5 513.843 246.69C514.003 246.88 512.463 248.62 510.363 250.59C508.263 252.56 506.413 253.98 506.203 253.77C505.993 253.56 507.563 251.8 509.683 249.86Z" fill="#263238"/>
<path d="M497.763 232.64C500.333 231.35 502.513 230.48 502.623 230.7C502.733 230.92 500.773 232.19 498.223 233.53C495.673 234.87 493.503 235.74 493.363 235.47C493.223 235.2 495.203 233.94 497.763 232.64Z" fill="#263238"/>
<path d="M490.904 212.86C493.734 212.3 496.064 212.05 496.114 212.3C496.164 212.55 493.924 213.24 491.114 213.84C488.304 214.44 485.964 214.69 485.904 214.4C485.844 214.11 488.104 213.42 490.904 212.86Z" fill="#263238"/>
<path d="M489.633 192C492.503 192.21 494.813 192.59 494.803 192.84C494.793 193.09 492.443 193.16 489.573 192.99C486.703 192.82 484.383 192.45 484.403 192.15C484.423 191.85 486.763 191.74 489.633 192Z" fill="#263238"/>
<path d="M493.983 171.47C496.693 172.47 498.813 173.47 498.733 173.68C498.653 173.89 496.373 173.35 493.653 172.41C490.933 171.47 488.813 170.49 488.903 170.21C488.993 169.93 491.283 170.49 493.983 171.47Z" fill="#263238"/>
<path d="M503.693 152.92C506.033 154.59 507.813 156.11 507.693 156.32C507.573 156.53 505.513 155.37 503.143 153.74C500.773 152.11 498.993 150.59 499.143 150.34C499.293 150.09 501.343 151.25 503.693 152.92Z" fill="#263238"/>
<path d="M518.003 137.64C519.813 139.87 521.123 141.81 520.933 141.98C520.743 142.15 519.073 140.48 517.233 138.27C515.393 136.06 514.073 134.13 514.303 133.94C514.533 133.75 516.193 135.41 518.003 137.64Z" fill="#263238"/>
<path d="M535.903 126.74C537.043 129.38 537.793 131.6 537.553 131.74C537.313 131.88 536.173 129.8 534.993 127.18C533.813 124.56 533.063 122.34 533.333 122.18C533.603 122.02 534.733 124.11 535.903 126.74Z" fill="#263238"/>
<path d="M556.043 121.07C556.433 123.92 556.553 126.26 556.293 126.3C556.033 126.34 555.483 124.06 555.053 121.22C554.623 118.38 554.503 116.03 554.793 115.99C555.083 115.95 555.653 118.22 556.043 121.07Z" fill="#263238"/>
<path d="M576.983 121C576.603 123.85 576.093 126.14 575.843 126.11C575.593 126.08 575.653 123.73 575.993 120.88C576.333 118.03 576.843 115.73 577.133 115.77C577.423 115.81 577.363 118.14 576.983 121Z" fill="#263238"/>
<path d="M597.173 126.529C596.043 129.179 594.933 131.239 594.693 131.139C594.453 131.039 595.163 128.809 596.253 126.139C597.343 123.469 598.463 121.419 598.733 121.539C599.003 121.659 598.313 123.889 597.173 126.529Z" fill="#263238"/>
<path d="M615.133 137.299C613.333 139.549 611.713 141.239 611.513 141.079C611.313 140.919 612.583 138.949 614.353 136.679C616.123 134.409 617.733 132.679 617.973 132.909C618.213 133.139 616.903 135.059 615.133 137.299Z" fill="#263238"/>
<path d="M629.563 152.48C627.223 154.16 625.213 155.36 625.063 155.15C624.913 154.94 626.663 153.39 628.973 151.67C631.283 149.95 633.293 148.76 633.473 149C633.653 149.24 631.903 150.8 629.563 152.48Z" fill="#263238"/>
<path d="M639.393 171C636.693 172 634.393 172.59 634.333 172.36C634.273 172.13 636.333 171.09 639.043 170.06C641.753 169.03 643.983 168.42 644.093 168.7C644.203 168.98 642.093 170 639.393 171Z" fill="#263238"/>
<path d="M643.903 191.42C641.033 191.65 638.693 191.63 638.673 191.42C638.653 191.21 640.953 190.75 643.813 190.42C646.673 190.09 649.023 190.17 649.043 190.47C649.063 190.77 646.743 191.19 643.903 191.42Z" fill="#263238"/>
<path d="M531.613 99.6992L531.303 99.8392L530.383 100.209C529.583 100.549 528.383 100.959 526.853 101.629C522.542 103.431 518.356 105.519 514.323 107.879C511.763 109.359 509.053 111.129 506.203 113.119C503.353 115.109 500.443 117.429 497.533 120.039C484.757 131.301 474.998 145.576 469.143 161.569C467.773 165.229 466.743 168.809 465.853 172.159C464.963 175.509 464.363 178.709 463.913 181.629C463.183 186.243 462.759 190.9 462.643 195.569C462.563 197.229 462.643 198.509 462.643 199.379C462.643 199.799 462.643 200.119 462.643 200.379C462.652 200.492 462.652 200.606 462.643 200.719C462.63 200.61 462.63 200.499 462.643 200.389C462.643 200.139 462.643 199.809 462.643 199.389C462.643 198.519 462.533 197.239 462.583 195.579C462.619 190.892 462.99 186.213 463.693 181.579C464.113 178.639 464.763 175.449 465.573 172.059C466.477 168.456 467.565 164.901 468.833 161.409C474.659 145.309 484.476 130.951 497.363 119.679C500.293 117.069 503.273 114.819 506.093 112.769C508.913 110.719 511.693 109.019 514.283 107.559C518.344 105.224 522.564 103.179 526.913 101.439C528.443 100.799 529.673 100.439 530.493 100.109L531.433 99.7892C531.491 99.7549 531.551 99.7248 531.613 99.6992V99.6992Z" fill="white"/>
<path d="M561.713 93.86C560.685 94.0735 559.642 94.2105 558.593 94.2699C556.653 94.4699 553.993 94.76 551.053 95.14C548.113 95.52 545.463 95.92 543.543 96.22C542.515 96.4314 541.472 96.5651 540.423 96.62C541.418 96.2733 542.442 96.0189 543.483 95.86C545.393 95.47 548.043 95.0099 550.983 94.6299C553.923 94.2499 556.613 94.01 558.563 93.9C559.61 93.7881 560.664 93.7747 561.713 93.86Z" fill="white"/>
<g opacity="0.4">
<path opacity="0.4" d="M494.403 252.109C494.403 252.109 541.333 326.169 614.133 288.239C690.133 248.639 648.133 157.869 648.133 157.869C648.133 157.869 683.893 230.209 609.813 277.369C591.363 289.119 571.273 289.129 555.953 287.589C516.803 283.669 494.403 252.109 494.403 252.109Z" fill="black"/>
</g>
<path d="M592.023 149.54C592.474 162.822 592.073 176.119 590.823 189.35C590.363 194.14 589.823 198.98 587.973 203.43C586.123 207.88 582.973 211.96 578.533 213.84C574.093 215.72 568.413 214.94 565.323 211.26L592.023 149.54Z" fill="#E0E0E0"/>
<path d="M564.813 190.529L597.724 135.109L577.864 197.679L567.714 200.709L564.813 190.529Z" fill="url(#paint2_linear)"/>
<g opacity="0.4">
<path opacity="0.4" d="M597.724 135.109L573.313 191.739L577.864 197.679L597.724 135.109Z" fill="black"/>
</g>
<path d="M567.713 211.299C573.562 211.299 578.303 206.558 578.303 200.709C578.303 194.86 573.562 190.119 567.713 190.119C561.864 190.119 557.123 194.86 557.123 200.709C557.123 206.558 561.864 211.299 567.713 211.299Z" fill="#FAFAFA"/>
<path d="M578.303 200.709C578.208 199.849 578.065 198.994 577.873 198.149C577.26 195.868 575.901 193.858 574.013 192.439C572.626 191.396 571 190.716 569.283 190.463C567.566 190.21 565.813 190.391 564.183 190.989C563.246 191.321 562.365 191.797 561.573 192.399C560.73 193.011 559.991 193.753 559.383 194.599C558.084 196.371 557.383 198.512 557.383 200.709C557.383 202.907 558.084 205.047 559.383 206.819C560.598 208.467 562.266 209.725 564.183 210.439C565.552 210.941 567.01 211.151 568.465 211.057C569.919 210.962 571.338 210.564 572.63 209.889C573.921 209.214 575.058 208.277 575.966 207.137C576.874 205.996 577.534 204.679 577.903 203.269C578.097 202.425 578.24 201.57 578.333 200.709C578.395 201.586 578.318 202.467 578.103 203.319C577.557 205.704 576.2 207.824 574.263 209.319C572.936 210.35 571.384 211.052 569.733 211.369C567.835 211.732 565.874 211.58 564.053 210.929C563.065 210.588 562.137 210.092 561.303 209.459C560.419 208.82 559.643 208.044 559.003 207.159C557.627 205.306 556.883 203.058 556.883 200.749C556.883 198.44 557.627 196.193 559.003 194.339C559.645 193.457 560.421 192.681 561.303 192.039C562.141 191.416 563.068 190.923 564.053 190.579C565.873 189.923 567.835 189.771 569.733 190.139C571.75 190.527 573.612 191.488 575.097 192.907C576.581 194.325 577.625 196.142 578.103 198.139C578.303 198.98 578.371 199.847 578.303 200.709V200.709Z" fill="#263238"/>
<path d="M575.471 202.297C576.334 198.031 573.575 193.874 569.309 193.012C565.044 192.149 560.886 194.908 560.024 199.174C559.162 203.439 561.92 207.597 566.186 208.459C570.452 209.321 574.609 206.563 575.471 202.297Z" fill="#455A64"/>
<path d="M484.223 454.89H536.323L512.033 245.55L484.223 454.89Z" fill="#E0E0E0"/>
<path d="M227.863 245.55L193.943 457.36L483.393 461.13L512.033 245.55H227.863Z" fill="#FAFAFA"/>
<path d="M499.143 342.579H212.323L218.563 303.579H504.323L499.143 342.579Z" fill="#EBEBEB"/>
<path d="M499.163 342.61H212.293L218.543 303.61H504.353L499.163 342.61ZM212.353 342.56H499.123L504.293 303.56H218.593L212.353 342.56Z" fill="#263238"/>
<path d="M227.863 245.55L218.563 303.58H504.323L512.033 245.55H227.863Z" fill="url(#paint3_linear)"/>
<path d="M227.903 245.55L512.073 245.31H512.343V245.58C503.973 308.69 494.473 380.26 484.433 455.85V456.08H480.953L194.183 456H193.903V455.75L227.903 245.55C227.623 247.29 214.703 328.5 194.433 455.85L194.223 455.6H480.883H484.133L483.883 455.82C493.933 380.23 503.453 308.67 511.883 245.56L512.113 245.82L227.903 245.55Z" fill="#263238"/>
<path d="M504.323 303.579C504.323 303.719 440.323 303.839 361.453 303.839C282.583 303.839 218.563 303.719 218.563 303.579C218.563 303.439 282.563 303.319 361.453 303.319C440.343 303.319 504.323 303.429 504.323 303.579Z" fill="#263238"/>
<path d="M499.143 342.579C499.143 342.729 434.803 342.839 355.463 342.839C276.123 342.839 211.773 342.729 211.773 342.579C211.773 342.429 276.093 342.319 355.463 342.319C434.833 342.319 499.143 342.439 499.143 342.579Z" fill="#263238"/>
<path d="M493.303 378.47C493.303 378.62 428.973 378.73 349.633 378.73C270.293 378.73 205.903 378.62 205.903 378.47C205.903 378.32 270.223 378.21 349.593 378.21C428.963 378.21 493.303 378.33 493.303 378.47Z" fill="#263238"/>
<path d="M487.474 414.36C487.474 414.5 423.134 414.62 343.794 414.62C264.454 414.62 200.104 414.5 200.104 414.36C200.104 414.22 264.424 414.1 343.794 414.1C423.164 414.1 487.474 414.22 487.474 414.36Z" fill="#263238"/>
<path d="M234.574 456.139C234.434 456.139 239.684 421.939 246.314 379.819C252.944 337.699 258.414 303.549 258.554 303.579C258.694 303.609 253.444 337.759 246.824 379.899C240.204 422.039 234.724 456.159 234.574 456.139Z" fill="#263238"/>
<path d="M278.803 456.139C278.653 456.139 283.913 421.939 290.533 379.819C297.153 337.699 302.633 303.549 302.783 303.579C302.933 303.609 297.673 337.759 291.043 379.899C284.413 422.039 278.903 456.159 278.803 456.139Z" fill="#263238"/>
<path d="M319.903 454.609C319.763 454.609 324.963 420.759 331.513 379.059C338.063 337.359 343.513 303.549 343.643 303.579C343.773 303.609 338.583 337.419 332.033 379.139C325.483 420.859 320.033 454.629 319.903 454.609Z" fill="#263238"/>
<path d="M360.554 455.819C360.414 455.819 365.654 421.689 372.264 379.659C378.874 337.629 384.344 303.549 384.484 303.579C384.624 303.609 379.384 337.689 372.774 379.739C366.164 421.789 360.694 455.839 360.554 455.819Z" fill="#263238"/>
<path d="M401.403 455.819C401.263 455.819 406.503 421.689 413.113 379.659C419.723 337.629 425.193 303.549 425.333 303.579C425.473 303.609 420.243 337.689 413.633 379.739C407.023 421.789 401.553 455.839 401.403 455.819Z" fill="#263238"/>
<path d="M442.223 455.999C442.083 455.999 447.333 421.829 453.953 379.729C460.573 337.629 466.043 303.509 466.193 303.539C466.343 303.569 461.083 337.699 454.463 379.809C447.843 421.919 442.363 456.059 442.223 455.999Z" fill="#263238"/>
<g opacity="0.2">
<path opacity="0.2" d="M416.523 306.299C421.443 304.119 424.523 298.999 425.793 293.769C427.063 288.539 426.863 283.079 427.053 277.689C427.243 272.299 427.883 266.749 430.633 262.119C432.263 259.389 434.553 257.119 436.363 254.489C438.173 251.859 439.513 248.659 438.843 245.489L408.063 245.649L416.523 306.299Z" fill="black"/>
</g>
<path d="M288.903 345.47C288.821 345.604 288.72 345.725 288.603 345.83L287.683 346.83C286.873 347.66 285.683 348.83 284.183 350.29C281.183 353.17 277.013 357.09 272.263 361.29C267.513 365.49 263.113 369.15 259.883 371.75C258.263 373.05 256.943 374.09 256.023 374.75L254.953 375.55C254.834 375.654 254.699 375.738 254.553 375.8C254.553 375.8 254.663 375.67 254.883 375.47L255.883 374.59L259.633 371.42C262.813 368.75 267.173 365.04 271.913 360.86C276.653 356.68 280.913 352.8 283.913 349.99L287.523 346.66L288.523 345.77C288.637 345.654 288.764 345.553 288.903 345.47V345.47Z" fill="#263238"/>
<path d="M286.593 376.199C286.169 375.828 285.771 375.427 285.403 374.999L282.273 371.659C279.573 368.789 275.953 364.929 271.963 360.659L261.543 349.759L258.383 346.449C257.985 346.056 257.614 345.635 257.273 345.189C257.726 345.524 258.148 345.899 258.533 346.309C259.313 347.049 260.433 348.139 261.803 349.499C264.543 352.219 268.283 356.029 272.333 360.309C276.383 364.589 279.983 368.529 282.543 371.419C283.823 372.859 284.853 374.039 285.543 374.859C285.934 375.273 286.285 375.721 286.593 376.199V376.199Z" fill="#263238"/>
<path d="M297.273 354.659C297.273 354.659 297.373 354.399 297.583 353.889C297.915 353.149 298.317 352.443 298.783 351.779C300.622 349.21 303.215 347.277 306.203 346.249C308.343 345.475 310.626 345.175 312.893 345.369C315.593 345.631 318.195 346.518 320.493 347.959C323.147 349.594 325.388 351.818 327.043 354.459C328.958 357.407 329.912 360.877 329.773 364.389C329.658 366.284 329.07 368.12 328.063 369.729C327.008 371.398 325.602 372.818 323.943 373.889C320.411 376.154 316.252 377.243 312.063 376.999C309.869 376.881 307.708 376.412 305.663 375.609C303.535 374.778 301.621 373.48 300.063 371.809C299.289 370.93 298.637 369.952 298.123 368.899C297.634 367.824 297.298 366.687 297.123 365.519C296.791 363.127 297 360.69 297.733 358.389C299.262 353.59 302.578 349.562 306.993 347.139C309.282 345.882 311.829 345.166 314.438 345.046C317.047 344.927 319.649 345.407 322.043 346.449C324.524 347.495 326.696 349.157 328.353 351.279C330.012 353.459 331.049 356.047 331.353 358.769C331.699 361.53 331.252 364.333 330.063 366.849C329.453 368.112 328.65 369.273 327.683 370.289C326.7 371.291 325.59 372.162 324.383 372.879C321.948 374.22 319.262 375.046 316.494 375.304C313.726 375.562 310.934 375.247 308.293 374.379C305.692 373.581 303.302 372.214 301.293 370.379C299.302 368.543 297.94 366.125 297.403 363.469C296.84 360.859 297.211 358.133 298.453 355.769C299.083 354.604 299.948 353.582 300.993 352.769C302.022 351.993 303.17 351.388 304.393 350.979C306.795 350.209 309.314 349.87 311.833 349.979C314.286 349.997 316.727 350.333 319.093 350.979C321.433 351.595 323.595 352.753 325.403 354.359C327.136 355.976 328.318 358.095 328.783 360.419C329.242 362.665 329.108 364.991 328.393 367.169C327.686 369.269 326.489 371.171 324.903 372.719C321.891 375.665 317.902 377.401 313.693 377.599C311.723 377.703 309.752 377.418 307.893 376.759C306.108 376.119 304.503 375.059 303.213 373.669C301.992 372.343 301.068 370.771 300.503 369.059C299.946 367.454 299.698 365.757 299.773 364.059C299.916 360.915 301.17 357.924 303.313 355.619C305.145 353.615 307.463 352.116 310.043 351.269C312.209 350.563 314.503 350.345 316.763 350.629C319.886 351.017 322.854 352.213 325.373 354.099C326.027 354.58 326.646 355.108 327.223 355.679C327.613 356.069 327.803 356.279 327.803 356.279C327.803 356.279 327.583 356.089 327.193 355.719C326.599 355.167 325.971 354.653 325.313 354.179C322.789 352.349 319.839 351.196 316.743 350.829C314.302 350.547 311.829 350.853 309.53 351.723C307.232 352.593 305.175 354.001 303.533 355.829C301.446 358.084 300.23 361.009 300.103 364.079C300.035 365.744 300.283 367.406 300.833 368.979C301.391 370.64 302.294 372.163 303.483 373.449C304.736 374.796 306.293 375.824 308.023 376.449C309.837 377.08 311.756 377.351 313.673 377.249C317.781 377.047 321.67 375.342 324.603 372.459C326.135 370.961 327.29 369.12 327.973 367.089C328.658 364.984 328.782 362.737 328.333 360.569C327.883 358.338 326.747 356.303 325.083 354.749C323.324 353.202 321.228 352.086 318.963 351.489C316.636 350.852 314.236 350.516 311.823 350.489C309.363 350.396 306.906 350.735 304.563 351.489C302.173 352.221 300.15 353.833 298.903 355.999C297.719 358.26 297.365 360.864 297.903 363.359C298.421 365.91 299.734 368.231 301.653 369.989C303.599 371.787 305.922 373.127 308.453 373.909C311.024 374.755 313.741 375.062 316.435 374.811C319.13 374.559 321.743 373.756 324.113 372.449C325.283 371.762 326.356 370.921 327.303 369.949C328.232 368.973 329.004 367.86 329.593 366.649C330.744 364.221 331.178 361.515 330.843 358.849C330.557 356.221 329.566 353.719 327.973 351.609C326.371 349.558 324.271 347.951 321.873 346.939C319.55 345.924 317.024 345.456 314.491 345.57C311.959 345.685 309.486 346.379 307.263 347.599C302.972 349.962 299.75 353.881 298.263 358.549C297.55 360.782 297.342 363.146 297.653 365.469C297.833 366.597 298.17 367.694 298.653 368.729C299.148 369.74 299.773 370.681 300.513 371.529C302.021 373.146 303.874 374.404 305.933 375.209C307.933 376 310.046 376.466 312.193 376.589C316.292 376.84 320.366 375.79 323.833 373.589C325.436 372.608 326.785 371.265 327.774 369.667C328.762 368.069 329.361 366.261 329.523 364.389C329.663 360.953 328.737 357.559 326.873 354.669C325.255 352.062 323.058 349.862 320.453 348.239C318.196 346.811 315.64 345.924 312.983 345.649C310.75 345.437 308.497 345.717 306.383 346.469C303.422 347.47 300.84 349.355 298.983 351.869C298.504 352.521 298.089 353.218 297.743 353.949C297.403 354.409 297.273 354.659 297.273 354.659Z" fill="url(#paint4_linear)"/>
<path d="M324.363 382.27C324.453 382.38 316.523 389.16 306.643 397.42C296.763 405.68 288.643 412.27 288.583 412.16C288.523 412.05 296.423 405.27 306.303 397.02C316.183 388.77 324.273 382.16 324.363 382.27Z" fill="#263238"/>
<path d="M326.093 411.27C325.623 410.993 325.178 410.675 324.763 410.32L321.243 407.58C318.293 405.24 314.243 401.98 309.783 398.36C305.323 394.74 301.313 391.44 298.423 389.03L295.013 386.15C294.581 385.82 294.18 385.452 293.813 385.05C294.282 385.33 294.727 385.647 295.143 386L298.653 388.74C301.603 391.08 305.653 394.34 310.113 397.96C314.573 401.58 318.583 404.88 321.483 407.29L324.883 410.16C325.313 410.5 325.717 410.871 326.093 411.27V411.27Z" fill="#263238"/>
<path d="M407.843 382.659C407.923 382.769 400.343 388.579 390.893 395.659C381.443 402.739 373.723 408.329 373.633 408.209C373.543 408.089 381.133 402.289 390.583 395.209C400.033 388.129 407.753 382.539 407.843 382.659Z" fill="#263238"/>
<path d="M410.783 407.26C410.713 407.38 402.653 402.39 392.783 396.1C382.913 389.81 375.003 384.63 375.073 384.5C375.143 384.37 383.203 389.38 393.073 395.66C402.943 401.94 410.903 407.14 410.783 407.26Z" fill="#263238"/>
<path d="M325.663 455.829C325.553 455.729 333.433 447.469 343.253 437.399C353.073 427.329 361.123 419.219 361.253 419.319C361.383 419.419 353.483 427.679 343.663 437.759C333.843 447.839 325.763 455.929 325.663 455.829Z" fill="url(#paint5_linear)"/>
<path d="M358.973 455.82C358.973 455.82 358.843 455.71 358.643 455.47L357.803 454.47C357.023 453.47 355.983 452.18 354.713 450.6C352.103 447.34 348.403 442.91 344.113 438.2C339.823 433.49 335.753 429.4 332.753 426.5L329.193 423L328.193 422.06C328.078 421.955 327.974 421.837 327.883 421.71C327.883 421.71 328.033 421.79 328.263 421.98L329.263 422.85C330.153 423.61 331.413 424.74 332.953 426.16C336.013 429 340.133 433.06 344.443 437.78C348.753 442.5 352.443 446.98 354.943 450.3C356.223 451.96 357.233 453.3 357.943 454.3L358.713 455.4C358.817 455.529 358.904 455.67 358.973 455.82Z" fill="url(#paint6_linear)"/>
<path d="M277.113 413.76C277.113 413.76 277.433 438.33 271.233 453.04L233.443 446.6C233.443 446.6 244.823 423.32 241.723 410.38L277.113 413.76Z" fill="#EBEBEB"/>
<path d="M277.103 412.84C277.103 412.84 272.363 443 269.463 452L231.903 444.54C231.903 444.54 239.633 415.38 239.533 407.26L277.103 412.84Z" fill="url(#paint7_linear)"/>
<path d="M243.343 420.78C243.343 420.92 248.923 422.22 255.873 423.68C262.823 425.14 268.473 426.21 268.503 426.08C268.533 425.95 262.923 424.64 255.973 423.18C249.023 421.72 243.373 420.64 243.343 420.78Z" fill="white"/>
<path d="M242.383 427.17C242.383 427.31 247.963 428.6 254.913 430.07C261.863 431.54 267.513 432.6 267.543 432.47C267.573 432.34 261.963 431.03 255.013 429.57C248.063 428.11 242.413 427 242.383 427.17Z" fill="white"/>
<path d="M247.903 434.399C248.544 434.678 249.215 434.879 249.903 434.999C251.193 435.309 252.983 435.719 254.953 436.139C256.923 436.559 258.733 436.899 260.043 437.139C260.743 437.315 261.462 437.402 262.183 437.399C261.518 437.119 260.824 436.915 260.113 436.789C258.833 436.469 257.043 436.059 255.063 435.649C253.083 435.239 251.283 434.879 249.983 434.649C249.303 434.483 248.604 434.399 247.903 434.399V434.399Z" fill="white"/>
<path d="M455.903 344.77C455.903 344.77 459.773 368.71 455.853 383.98L418.013 383.17C418.013 383.17 425.753 358.79 420.843 346.6L455.903 344.77Z" fill="#EBEBEB"/>
<path d="M455.733 343.869C455.733 343.869 455.483 373.979 453.953 383.169L416.183 381.379C416.183 381.379 419.493 351.779 418.183 343.869H455.733Z" fill="#455A64"/>
<path d="M423.543 357.27C423.543 357.41 429.223 357.53 436.233 357.54C443.243 357.55 448.933 357.45 448.933 357.31C448.933 357.17 443.253 357.05 436.233 357.04C429.213 357.03 423.543 357.13 423.543 357.27Z" fill="white"/>
<path d="M423.903 363.64C423.903 363.78 429.583 363.9 436.593 363.91C443.603 363.92 449.293 363.82 449.293 363.68C449.293 363.54 443.613 363.42 436.593 363.41C429.573 363.4 423.903 363.5 423.903 363.64Z" fill="white"/>
<path d="M430.673 369.51C431.37 369.659 432.082 369.723 432.793 369.7C434.103 369.7 435.913 369.77 437.913 369.78C439.913 369.79 441.713 369.78 443.023 369.71C443.734 369.738 444.446 369.681 445.143 369.54C444.447 369.391 443.735 369.331 443.023 369.36C441.713 369.31 439.913 369.28 437.913 369.27C435.913 369.26 434.103 369.27 432.793 369.34C432.082 369.311 431.371 369.368 430.673 369.51V369.51Z" fill="white"/>
<path d="M463.903 275.74C456.843 275.74 449.733 271.31 445.993 264.34C442.358 257.399 441.231 249.415 442.803 241.74C444.873 231.74 451.493 223.54 459.673 220.92C466.623 218.69 479.043 219.92 484.903 229.73C487.695 234.527 489.081 240.012 488.903 245.56C488.877 245.954 488.773 246.338 488.598 246.692C488.423 247.046 488.18 247.362 487.883 247.622C487.586 247.882 487.24 248.081 486.866 248.208C486.492 248.334 486.097 248.386 485.703 248.36C484.908 248.307 484.166 247.94 483.64 247.339C483.115 246.739 482.85 245.955 482.903 245.16C482.957 240.829 481.845 236.563 479.683 232.81C475.163 225.26 465.253 225.41 461.433 226.63C454.433 228.87 449.953 236.44 448.603 242.95C447.307 249.252 448.229 255.809 451.213 261.51C454.163 267.01 460.133 270.43 465.423 269.62C466.204 269.511 466.996 269.714 467.629 270.185C468.261 270.656 468.683 271.357 468.802 272.136C468.922 272.915 468.73 273.71 468.268 274.349C467.806 274.988 467.111 275.419 466.333 275.55C465.529 275.674 464.717 275.738 463.903 275.74V275.74Z" fill="#263238"/>
<path d="M270.223 275.74C263.153 275.74 256.053 271.31 252.313 264.34C248.674 257.4 247.544 249.417 249.113 241.74C250.863 233.3 256.783 223.58 266.113 220.9C270.612 219.681 275.381 219.923 279.733 221.59L277.573 227.19C274.441 226 271.016 225.814 267.773 226.66C260.893 228.66 256.413 236.28 255.033 242.95C253.737 249.252 254.659 255.809 257.643 261.51C260.593 267.02 266.573 270.43 271.853 269.62L272.763 275.55C271.923 275.68 271.074 275.743 270.223 275.74V275.74Z" fill="#263238"/>
<path d="M461.433 245.71L458.673 260.82H499.283L502.893 245.86L461.433 245.71Z" fill="url(#paint8_linear)"/>
<path d="M280.513 273.349C280.515 274.628 280.138 275.878 279.429 276.942C278.72 278.006 277.711 278.836 276.53 279.326C275.349 279.816 274.049 279.945 272.795 279.696C271.541 279.447 270.389 278.831 269.485 277.927C268.581 277.023 267.966 275.871 267.717 274.617C267.468 273.363 267.597 272.063 268.087 270.883C268.577 269.702 269.407 268.693 270.471 267.984C271.534 267.275 272.785 266.897 274.063 266.899C275.773 266.902 277.412 267.582 278.621 268.792C279.83 270.001 280.511 271.64 280.513 273.349Z" fill="#263238"/>
<path d="M474.024 273.349C474.025 274.628 473.648 275.878 472.939 276.942C472.23 278.006 471.221 278.836 470.04 279.326C468.859 279.816 467.56 279.945 466.306 279.696C465.052 279.447 463.9 278.831 462.996 277.927C462.092 277.023 461.476 275.871 461.227 274.617C460.978 273.363 461.107 272.063 461.597 270.883C462.087 269.702 462.917 268.693 463.981 267.984C465.045 267.275 466.295 266.897 467.574 266.899C469.283 266.902 470.922 267.582 472.131 268.792C473.34 270.001 474.021 271.64 474.024 273.349V273.349Z" fill="#263238"/>
<path d="M367.453 148.319L356.833 188.599L320.173 192.539V199.039L371.683 200.849L381.363 155.659L367.453 148.319Z" fill="#FFBE9D"/>
<path d="M382.903 201.919C382.903 201.919 325.623 199.189 309.313 211.919C293.003 224.649 300.903 245.549 300.903 245.549L393.083 245.309L401.223 198.579L382.903 201.919Z" fill="#263238"/>
<path d="M392.654 232.75C392.376 232.757 392.098 232.737 391.824 232.69C391.284 232.63 390.494 232.55 389.474 232.42C387.474 232.17 384.474 231.75 380.874 231.14C371.422 229.532 362.073 227.372 352.874 224.67C347.494 223.08 342.404 221.48 337.704 220.31C333.555 219.236 329.312 218.566 325.034 218.31C322.147 218.148 319.252 218.316 316.404 218.81C315.404 218.93 314.634 219.19 314.094 219.28C313.827 219.346 313.556 219.396 313.284 219.43C313.538 219.32 313.803 219.237 314.074 219.18C314.825 218.946 315.59 218.755 316.364 218.61C319.219 218.033 322.134 217.808 325.044 217.94C329.383 218.147 333.691 218.786 337.904 219.85C342.634 220.99 347.734 222.59 353.094 224.18C362.243 226.859 371.525 229.058 380.904 230.77C384.514 231.43 387.444 231.9 389.474 232.22L391.814 232.59C392.098 232.62 392.379 232.673 392.654 232.75V232.75Z" fill="#455A64"/>
<path d="M339.414 220C337.822 218.688 336.127 217.507 334.344 216.47C332.475 215.596 330.539 214.873 328.554 214.31C329.17 214.256 329.79 214.317 330.384 214.49C331.846 214.805 333.259 215.316 334.584 216.01C335.907 216.708 337.131 217.579 338.224 218.6C338.703 218.989 339.107 219.464 339.414 220V220Z" fill="#455A64"/>
<path d="M388.973 326.43L389.743 350.5L384.903 369.72C384.825 370.049 384.815 370.391 384.874 370.724C384.934 371.057 385.061 371.374 385.249 371.656C385.437 371.937 385.681 372.177 385.965 372.36C386.25 372.543 386.569 372.666 386.903 372.72C387.29 372.79 387.688 372.767 388.063 372.652C388.439 372.537 388.782 372.334 389.063 372.06C392.703 368.5 406.063 355.34 405.893 353.59C405.713 351.59 406.763 328.13 406.763 328.13L388.973 326.43Z" fill="url(#paint9_linear)"/>
<g opacity="0.6">
<path opacity="0.6" d="M386.813 372.76L405.813 352V353C405.825 353.883 405.52 354.742 404.953 355.42C403.443 357.23 399.153 362.14 389.063 372.08C388.775 372.365 388.42 372.575 388.031 372.69C387.642 372.805 387.231 372.822 386.833 372.74L386.813 372.76Z" fill="white"/>
</g>
<g opacity="0.6">
<path opacity="0.6" d="M400.774 344.269C400.469 344.492 400.259 344.822 400.187 345.193C400.115 345.564 400.185 345.948 400.384 346.269C400.594 346.569 400.911 346.777 401.269 346.851C401.628 346.926 402.001 346.86 402.314 346.669C402.627 346.437 402.842 346.095 402.916 345.712C402.99 345.329 402.918 344.932 402.714 344.599C402.465 344.306 402.112 344.121 401.729 344.084C401.347 344.047 400.964 344.16 400.664 344.399" fill="white"/>
</g>
<path d="M392.223 362.179C392.083 362.249 391.523 360.999 390.093 360.329C389.209 359.982 388.264 359.812 387.313 359.829C387.313 359.769 387.593 359.579 388.153 359.489C388.896 359.399 389.648 359.524 390.321 359.848C390.995 360.173 391.561 360.683 391.953 361.319C392.233 361.809 392.273 362.159 392.223 362.179Z" fill="#263238"/>
<path d="M390.534 365.43C389.842 365.052 389.127 364.718 388.394 364.43C387.613 364.292 386.825 364.199 386.034 364.15C386.401 363.914 386.82 363.769 387.256 363.729C387.691 363.689 388.129 363.755 388.534 363.92C389.954 364.3 390.654 365.36 390.534 365.43Z" fill="#263238"/>
<path d="M395.373 357.999C394.352 357.325 393.282 356.727 392.173 356.209C391.002 355.851 389.805 355.584 388.593 355.409C389.853 355.145 391.162 355.249 392.364 355.708C393.566 356.168 394.61 356.963 395.373 357.999V357.999Z" fill="#263238"/>
<path d="M395.753 350.68C395.693 350.83 394.353 350.28 392.623 350.24C390.893 350.2 389.523 350.62 389.463 350.47C390.434 349.935 391.53 349.673 392.637 349.709C393.744 349.746 394.821 350.082 395.753 350.68V350.68Z" fill="#263238"/>
<path d="M395.703 343.61C394.65 343.279 393.557 343.094 392.453 343.06C391.36 343.187 390.29 343.466 389.273 343.89C389.273 343.84 389.493 343.53 390.043 343.21C390.78 342.794 391.604 342.558 392.448 342.522C393.293 342.485 394.134 342.649 394.903 343C395.453 343.27 395.743 343.55 395.703 343.61Z" fill="#263238"/>
<path d="M392.483 341.71C392.421 341.41 392.421 341.1 392.483 340.8C392.558 339.964 392.8 339.151 393.193 338.41C393.427 337.839 393.847 337.364 394.383 337.06C394.569 336.977 394.776 336.952 394.976 336.99C395.176 337.027 395.36 337.125 395.503 337.27C395.761 337.57 395.9 337.954 395.893 338.35C395.846 339.156 395.522 339.921 394.975 340.515C394.428 341.109 393.693 341.496 392.893 341.61C392.096 341.699 391.289 341.548 390.577 341.178C389.865 340.808 389.279 340.234 388.893 339.53C388.796 339.352 388.739 339.156 388.725 338.954C388.711 338.752 388.741 338.549 388.813 338.36C388.907 338.181 389.053 338.034 389.231 337.94C389.41 337.845 389.613 337.807 389.813 337.83C390.408 337.957 390.959 338.236 391.413 338.64C392.07 339.16 392.631 339.789 393.073 340.5C393.25 340.751 393.379 341.032 393.453 341.33C392.818 340.426 392.053 339.621 391.183 338.94C390.778 338.607 390.297 338.377 389.783 338.27C389.672 338.251 389.558 338.268 389.458 338.318C389.357 338.369 389.275 338.45 389.223 338.55C389.188 338.678 389.178 338.813 389.196 338.945C389.213 339.077 389.256 339.205 389.323 339.32C389.674 339.916 390.188 340.398 390.805 340.71C391.422 341.022 392.116 341.151 392.803 341.08C393.485 340.993 394.117 340.674 394.592 340.177C395.067 339.68 395.357 339.035 395.413 338.35C395.427 338.076 395.341 337.807 395.173 337.59C395.098 337.504 394.997 337.446 394.885 337.422C394.773 337.399 394.657 337.412 394.553 337.46C394.114 337.728 393.766 338.122 393.553 338.59C393.021 339.561 392.659 340.616 392.483 341.71Z" fill="#263238"/>
<path d="M401.173 198.58C401.173 198.58 376.403 245.41 376.063 253.58C375.723 261.75 376.063 337.06 376.063 337.06H414.403C415.403 337.06 421.153 303.13 419.983 295.32C418.813 287.51 414.683 245.53 414.683 245.53H436.743C436.743 245.53 442.793 239.06 442.573 230.85C442.443 226.32 439.483 217.06 436.573 212.15C434.683 209 422.573 192.51 422.573 192.51L401.173 198.58Z" fill="#263238"/>
<path d="M399.513 201.749C399.487 201.843 399.45 201.933 399.403 202.019C399.313 202.219 399.193 202.469 399.043 202.779L397.603 205.699C396.953 206.969 396.183 208.509 395.283 210.299L393.843 213.169L392.333 216.439L384.903 232.529C383.493 235.529 382.013 238.739 380.473 242.029L378.143 247.029C377.39 248.758 376.821 250.561 376.443 252.409C376.064 254.262 375.866 256.148 375.853 258.039C375.793 259.909 375.753 261.759 375.723 263.569C375.723 267.209 375.653 270.709 375.663 274.049C375.663 280.729 375.743 286.749 375.813 291.799C375.883 296.849 375.943 300.899 375.993 303.799C375.993 305.179 375.993 306.269 375.993 307.049C375.993 307.399 375.993 307.679 375.993 307.899C375.993 308.119 375.993 308.189 375.993 308.189C375.977 308.093 375.977 307.995 375.993 307.899C375.993 307.679 375.993 307.399 375.993 307.059C375.993 306.269 375.913 305.189 375.853 303.799C375.753 300.979 375.623 296.889 375.513 291.799C375.403 286.709 375.283 280.739 375.253 274.049C375.253 270.709 375.253 267.199 375.253 263.569C375.253 261.749 375.313 259.899 375.383 258.019C375.393 256.098 375.591 254.182 375.973 252.299C376.361 250.417 376.944 248.58 377.713 246.819L380.053 241.819L384.513 232.339L392.093 216.289L393.633 213.029C394.163 212.029 394.633 211.029 395.113 210.179L397.503 205.619C398.153 204.389 398.673 203.429 399.033 202.739C399.203 202.439 399.343 202.199 399.443 201.999C399.543 201.799 399.503 201.739 399.513 201.749Z" fill="#455A64"/>
<path d="M391.494 217.699C390.699 215.795 390.03 213.841 389.494 211.849C388.792 209.91 388.22 207.925 387.784 205.909C388.716 207.758 389.453 209.698 389.984 211.699C390.692 213.642 391.198 215.653 391.494 217.699Z" fill="#455A64"/>
<path d="M420.063 293.85C419.999 293.68 419.959 293.501 419.943 293.32C419.897 292.913 419.827 292.403 419.733 291.79C419.553 290.38 419.323 288.46 419.033 286.13C418.483 281.29 417.743 274.72 416.923 267.46C416.103 260.2 415.433 253.55 415.023 248.76C414.833 246.42 414.673 244.5 414.553 243.09C414.553 242.46 414.473 241.95 414.443 241.54C414.43 241.36 414.43 241.18 414.443 241C414.506 241.17 414.543 241.349 414.553 241.53C414.603 241.94 414.673 242.45 414.753 243.07C414.913 244.48 415.133 246.39 415.393 248.73C415.923 253.57 416.643 260.15 417.393 267.41C418.143 274.67 418.853 281.24 419.393 286.09C419.613 288.43 419.803 290.35 419.933 291.76C419.983 292.38 420.023 292.9 420.053 293.31C420.072 293.489 420.075 293.67 420.063 293.85V293.85Z" fill="#455A64"/>
<path d="M410.323 73.1595C409.733 69.1595 413.163 65.3095 417.123 64.8395C421.083 64.3695 425.073 66.8395 426.893 70.4495C427.74 72.265 428.204 74.2356 428.256 76.2383C428.307 78.241 427.946 80.2328 427.193 82.0895C426.193 84.6195 424.343 87.1795 421.653 87.3795C418.963 87.5795 416.903 85.5295 415.123 83.6395" fill="#263238"/>
<path d="M382.173 92.9994C374.173 75.4694 393.173 66.6594 403.503 69.5794C413.223 72.3294 417.373 77.1694 418.973 83.6694C420.726 90.1907 420.376 97.0987 417.973 103.409C416.713 106.469 414.453 109.569 411.173 109.949" fill="#263238"/>
<path d="M409.704 79.3096C410.526 79.3949 411.287 79.787 411.834 80.4078C412.38 81.0287 412.673 81.8327 412.654 82.6597L410.784 127.28C410.714 132.55 403.024 135.53 397.374 135.41C391.684 135.29 391.494 132.49 391.374 127.48C391.244 119.11 391.244 115.96 391.244 116.01C391.244 116.06 384.044 114.81 382.554 105.42C381.804 100.75 382.044 93.0897 382.434 86.8297C382.794 81.1997 386.524 74.2797 392.144 74.8297L409.704 79.3096Z" fill="#FFBE9D"/>
<path d="M386.113 92.1698C386.108 92.4847 386.227 92.7891 386.444 93.0173C386.661 93.2456 386.959 93.3794 387.273 93.3898C387.427 93.402 387.581 93.3833 387.727 93.3348C387.874 93.2862 388.008 93.2088 388.124 93.1072C388.24 93.0055 388.334 92.8817 388.401 92.743C388.468 92.6043 388.506 92.4536 388.513 92.2998C388.516 91.9857 388.397 91.6827 388.18 91.455C387.964 91.2273 387.667 91.0928 387.353 91.0798C387.2 91.0676 387.046 91.0863 386.899 91.1348C386.753 91.1834 386.618 91.2608 386.503 91.3624C386.387 91.4641 386.293 91.5879 386.226 91.7266C386.159 91.8653 386.121 92.016 386.113 92.1698V92.1698Z" fill="#263238"/>
<path d="M384.124 90.8199C384.274 90.9699 385.194 90.2999 386.484 90.2999C387.774 90.2999 388.734 90.9499 388.874 90.7899C389.014 90.6299 388.794 90.4399 388.374 90.1399C387.813 89.7523 387.146 89.5464 386.464 89.5499C385.79 89.5434 385.134 89.7577 384.594 90.1599C384.194 90.4599 384.054 90.7499 384.124 90.8199Z" fill="#263238"/>
<path d="M398.783 92.1693C398.78 92.4769 398.894 92.7743 399.102 93.0009C399.31 93.2275 399.596 93.3664 399.903 93.3893C400.057 93.4015 400.211 93.3828 400.357 93.3343C400.503 93.2857 400.638 93.2083 400.754 93.1066C400.87 93.005 400.964 92.8812 401.03 92.7425C401.097 92.6038 401.136 92.4531 401.143 92.2993C401.146 91.9851 401.027 91.6822 400.81 91.4545C400.594 91.2268 400.297 91.0922 399.983 91.0793C399.68 91.0657 399.383 91.1727 399.159 91.3769C398.934 91.5811 398.799 91.8659 398.783 92.1693V92.1693Z" fill="#263238"/>
<path d="M396.904 91.0592C397.054 91.2092 397.964 90.5392 399.254 90.5392C400.544 90.5392 401.504 91.1892 401.644 91.0392C401.784 90.8892 401.564 90.6792 401.144 90.3792C400.583 89.9898 399.916 89.7836 399.234 89.7892C398.561 89.7891 397.907 90.0027 397.364 90.3992C396.904 90.6992 396.794 90.9992 396.904 91.0592Z" fill="#263238"/>
<path d="M392.164 100.669C391.481 100.459 390.776 100.332 390.064 100.289C389.734 100.289 389.413 100.189 389.363 99.9694C389.332 99.6214 389.409 99.2722 389.583 98.9694C389.893 98.1694 390.213 97.3294 390.583 96.4494C391.49 94.3143 392.226 92.1108 392.784 89.8594C391.7 91.9147 390.787 94.0552 390.053 96.2594L389.113 98.7994C388.907 99.1996 388.847 99.6595 388.944 100.099C388.993 100.216 389.068 100.319 389.164 100.402C389.259 100.485 389.372 100.546 389.493 100.579C389.676 100.628 389.864 100.655 390.053 100.659C390.754 100.75 391.462 100.753 392.164 100.669Z" fill="#263238"/>
<path d="M391.273 115.999C395.713 116.08 400.087 114.92 403.903 112.649C403.903 112.649 400.843 119.109 391.443 118.229L391.273 115.999Z" fill="#EB996E"/>
<path d="M392.713 103.789C392.961 103.481 393.282 103.24 393.648 103.09C394.013 102.94 394.411 102.884 394.803 102.929C395.091 102.953 395.37 103.036 395.625 103.172C395.879 103.307 396.103 103.494 396.283 103.719C396.455 103.935 396.557 104.198 396.575 104.473C396.593 104.749 396.526 105.023 396.383 105.259C396.176 105.493 395.903 105.659 395.599 105.736C395.296 105.812 394.977 105.796 394.683 105.689C394.068 105.472 393.503 105.132 393.023 104.689C392.878 104.586 392.753 104.457 392.653 104.309C392.607 104.238 392.582 104.154 392.582 104.069C392.582 103.984 392.607 103.901 392.653 103.829" fill="#EB996E"/>
<path d="M395.984 101.57C395.774 101.57 395.764 102.96 394.564 103.96C393.364 104.96 391.864 104.8 391.854 104.96C391.844 105.12 392.184 105.23 392.854 105.25C393.679 105.259 394.482 104.98 395.124 104.46C395.733 103.958 396.127 103.242 396.224 102.46C396.234 101.91 396.074 101.56 395.984 101.57Z" fill="#263238"/>
<path d="M396.284 88.7899C396.414 89.1399 397.714 88.9699 399.234 89.1599C400.754 89.3499 401.984 89.7499 402.184 89.4399C402.274 89.2899 402.054 88.9599 401.564 88.6099C400.904 88.1861 400.154 87.9255 399.374 87.8499C398.596 87.7528 397.807 87.8455 397.074 88.1199C396.514 88.3399 396.234 88.6199 396.284 88.7899Z" fill="#263238"/>
<path d="M384.604 87.0593C384.834 87.3593 385.724 87.0593 386.804 87.0593C387.884 87.0593 388.804 87.2593 388.994 86.9493C389.084 86.7993 388.994 86.4993 388.544 86.2293C388.017 85.8829 387.394 85.7114 386.764 85.7393C386.134 85.7523 385.523 85.9582 385.014 86.3293C384.634 86.6193 384.504 86.9193 384.604 87.0593Z" fill="#263238"/>
<path d="M396.834 71.7496C393.646 71.9122 390.551 72.8751 387.834 74.5496C386.31 75.3392 384.957 76.4212 383.852 77.7338C382.747 79.0464 381.912 80.5639 381.394 82.1996C381.262 82.5398 381.201 82.9033 381.215 83.2678C381.229 83.6324 381.317 83.9903 381.474 84.3196C381.771 84.6962 382.19 84.9573 382.659 85.0577C383.129 85.1581 383.618 85.0916 384.044 84.8696C384.892 84.4087 385.613 83.7458 386.144 82.9396C386.355 83.8212 386.859 84.6048 387.575 85.1621C388.29 85.7194 389.173 86.0172 390.079 86.0067C390.986 85.9962 391.862 85.6781 392.564 85.1045C393.266 84.5309 393.753 83.7358 393.944 82.8496C394.015 83.7505 394.431 84.589 395.106 85.1907C395.78 85.7924 396.66 86.1107 397.564 86.0796C398.465 86.0016 399.323 85.6619 400.034 85.1022C400.745 84.5426 401.276 83.7874 401.564 82.9296C401.784 84.5556 402.346 86.1166 403.214 87.5096C403.657 88.201 404.304 88.739 405.064 89.0503C405.824 89.3616 406.662 89.4312 407.464 89.2496C407.128 90.6321 407.148 92.0773 407.524 93.4496C408.024 94.7696 410.014 117.36 411.354 116.9C412.694 116.44 412.644 93.3996 412.944 92.0596C413.609 89.4892 413.945 86.8447 413.944 84.1896C414.033 81.4544 413.146 78.7765 411.443 76.6349C409.739 74.4932 407.329 73.0274 404.644 72.4996C401.963 71.8846 399.211 71.6324 396.464 71.7496" fill="#263238"/>
<path d="M415.654 112.889C415.654 112.889 415.564 112.949 415.364 113.019C415.083 113.122 414.791 113.192 414.494 113.229C413.103 113.406 411.691 113.184 410.421 112.589C409.152 111.994 408.078 111.051 407.324 109.869C406.301 108.089 405.87 106.03 406.094 103.989C406.244 101.839 406.744 99.8791 406.974 98.0791C407.2 96.4811 407.34 94.8721 407.394 93.2591C407.394 91.8791 407.394 90.7691 407.394 89.9891C407.35 89.5902 407.35 89.1879 407.394 88.7891C407.512 89.1824 407.583 89.5887 407.604 89.9991C407.713 91.0923 407.766 92.1904 407.764 93.2891C407.762 94.9173 407.658 96.5438 407.454 98.1591C407.234 99.9991 406.764 101.969 406.614 104.039C406.4 105.977 406.791 107.933 407.734 109.639C408.555 110.998 409.819 112.032 411.314 112.569C412.317 112.952 413.391 113.116 414.464 113.049C415.234 112.999 415.644 112.839 415.654 112.889Z" fill="#263238"/>
<path d="M393.523 70.5391C393.887 71.2238 394.057 71.9949 394.013 72.7691C394.048 74.664 393.332 76.4956 392.02 77.8635C390.708 79.2315 388.908 80.0244 387.013 80.0691C386.244 80.1428 385.47 80.0045 384.773 79.6691C384.773 79.5791 385.633 79.8191 386.993 79.6691C388.771 79.5483 390.44 78.7712 391.676 77.4886C392.913 76.2061 393.628 74.5097 393.683 72.7291C393.713 71.3991 393.433 70.5591 393.523 70.5391Z" fill="#455A64"/>
<path d="M394.904 81.5997C394.954 81.5997 394.834 82.2397 394.114 82.9397C393.635 83.3696 393.075 83.6983 392.467 83.9063C391.859 84.1142 391.215 84.197 390.574 84.1497C389.316 84.0375 388.105 83.6224 387.044 82.9397C386.234 82.4297 385.794 82.0397 385.834 81.9397C386.318 82.0922 386.781 82.3038 387.214 82.5697C388.269 83.1181 389.42 83.4576 390.604 83.5697C391.778 83.639 392.939 83.2841 393.874 82.5697C394.604 82.1097 394.844 81.5597 394.904 81.5997Z" fill="#455A64"/>
<path d="M417.554 78.7295C417.62 79.5903 417.56 80.4563 417.374 81.2995C417.091 83.3882 416.301 85.376 415.074 87.0895C414.433 87.9392 413.625 88.649 412.7 89.1752C411.775 89.7014 410.752 90.0329 409.694 90.1495C409.051 90.2074 408.403 90.1429 407.784 89.9595C407.354 89.8295 407.144 89.6995 407.154 89.6695C407.978 89.8171 408.819 89.854 409.654 89.7795C411.643 89.4566 413.433 88.3828 414.654 86.7795C415.825 85.1227 416.627 83.2333 417.004 81.2395C417.135 80.3923 417.319 79.554 417.554 78.7295V78.7295Z" fill="#455A64"/>
<path d="M419.274 83.2793C419.366 83.5364 419.416 83.8064 419.424 84.0793C419.491 84.8073 419.508 85.539 419.474 86.2693C419.421 88.73 418.54 91.1011 416.974 92.9993C416.089 94.043 414.938 94.8274 413.644 95.2693C412.582 95.6166 411.449 95.6855 410.354 95.4693C409.618 95.3288 408.92 95.0358 408.304 94.6093C407.884 94.2993 407.704 94.0693 407.724 94.0493C408.544 94.5713 409.457 94.9311 410.414 95.1093C411.446 95.2576 412.498 95.1582 413.484 94.8193C414.685 94.376 415.752 93.6324 416.584 92.6593C418.069 90.8314 418.953 88.589 419.114 86.2393C419.274 84.4293 419.184 83.2893 419.274 83.2793Z" fill="#455A64"/>
<path d="M287.463 204.149L269.313 245.659H294.303L312.103 203.819L287.463 204.149Z" fill="#455A64"/>
<path d="M274.263 160L294.733 200.26H359.293L356.683 195L337.983 194.44L322.733 160.5C322.27 159.466 321.518 158.588 320.566 157.972C319.615 157.356 318.506 157.029 317.373 157.03H276.083C275.729 157.017 275.378 157.099 275.066 157.266C274.754 157.434 274.492 157.681 274.306 157.983C274.121 158.285 274.02 158.631 274.012 158.986C274.005 159.34 274.091 159.69 274.263 160V160Z" fill="#E0E0E0"/>
<path d="M306.593 178.049C306.593 178.538 306.448 179.015 306.177 179.421C305.906 179.828 305.52 180.144 305.069 180.331C304.617 180.518 304.121 180.567 303.641 180.472C303.162 180.376 302.722 180.141 302.377 179.796C302.031 179.45 301.796 179.01 301.701 178.531C301.605 178.052 301.654 177.555 301.841 177.104C302.028 176.653 302.345 176.267 302.751 175.995C303.157 175.724 303.635 175.579 304.123 175.579C304.778 175.582 305.404 175.843 305.867 176.305C306.33 176.768 306.591 177.395 306.593 178.049V178.049Z" fill="#263238"/>
<path d="M366.173 200.34H287.253V204.19H366.173V200.34Z" fill="#455A64"/>
<path d="M341.863 202.27L365.873 245.7H377.353L379.853 240.73L382.153 235.5L366.173 204.19L341.863 202.27Z" fill="#455A64"/>
<path d="M383.584 127.81C383.584 127.81 369.644 132.72 366.644 148.32L381.364 155.66L383.584 127.81Z" fill="url(#paint10_linear)"/>
<path d="M383.584 127.81C383.584 127.81 373.834 149.67 374.204 161.61C374.334 165.76 377.054 176.61 377.054 176.61L382.124 203.47C382.124 203.47 420.934 198.22 421.794 198.22C422.654 198.22 420.494 176.17 420.494 176.17L426.824 133.8C426.824 133.8 423.924 128.03 410.824 126.03C402.974 124.8 383.584 127.81 383.584 127.81Z" fill="url(#paint11_linear)"/>
<path d="M379.903 140.5C379.993 140.55 378.973 142.18 377.743 145C377.03 146.651 376.429 148.348 375.943 150.08C375.359 152.202 374.935 154.365 374.673 156.55C374.443 158.739 374.373 160.941 374.463 163.14C374.554 164.935 374.765 166.723 375.093 168.49C375.653 171.49 376.293 173.33 376.193 173.36C375.984 172.962 375.816 172.543 375.693 172.11C375.515 171.615 375.361 171.111 375.233 170.6C375.073 170 374.863 169.33 374.723 168.6C374.348 166.82 374.101 165.015 373.983 163.2C373.864 160.972 373.92 158.739 374.153 156.52C374.419 154.304 374.864 152.114 375.483 149.97C375.997 148.227 376.642 146.526 377.413 144.88C377.694 144.241 378.008 143.617 378.353 143.01C378.592 142.54 378.856 142.082 379.143 141.64C379.357 141.235 379.612 140.853 379.903 140.5Z" fill="#263238"/>
<path d="M388.304 127.61L388.864 121.61C388.925 120.986 389.214 120.407 389.675 119.983C390.136 119.559 390.737 119.319 391.364 119.31L410.514 119.02C411.095 119.013 411.656 119.227 412.085 119.619C412.514 120.01 412.778 120.551 412.824 121.13L413.314 127.6C411.711 130.998 408.999 133.749 405.624 135.4C399.994 138.13 391.244 138.22 391.244 138.22L388.304 127.61Z" fill="url(#paint12_linear)"/>
<path d="M393.314 119.359C393.374 119.359 393.094 119.749 392.974 120.359C392.865 121.243 392.865 122.136 392.974 123.019C393.141 124.307 393.141 125.611 392.974 126.899C392.629 125.645 392.455 124.35 392.453 123.049C392.32 122.123 392.36 121.18 392.574 120.269C392.904 119.579 393.284 119.309 393.314 119.359Z" fill="#263238"/>
<path d="M397.903 126.78C397.569 125.555 397.407 124.29 397.423 123.02C397.349 122.121 397.349 121.218 397.423 120.32C397.523 119.6 397.813 119.23 397.873 119.32C397.933 119.41 397.783 119.74 397.793 120.4C397.803 121.06 397.903 122 397.903 123C398.072 124.254 398.072 125.526 397.903 126.78V126.78Z" fill="#263238"/>
<path d="M403.653 126.619C403.24 125.452 402.987 124.234 402.903 122.999C402.656 121.776 402.579 120.524 402.673 119.279C403.091 120.455 403.344 121.684 403.423 122.929C403.667 124.143 403.744 125.385 403.653 126.619V126.619Z" fill="#263238"/>
<path d="M408.614 126.999C408.157 125.714 407.914 124.363 407.894 122.999C407.702 121.64 407.735 120.258 407.994 118.909C408.255 120.227 408.396 121.566 408.414 122.909C408.608 124.263 408.675 125.633 408.614 126.999V126.999Z" fill="#263238"/>
<g opacity="0.3">
<path opacity="0.3" d="M412.413 149.909C411.643 156.639 412.153 168.239 414.533 174.589L425.713 156.119L412.413 149.909Z" fill="black"/>
</g>
<path d="M425.784 132.409L425.844 132.469C429.014 135.797 431.333 139.842 432.604 144.259L434.664 153.649L412.664 157.049C411.453 153.066 411.165 148.86 411.824 144.749C412.904 137.669 425.784 132.409 425.784 132.409Z" fill="url(#paint13_linear)"/>
<path d="M434.663 153.649C434.52 153.7 434.373 153.736 434.223 153.759L432.963 153.989L428.253 154.759L412.313 157.179H412.033V156.889C411.983 155.559 411.943 154.179 411.913 152.759C411.863 149.069 411.913 145.539 412.133 142.329C412.286 139.453 413.167 136.662 414.693 134.219C415.719 132.576 417.125 131.204 418.793 130.219C419.243 129.952 419.719 129.731 420.213 129.559C420.378 129.483 420.553 129.433 420.733 129.409C420.733 129.409 420.033 129.679 418.893 130.409C417.306 131.426 415.975 132.795 415.003 134.409C413.555 136.837 412.73 139.585 412.603 142.409C412.373 145.589 412.383 149.109 412.443 152.799C412.443 154.199 412.513 155.589 412.543 156.909L412.253 156.659L428.253 154.409L432.983 153.799L434.263 153.649C434.396 153.632 434.531 153.632 434.663 153.649V153.649Z" fill="#263238"/>
<path d="M388.194 139.859C387.074 139.207 386.045 138.411 385.134 137.49C384.106 136.697 383.191 135.768 382.414 134.729C384.56 136.174 386.504 137.899 388.194 139.859V139.859Z" fill="#FAFAFA"/>
<path d="M385.224 151.43C384.439 152.235 383.531 152.91 382.534 153.43C381.618 154.093 380.606 154.613 379.534 154.97C381.231 153.511 383.143 152.324 385.204 151.45L385.224 151.43Z" fill="#FAFAFA"/>
<path d="M397.494 154.28C397.316 152.859 397.316 151.421 397.494 150C397.501 148.571 397.675 147.148 398.014 145.76C398.188 147.178 398.188 148.612 398.014 150.03C398.01 151.462 397.835 152.889 397.494 154.28V154.28Z" fill="#FAFAFA"/>
<path d="M409.424 165.85C408.428 164.915 407.499 163.913 406.644 162.85C405.66 161.913 404.742 160.91 403.894 159.85C405.094 160.546 406.155 161.458 407.024 162.54C408.013 163.492 408.826 164.613 409.424 165.85Z" fill="#FAFAFA"/>
<path d="M411.103 141.659C410.245 142.552 409.266 143.319 408.193 143.939C407.212 144.695 406.132 145.314 404.983 145.779C405.844 144.885 406.827 144.117 407.903 143.499C408.884 142.747 409.96 142.129 411.103 141.659V141.659Z" fill="#FAFAFA"/>
<path d="M400.324 132.909C399.374 133.832 398.305 134.623 397.144 135.259C396.079 136.047 394.916 136.693 393.684 137.179C394.634 136.254 395.703 135.461 396.864 134.819C397.933 134.041 399.095 133.399 400.324 132.909V132.909Z" fill="#FAFAFA"/>
<path d="M410.043 136.389C409.388 135.421 408.876 134.364 408.523 133.249C408.031 132.19 407.695 131.065 407.523 129.909C408.187 130.876 408.699 131.938 409.043 133.059C409.541 134.113 409.879 135.235 410.043 136.389V136.389Z" fill="#FAFAFA"/>
<path d="M423.413 140.779C421.815 139.671 420.426 138.286 419.313 136.689C420.16 137.174 420.915 137.803 421.543 138.549C422.297 139.173 422.93 139.929 423.413 140.779V140.779Z" fill="#FAFAFA"/>
<path d="M417.903 150.53C417.586 149.542 417.44 148.507 417.473 147.47C417.324 146.446 417.355 145.403 417.563 144.39C418.023 146.402 418.138 148.478 417.903 150.53V150.53Z" fill="#FAFAFA"/>
<path d="M429.014 148.51C427.85 148.695 426.662 148.655 425.514 148.39C424.342 148.294 423.199 147.979 422.144 147.46C423.306 147.472 424.463 147.613 425.594 147.88C426.753 147.968 427.899 148.179 429.014 148.51Z" fill="#FAFAFA"/>
<path d="M384.213 168.66C383.398 167.531 382.726 166.305 382.213 165.01C381.543 163.788 381.026 162.488 380.673 161.14C381.489 162.269 382.161 163.495 382.673 164.79C383.345 166.011 383.863 167.311 384.213 168.66V168.66Z" fill="#FAFAFA"/>
<path d="M398.904 184.44C397.964 183.586 397.146 182.606 396.474 181.53C395.67 180.547 394.998 179.465 394.474 178.31C395.415 179.164 396.236 180.143 396.914 181.22C397.721 182.197 398.39 183.281 398.904 184.44V184.44Z" fill="#FAFAFA"/>
<path d="M411.043 177.819C410.014 178.49 408.897 179.015 407.723 179.379C406.611 179.904 405.429 180.265 404.213 180.449C406.352 179.25 408.653 178.364 411.043 177.819V177.819Z" fill="#FAFAFA"/>
<path d="M381.133 190.599C381.614 188.713 382.423 186.925 383.523 185.319C383.354 186.288 383.016 187.218 382.523 188.069C382.212 188.988 381.742 189.844 381.133 190.599Z" fill="#FAFAFA"/>
<path d="M371.724 145.41C371.146 144.677 370.798 143.79 370.724 142.86C370.488 141.959 370.53 141.007 370.844 140.13C371.049 140.997 371.183 141.88 371.244 142.77C371.475 143.635 371.635 144.518 371.724 145.41V145.41Z" fill="#FAFAFA"/>
<path d="M388.433 180.479C387.366 180.198 386.352 179.742 385.433 179.129C384.437 178.677 383.519 178.069 382.713 177.329C383.779 177.615 384.792 178.071 385.713 178.679C386.705 179.139 387.622 179.746 388.433 180.479Z" fill="#FAFAFA"/>
<path d="M398.083 163.819C396.443 165.783 394.539 167.51 392.423 168.949C393.182 167.914 394.077 166.986 395.083 166.189C395.971 165.266 396.98 164.469 398.083 163.819V163.819Z" fill="#FAFAFA"/>
<g opacity="0.3">
<path opacity="0.3" d="M392.173 163.51C392.658 166.996 394.213 170.245 396.623 172.81C399.123 175.25 402.993 176.48 406.243 175.21C406.598 175.112 406.925 174.93 407.195 174.68C407.464 174.429 407.67 174.117 407.793 173.77C407.848 173.343 407.754 172.911 407.526 172.546C407.298 172.182 406.951 171.907 406.543 171.77C405.733 171.509 404.884 171.388 404.033 171.41C401.608 171.251 399.264 170.474 397.224 169.155C395.183 167.835 393.513 166.016 392.373 163.87" fill="black"/>
</g>
<path d="M405.173 171.57C405.173 171.57 404.944 171.65 404.504 171.69C403.885 171.752 403.262 171.752 402.643 171.69C401.725 171.582 400.822 171.367 399.953 171.05C397.81 170.279 395.906 168.958 394.434 167.22C393.836 166.515 393.322 165.743 392.904 164.92C392.609 164.371 392.377 163.79 392.214 163.19C392.133 162.975 392.089 162.749 392.083 162.52C392.183 162.52 392.454 163.42 393.224 164.74C393.674 165.51 394.2 166.233 394.794 166.9C395.529 167.71 396.35 168.438 397.243 169.07C398.146 169.681 399.112 170.194 400.124 170.6C400.954 170.926 401.815 171.167 402.694 171.32C404.204 171.54 405.173 171.47 405.173 171.57Z" fill="#263238"/>
<path d="M350.123 187.689L364.603 185.999L374.813 192.689L413.813 183.329L414.733 156.609L432.063 154.329V186.679C431.966 190.606 430.316 194.335 427.474 197.048C424.632 199.76 420.831 201.235 416.903 201.149L359.743 199.559L357.313 194.699L345.043 194.329L350.123 187.689Z" fill="#FFBE9D"/>
<path d="M413.353 183.279C413.113 183.375 412.866 183.452 412.613 183.509L410.493 184.059L402.663 185.999L376.783 192.269L374.373 192.849H374.273H374.193L363.993 186.139H364.133L349.643 187.819L349.743 187.759L345.903 192.629L344.903 193.909C344.792 194.063 344.665 194.203 344.523 194.329C344.616 194.166 344.72 194.009 344.833 193.859L345.833 192.539L349.553 187.599H349.613L364.083 185.789H364.163H364.223L374.443 192.469H374.263L376.673 191.889L402.583 185.749L410.453 183.939L412.593 183.469C412.841 183.386 413.096 183.323 413.353 183.279Z" fill="#EB996E"/>
<path d="M358.034 191.84C356.165 192.059 354.283 192.132 352.404 192.06H351.404L351.544 192.01C350.412 193.05 349.191 193.987 347.894 194.81C348.925 193.672 350.048 192.622 351.254 191.67L351.314 191.61H352.424C354.297 191.533 356.173 191.61 358.034 191.84Z" fill="#EB996E"/>
<path d="M420.544 187.65C419.798 186.474 418.83 185.455 417.694 184.65C416.488 183.969 415.159 183.534 413.784 183.37C414.188 183.23 414.622 183.195 415.044 183.27C416.065 183.378 417.047 183.72 417.915 184.27C418.782 184.82 419.511 185.562 420.044 186.44C420.314 186.792 420.486 187.21 420.544 187.65V187.65Z" fill="#EB996E"/>
<path d="M170.453 401.271H105.153V410.241H170.453V401.271Z" fill="#263238"/>
<path d="M170.563 410.36H105.043V401.16H170.563V410.36ZM105.263 410.13H170.343V401.38H105.263V410.13Z" fill="#263238"/>
<path d="M111.213 407.26L120.603 453.63H155.383L164.473 410.25L111.213 407.26Z" fill="#263238"/>
<path d="M111.213 449.24L116.223 456.14H158.493L164.473 449.24H111.213Z" fill="#455A64"/>
<path d="M135.353 408.61C135.223 408.61 135.063 387.13 134.983 360.61C134.903 334.09 134.983 312.61 135.083 312.61C135.183 312.61 135.373 334.09 135.453 360.61C135.533 387.13 135.483 408.61 135.353 408.61Z" fill="#263238"/>
<path d="M149.903 354.851C149.86 355.023 149.799 355.19 149.723 355.351C149.573 355.721 149.373 356.181 149.143 356.741C149.013 357.051 148.873 357.381 148.713 357.741C148.553 358.101 148.433 358.531 148.283 358.961L147.773 360.361C147.603 360.861 147.463 361.361 147.293 361.961C146.517 364.587 145.906 367.258 145.463 369.961C144.961 373.275 144.628 376.613 144.463 379.961C144.227 386.052 144.401 392.152 144.983 398.221C145.193 400.561 145.403 402.441 145.563 403.741C145.623 404.351 145.683 404.851 145.723 405.241C145.737 405.417 145.737 405.594 145.723 405.771C145.66 405.603 145.62 405.428 145.603 405.251C145.533 404.861 145.453 404.371 145.353 403.771C145.143 402.471 144.873 400.591 144.623 398.261C143.943 392.179 143.726 386.055 143.973 379.941C144.122 376.575 144.455 373.22 144.973 369.891C145.436 367.183 146.084 364.51 146.913 361.891C147.093 361.331 147.243 360.791 147.423 360.301L147.963 358.901L148.443 357.691C148.603 357.321 148.763 357.001 148.903 356.691L149.573 355.331C149.657 355.154 149.769 354.992 149.903 354.851V354.851Z" fill="#263238"/>
<path d="M148.233 337.48C148.178 337.721 148.108 337.958 148.023 338.19C147.853 338.68 147.623 339.35 147.343 340.19L146.843 341.63C146.683 342.17 146.503 342.75 146.313 343.37C145.933 344.61 145.493 346.02 145.103 347.61L144.443 350.1C144.243 350.97 144.043 351.88 143.833 352.81C143.373 354.68 143.043 356.71 142.623 358.81C141.903 363.07 141.273 367.81 140.833 372.76C140.393 377.71 140.243 382.5 140.183 386.83C140.123 391.16 140.183 395.06 140.403 398.33C140.453 399.97 140.563 401.44 140.643 402.74C140.723 404.04 140.803 405.16 140.883 406.07C140.963 406.98 141.003 407.65 141.043 408.18C141.057 408.424 141.057 408.667 141.043 408.91C140.979 408.675 140.939 408.434 140.923 408.19C140.863 407.66 140.783 406.97 140.673 406.09C140.563 405.21 140.453 404.09 140.353 402.76C140.253 401.43 140.123 399.99 140.043 398.35C139.823 395.07 139.733 391.17 139.723 386.83C139.713 382.49 139.923 377.72 140.343 372.73C140.763 367.74 141.433 363.01 142.173 358.73C142.603 356.6 142.953 354.57 143.423 352.73C143.643 351.79 143.863 350.88 144.063 350.01L144.753 347.53C145.163 345.94 145.633 344.53 146.043 343.29C146.243 342.67 146.433 342.1 146.603 341.56C146.773 341.02 146.973 340.56 147.143 340.13L147.903 338.13C147.989 337.902 148.099 337.684 148.233 337.48V337.48Z" fill="#263238"/>
<path d="M131.223 412.411C131.213 412.328 131.213 412.244 131.223 412.161C131.223 411.971 131.223 411.731 131.163 411.421C131.113 410.741 131.053 409.791 130.973 408.581C130.813 406.071 130.593 402.511 130.313 398.111C129.753 389.281 128.933 377.111 127.443 363.661C126.683 356.941 125.803 350.571 124.883 344.791C124.403 341.911 123.963 339.171 123.453 336.611C122.943 334.051 122.453 331.681 122.053 329.511C121.653 327.341 121.143 325.401 120.753 323.691C120.363 321.981 120.013 320.501 119.753 319.301C119.493 318.101 119.243 317.201 119.073 316.531C119.013 316.241 118.953 316.001 118.913 315.811C118.898 315.728 118.898 315.643 118.913 315.561C118.955 315.636 118.985 315.717 119.003 315.801L119.203 316.511C119.393 317.171 119.643 318.091 119.973 319.261C120.303 320.431 120.693 321.911 121.103 323.631C121.513 325.351 122.013 327.281 122.463 329.451C122.913 331.621 123.463 333.981 123.923 336.541C124.383 339.101 124.923 341.841 125.403 344.731C126.343 350.511 127.233 356.891 127.993 363.601C129.483 377.041 130.253 389.251 130.733 398.091C130.973 402.521 131.143 406.091 131.243 408.571C131.243 409.781 131.323 410.731 131.343 411.421C131.343 411.721 131.343 411.971 131.343 412.161C131.316 412.249 131.276 412.334 131.223 412.411V412.411Z" fill="#263238"/>
<path d="M134.823 323C134.533 320 131.463 317.66 128.403 317.63C126.873 317.697 125.377 318.112 124.031 318.843C122.685 319.575 121.523 320.603 120.633 321.85C118.873 324.36 117.601 327.179 116.883 330.16C114.823 337.33 113.703 344.86 114.583 352.27C115.463 359.68 118.463 366.97 123.783 372.2C124.643 373.06 125.783 373.91 126.953 373.65C127.586 373.465 128.161 373.121 128.623 372.65C133.83 367.882 137.957 362.056 140.727 355.563C143.497 349.069 144.846 342.058 144.683 335C144.603 332.19 144.233 329.25 142.683 326.91C141.133 324.57 137.483 322.07 134.833 323.01" fill="url(#paint14_linear)"/>
<path d="M111.993 298.6L107.693 306.4C107.593 306.58 107.463 306.79 107.253 306.8C107.043 306.81 106.853 306.61 106.733 306.42L95.353 289L97.973 287.51L111.993 298.6Z" fill="url(#paint15_linear)"/>
<g opacity="0.2">
<path opacity="0.2" d="M111.993 298.6L107.693 306.4C107.593 306.58 107.463 306.79 107.253 306.8C107.043 306.81 106.853 306.61 106.733 306.42L95.353 289L97.973 287.51L111.993 298.6Z" fill="black"/>
</g>
<path d="M135.083 312.65L96.2635 289.74C96.0425 289.655 95.8404 289.528 95.6688 289.365C95.4973 289.202 95.3595 289.006 95.2635 288.79C95.1135 288.22 95.5435 287.66 95.9535 287.23C98.6246 284.462 101.86 282.301 105.441 280.895C109.021 279.489 112.862 278.87 116.703 279.08C120.543 279.356 124.257 280.563 127.526 282.596C130.794 284.63 133.519 287.428 135.463 290.75C139.203 297.44 139.333 306.3 135.033 312.65" fill="url(#paint16_linear)"/>
<path d="M101.903 282.431C102.069 282.385 102.241 282.364 102.413 282.371C102.743 282.371 103.243 282.291 103.883 282.301C105.686 282.276 107.487 282.417 109.263 282.721C111.91 283.174 114.49 283.957 116.943 285.051C121.177 286.955 124.937 289.773 127.954 293.302C130.971 296.83 133.17 300.982 134.393 305.461C134.894 307.198 135.229 308.98 135.393 310.781C135.473 311.411 135.453 311.911 135.473 312.251C135.491 312.42 135.491 312.591 135.473 312.761C135.473 312.761 135.383 312.061 135.223 310.761C135.002 308.984 134.637 307.228 134.133 305.511C132.505 299.81 129.312 294.681 124.916 290.704C120.52 286.727 115.098 284.061 109.263 283.011C107.505 282.676 105.723 282.486 103.933 282.441C102.563 282.451 101.903 282.471 101.903 282.431Z" fill="#263238"/>
<path d="M129.823 296.84C129.197 297.221 128.525 297.52 127.823 297.73C126.583 298.22 124.823 298.84 122.923 299.46C121.023 300.08 119.223 300.56 117.923 300.88C117.233 301.091 116.522 301.225 115.803 301.28C116.443 300.971 117.113 300.729 117.803 300.56L122.743 299.01L127.673 297.42C128.369 297.156 129.089 296.962 129.823 296.84V296.84Z" fill="#263238"/>
<path d="M123.713 280.42C124.061 281.836 124.215 283.292 124.173 284.75C124.287 286.204 124.207 287.667 123.933 289.1C123.746 287.661 123.672 286.21 123.713 284.76C123.599 283.316 123.599 281.864 123.713 280.42Z" fill="#263238"/>
<path d="M95.9033 289.31C96.8116 288.893 97.7553 288.559 98.7233 288.31C100.483 287.76 102.943 287.07 105.723 286.41C108.503 285.75 110.963 285.25 112.723 284.93C113.71 284.71 114.714 284.576 115.723 284.53C114.774 284.835 113.805 285.076 112.823 285.25C111.023 285.65 108.543 286.25 105.823 286.87C103.103 287.49 100.633 288.16 98.8233 288.62C97.8663 288.915 96.8909 289.145 95.9033 289.31Z" fill="#263238"/>
<path d="M117.183 315.78C113.843 313.25 110.313 312.78 106.123 312.91C101.933 313.177 97.8288 314.225 94.0233 316C87.4733 318.86 81.3233 323.09 77.4133 329.07C73.5033 335.05 72.1333 342.97 75.0633 349.49C75.2938 350.172 75.7672 350.745 76.3933 351.1C77.1205 351.303 77.896 351.243 78.5833 350.93C86.0333 348.5 93.5233 346.05 100.373 342.25C107.223 338.45 113.453 333.16 117.123 326.25C118.063 324.637 118.668 322.852 118.903 321C119.003 320.063 118.903 319.116 118.608 318.221C118.313 317.326 117.831 316.504 117.193 315.81" fill="url(#paint17_linear)"/>
<path d="M117.243 315C117.076 315.095 116.898 315.169 116.713 315.22L115.153 315.76L114.023 316.13C113.613 316.28 113.173 316.46 112.703 316.65C111.763 317.03 110.703 317.41 109.513 317.97L107.693 318.8C107.053 319.09 106.423 319.45 105.753 319.8C104.403 320.46 103.043 321.31 101.583 322.17C95.3474 326.036 89.7982 330.912 85.1633 336.6C84.1633 337.93 83.1133 339.18 82.2833 340.44C81.8533 341.06 81.4233 341.64 81.0433 342.23L80.0433 343.93C79.3433 345 78.8233 346.04 78.3233 346.93C78.0833 347.37 77.8433 347.78 77.6433 348.17C77.4433 348.56 77.2833 348.91 77.1333 349.24L76.3933 350.72C76.3236 350.899 76.2293 351.067 76.1133 351.22C76.162 351.034 76.229 350.853 76.3133 350.68L76.9633 349.16C77.1133 348.83 77.2733 348.47 77.4433 348.07C77.6133 347.67 77.8633 347.26 78.0933 346.81C78.5733 345.9 79.0933 344.81 79.7533 343.76C80.0933 343.21 80.4333 342.63 80.7533 342.03C81.0733 341.43 81.5533 340.85 81.9733 340.22C82.7933 338.94 83.8033 337.68 84.8333 336.33C87.1639 333.465 89.7186 330.79 92.4733 328.33C95.2586 325.91 98.235 323.72 101.373 321.78C102.843 320.92 104.223 320.08 105.583 319.43C106.263 319.09 106.903 318.74 107.583 318.43L109.433 317.63C110.603 317.08 111.703 316.72 112.663 316.36C113.143 316.19 113.583 316.02 114.003 315.88L115.143 315.54L116.733 315.09C116.901 315.047 117.071 315.017 117.243 315V315Z" fill="#263238"/>
<path d="M91.1632 329.12C88.5045 330.133 85.7941 331.004 83.0432 331.73C80.3337 332.611 77.5758 333.336 74.7832 333.9C77.4419 332.887 80.1523 332.016 82.9032 331.29C85.6143 330.415 88.3719 329.69 91.1632 329.12V329.12Z" fill="#263238"/>
<path d="M90.8233 347C90.6869 346.164 90.6267 345.318 90.6433 344.47C90.6433 342.91 90.6433 340.74 90.6433 338.36C90.6433 335.98 90.8433 333.81 90.9733 332.25C90.9937 331.402 91.1009 330.557 91.2933 329.73C91.3606 330.576 91.3606 331.425 91.2933 332.27C91.2333 333.98 91.1733 336.06 91.1033 338.37C91.0333 340.68 90.9933 342.76 90.9433 344.47C90.9808 345.316 90.9406 346.163 90.8233 347V347Z" fill="#263238"/>
<path d="M106.183 339.221C106.053 339.221 105.643 334.831 105.273 329.401C104.903 323.971 104.693 319.561 104.823 319.561C104.953 319.561 105.353 323.941 105.733 329.371C106.113 334.801 106.313 339.211 106.183 339.221Z" fill="#263238"/>
<path d="M87.0732 319.13C87.9354 319.021 88.806 318.994 89.6732 319.05C91.2732 319.05 93.4932 319.11 95.9432 319.19C98.3932 319.27 100.603 319.37 102.203 319.46C103.072 319.471 103.938 319.555 104.793 319.71C103.931 319.819 103.06 319.845 102.193 319.79C100.593 319.79 98.3732 319.74 95.9232 319.65C93.4732 319.56 91.2632 319.47 89.6532 319.38C88.7877 319.37 87.9246 319.286 87.0732 319.13V319.13Z" fill="#263238"/>
<path d="M125.453 374.281C125.409 374.104 125.389 373.922 125.393 373.741C125.393 373.351 125.393 372.841 125.323 372.221C125.263 370.891 125.253 368.981 125.323 366.601C125.393 364.221 125.523 361.411 125.803 358.291C126.083 355.171 126.543 351.741 127.173 348.171C127.803 344.601 128.583 341.251 129.373 338.171C130.163 335.091 131.023 332.441 131.803 330.171C132.583 327.901 133.243 326.171 133.803 324.911C134.043 324.331 134.233 323.911 134.393 323.501C134.455 323.334 134.532 323.173 134.623 323.021C134.601 323.198 134.551 323.37 134.473 323.531L133.903 325.001C133.443 326.241 132.813 328.001 132.083 330.301C131.353 332.601 130.553 335.301 129.763 338.301C128.973 341.301 128.233 344.681 127.593 348.241C126.953 351.801 126.523 355.241 126.203 358.311C125.883 361.381 125.703 364.231 125.623 366.591C125.543 368.951 125.493 370.871 125.493 372.201C125.493 372.821 125.493 373.321 125.493 373.721C125.493 373.908 125.48 374.095 125.453 374.281V374.281Z" fill="#263238"/>
<path d="M127.493 347.79C127.039 348.411 126.52 348.981 125.943 349.49C124.943 350.49 123.513 351.83 121.893 353.26C120.273 354.69 118.743 355.92 117.613 356.79C117.035 357.293 116.405 357.732 115.733 358.1C116.242 357.525 116.805 356.999 117.413 356.53L121.583 352.91L125.723 349.25C126.266 348.708 126.858 348.219 127.493 347.79V347.79Z" fill="#263238"/>
<path d="M139.783 357.68C139.175 356.964 138.624 356.201 138.133 355.4L134.303 349.8L130.383 344.26C129.802 343.52 129.277 342.738 128.813 341.92C129.49 342.573 130.103 343.29 130.643 344.06C131.723 345.43 133.163 347.35 134.643 349.54C136.123 351.73 137.463 353.74 138.373 355.22C138.919 355.994 139.391 356.818 139.783 357.68V357.68Z" fill="#263238"/>
<path d="M133.343 326.55C133.413 326.66 129.343 329.41 124.233 332.69C119.123 335.97 114.933 338.55 114.863 338.44C114.793 338.33 118.863 335.58 123.983 332.3C129.103 329.02 133.283 326.45 133.343 326.55Z" fill="#263238"/>
<path d="M144.903 339C142.748 337.206 140.689 335.3 138.733 333.29C136.674 331.399 134.721 329.396 132.883 327.29C135.046 329.079 137.109 330.985 139.063 333C141.124 334.886 143.074 336.889 144.903 339V339Z" fill="#263238"/>
<path d="M147.753 338.73L151.253 338.44C153.742 338.236 156.158 337.496 158.333 336.27C159.398 335.649 160.5 335.095 161.633 334.61C165.963 332.88 170.803 333.19 175.463 332.95C183.099 332.565 190.579 330.654 197.463 327.33C197.877 327.147 198.225 326.844 198.463 326.46C199.183 325.15 197.843 323.98 196.693 323.27C190.783 319.63 184.773 315.95 178.083 314.14C171.393 312.33 163.783 312.64 158.083 316.57C151.383 321.19 148.933 330.67 147.803 338.73" fill="url(#paint18_linear)"/>
<path d="M198.493 326C198.291 325.918 198.095 325.824 197.903 325.72L196.243 324.85C194.803 324.09 192.733 322.97 190.103 321.72C187.057 320.216 183.881 318.991 180.613 318.06C176.617 316.911 172.432 316.571 168.303 317.06C164.168 317.52 160.263 319.198 157.083 321.88C154.599 324.188 152.612 326.978 151.243 330.08C150.013 332.71 149.243 334.95 148.703 336.47L148.073 338.24C148.011 338.45 147.931 338.654 147.833 338.85C147.862 338.633 147.912 338.418 147.983 338.21C148.123 337.76 148.303 337.16 148.523 336.42C149.19 334.236 149.985 332.092 150.903 330C152.251 326.826 154.247 323.968 156.763 321.61C159.988 318.833 163.974 317.09 168.203 316.61C172.388 316.104 176.632 316.444 180.683 317.61C183.969 318.575 187.159 319.84 190.213 321.39C192.823 322.69 194.873 323.85 196.293 324.66L197.913 325.61C198.122 325.715 198.317 325.846 198.493 326Z" fill="#263238"/>
<path d="M190.083 330.55C190.013 330.65 185.423 327.69 179.843 323.93C174.263 320.17 169.793 317.03 169.843 316.93C169.893 316.83 174.493 319.79 180.073 323.55C185.653 327.31 190.153 330.44 190.083 330.55Z" fill="#263238"/>
<path d="M185.683 316.48C183.348 317.214 180.883 317.442 178.453 317.15C179.642 316.903 180.85 316.762 182.063 316.73C183.26 316.542 184.472 316.459 185.683 316.48V316.48Z" fill="#263238"/>
<path d="M165.133 312.8C164.259 314.87 163.112 316.813 161.723 318.58C162.081 317.515 162.586 316.505 163.223 315.58C163.725 314.567 164.368 313.631 165.133 312.8V312.8Z" fill="#263238"/>
<path d="M169.233 333.251C168.46 332.928 167.723 332.526 167.033 332.051C165.703 331.251 163.913 330.051 162.033 328.681C160.153 327.311 158.443 325.981 157.223 325.021C156.54 324.538 155.904 323.992 155.323 323.391C156.066 323.778 156.77 324.236 157.423 324.761L162.313 328.311C164.213 329.691 165.963 330.901 167.243 331.781C167.948 332.212 168.614 332.704 169.233 333.251V333.251Z" fill="#263238"/>
<path d="M152.903 353.621C149.563 352.731 145.573 355.981 144.903 359.371C144.233 362.761 145.493 366.221 146.973 369.371C150.158 376.365 154.883 382.549 160.793 387.461C166.755 392.35 174.194 395.081 181.903 395.211C180.493 388.651 182.273 381.791 181.493 375.121C180.797 369.246 178.128 363.781 173.923 359.619C169.717 355.458 164.225 352.846 158.343 352.211C156.213 351.981 153.743 351.651 152.893 353.621" fill="url(#paint19_linear)"/>
<path d="M181.903 395.21C181.736 395.154 181.575 395.081 181.423 394.99C180.985 394.743 180.567 394.462 180.173 394.15C178.773 392.931 177.648 391.427 176.873 389.74C176.343 388.74 175.743 387.58 175.163 386.33C174.583 385.08 174.003 383.76 173.363 382.33C172.722 380.866 171.983 379.446 171.153 378.08C170.263 376.624 169.26 375.239 168.153 373.94C165.873 371.26 163.413 368.94 161.283 366.71C159.357 364.769 157.604 362.665 156.043 360.42C154.997 358.898 154.138 357.256 153.483 355.53C153.273 354.92 153.113 354.43 153.033 354.1C152.978 353.935 152.944 353.763 152.933 353.59C152.933 353.59 153.163 354.27 153.653 355.47C154.366 357.151 155.258 358.75 156.313 360.24C157.904 362.435 159.67 364.499 161.593 366.41C163.733 368.61 166.203 370.93 168.513 373.64C169.645 374.957 170.672 376.361 171.583 377.84C172.41 379.228 173.148 380.668 173.793 382.15L175.553 386.15C176.113 387.39 176.693 388.53 177.213 389.56C177.943 391.232 179.004 392.739 180.333 393.99C181.293 394.85 181.953 395.17 181.903 395.21Z" fill="#263238"/>
<path d="M164.633 389.76C164.653 389.001 164.757 388.247 164.943 387.51C165.203 386.13 165.633 384.24 166.213 382.18C166.793 380.12 167.413 378.29 167.913 376.98C168.132 376.253 168.438 375.555 168.823 374.9C168.688 375.643 168.487 376.373 168.223 377.08C167.803 378.42 167.223 380.26 166.663 382.31C166.103 384.36 165.663 386.22 165.263 387.58C165.125 388.326 164.914 389.056 164.633 389.76V389.76Z" fill="#263238"/>
<path d="M181.293 373.65C180.493 373.532 179.703 373.348 178.933 373.1C177.493 372.73 175.503 372.21 173.293 371.71C171.083 371.21 169.063 370.83 167.603 370.55C166.803 370.447 166.013 370.273 165.243 370.03C166.051 370.009 166.859 370.077 167.653 370.23C169.133 370.42 171.173 370.76 173.393 371.23C175.613 371.7 177.603 372.3 179.023 372.76C179.809 372.977 180.569 373.275 181.293 373.65V373.65Z" fill="#263238"/>
<path d="M152.233 378.33C152.271 377.45 152.392 376.577 152.593 375.72C152.893 374.13 153.353 371.93 153.983 369.54C154.613 367.15 155.273 365 155.793 363.46C156.05 362.614 156.385 361.794 156.793 361.01C156.648 361.875 156.434 362.728 156.153 363.56C155.713 365.12 155.093 367.27 154.473 369.65C153.853 372.03 153.333 374.22 152.963 375.79C152.793 376.656 152.549 377.505 152.233 378.33V378.33Z" fill="#263238"/>
<path d="M173.623 359.611C173.623 359.731 169.433 359.401 164.303 358.851C159.173 358.301 155.013 357.761 155.033 357.641C158.151 357.73 161.262 357.981 164.353 358.391C167.462 358.639 170.556 359.046 173.623 359.611V359.611Z" fill="#263238"/>
<path d="M170.563 410.21C170.563 410.34 155.893 410.44 137.803 410.44C119.713 410.44 105.043 410.34 105.043 410.21C105.043 410.08 119.713 409.98 137.803 409.98C155.893 409.98 170.563 410.08 170.563 410.21Z" fill="#455A64"/>
<path d="M160.363 429.081C160.363 429.211 150.473 429.321 138.283 429.321C126.093 429.321 116.213 429.211 116.213 429.081C116.213 428.951 126.093 428.851 138.283 428.851C150.473 428.851 160.363 429.001 160.363 429.081Z" fill="#455A64"/>
<path d="M160.743 431.78C160.743 431.91 150.863 432.01 138.673 432.01C126.483 432.01 116.603 431.91 116.603 431.78C116.603 431.65 126.483 431.55 138.673 431.55C150.863 431.55 160.743 431.65 160.743 431.78Z" fill="#455A64"/>
<path d="M160.743 426.86C160.743 426.99 150.523 427.09 137.913 427.09C125.303 427.09 115.083 426.99 115.083 426.86C115.083 426.73 125.303 426.63 137.913 426.63C150.523 426.63 160.743 426.73 160.743 426.86Z" fill="#455A64"/>
<defs>
<linearGradient id="paint0_linear" x1="568.668" y1="54.6689" x2="568.668" y2="81.6394" gradientUnits="userSpaceOnUse">
<stop stop-color="#C7EE91"/>
<stop offset="1" stop-color="#AEBDFC"/>
</linearGradient>
<linearGradient id="paint1_linear" x1="490.535" y1="122.277" x2="643.03" y2="274.772" gradientUnits="userSpaceOnUse">
<stop stop-color="#C7EE91"/>
<stop offset="1" stop-color="#AEBDFC"/>
</linearGradient>
<linearGradient id="paint2_linear" x1="581.268" y1="135.109" x2="581.268" y2="200.709" gradientUnits="userSpaceOnUse">
<stop stop-color="#C7EE91"/>
<stop offset="1" stop-color="#AEBDFC"/>
</linearGradient>
<linearGradient id="paint3_linear" x1="365.298" y1="245.55" x2="365.298" y2="303.58" gradientUnits="userSpaceOnUse">
<stop stop-color="#C7EE91"/>
<stop offset="1" stop-color="#AEBDFC"/>
</linearGradient>
<linearGradient id="paint4_linear" x1="314.218" y1="345.028" x2="314.218" y2="377.62" gradientUnits="userSpaceOnUse">
<stop stop-color="#C7EE91"/>
<stop offset="1" stop-color="#AEBDFC"/>
</linearGradient>
<linearGradient id="paint5_linear" x1="343.458" y1="419.318" x2="343.458" y2="455.83" gradientUnits="userSpaceOnUse">
<stop stop-color="#C7EE91"/>
<stop offset="1" stop-color="#AEBDFC"/>
</linearGradient>
<linearGradient id="paint6_linear" x1="343.428" y1="421.71" x2="343.428" y2="455.82" gradientUnits="userSpaceOnUse">
<stop stop-color="#C7EE91"/>
<stop offset="1" stop-color="#AEBDFC"/>
</linearGradient>
<linearGradient id="paint7_linear" x1="254.503" y1="407.26" x2="254.503" y2="452" gradientUnits="userSpaceOnUse">
<stop stop-color="#C7EE91"/>
<stop offset="1" stop-color="#AEBDFC"/>
</linearGradient>
<linearGradient id="paint8_linear" x1="480.783" y1="245.71" x2="480.783" y2="260.82" gradientUnits="userSpaceOnUse">
<stop stop-color="#C7EE91"/>
<stop offset="1" stop-color="#AEBDFC"/>
</linearGradient>
<linearGradient id="paint9_linear" x1="395.8" y1="326.43" x2="395.8" y2="372.76" gradientUnits="userSpaceOnUse">
<stop stop-color="#C7EE91"/>
<stop offset="1" stop-color="#AEBDFC"/>
</linearGradient>
<linearGradient id="paint10_linear" x1="375.114" y1="127.81" x2="375.114" y2="155.66" gradientUnits="userSpaceOnUse">
<stop stop-color="#C7EE91"/>
<stop offset="1" stop-color="#AEBDFC"/>
</linearGradient>
<linearGradient id="paint11_linear" x1="400.509" y1="125.734" x2="400.509" y2="203.47" gradientUnits="userSpaceOnUse">
<stop stop-color="#C7EE91"/>
<stop offset="1" stop-color="#AEBDFC"/>
</linearGradient>
<linearGradient id="paint12_linear" x1="400.809" y1="119.02" x2="400.809" y2="138.22" gradientUnits="userSpaceOnUse">
<stop stop-color="#C7EE91"/>
<stop offset="1" stop-color="#AEBDFC"/>
</linearGradient>
<linearGradient id="paint13_linear" x1="423.071" y1="132.409" x2="423.071" y2="157.049" gradientUnits="userSpaceOnUse">
<stop stop-color="#C7EE91"/>
<stop offset="1" stop-color="#AEBDFC"/>
</linearGradient>
<linearGradient id="paint14_linear" x1="129.488" y1="317.63" x2="129.488" y2="373.697" gradientUnits="userSpaceOnUse">
<stop stop-color="#C7EE91"/>
<stop offset="1" stop-color="#AEBDFC"/>
</linearGradient>
<linearGradient id="paint15_linear" x1="103.673" y1="287.51" x2="103.673" y2="306.8" gradientUnits="userSpaceOnUse">
<stop stop-color="#C7EE91"/>
<stop offset="1" stop-color="#AEBDFC"/>
</linearGradient>
<linearGradient id="paint16_linear" x1="116.749" y1="279.04" x2="116.749" y2="312.65" gradientUnits="userSpaceOnUse">
<stop stop-color="#C7EE91"/>
<stop offset="1" stop-color="#AEBDFC"/>
</linearGradient>
<linearGradient id="paint17_linear" x1="96.2143" y1="312.891" x2="96.2143" y2="351.218" gradientUnits="userSpaceOnUse">
<stop stop-color="#C7EE91"/>
<stop offset="1" stop-color="#AEBDFC"/>
</linearGradient>
<linearGradient id="paint18_linear" x1="173.21" y1="313.077" x2="173.21" y2="338.73" gradientUnits="userSpaceOnUse">
<stop stop-color="#C7EE91"/>
<stop offset="1" stop-color="#AEBDFC"/>
</linearGradient>
<linearGradient id="paint19_linear" x1="163.311" y1="352.035" x2="163.311" y2="395.211" gradientUnits="userSpaceOnUse">
<stop stop-color="#C7EE91"/>
<stop offset="1" stop-color="#AEBDFC"/>
</linearGradient>
</defs>
</svg>
